<svg xmlns:xlink="http://www.w3.org/1999/xlink" xmlns="http://www.w3.org/2000/svg" fill="#00112C" viewBox="0 0 160 70" width="160"  height="70" ><script xmlns="" id="eppiocemhmnlbhjplcgkofciiegomcon"/><script xmlns="" id="kEKEVZoP_Mh0Y1pVKEReySJ90M" type="text/javascript"/><script xmlns=""/><script xmlns=""/><script xmlns="" src="chrome-extension://hoklmmgfnpapgjgcpechhaamimifchmp/frame_ant/frame_ant.js"/><g clip-path="url(#a)"><path d="M85.309 15.275c5.999-.02 10.855 4.777 10.861 10.654.006 5.886-4.879 10.587-10.686 10.665-6.133.084-11.038-4.793-11.03-10.655.007-5.902 4.852-10.672 10.855-10.664M54.124 58.986c-.856.058-1.783-.067-2.692-.298-.984-.253-1.912-.637-2.57-1.455-1.029-1.28-.797-2.987.527-3.98.692-.518 1.465-.864 2.297-1.098.075-.021.136-.086.203-.132-.04-.052-.07-.118-.122-.15-1.353-.88-1.367-2.69-.025-3.577q.414-.274-.028-.498c-1.095-.55-1.899-1.363-2.322-2.511-.215-.584-.27-1.193-.214-1.806.167-1.85 1.227-3.064 2.885-3.818 1.248-.566 2.566-.68 3.899-.386.51.113 1.009.132 1.519.133 1.267.003 2.534 0 3.802 0 .341 0 .387.042.388.368q.002.627 0 1.253c0 .263-.052.312-.317.313-.543 0-1.086-.004-1.63 0-.103 0-.209.035-.312.055.032.096.05.202.1.288 1.208 2.035.534 4.62-1.529 5.851-.957.571-1.99.874-3.11.871q-.556 0-1.108-.024c-.17-.009-.282.044-.371.188a1.6 1.6 0 0 0-.228 1.111c.051.342.435.632.916.684.57.06 1.142.106 1.713.16.907.087 1.819.147 2.721.272.805.112 1.585.337 2.253.83.712.527 1.095 1.224 1.178 2.101.123 1.303-.394 2.336-1.34 3.196-.792.723-1.73 1.192-2.754 1.52-1.184.381-2.394.578-3.729.538zm.218-1.76c.49-.053.983-.1 1.472-.162.89-.117 1.74-.368 2.495-.855.609-.391 1.087-.89 1.133-1.666.034-.556-.15-.998-.648-1.295-.581-.346-1.236-.45-1.89-.516-.891-.09-1.793-.099-2.68-.214a1.83 1.83 0 0 0-1.141.207c-.662.343-1.328.673-1.832 1.242a1.84 1.84 0 0 0-.479 1.11c-.054.764.362 1.392 1.1 1.697.789.324 1.62.425 2.473.452zm.366-10.618c.26-.043.637-.06.985-.17 1.113-.349 1.99-1.04 2.062-2.488.054-1.08-.342-1.957-1.336-2.495-.872-.472-1.8-.538-2.764-.317-1.152.265-1.897.916-2.12 2.086-.198 1.05.13 2.196 1.096 2.814.6.383 1.268.518 2.076.57zM100.212 10.004c3.236-.128 5.92 2.643 5.908 5.763-.013 3.222-2.698 5.82-5.926 5.81-3.202-.01-5.905-2.545-5.908-5.827-.003-3.164 2.69-5.87 5.926-5.746M46.05 48.455v4.178c0 .252-.063.324-.314.326-.662.004-1.324 0-1.984.002-.194 0-.294-.089-.29-.281.005-.347.015-.696.017-1.044 0-.063-.03-.125-.045-.188-.06.027-.136.04-.178.084-.832.837-1.857 1.326-3.004 1.557-1.256.254-2.497.229-3.622-.485-.74-.47-1.223-1.133-1.475-1.973-.197-.657-.183-1.33-.082-1.975.145-.932.692-1.661 1.503-2.184a5.2 5.2 0 0 1 2.406-.821c1.348-.11 2.7-.152 4.051-.215.335-.016.367-.036.37-.358.006-.573.002-1.144-.153-1.703-.303-1.08-.98-1.896-2.295-2.068-1.434-.189-2.782.111-4.063.749-.21.105-.315.078-.392-.144-.118-.343-.22-.69-.33-1.036-.016-.052-.026-.105-.045-.157-.157-.42-.157-.433.257-.639 1.67-.83 3.441-1.1 5.293-.868 1.157.145 2.157.609 2.952 1.456.605.644.964 1.412 1.186 2.26.218.836.24 1.68.237 2.532-.005.998 0 1.996 0 2.993h.003zm-2.648-.019v-.952c0-.301-.034-.346-.338-.327-.628.039-1.256.073-1.881.142-.787.088-1.588.122-2.337.41-.501.193-.94.463-1.166.983-.17.386-.153.78-.114 1.183.044.442.252.797.614 1.052.534.376 1.155.437 1.783.386 1.294-.103 2.38-.654 3.284-1.558a.6.6 0 0 0 .149-.368c.02-.316.007-.635.007-.95zM107.502 50.209c.062-.171.13-.34.185-.513q.489-1.51.97-3.022c.25-.78.494-1.562.745-2.341.317-.985.64-1.969.957-2.955q.248-.771.48-1.55c.107-.355.181-.418.564-.418h1.937c.296 0 .331.077.226.354-.216.572-.415 1.149-.621 1.723q-.388 1.08-.778 2.16a1802 1802 0 0 0-1.556 4.318l-.778 2.16q-.476 1.305-.948 2.615c-.254.705-.501 1.413-.755 2.12-.262.726-.529 1.45-.792 2.177-.165.458-.336.915-.485 1.377-.067.21-.178.306-.405.303-.652-.007-1.307 0-1.96-.003-.277 0-.302-.045-.213-.294.397-1.106.79-2.214 1.188-3.32.214-.596.448-1.187.644-1.789a.9.9 0 0 0-.012-.535c-.247-.717-.521-1.423-.786-2.132q-.41-1.098-.816-2.195c-.256-.697-.506-1.396-.761-2.092-.25-.682-.507-1.362-.758-2.044-.268-.726-.529-1.453-.798-2.178q-.447-1.208-.906-2.41c-.084-.225-.043-.312.196-.314.716-.004 1.433 0 2.149-.003.229 0 .317.151.374.325q.64 1.947 1.272 3.898c.353 1.094.701 2.192 1.053 3.286q.494 1.532.996 3.062c.027.082.078.157.117.234l.076-.006zM78.155 39.41c.338 0 .677.006 1.015-.002.19-.004.317.066.376.247q.262.781.522 1.562.556 1.684 1.104 3.37c.354 1.087.698 2.176 1.052 3.263.212.653.434 1.305.648 1.957.03.088.028.185.062.27.019.047.084.108.128.106.044 0 .11-.063.126-.11.197-.626.38-1.255.578-1.881.301-.95.61-1.898.916-2.847.218-.676.43-1.355.647-2.032q.314-.981.631-1.964c.168-.522.343-1.042.504-1.567.092-.302.172-.374.5-.374h1.983c.295 0 .329.058.23.333-.4 1.114-.79 2.23-1.193 3.341-.395 1.099-.803 2.193-1.199 3.29-.356.99-.704 1.982-1.06 2.971-.307.852-.622 1.699-.929 2.55-.356.99-.704 1.981-1.06 2.97-.303.836-.614 1.669-.92 2.504q-.177.492-.34.987c-.096.297-.175.359-.487.359h-1.866c-.315 0-.341-.052-.236-.335.26-.695.508-1.395.76-2.093l.92-2.553c.065-.182.188-.363.187-.544-.004-.244-.08-.495-.166-.73a348 348 0 0 0-1.241-3.373c-.304-.819-.618-1.635-.922-2.454s-.599-1.64-.901-2.46q-.538-1.458-1.08-2.915-.294-.782-.585-1.563c-.067-.181.006-.28.21-.283.362-.006.725 0 1.087 0zM94.591 53.238c-.843-.069-1.764-.103-2.657-.356-.384-.109-.771-.206-1.154-.323-.349-.106-.385-.21-.293-.548.093-.342.153-.694.228-1.041.01-.046.007-.093.019-.138.115-.416.097-.495.544-.313a9 9 0 0 0 3.612.668c.594-.01 1.175-.114 1.715-.368.802-.376 1.14-1.08.896-1.916-.145-.499-.532-.829-.969-1.064a18 18 0 0 0-1.747-.809c-.882-.358-1.755-.727-2.534-1.277-.692-.49-1.25-1.102-1.5-1.916-.391-1.27-.03-2.644 1.002-3.53.72-.619 1.592-.91 2.521-1.072.952-.168 1.902-.121 2.844.035a8.7 8.7 0 0 1 2.178.668c.168.078.21.203.176.36q-.15.726-.315 1.448c-.047.198-.174.228-.36.146a8.8 8.8 0 0 0-3.011-.706 4.3 4.3 0 0 0-1.737.247c-.965.349-1.202 1.66-.348 2.275.448.32.954.567 1.452.81.902.44 1.835.817 2.721 1.282.83.435 1.53 1.042 1.943 1.9a3.12 3.12 0 0 1 .266 2.048c-.31 1.505-1.277 2.418-2.657 2.983-.998.41-1.77.456-2.84.51zM120.342 39.122c1.353.028 2.606.28 3.798.812.169.076.229.178.181.368-.121.478-.224.96-.329 1.443-.045.21-.101.245-.309.155a8.7 8.7 0 0 0-3.106-.715c-.696-.028-1.389.03-1.998.419-.608.389-.738 1.312-.273 1.863.369.44.872.68 1.379.91.834.381 1.684.731 2.511 1.125.835.397 1.59.911 2.148 1.662.63.846.795 1.78.538 2.79-.402 1.583-1.534 2.443-3.033 2.924-1.038.335-2.104.4-3.192.302-1.007-.092-1.993-.267-2.947-.596-.111-.039-.232-.075-.317-.148a.31.31 0 0 1-.089-.245c.1-.516.221-1.027.328-1.54.052-.256.099-.285.343-.186 1.214.495 2.477.752 3.792.72.615-.017 1.219-.123 1.776-.409.648-.333.973-.891.882-1.599-.066-.512-.386-.881-.798-1.184-.614-.45-1.324-.705-2.024-.984-1.128-.446-2.241-.923-3.123-1.779-1.674-1.622-1.233-4.4.897-5.445.954-.468 1.963-.635 2.964-.665zM70.932 41.599v-8.167c0-.3.048-.35.356-.35h1.937c.296 0 .334.043.334.34 0 5.399-.005 10.797.003 16.195 0 .578.174 1.105.783 1.365.1.042.212.083.316.08q.69-.033 1.379-.096c.162-.014.277.019.287.186.032.51.059 1.019.07 1.529.005.21-.193.247-.347.29-.197.053-.399.099-.6.119-.767.073-1.537.139-2.297-.068-.876-.24-1.48-.78-1.855-1.588-.31-.671-.36-1.39-.362-2.109-.007-2.575-.003-5.15-.003-7.725zM66.893 46.192v6.402c0 .316-.045.363-.367.365h-1.935c-.286 0-.348-.065-.348-.342v-12.85c0-.29.063-.355.361-.357h1.936c.302 0 .353.055.353.356zM63.935 35.445c-.045-.932.8-1.627 1.639-1.617.904.012 1.655.67 1.645 1.638-.009.922-.713 1.633-1.632 1.633-.958 0-1.713-.796-1.653-1.656z"/></g><defs><clipPath id="a"><path d="M0 0H90V49H0z" transform="translate(35 10)"/></clipPath></defs><script xmlns=""/></svg>