<svg xmlns:xlink="http://www.w3.org/1999/xlink" xmlns="http://www.w3.org/2000/svg" fill="#00112C" viewBox="0 0 160 70" width="160"  height="70" ><script xmlns="" id="eppiocemhmnlbhjplcgkofciiegomcon"/><script xmlns="" id="oJPMc21h_RMwbdKfM0mNGeLQzG" type="text/javascript"/><script xmlns=""/><script xmlns=""/><script xmlns="" src="chrome-extension://hoklmmgfnpapgjgcpechhaamimifchmp/frame_ant/frame_ant.js"/><path fill-rule="evenodd" d="m69.382 38.298-.029-.01a2.3 2.3 0 0 1-.766-.513 2.45 2.45 0 0 1-.693-1.723q0-.493.186-.913t.507-.749q.322-.328.766-.513l.03-.01v-3.371l-.06-.003q-1.18 0-2.154.441a5.2 5.2 0 0 0-1.677 1.2 5.5 5.5 0 0 0-1.097 1.774 5.9 5.9 0 0 0-.393 2.144q0 1.21.403 2.235.404 1.027 1.129 1.785.724.76 1.697 1.18t2.133.42l.018-.001zm3.232-7.477v1.047a4.27 4.27 0 0 0-2.735-1.343v3.205q.212-.036.437-.037.496 0 .942.184.445.186.766.513.32.329.517.77t.197.933q0 .491-.197.923-.196.43-.517.759a2.3 2.3 0 0 1-.766.512q-.445.185-.942.185-.225-.001-.437-.037v3.21q1.69-.167 2.735-1.47v1.169h3.768V30.82zm59.564 7.18a2 2 0 0 1-.263-.226 2.6 2.6 0 0 1-.517-.77 2.35 2.35 0 0 1-.197-.974q0-.492.197-.923.196-.43.517-.759.122-.122.263-.225V30.56a7 7 0 0 0-1.111.301q-1.17.431-2.019 1.18a5.4 5.4 0 0 0-1.325 1.764 5.1 5.1 0 0 0-.476 2.184q0 1.292.476 2.349.477 1.057 1.315 1.815a5.8 5.8 0 0 0 1.998 1.169q.548.194 1.142.295zm7.346-4.195a5.3 5.3 0 0 0-1.336-1.785 6.3 6.3 0 0 0-2.029-1.169 7.5 7.5 0 0 0-2.536-.42q-.487 0-.948.054v3.353l.006-.002q.445-.186.942-.185.496 0 .942.185t.766.512q.32.329.518.77.196.441.196.933 0 .513-.196.953-.197.441-.518.77-.32.328-.766.512a2.4 2.4 0 0 1-.942.185q-.496 0-.942-.185l-.006-.002v3.401q.432.046.886.047 1.387 0 2.578-.41t2.039-1.159A5.317 5.317 0 0 0 140 36.092q0-1.25-.476-2.286m-55.441 4.483q-.015-.007-.031-.012-.446-.194-.776-.513a2.3 2.3 0 0 1-.704-1.672q0-.492.196-.932.197-.44.518-.77.321-.328.755-.513l.042-.015v-2.989q-.81.374-1.408 1.118v-1.17h-3.747v15.773h3.747v-6.276q.63.64 1.408.976zm6.822-4.37a5.4 5.4 0 0 0-1.129-1.785 5.4 5.4 0 0 0-1.708-1.2 5.1 5.1 0 0 0-2.122-.44q-.739.001-1.366.193v3.04a2.5 2.5 0 0 1 .393-.034q.517 0 .963.195.444.195.776.523.33.328.507.769a2.5 2.5 0 0 1 .176.933q0 .472-.196.903a2.7 2.7 0 0 1-.518.759q-.321.328-.756.513a2.36 2.36 0 0 1-1.345.146v3.044q.657.193 1.408.194a5.16 5.16 0 0 0 3.799-1.62 5.6 5.6 0 0 0 1.117-1.764q.405-1.005.404-2.175 0-1.168-.404-2.194m27.63 4.853q-.894-.561-.894-2.064h.894v-2.154h-.79q.144-.82.693-1.271.047-.038.097-.072v-2.688a6.3 6.3 0 0 0-1.235.309 5.2 5.2 0 0 0-1.853 1.138 5 5 0 0 0-1.18 1.795q-.414 1.056-.414 2.369 0 1.271.434 2.297a5.1 5.1 0 0 0 1.232 1.764q.797.738 1.915 1.138.526.186 1.101.285zm1.384.336a3.1 3.1 0 0 1-.888-.118v2.693c.282.03.569.05.867.05q4.388 0 5.486-3.61h-3.623q-.621.985-1.842.985m5.217-5.261a5 5 0 0 0-1.139-1.856 4.9 4.9 0 0 0-1.822-1.16q-1.077-.4-2.422-.4-.371.001-.722.032v2.495q.369-.126.825-.126.829 0 1.408.471.58.472.766 1.251h-2.999v2.154h6.498v-.39q0-1.373-.393-2.471m-23.498-3.026v1.047q-1.304-1.374-3.291-1.375-.13 0-.259.006v3.524a2.4 2.4 0 0 1 .29-.146 2.5 2.5 0 0 1 .963-.184q.496 0 .941.184a2.3 2.3 0 0 1 .767.513q.32.329.517.77t.197.933q0 .491-.197.923-.197.43-.517.759-.322.329-.767.512-.444.185-.941.185-.517 0-.963-.185a2.4 2.4 0 0 1-.29-.145v3.522q.15.008.3.008 2.05 0 3.25-1.498v1.17h3.768V30.82zm-4.047 6.93a2.44 2.44 0 0 1-.673-1.7q0-.492.187-.912.18-.405.486-.726v-3.87a5 5 0 0 0-1.397.391 5.2 5.2 0 0 0-1.677 1.2 5.5 5.5 0 0 0-1.097 1.774 5.9 5.9 0 0 0-.394 2.144q0 1.21.404 2.236a5.4 5.4 0 0 0 1.128 1.784 5.14 5.14 0 0 0 3.033 1.546zM107.953 41.344h3.746V24.32h-3.746zM38.603 17.578c-9.955 0-18.025 8.081-18.025 18.052s8.07 18.052 18.025 18.052S56.628 45.6 56.628 35.63s-8.07-18.052-18.025-18.052M20 35.63C20 25.34 28.328 17 38.603 17c10.274 0 18.603 8.341 18.603 18.63s-8.329 18.63-18.603 18.63S20 45.917 20 35.63" clip-rule="evenodd"/><path fill-rule="evenodd" d="M44.94 33.966c-.464.234-1.484.18-2.11.556-.374.225-.996 1.196-1.241 1.89-.014-.018.298-3.335.298-3.335s4.376-1.04 4.384-1c.223 1.071-.665 1.553-1.332 1.89m-9.33 2.446c-.245-.694-.867-1.665-1.242-1.89-.625-.375-1.645-.322-2.11-.556-.666-.336-1.554-.818-1.331-1.89.008-.038 4.384 1.001 4.384 1.001s.312 3.317.298 3.335m15.894 12.233c-.523-3.756-2.329-6.71-5.262-9.132.613-1.28 1.817-4.868 3.028-8.717l.002.023c2.45.2 4.532.229 6.694 1.329q.366.189.688.394a18 18 0 0 0-.453-1.987c-2.162-.72-4.367-.86-6.773-.738-.187-1.261-.791-2.813-1.177-3.716l.002.003s1.406-.767 3.752-.983c.529-.05 1.05-.068 1.557-.066a19 19 0 0 0-.863-1.134c-1.736.136-3.36.523-4.783 1.43 0 0-6.452 1.045-8.271 2.265.172-1.83 3.117-6.043 6.347-8.768a18 18 0 0 0-1.559-.604c-4.05 3.756-5.81 9.279-5.827 9.247l-.007-.014q-.005.014-.007.014c-.017.032-1.776-5.489-5.825-9.246q-.795.268-1.559.606c3.23 2.724 6.173 6.936 6.346 8.765-1.82-1.22-8.272-2.264-8.272-2.264-1.42-.907-3.042-1.294-4.775-1.43q-.454.55-.863 1.133c.504-.002 1.023.017 1.55.066 2.346.216 3.752.983 3.752.983l.001-.003c-.386.903-.99 2.455-1.177 3.716-2.402-.122-4.606.017-6.765.736q-.28.972-.452 1.984.317-.203.68-.389c2.162-1.1 4.243-1.13 6.694-1.33q0-.007.002-.022c1.21 3.85 2.414 7.437 3.027 8.717-2.931 2.421-4.737 5.373-5.261 9.126q.876.87 1.862 1.618c-.722-3.359.456-6.917 3.182-9.072l.175-.185.085.067-.145.237c-.125.498-.275.992-.372 1.496-.36 1.864.965 4.728.965 4.728s2.676.651 4.084.394c.762-.14 2.853-.339 2.853-.7 0-1.084-.111-1.515-.541-2.39-.268-.546-2.254-.836-2.914-1.084-.666-.25-1.134-1.191-.874-1.556.777.195 1.443.987 4.482 1.014h.125c3.038-.027 3.704-.82 4.48-1.014.261.365-.207 1.306-.873 1.556-.66.248-2.646.538-2.914 1.084-.43.875-.541 1.306-.541 2.39 0 .361 2.091.56 2.854.7 1.407.257 4.083-.394 4.083-.394s1.326-2.864.966-4.728c-.097-.504-.248-.998-.373-1.496l-.145-.237.086-.067.175.185c2.727 2.156 3.905 5.718 3.18 9.08q.987-.75 1.864-1.62" clip-rule="evenodd"/><path fill-rule="evenodd" d="M43.191 51.946c.482-1.093.035-3.418.007-3.362-1.026.178-3.384.408-4.599.44-1.214-.032-3.573-.262-4.6-.44-.027-.056-.474 2.27.008 3.362.252.572.616 1.126 1.019 1.672a18.3 18.3 0 0 0 7.145.002c.404-.546.768-1.101 1.02-1.674" clip-rule="evenodd"/><script xmlns=""/></svg>