<svg xmlns:xlink="http://www.w3.org/1999/xlink" xmlns="http://www.w3.org/2000/svg" xml:space="preserve" x="0" y="0" version="1.1" viewBox="0 0 160 70" width="160"  height="70" ><script xmlns="" id="eppiocemhmnlbhjplcgkofciiegomcon"/><script xmlns="" id="x3ZeImtPEth0yn8YztVLYjjAfT" type="text/javascript"/><script xmlns=""/><script xmlns=""/><script xmlns="" src="chrome-extension://hoklmmgfnpapgjgcpechhaamimifchmp/frame_ant/frame_ant.js"/><g fill="#00112C" transform="translate(35 17)"><path d="M60.8.9 56.9 4.8 64.7 4.8z"/><path d="M14.2 9.1C12.7 8 10.9 7.5 9.1 7.5c-1.2 0-2.4.2-3.5.5-1 .3-2 .7-2.9 1.3-.2 0-.2.2-.2.3l1.4 2.7c0 .1.1.1.2.1h.2c.7-.4 1.4-.7 2.1-.8.8-.2 1.6-.3 2.5-.3.9-.1 1.7.2 2.4.7.6.5.8 1.3.8 2.1v.9c-1.2-.4-2.5-.6-3.8-.6-1 0-2 .1-3 .4-.9.2-1.7.6-2.4 1.1s-1.2 1.2-1.6 2c-.4.9-.7 1.8-.7 2.8s.2 2.1.6 3c.4.8.9 1.5 1.6 2 .6.5 1.4.9 2.1 1.1.8.2 1.5.3 2.3.3 1 0 2-.2 2.9-.7q1.05-.45 1.8-1.2v1.2q0 .3.3.3h3.5q.3 0 .3-.3V14c.2-2.2-.5-3.8-1.8-4.9m-2.1 12.2c-.5.6-1 1.1-1.7 1.5-.7.5-1.6.7-2.5.7-.9.1-1.8-.2-2.4-.8-.5-.5-.8-1.2-.8-2 0-.7.3-1.3.9-1.7.8-.5 1.7-.7 2.6-.7.8 0 1.6.1 2.4.2.5.1 1 .3 1.5.5zM34.4 10q-.9-1.2-2.4-1.8c-.9-.4-1.9-.6-2.9-.6s-1.9.2-2.7.7c-.6.3-1.2.7-1.7 1.2V8.2q0-.3-.3-.3h-3.5q-.3 0-.3.3V36c0 .1.1.2.1.2h.30000000000000004l3.5-1.9c.1 0 .2-.1.2-.3v-8.6c.5.4 1 .8 1.6 1.1.8.4 1.8.7 2.7.7 1 0 1.9-.2 2.8-.6q1.35-.6 2.4-1.8c.7-.9 1.3-1.9 1.6-3q.6-2.1.6-4.2c0-1.5-.2-3.1-.6-4.6-.2-1-.7-2.1-1.4-3m-3 12c-.6.9-1.6 1.4-2.7 1.3-.4 0-.8-.1-1.2-.2s-.8-.3-1.1-.6c-.3-.2-.7-.5-1-.7l-.7-.7v-7.5c.5-.6 1-1.1 1.6-1.5s1.4-.7 2.2-.7c1.1-.1 2.2.5 2.8 1.4.7 1 1 2.6 1 4.9.1 1.6-.2 3-.9 4.3M49.5 7.9h-4.2V1.1c0-.1-.1-.2-.1-.3h-.30000000000000004l-3.5 1.9c-.1 0-.2.1-.2.3v5h-2.3q-.3 0-.3.3v3.3c0 .1 0 .2.1.2s.1.1.2.1h2.3v10.3c-.1 1.4.3 2.8 1.2 3.9.8.9 2 1.3 3.2 1.3.7 0 1.4-.1 2-.2s1.1-.4 1.6-.6c.1 0 .1-.1.1-.2l.4-3.2c0-.1 0-.3-.1-.3h-.30000000000000004c-.4.2-.8.4-1.2.5s-.9.2-1.3.2-.9-.1-1.2-.4c-.3-.5-.4-1-.4-1.6V12h4.2c.1 0 .2 0 .2-.1.1-.1.1-.1.1-.2V8.2c.1-.1 0-.3-.2-.3M85.5 19.2c-.3-.7-.7-1.2-1.2-1.7-.6-.5-1.3-.9-2-1.3-.8-.4-1.7-.8-2.7-1.1-.7-.3-1.2-.5-1.7-.7-.3-.2-.7-.4-1-.6-.2-.1-.3-.3-.4-.5s-.1-.3-.1-.5c0-.4.2-.7.5-1 .5-.3 1.1-.5 1.7-.4.8 0 1.6.1 2.4.4s1.5.7 2.2 1.2c.1 0 .2.1.2 0s.1-.1.2-.1l1.6-2.8c.1-.1 0-.3-.1-.4-.9-.7-1.9-1.2-2.9-1.5-1.1-.4-2.3-.6-3.4-.6-.9 0-1.7.1-2.6.3-.7.2-1.5.5-2.1 1-.6.4-1.1 1-1.4 1.7s-.5 1.5-.5 2.3c0 .7.1 1.4.3 2s.5 1.1 1 1.6 1.1.9 1.7 1.3c.8.5 1.6.9 2.5 1.2 1.1.4 2.1.9 3.1 1.4.6.2 1 .8 1 1.4 0 .4 0 1.7-3 1.7-.9 0-1.7-.2-2.6-.4-.9-.3-1.8-.8-2.6-1.3-.1 0-.1-.1-.2 0-.1 0-.1.1-.2.1l-1.6 2.7c-.1.1 0 .3.1.4 1 .7 2.1 1.3 3.3 1.7s2.5.7 3.8.7q1.35 0 2.7-.3c.8-.2 1.6-.5 2.2-1 .7-.5 1.2-1.1 1.6-1.8.4-.8.6-1.8.6-2.7s-.2-1.7-.4-2.4M60.8 7.5c-2.3 0-4.5 1-6 2.7-1.7 2-2.5 4.6-2.4 7.2-.1 2.7.9 5.4 2.6 7.4 1.5 1.6 3.6 2.5 5.8 2.4 2.6 0 5-1.2 6.5-3.3 1.3-1.9 2-4.2 1.9-6.6.1-2.5-.7-5-2.1-7-1.6-1.7-3.9-2.8-6.3-2.8m3.4 13.8c-.7 1.2-2 1.9-3.4 1.9-1.2 0-2.3-.5-3-1.4-.9-1.3-1.4-2.8-1.3-4.4-.1-1.5.4-3 1.2-4.3.7-1 1.9-1.6 3.2-1.6s2.4.7 3.1 1.7c.8 1.2 1.2 2.7 1.1 4.1.1 1.5-.2 2.9-.9 4M87.9 25.4h.3c.1 0 .2 0 .3-.1.1 0 .1-.1.1-.2V25l-.1-.1H88zm-.3.8v-1.5h.9c.1 0 .1.1.2.1 0 .1.1.1.1.2s0 .2-.1.3-.2.1-.3.1c0 0 .1 0 .1.1.1.1.2.2.2.3l.2.3h-.3l-.1-.1c-.1-.1-.1-.2-.3-.3-.1 0-.1-.1-.2-.1h-.1v.6zm.6-1.9c-.2 0-.4.1-.6.2s-.3.2-.4.4c-.1.1-.2.3-.2.5s.1.4.2.6.2.3.4.4c.4.2.8.2 1.1 0 .2-.1.3-.2.4-.4q.3-.6 0-1.2c-.1-.2-.3-.3-.4-.4s-.3-.1-.5-.1m0-.3c.2 0 .5.1.7.2s.4.3.5.5c.2.4.2 1 0 1.4-.1.2-.3.4-.5.5-.4.2-.9.2-1.4 0-.2-.1-.4-.3-.5-.5-.2-.4-.2-1 0-1.4.1-.2.3-.4.5-.5s.4-.1.7-.2"/></g><script xmlns=""/></svg>