<svg xmlns:xlink="http://www.w3.org/1999/xlink" xmlns="http://www.w3.org/2000/svg" fill="#00112C" viewBox="0 0 160 70" width="160"  height="70" ><script xmlns="" id="eppiocemhmnlbhjplcgkofciiegomcon"/><script xmlns="" id="WI-5nhS_Xp12mr89hmjXA3qn5O" type="text/javascript"/><script xmlns=""/><script xmlns=""/><script xmlns="" src="chrome-extension://hoklmmgfnpapgjgcpechhaamimifchmp/frame_ant/frame_ant.js"/><path d="M80.017 69C61.236 69.006 46 53.78 46 34.997 46 16.225 61.218 1 79.989 1 98.793 1 113.994 16.197 114 34.991 114.006 53.77 98.793 68.99 80.017 69m.017-62.482c-15.609-.064-28.46 12.61-28.517 28.364-.057 15.823 12.759 28.595 28.46 28.606 15.667.011 28.523-12.627 28.517-28.49-.011-16.025-13.023-28.52-28.46-28.48"/><path d="M80.034 6.518c15.437-.04 28.448 12.455 28.454 28.48.006 15.857-12.85 28.502-28.517 28.49-15.696-.017-28.517-12.782-28.454-28.605.057-15.755 12.908-28.428 28.517-28.365m-10.15 24.123c.363-.374.621-.782.76-1.242.47-1.54.528-3.092-.041-4.62-.69-1.869-2.276-2.95-4.414-2.972-2.988-.029-5.977-.006-8.96-.023-.258 0-.31.074-.31.322.006 6.213.006 12.432 0 18.645 0 .259.075.31.316.31 2.604-.011 5.207-.005 7.816-.005.805 0 1.61-.023 2.408-.104 1.742-.172 3.11-.937 4.012-2.466 1.006-1.707 1.339-3.488.552-5.374-.437-1.04-1.167-1.845-2.138-2.471m32.811.006c.241-.27.443-.546.598-.857.316-.66.436-1.362.488-2.08.098-1.288-.052-2.53-.712-3.656-.903-1.54-2.322-2.213-4.046-2.236-3.018-.034-6.035-.011-9.046-.023-.259 0-.236.132-.236.3q.002 9.336-.006 18.673c0 .236.052.305.293.299 2.673-.011 5.345-.006 8.018-.006q1.094-.001 2.178-.097c1.925-.167 3.356-1.081 4.253-2.8.988-1.896 1.138-3.81.017-5.713-.448-.747-1.063-1.333-1.799-1.805m-22.747-5.271a3.6 3.6 0 0 0-1.08.12c-1.288.328-2.288 1.478-2.024 2.955.127.707.414 1.35.713 1.989.08.166.063.247-.115.322a6.1 6.1 0 0 0-1.488.913c-.765.638-1.236 1.431-1.27 2.443-.046 1.374.781 2.558 2.115 2.983 1.361.437 2.7.282 3.93-.431.58-.34.978-.345 1.523.069.782.592 1.713.73 2.673.471a2.16 2.16 0 0 0 1.322-.994c.333-.558.402-1.19.43-1.822.006-.086-.057-.11-.131-.11-.104 0-.213.007-.317 0-.166-.017-.235.035-.247.22a2.1 2.1 0 0 1-.132.585c-.235.633-.787.891-1.43.69-.507-.16-.851-.54-1.208-.897-.08-.08-.04-.155.012-.23.609-.844 1.08-1.781 1.672-2.643.34-.495.799-.77 1.397-.759.373.006.235-.253.264-.437.035-.218-.063-.276-.276-.27-1.224.012-2.454 0-3.678.006-.488 0-.442-.11-.454.46 0 .172.058.241.23.241.253-.006.494.058.724.155.374.155.546.471.489.874-.104.73-.535 1.299-.943 1.88-.103.143-.167.057-.241-.035-.903-1.12-1.701-2.31-2.449-3.54-.08-.133-.057-.19.08-.254q.405-.18.794-.396c.655-.374 1.264-.788 1.65-1.472.482-.856.321-1.827-.443-2.454-.604-.511-1.334-.615-2.092-.632M68.23 46.872V44.63c0-.764 0-.758-.76-.758-.223 0-.27.069-.27.276.012.65-.005 1.304.012 1.954.006.218-.063.276-.276.27a42 42 0 0 0-1.695 0c-.178.006-.23-.057-.23-.23.012-.506.006-1.017.006-1.523 0-.747 0-.742-.742-.747-.23 0-.287.069-.287.293.012 1.644.006 3.293.006 4.937 0 .765 0 .759.758.759.219 0 .276-.063.27-.276-.01-.678.006-1.362-.01-2.04-.007-.219.068-.276.275-.27.563.01 1.132.01 1.695 0 .178-.006.23.057.23.23-.011.528-.005 1.051-.005 1.58 0 .782 0 .776.775.77.207 0 .259-.069.253-.264-.011-.897-.005-1.81-.005-2.719m13.798-.006c0 .908.006 1.816-.005 2.725-.006.218.063.276.275.27.966-.012 1.931-.006 2.897-.006.701 0 .695 0 .69-.713 0-.195-.052-.264-.259-.258-.782.011-1.569 0-2.356.005-.173 0-.242-.046-.236-.224.012-.385.012-.764 0-1.15-.006-.195.069-.24.253-.24.517.01 1.034.005 1.552.005.638 0 .626 0 .638-.62.005-.219-.046-.3-.282-.294-.632.017-1.264 0-1.897.012-.2.005-.264-.063-.258-.265.011-.344.017-.69 0-1.034-.012-.224.08-.27.281-.27.633.011 1.265.005 1.897.005.678 0 .667 0 .667-.678 0-.195-.046-.264-.253-.264-1.12.011-2.242.011-3.357 0-.206 0-.252.069-.252.264.011.908.005 1.816.005 2.73m13.403-3.04h-.173c-.983.023-1.73.672-1.799 1.552-.074 1.034.466 1.712 1.53 1.902.31.058.626.086.93.15.408.086.627.339.627.7 0 .328-.23.598-.615.696-.564.138-1.098.04-1.621-.19-.195-.086-.374-.344-.558-.275-.19.069-.304.327-.47.488-.173.161-.121.253.045.38a3.4 3.4 0 0 0 1.92.678c.695.034 1.373-.063 1.873-.61.472-.511.535-1.126.316-1.77-.23-.666-.753-.988-1.42-1.109-.327-.057-.666-.086-.988-.167-.396-.097-.609-.39-.574-.712.04-.368.31-.633.707-.679.379-.04.74.012 1.097.138.207.075.414.328.61.224.19-.103.275-.379.419-.569.11-.137.069-.212-.063-.293-.552-.333-1.144-.534-1.793-.534m-20.822 3.04c0-.287.011-.575 0-.862-.017-.373-.046-.747-.253-1.075-.483-.781-1.19-1.12-2.086-1.029-1.092.11-1.8 1.075-1.81 1.846-.012.637-.03 1.281-.024 1.92.006.632.167 1.212.673 1.643.638.54 1.368.69 2.144.402.74-.27 1.218-.799 1.321-1.62.052-.409.018-.817.035-1.225m4.08.472c0-.753.012-1.512-.005-2.265-.006-.236.074-.299.293-.282.23.018.46.006.69.006.637 0 .626 0 .637-.638.006-.241-.08-.282-.299-.282-1.097.012-2.2.006-3.298.006-.684 0-.684 0-.65.696.006.16.069.218.224.212.362-.005.73.012 1.092-.005.242-.012.305.069.305.304-.012 1.5 0 3.006-.012 4.506 0 .19.04.288.253.265a2.6 2.6 0 0 1 .517 0c.201.017.265-.052.259-.253-.017-.759-.006-1.517-.006-2.27m9.144-.489c0 .908.006 1.816-.006 2.724-.006.236.07.288.293.282.954-.011 1.914-.006 2.868-.006.719 0 .713 0 .707-.724 0-.19-.057-.247-.247-.241-.764.005-1.529-.006-2.293.011-.236.006-.31-.057-.305-.299.012-1.322.006-2.638.006-3.96 0-.776 0-.77-.787-.759-.196 0-.236.075-.236.253.006.903 0 1.81 0 2.72"/><path d="M63.58 32.963h2.27c.282 0 .553.034.823.114 1.103.31 1.586 1.098 1.367 2.225-.19.994-.867 1.603-1.896 1.69-.908.074-1.816.023-2.73.028-.787.006-1.569-.005-2.356.006-.184 0-.242-.046-.242-.236.012-1.195.006-2.396 0-3.592 0-.184.04-.241.236-.241.84.011 1.684.005 2.529.005M62.966 28.997c-.644 0-1.282-.006-1.925.006-.179.005-.225-.04-.225-.225.012-.908.012-1.822 0-2.73 0-.184.052-.218.224-.218q1.898.007 3.794.006c.31 0 .609.046.908.132.551.16.92.506.994 1.098.08.638-.058 1.207-.644 1.574-.402.253-.85.345-1.316.351-.603.012-1.207.006-1.81.006M96.386 32.962h2.327c.448 0 .874.098 1.27.31.811.431 1.098 1.248.805 2.276-.242.834-.908 1.357-1.84 1.437-.746.064-1.494.023-2.24.03-.949.005-1.897-.007-2.846.005-.183 0-.24-.046-.24-.236.01-1.195.005-2.39 0-3.592 0-.184.04-.241.235-.241.845.017 1.684.011 2.528.011M95.977 25.836c.656.034 1.449-.063 2.242.063 1.057.167 1.557.931 1.276 1.954-.138.506-.5.8-.972.977a2.9 2.9 0 0 1-.982.173c-1.224 0-2.449-.006-3.678.006-.179 0-.242-.04-.242-.23.012-.909.006-1.817 0-2.73 0-.162.046-.207.207-.207.672 0 1.345-.006 2.15-.006M79.345 36.188c-.856-.03-1.466-.495-1.92-1.196-.517-.81-.764-1.667-.362-2.604.161-.367.449-.638.753-.89.144-.121.207-.07.282.063.218.373.442.735.66 1.109.587 1.006 1.328 1.897 2.035 2.81.127.162.127.23-.063.328-.425.218-.868.38-1.385.38M81.103 27.617c0 1.006-.471 1.696-1.402 2.087-.127.052-.184.034-.247-.08-.345-.61-.632-1.242-.747-1.938-.121-.77.264-1.425.936-1.58.58-.132 1.127.155 1.334.718.097.259.138.535.126.793M73.695 46.865c0 .287.006.575 0 .862-.023.69-.448 1.178-1.052 1.213-.684.046-1.178-.328-1.27-1.04a7.9 7.9 0 0 1 .012-2.144c.103-.673.586-1.012 1.264-.972.575.035 1.012.5 1.046 1.133.012.316 0 .632 0 .948"/><script xmlns=""/></svg>