<svg xmlns:xlink="http://www.w3.org/1999/xlink" xmlns="http://www.w3.org/2000/svg" fill="#00112C" viewBox="0 0 160 70" width="160"  height="70" ><script xmlns="" id="eppiocemhmnlbhjplcgkofciiegomcon"/><script xmlns="" id="JeO7GdIvwzNUddCrvPLtGIqDPP" type="text/javascript"/><script xmlns=""/><script xmlns=""/><script xmlns="" src="chrome-extension://hoklmmgfnpapgjgcpechhaamimifchmp/frame_ant/frame_ant.js"/><path d="M26.08 52.153c.119.088.208.148.311.221 1.332.829 1.982 2.012 1.85 3.595-.134 1.569-.992 2.634-2.368 3.329-1.035.532-2.16.65-3.299.65-2.322 0-4.63-.014-6.953.016-.458 0-.621-.09-.621-.607.03-4.586.015-9.157 0-13.743 0-.43.074-.592.562-.592 2.441.03 4.882-.044 7.323.03 1.879.059 3.61.665 4.364 2.589.636 1.686.207 3.24-1.169 4.512m-5.458 5.666c1.065-.074 2.352.148 3.624-.178 1.05-.266 1.687-.947 1.746-1.834.074-1.14-.607-1.924-1.968-2.13-2.13-.34-4.275-.075-6.405-.163-.385-.015-.356.207-.356.473 0 1.124.015 2.263 0 3.388 0 .355.09.473.444.458.903-.03 1.805-.014 2.915-.014m-.178-10.637h-2.752c-.28 0-.458.044-.443.4.014 1.124.014 2.263 0 3.387 0 .237.074.355.325.355 1.894-.015 3.787.045 5.68-.074 1.258-.074 1.983-.961 1.983-2.07 0-1.051-.636-1.702-1.938-1.91-1.006-.162-2.012-.044-2.855-.088M79.885 56.414c-1.598-2.308-3.151-4.541-4.72-6.82-.206.193-.103.43-.103.622a619 619 0 0 0 .015 9.083c0 .533-.148.651-.65.651-1.569-.015-1.569.015-1.569-1.568 0-4.216.015-8.418-.015-12.634 0-.532.089-.725.696-.754.887-.045 1.405.236 1.893 1.006 1.42 2.219 2.944 4.364 4.423 6.553.311-.089.385-.37.518-.577l4.394-6.48c.251-.37 1.716-.68 2.071-.428.222.162.104.414.104.621v12.634c0 1.671 0 1.657-1.642 1.642-.489 0-.607-.163-.607-.636.015-3.003.015-6.007.015-9.01v-.872c-1.657 2.396-3.21 4.645-4.823 6.967M114.709 48.958c0 3.565-.015 6.938.015 10.311 0 .592-.178.68-.696.68-1.538-.014-1.538 0-1.538-1.523 0-4.216.015-8.418-.015-12.634 0-.592.118-.769.74-.799.828-.03 1.331.237 1.834.888 2.53 3.27 5.119 6.494 7.722 9.764.237-.237.134-.518.134-.755.014-3.047.029-6.11-.015-9.157 0-.606.177-.725.739-.71 1.495.03 1.495.015 1.495 1.494 0 4.231-.015 8.477.014 12.708 0 .592-.103.784-.739.799-.681.014-1.11-.193-1.539-.74-2.515-3.24-5.089-6.465-7.633-9.69-.119-.163-.267-.325-.518-.636M131.618 52.494c0-2.264.015-4.527-.015-6.79-.015-.563.163-.71.696-.681 2.263.103 4.541-.207 6.775.222 3.417.65 5.74 3.432 5.917 6.982.163 3.373-1.982 6.362-5.251 7.338-1.051.31-2.131.385-3.21.385-1.435 0-2.856-.03-4.291.014-.532.015-.651-.162-.636-.665.03-2.264.015-4.542.015-6.805m4.335 5.266v.044c.547 0 1.079.03 1.627 0 2.944-.147 5.015-2.189 5.118-4.985.104-3.033-1.716-5.207-4.734-5.547-1.139-.119-2.307-.03-3.461-.09-.518-.029-.607.178-.607.637.015 2.663 0 5.325.015 7.974 0 .65-.281 1.553.118 1.893.385.326 1.258.074 1.924.074M107.963 52.597a7.85 7.85 0 0 1-8.047 7.708c-4.172-.089-7.604-3.713-7.515-7.944.103-4.35 3.654-7.708 8.033-7.619 4.157.104 7.618 3.698 7.529 7.855m-2.263-.133c0-3.062-2.47-5.562-5.518-5.577-3.033-.015-5.577 2.53-5.562 5.548.014 3.077 2.485 5.562 5.532 5.562 3.063.015 5.548-2.47 5.548-5.533M35.918 52.465c0-2.264.015-4.527-.015-6.805 0-.518.133-.651.651-.651 3.418.03 6.85.03 10.267 0 .533 0 .636.163.636.666-.015 1.509 0 1.509-1.538 1.509-2.397 0-4.779.014-7.175-.015-.474 0-.651.103-.622.606a33 33 0 0 1 0 2.959c-.03.518.163.606.636.606 2.471-.014 4.927.015 7.397-.03.577-.014.755.149.725.74-.044 1.45-.015 1.45-1.464 1.45-2.22 0-4.438.015-6.657-.014-.533 0-.666.148-.637.65a33 33 0 0 1 0 2.96c-.03.532.104.71.68.71 2.708-.03 5.415 0 8.137-.03.518 0 .651.133.651.65-.03 1.51 0 1.51-1.538 1.51-3.151 0-6.302-.015-9.453.014-.562 0-.696-.148-.68-.695.014-2.263 0-4.527 0-6.79M55.505 52.45c0-2.22.015-4.439-.015-6.643-.015-.592.09-.814.74-.784 1.509.044 1.509.015 1.509 1.553 0 3.492.015 6.998-.015 10.49 0 .62.178.768.77.754 2.707-.03 5.414 0 8.121-.03.474 0 .621.104.621.607-.014 1.553.015 1.553-1.583 1.553-3.18 0-6.346-.015-9.527.015-.502 0-.665-.119-.65-.651.044-2.293.03-4.586.03-6.864M77.473 33.75c-.68.015-1.79-1.39-1.597-2.012.03-.104.162-.163.266-.237.518-.34 1.035-.65 1.538-1.006.252-.177.4-.222.533.119.148.34.4.621.533.961.148.37.665.592.473 1.065-.178.474-1.257 1.11-1.746 1.11M73.227 31.547c-.99-.015-1.405-.518-1.375-1.657.014-1.021.03-1.021 1.005-1.08.193-.015.4-.015.592-.045 1.095-.148 1.095-.148 1.169.932 0 .104.03.207.015.296-.074.4.355.888 0 1.169-.4.325-.962.37-1.406.385M88.11 30.037c-.044.696-.089 1.317-.754 1.568-.71.252-1.406.045-2.057-.266-.103-.044-.133-.148-.118-.251.133-.725.207-1.45.237-2.19.014-.281.207-.177.384-.148l1.82.267c.769.103.251.769.488 1.02M70.625 27.906s-.148-.015-.282-.045c-.606-.133-1.257-.28-1.435-.976-.192-.784.252-1.42.696-2.027.103-.148.222-.148.384-.06.104.06.222.09.34.149.578.251 1.643.251 1.687.65.074.666-.444 1.406-.68 2.116-.119.281-.326.237-.71.192M84.205 11.677c.059.222-.119.296-.252.384-.518.326-1.035.651-1.538 1.006-.267.178-.385.178-.548-.118a12 12 0 0 0-.902-1.509c-.193-.281-.193-.473.074-.68a3 3 0 0 0 .325-.296c.474-.4.991-.814 1.642-.548.77.296.947 1.08 1.198 1.76M82.414 33.81c-.458 0-1.538-.725-1.716-1.154-.03-.06-.074-.163-.044-.207.4-.666.799-1.346 1.213-1.997.118-.193.251.014.34.088.37.252.74.474 1.08.77.266.236.888.162.666.828-.296.962-.917 1.672-1.539 1.672M68.938 16.9c-.015-.77.532-1.05 1.139-1.228 1.124-.325 1.213-.266 1.598.829.162.458.547.99.414 1.346-.133.384-.843.34-1.302.473-.37.104-.784.577-1.124.222-.43-.414-.68-1.006-.725-1.642M67.798 21.812c0-.68 1.05-1.805 1.612-1.85.178-.014.252.134.355.223.415.414.829.843 1.258 1.228.237.207.28.355.015.562-.326.266-.592.592-.932.828-.281.193-.385.829-.888.548-.65-.37-1.317-.77-1.42-1.539M89.25 15.671c.695.163 1.538.148 1.863.947.34.8-.162 1.465-.577 2.1-.148.223-.28.164-.488.09-.503-.193-1.02-.37-1.538-.518-.415-.118-.636-.222-.37-.725.251-.473.384-1.006.577-1.509.103-.237.177-.488.532-.385M85.477 13.66c-.133-1.39-.118-1.405 1.08-1.568 1.124-.162 1.642.296 1.686 1.45.045 1.095-.014 1.154-1.065 1.243-.103.015-.192.015-.296.03-.429.059-.858.103-1.287.162-.03-.444-.074-.888-.118-1.316M79.5 11.115c-.266.414-.532.828-.784 1.242-.547.903-.547.903-1.376.311-.162-.118-.325-.222-.488-.325-.917-.577-.932-.666-.325-1.702.503-.843 1.035-1.02 1.82-.606.488.251 1.153.887 1.153 1.08M91.158 26.693c-.015.444-.193.784-.563.991a1.9 1.9 0 0 1-.532.222c-1.213.34-1.243.326-1.642-.828-.163-.459-.548-1.006-.415-1.347.134-.37.844-.34 1.302-.458.37-.104.77-.577 1.125-.222.429.444.665 1.036.725 1.642M71.985 13.852c.03-.829.044-1.48.695-1.805.71-.34 1.39 0 2.057.237.221.074.162.266.133.429-.074.606-.163 1.213-.193 1.834-.014.37-.148.385-.458.31-.43-.103-.873-.236-1.302-.221-.74.03-1.05-.252-.932-.784M92.297 21.856c-.015.621-1.14 1.804-1.642 1.775-.104 0-.207-.118-.281-.192-.444-.43-.858-.873-1.317-1.287-.252-.222-.252-.34.015-.548.414-.34.843-.695 1.168-1.11.34-.428.622-.325.977-.058.518.384 1.035.754 1.08 1.42M74.693 16.767c-.06.28.296.784-.37.784-.503 0-1.169.562-1.406-.414-.118-.518-.68-1.184-.429-1.48.326-.384 1.036.089 1.598.104.77 0 .547.562.607 1.006M87.859 15.658c-.163.74-.489 1.317-.725 1.923-.222.548-.607.193-.858.119-.296-.074-.888.177-.814-.518.06-.577-.118-1.317.858-1.346.473-.015.962-.104 1.539-.178M87.8 28.114c-.785-.133-1.406-.252-2.027-.34-.267-.045-.355-.163-.37-.43-.104-1.198-.015-1.316 1.154-1.45.266-.029.414.045.503.297.236.591.458 1.183.74 1.923M73.332 20.139c-.281.37-.725.547-1.08.843-.222.192-.37-.03-.503-.148-.459-.414-1.287-.843-1.198-1.287.103-.503 1.035-.429 1.597-.65.4-.163.577 0 .71.354.148.311.311.577.474.888M84.427 29.372c-.104.4.162 1.124-.267 1.287-.355.133-.828-.43-1.213-.725-.222-.178-.636-.266-.562-.607.104-.414.252-.932.562-1.168.34-.267.814.163 1.228.207.34.044.267.296.267.503 0 .148-.015.296-.015.503M72.252 27.95a5.8 5.8 0 0 1 .724-1.922c.34-.548.873-.045 1.317-.06.37-.015.34.237.34.488-.015 1.184-.015 1.199-1.168 1.361-.385.075-.77.09-1.214.134M72.06 22.314c.399.295.828.547 1.168.872.207.207-.133.415-.207.636-.222.77-.666.829-1.376.563-1.376-.503-1.39-.474-.296-1.48.237-.177.459-.37.71-.591M80.107 11.856c.458.591.71 1.139 1.02 1.671.163.296.119.444-.133.68-.858.785-1.198.755-1.908-.177-.148-.192-.06-.31.015-.458.31-.548.636-1.095 1.006-1.716M89.575 23.941c.03.222-.103.252-.207.281-.296.09-.621.163-.902.296-.74.355-1.228.163-1.48-.636-.074-.251-.473-.533.015-.695.459-.148.71-1.036 1.39-.385.4.4.814.784 1.184 1.14M89.782 19.695c-.533.488-.977.858-1.39 1.273-.282.28-.489.266-.8.03-.887-.681-.932-.933-.207-1.82.133-.163.237-.207.43-.134.28.104.561.148.842.237.34.104.68.237 1.125.414M79.974 31.739c-.474-.607-.784-1.213-1.065-1.82-.222-.473.31-.533.503-.755.162-.177.384-.562.606-.429.4.252.725.637 1.05 1.006.045.045-.073.252-.133.385-.074.148-.162.296-.251.444-.207.355-.43.71-.71 1.169M75.876 12.773c.503.356.917.68 1.376.962.443.266.443.518.28 1.006-.266.799-.665.843-1.36.592-.415-.148-.607-.296-.548-.755.089-.562.06-1.124.252-1.805M84.574 14.148c.045 1.02-.4 1.48-1.316 1.435-.385-.015-.311-.429-.459-.636-.4-.562-.252-.976.37-1.243.059-.03.118-.088.177-.118.37-.178.696-.71 1.036-.533.325.178.118.77.192 1.095M75.506 29.356c-.045-.961.296-1.316 1.272-1.36.207-.015.266.103.325.221.148.311.252.636.4.947.133.252-.03.355-.192.473a22 22 0 0 0-1.228.829c-.415.296-.489.074-.518-.296-.015-.266-.03-.547-.06-.814M84.19 33.839c.044-.104.044-.163.073-.192.355-.415.281-1.228.8-1.361.443-.119 1.005.236 1.523.37-.503.502-1.228.872-2.397 1.183M81.32 34.52c-.947.163-1.82.044-2.797.03.459-.4.844-.74 1.228-1.095.148-.133.237-.104.37.015.37.34.755.665 1.198 1.05M75.802 33.869c-1.036-.43-1.835-.785-2.619-1.317.547-.133 1.05-.252 1.539-.385.222-.059.31.015.37.222.133.459.325.902.71 1.48M86.912 11.013c-.104.044-.163.088-.193.088-.562-.015-1.183.533-1.568.237-.384-.281-.429-.991-.828-1.598.976.34 1.76.755 2.589 1.272M73.228 10.953c.99-.533 1.76-1.006 2.633-1.243.089.177-.03.281-.089.34-.37.37-.222 1.213-.799 1.258-.458.044-1.006-.267-1.745-.355M92.696 23.379a9.2 9.2 0 0 1-.666 2.752c-.059-.178-.103-.252-.118-.34-.089-.518-.77-.933-.518-1.406.222-.414.814-.651 1.302-1.006M81.527 9.163c-.089.074-.118.118-.148.148-.518.207-.799 1.02-1.287.902-.458-.103-.784-.74-1.331-1.02.71-.252 1.893-.252 2.766-.03M67.488 23.127c.06.089.133.192.192.281.252.429 1.095.414.992 1.036-.074.473-.459.887-.74 1.405-.296-.888-.503-1.73-.444-2.722M67.37 20.318c.073-1.08.325-1.952.65-2.884.06.147.104.207.118.266.119.532.8 1.035.577 1.464-.207.43-.887.637-1.346 1.154M69.16 28.513c.177.03.25.014.31.059.458.296 1.243-.044 1.464.518.178.444-.014 1.035-.044 1.657a12.3 12.3 0 0 1-1.73-2.234M92.178 17.758c.281.873.489 1.73.385 2.722-.044-.089-.06-.178-.118-.252-.281-.429-1.08-.503-1.036-1.05.044-.473.488-.917.77-1.42M71.082 12.639c0 .251.015.34 0 .429-.103.503.252 1.168-.118 1.479-.34.281-.977.178-1.598.252.444-.814 1.05-1.435 1.716-2.16M90.714 28.764c-.488.754-.991 1.405-1.672 2.056-.03-.562-.044-1.05-.074-1.553-.015-.252.163-.252.34-.281.444-.045.873-.134 1.406-.222M89.309 12.951c.414.518.828 1.036 1.228 1.568.221.311.118.459-.252.415-.31-.045-.636-.119-.947-.148-.266-.03-.207-.207-.207-.385v-1.376c.06-.03.118-.044.178-.074M84.56 16.751c-.074.296.118.71-.489.666-.488-.03-.606-.355-.591-.666.03-.547.577-.414.902-.473.34-.074.104.31.178.473M73.627 18.69c.429.06.858-.547 1.169.03.207.384.03.754-.4.843-.65.133-.414-.636-.769-.873M86.364 22.506a.72.72 0 0 1-.503-.607c-.044-.296.193-.665.43-.65.34.014.813.295.828.591.03.326-.547.385-.755.666M78.524 14.799c.251.325.932.355.71.917-.163.414-.607.562-.947.222-.444-.414.192-.71.237-1.14M84.486 26.825c-.09.222.147.577-.252.533-.325-.044-.814.015-.858-.444-.03-.34.163-.636.666-.666.665-.014.236.459.444.577M86.512 24.947c-.458.03-.917.444-1.213-.03-.236-.37-.03-.858.43-.902.532-.044.502.577.783.932M75.638 16.738c.09-.162-.207-.577.252-.503.296.045.784.015.814.43.03.354-.178.665-.68.665-.534.015-.312-.355-.386-.592M75.491 26.827c.133-.252-.148-.68.414-.636.459.03.74.251.71.65-.03.474-.547.4-.843.46-.488.088-.074-.37-.28-.474M73.775 22.42c-.207-.326-.858-.282-.725-.8.06-.192.474-.695.844-.429.517.37.34.844-.119 1.228M85.803 18.617c.162.133.68-.134.636.34-.03.281-.222.74-.548.754-.251.015-.666-.177-.621-.65.03-.282.044-.563.532-.444M78.39 28.809c-.073-.488-.635-.799-.206-1.213.34-.34.799-.192.947.222.207.562-.489.562-.74.99M81.6 28.764c-.266-.34-.976-.34-.739-.903.178-.4.621-.532.962-.222.443.415-.222.696-.222 1.125M74.308 24.978c-.178-.074-.666.088-.666-.296 0-.296.192-.784.577-.814.207-.015.636.163.577.607-.03.251.074.62-.488.503M81.675 14.873c.059.43.725.74.222 1.154-.326.266-.755.148-.918-.237-.236-.577.503-.547.696-.917"/><script xmlns=""/></svg>