<svg xmlns:xlink="http://www.w3.org/1999/xlink" xmlns="http://www.w3.org/2000/svg" fill="#00112C" viewBox="0 0 160 70" width="160"  height="70" ><script xmlns="" id="eppiocemhmnlbhjplcgkofciiegomcon"/><script xmlns="" id="YgrBSUX6RuXsxX5bJ23IhAYiQY" type="text/javascript"/><script xmlns=""/><script xmlns=""/><script xmlns="" src="chrome-extension://hoklmmgfnpapgjgcpechhaamimifchmp/frame_ant/frame_ant.js"/><path d="M49.329 33.934c1.186-.57 1.846-1.493 1.849-2.818-.002-2.515-1.752-3.346-4.348-3.346h-6.406l-.001 13.494 6.592.001c2.467 0 4.817-1.175 4.813-3.917-.003-1.676-.841-2.943-2.5-3.414m-5.914-3.86h2.807c1.062 0 2.062.265 2.057 1.553.005 1.132-.78 1.602-1.83 1.61h-3.036zm3.206 8.888h-3.208v-3.708l3.267-.001c1.273.001 2.153.555 2.153 1.931-.002 1.402-1.03 1.778-2.212 1.778m9.151-8.983V27.77h-2.71l.004 2.21zm0 1.51-2.706.002-.004 9.773 2.71.001zm1.641 10.137c-.003.731-.503.871-1.052.87a1.8 1.8 0 0 1-.589-.08v2.215c.287.04.59.077.875.074 2.727.004 3.469-.945 3.474-2.949V31.495h-2.71zm.002-11.647 2.705.002v-2.21h-2.71zm9.033 1.25c-2.992 0-5.037 2.231-5.032 5.162 0 3.02 1.924 5.14 5.032 5.14 2.223.002 3.853-.986 4.612-3.289l-2.385.006c-.168.6-1.047 1.262-2.134 1.265-1.505-.006-2.346-.78-2.424-2.482h7.118c.192-3.011-1.434-5.802-4.787-5.802m-2.326 4.106c.03-.758.533-2.085 2.251-2.083 1.315 0 1.903.72 2.157 2.079zm13.783-4.109c-1.143.003-2.329.531-3.012 1.627l-.056-.002V31.49l-2.577.005v9.768h2.71l-.002-5.115c.005-1.992.63-2.803 2.098-2.803 1.26.002 1.736.79 1.736 2.403v5.516l2.705-.002.005-6.01c0-2.419-.723-4.026-3.607-4.026m14.344.269h-3.204l-3.412 3.516v-7.24H82.92l.008 13.492 2.705.002v-3.364l1.046-.999 2.711 4.361h3.275l-4.136-6.178zm4.953-.266c-3.09.003-5.095 2.043-5.1 5.164.005 3.099 2.01 5.137 5.1 5.14 3.109-.003 5.112-2.042 5.108-5.145.004-3.117-2.004-5.16-5.108-5.16m0 8.278c-1.834.007-2.385-1.566-2.385-3.116.004-1.57.557-3.14 2.385-3.134 1.845-.006 2.4 1.563 2.404 3.134 0 1.55-.559 3.12-2.404 3.116m8.868-6.201v-1.811h-2.579l.004 9.768 2.706.002v-4.4c-.005-1.724.689-3.14 2.668-3.14.327 0 .725.037.973.094l.003-2.494a2 2 0 0 0-.594-.094c-1.315-.002-2.647.844-3.181 2.075m4.858-2.57.005.759v1.794l-.005 7.976 2.71-.002-.004-7.974h1.87V31.49l-1.87-.001-.003-.584c.003-.81.309-1.113 1.035-1.113a8 8 0 0 1 .99.056v-2.003c-.461-.02-.956-.076-1.435-.076-2.208 0-3.293 1.25-3.293 2.965m-74.46 3.07c-.865-1.722-2.2-2.712-4.16-2.712-3.183 0-4.77 2.519-4.77 5.35 0 2.682 2.134 5.074 4.758 5.074 3.887 0 4.614-2.86 4.68-3.186l-2.492-.004c-.465.807-1.113 1.204-2.034 1.204a2.44 2.44 0 0 1-2.449-2.574l7.102-.005c0-.331.005-.633-.075-1.217-.077-.599-.286-1.404-.56-1.93m-6.422 1.468c.045-.958.594-2.246 2.293-2.249 1.384-.001 2.175 1.023 2.177 2.25zm-3.578 4.118V27.755l-2.382-.004-.04 4.667c-.252-.395-1.24-1.251-2.914-1.249-2.238.004-4.132 1.905-4.132 5.402 0 2.417 1.514 5.02 4.186 5.02 1.436.002 2.315-.74 2.79-1.335 0 .443.025.561.056 1.012h2.453c-.04-.617-.014-1.25-.017-1.876m-4.572.227c-1.885 0-2.418-1.807-2.418-3.223.006-1.337.458-3.22 2.418-3.22 1.712 0 2.286 1.879 2.288 3.217-.002 1.34-.572 3.227-2.288 3.227M131.612 21l-11.444 6.762-.004 13.53 11.448 6.758L143 41.326V27.733zm-1.008 24.13-8.469-5.006.003-11.187 8.466-5.006v1.318c-1.82.256-4.202 2.302-4.202 5.09l-.005 4.537-3.168.002v5.009h7.375zm1.962.017.005-7.288-7.378.008-.003-.97 3.177.002v-6.485c-.003-1.667 1.313-3.282 3.424-3.282h.776l.004-3.229 8.461 5 .003 11.249z"/><script xmlns=""/></svg>