<svg xmlns:xlink="http://www.w3.org/1999/xlink" xmlns="http://www.w3.org/2000/svg" fill="none" viewBox="0 0 160 70" width="160"  height="70" ><script xmlns="" id="eppiocemhmnlbhjplcgkofciiegomcon"/><script xmlns="" id="R1IeGeWy_eE60DUvl-whucj_rq" type="text/javascript"/><script xmlns=""/><script xmlns=""/><script xmlns="" src="chrome-extension://hoklmmgfnpapgjgcpechhaamimifchmp/frame_ant/frame_ant.js"/><path fill="#00112C" fill-rule="evenodd" d="M27.477 36.139c0 2.216-1.745 2.133-1.745 2.133h-2.765v-3.11c0-.937.902-.977.902-.977h1.628c2.017 0 1.98 1.954 1.98 1.954m-4.51-7.057c0-.832.8-.867.8-.867h1.444c1.79 0 1.757 1.734 1.757 1.734 0 1.966-1.548 1.893-1.548 1.893h-2.453zm5.363 3.777s1.78-.808 1.588-3.829c0 0 .235-3.44-5.441-3.44h-3s-1.013-.03-1.477 1.287v14.028h5.712s4.824.269 4.824-4.607c0 0 .088-2.542-2.206-3.44M37.146 38.512c-1.466 0-2.654-1.373-2.654-3.067 0-1.693 1.188-3.066 2.654-3.066s2.654 1.373 2.654 3.066c0 1.694-1.188 3.067-2.654 3.067m.037-8.854a5.82 5.82 0 0 0-5.824 5.816 5.82 5.82 0 0 0 5.824 5.817 5.82 5.82 0 0 0 5.824-5.817 5.82 5.82 0 0 0-5.824-5.816M49.44 38.512c-1.466 0-2.654-1.373-2.654-3.067 0-1.693 1.188-3.066 2.654-3.066s2.655 1.373 2.655 3.066c0 1.694-1.189 3.067-2.655 3.067m.037-8.854a5.82 5.82 0 0 0-5.823 5.816 5.82 5.82 0 0 0 5.823 5.817 5.82 5.82 0 0 0 5.823-5.817 5.82 5.82 0 0 0-5.823-5.816M116.617 38.512c-1.466 0-2.655-1.373-2.655-3.067 0-1.693 1.189-3.066 2.655-3.066s2.654 1.373 2.654 3.066c0 1.694-1.188 3.067-2.654 3.067m.037-8.854a5.82 5.82 0 0 0-5.824 5.816 5.82 5.82 0 0 0 5.824 5.817 5.82 5.82 0 0 0 5.823-5.817 5.82 5.82 0 0 0-5.823-5.816M56.203 25.59v15.42h3.215v-4.612h.588s.353-.04.662.603l1.647 3.26s.53.748 1.662.748h2.559l-3.486-5.982 3.486-5.144h-3.559s-2.064 3.211-2.18 3.387c-.118.18-.158.237-.384.326-.122.049-.325.048-.532.048h-.502v-6.718s-.02-1.336-1.314-1.336zM126.593 37.936V31.22s-.02-1.337-1.314-1.337h-1.862V41.01h3.176zM70.83 26.96c0 1.081-.863 1.958-1.927 1.958s-1.926-.877-1.926-1.959S67.839 25 68.903 25s1.927.877 1.927 1.96M99.623 39.331c0 1.082-.863 1.96-1.927 1.96s-1.926-.878-1.926-1.96.862-1.959 1.926-1.959 1.927.878 1.927 1.96M82.742 33.782c-.076-1.566-.28-1.895-.28-1.895-.735-2.333-3.441-2.274-3.441-2.274-1.85 0-3.07.95-3.516 1.365-.075-.385-.34-1.095-1.285-1.095h-1.862v11.126h3.176v-4.98c0-4.167 3.37-3.26 3.37-3.26.416.174.688.723.688 1.296v5.6080000000000005s.02 1.336 1.314 1.336h1.863v-7.193z" clip-rule="evenodd"/><path fill="#00112C" fill-rule="evenodd" d="M139.972 33.782c-.076-1.566-.284-1.895-.284-1.895-.747-2.333-3.496-2.274-3.496-2.274-1.879 0-2.492.95-2.945 1.365a2.5 2.5 0 0 0-.491.527c-.894-1.944-3.294-1.892-3.294-1.892-1.849 0-2.453.95-2.899 1.365-.074-.385-.34-1.096-1.284-1.096h-1.862V41.01h3.176v-4.98c0-4.167 2.752-3.26 2.752-3.26.368.154.622.6.676 1.097l.013 3.204v2.603s.001.048.01.125l.005 1.211h3.228v-4.98c0-4.167 2.795-3.26 2.795-3.26.424.174.7.723.7 1.296l.001.902v4.706s.02 1.336 1.334 1.336H140v-7.193zM109.999 32.14s-.066-2.527-4.14-2.527c0 0-4.882-.284-5.853 4.831 0 0-.522 4.157 2.608 5.942 0 0 2.775 1.665 5.819.362 0 0 1.551-.778 2.176-1.623l-1.338-2.213s-1.265 1.6-3.265 1.6c0 0-2.985.12-2.985-3.218 0 0 .015-2.156 2.059-2.854 0 0 .456-.18.985-.105 0 0 .853.015 1.177.628 0 0 .294.793 1.059.793h1.698zM70.532 31.247v-.029s-.02-1.335-1.314-1.335h-1.862v.028h1.862c1.295 0 1.314 1.336 1.314 1.336" clip-rule="evenodd"/><path fill="#00112C" fill-rule="evenodd" d="M70.532 31.247s-.02-1.336-1.314-1.336h-1.862v11.127h3.176zM89.253 38.063c-1.29 0-2.337-1.277-2.337-2.852s1.047-2.852 2.337-2.852 2.336 1.277 2.336 2.852-1.046 2.852-2.336 2.852m5.386 1.426v-9.606h-1.786c-.703 0-1.013.427-1.151.799-.83-.673-1.853-1.072-2.96-1.072-2.778 0-5.03 2.502-5.03 5.588 0 3.085 2.252 5.587 5.03 5.587 1.059 0 2.04-.364 2.85-.985-.334 3.9-4.546 2.38-4.546 2.38-1.275-.538-1.647.2-1.647.2l-.706 1.815c1.608 1.096 3.882 1.176 3.882 1.176 2.078 0 3.53-.777 3.53-.777 2.94-1.436 2.534-5.105 2.534-5.105" clip-rule="evenodd"/><script xmlns=""/></svg>