<svg xmlns:xlink="http://www.w3.org/1999/xlink" xmlns="http://www.w3.org/2000/svg" fill="#00112C" viewBox="0 0 160 70" width="160"  height="70" ><script xmlns="" id="eppiocemhmnlbhjplcgkofciiegomcon"/><script xmlns="" id="5cEmf2t224WtdiIbUbt0VXdqt0" type="text/javascript"/><script xmlns=""/><script xmlns=""/><script xmlns="" src="chrome-extension://hoklmmgfnpapgjgcpechhaamimifchmp/frame_ant/frame_ant.js"/><path d="M100.969 54.532c0-.188-.085-.394-.308-.394h-.428v.839h.428c.223 0 .308-.205.308-.445M98.59 54.07c-.085 0-.41.017-.41.565v.872c0 .565.137.719.41.719.275 0 .411-.137.411-.719v-.872c.018-.548-.325-.565-.41-.565M83.397 43.341l-.137.069c0 .17 0 .376-.035.565.462-.24.6.017.6.017.222.462-.035.907-.035.907-.188.461-.684.615-.924.667-.068.188-.154.36-.257.53.12.017.24.034.343.052.479-.086.684-.274.684-.274 1.18-.822.924-2.002.924-2.002-.034-.941-1.163-.53-1.163-.53M79.256 35.18c-.137.29.034.564.085.838.274.428.976 2.327 1.198 2.79.137.478.394.889.428 1.402l.256 1.095c.206-.273.291-.445.326-.753.068-.427-.035-1.967-.035-2.823.189-.667.36-1.95.736-1.66.342.394.753.685 1.078 1.113.051 0 .086 0 .12-.035.103-1.574.205-3.097.222-4.637-.051-.085-.102.018-.154.018-.462.53-.975 1.078-1.129 1.762-.017.086 0 .188-.086.222-.102-.12-.256-.17-.376-.29-.53-.65-1.044-1.335-1.386-2.07-.034-.052-.034-.24-.154-.155-.086.342-.171.684-.445.941 0 .36.377.599.548.89.068.137.205.29.29.41a.183.183 0 0 1-.017.24c-.444.41-1.197.086-1.505.702M82.798 43.564v-.598s-.035-.754-3.85-.668c-3.696.085-3.713.838-3.713.855 0 0-.052 1.66.736 2.91.068.102.12.204.205.29.102.12.205.24.325.342.154.137.325.274.513.377.377.205.822.342 1.37.359l.495-.017.53-.017.428-.017c.086-.137.172-.291.24-.462.051-.137.103-.291.137-.445.017-.103.051-.206.051-.308.017-.086.034-.188.034-.274.086-.941-.085-1.797-.085-1.797 1.352-.085 2.036-.256 2.361-.41.103-.017.188-.069.223-.12m-3.73.103c-1.917.051-3.457-.12-3.474-.377 0-.256 1.54-.599 3.44-.65 1.916-.051 3.473.222 3.473.48.017.239-1.523.495-3.44.547M84.423 58.057c-.085 0-.12.068-.12.102-.034.137-.034.325-.034.36 0 .222.034.427.171.427s.171-.256.171-.427c0-.086-.017-.223-.034-.308-.034-.035-.068-.154-.154-.154M76.98 30.269a.76.76 0 0 0 .171.376c.29.77.41 1.626.873 2.327l.427 1.078c.103-.53.291-1.026.462-1.522l.343-1.267c-.343-.359-1.523-.598-1.951-.855-.103-.051-.222-.291-.325-.137M83.123 58.057c-.086 0-.12.068-.12.102-.034.137-.034.325-.034.36 0 .222.034.427.17.427.155 0 .172-.256.172-.427 0-.086 0-.223-.034-.308-.017-.035-.052-.154-.154-.154M66.696 11.208c.154-.394.326-.941.103-1.386-.205-.411-.582-.53-.975-.325-.377.188-.513.598-.308.992.205.41.804.53 1.18.719M66.645 13.928c.325.633 1.06.804 1.745.445.53-.274.805-.616.89-1.198l-2.395-1.06c-.326.598-.6 1.146-.24 1.813M55.626 20.55l1.83 1.25c1.198.803 1.729.666 2.174.016s.376-1.215-.805-2.019l-1.83-1.249c-1.147-.77-1.711-.017-1.865.206-.154.205-.65 1.009.496 1.796M79.068 54.156h-.018l-.342 1.386h.719zM59.664 54.07c-.086 0-.41.017-.41.565v.872c0 .565.153.719.41.719.274 0 .41-.137.41-.719v-.872c0-.548-.325-.565-.41-.565M83.345 54.138h-.376v2.037h.274c.393 0 .547-.171.547-.787v-.53c0-.531-.137-.72-.445-.72M65.396 32.664c-.051-.034-.017-.154-.103-.12-.274.24-.479.582-.736.856-.359.325-.325.855-.513 1.283-.274.702-1.01.89-1.523 1.352-.376.428-.308 1.027-.427 1.557-.137.41-.343.804-.6 1.164-.41.684-1.197 1.266-1.283 2.121-.05.548.223 1.027.154 1.54-.222.548-.12 1.232-.085 1.814.034.12 0 .257.085.342.171-.034.308-.17.462-.222 0-.342-.068-.719 0-1.061.172-.051.394-.051.462-.257-.068-.804.017-1.625.172-2.412.102-.65.616-1.18 1.18-1.54.428-.223.924-.548 1.01-1.078.308-.77.616-1.557.77-2.379-.052-.479.53-.496.821-.701.701-.223.205-1.061.496-1.523.154-.36-.36-.428-.342-.736M97.273 45.395c-.496-.753-1.18-1.437-1.95-1.831l-.069.034c-.034.034-.051.052-.051.103.462.325.736.838.821 1.403.206.719.171 1.608-.205 2.241-.052.086-.137.154-.154.24 0 .068.068.085.102.103.394.051.805.17 1.181.325.154.017.291.188.48.205.273-.257.239-.633.324-.958.017-.257.069-.565-.05-.821-.035-.394-.258-.702-.429-1.044"/><path d="M94.45 44.334c-.308 0-.274-.377-.513-.53-.223-.189-.548-.12-.839-.12-.256-.154-.342-.48-.616-.65-.393-.223-.924-.052-1.369-.018-.17-.051-.325-.137-.513-.188-.325-.086-.547.171-.718.41-.445.72-1.061 1.37-1.49 2.105l-.016.137c.137.103.29.171.445.189.393-.274.752-.702 1.129-1.01.103-.154.257-.308.41-.394.12.12.257.257.343.394a20 20 0 0 0-.616 1.591c.085.41.547.377.855.514.325.017.514-.394.805-.514-.018.206-.154.394-.12.65.034.086.051.172.154.223.154.085.29.171.462.222.137.069.222-.051.342-.085.36-.291.667-.804 1.044-1.112 0 .136-.137.273-.171.427-.086.325-.343.6-.291.976.068.205.29.342.462.41.427-.342.838-.77 1.112-1.197.342-.582.838-1.13.667-1.866-.12-.427-.599-.479-.958-.564M67.638 34.58c.205.07.89.72 1.095.788.154-.325.24-.702.325-1.06.085-.377.29-.72.308-1.113-.325-.223-1.078-.975-1.386-1.198-.257-.205-.702-.907-.976-1.078-.325.36-.94.89-1.163 1.284.325.752 1.095 1.865 1.797 2.378M80.881 30.645c-.103.086-.29.189-.274.343.086.308.24.598.377.906.445.565.633 1.232 1.146 1.763.223-.086.223-.377.325-.582.171-.41.394-.787.633-1.164.103-.325.377-.598.565-.872.017-.069.103-.12.137-.206.103-.564.086-1.129.017-1.676-.017-.103.017-.103-.034-.189l-.017-.154c-.086-.427-.171-.838-.223-1.283.017-.103-.068-.171-.085-.257-.034-.017-.086-.034-.12.017-.068.428-.257.839-.513 1.215-.616.805-1.232 1.438-1.934 2.14M84.868 47.294l-1.814.103a.2.2 0 0 1 .017.102.57.57 0 0 1-.154.36c-.479.479-2.275.633-3.644.616-1.386-.017-3.166-.206-3.645-.685a.54.54 0 0 1-.154-.29v-.069c0-.086.034-.222.154-.36.12-.12.308-.222.565-.29a3.3 3.3 0 0 1-.291-.394c-1.506.257-2.498.702-2.498 1.232 0 .086.034.188.085.274.497.719 2.892 1.3 5.767 1.335 2.772.034 5.099-.445 5.715-1.113.102-.12.17-.24.17-.359-.016-.154-.102-.308-.273-.462M72.463 43.65c-.171-.223-.017-.65-.394-.753 0-.326-.085-.685-.393-.805-.12-.068-.154-.188-.206-.308-.12-.325-.547-.342-.821-.342-.205.188-.24.48-.394.702-.034.308-.325.462-.564.564-.325.308-.565.719-.48 1.181-.239.257-.581.393-.906.547-.53.035-.548.634-.89.942-.308.136-.582.376-.838.564-.052.035-.394.274-.428.36h6.416c0-.548-.068-1.66-.068-2.208.017-.154-.034-.29-.034-.445M81.942 21.012c.24.205.257.53.342.804.086.753.394 1.42.377 2.208.051.41-.035.735-.035 1.112-.068.821-.154 1.694-.701 2.241-.154.154-.257.24-.274.308.034.052-.017.137.052.171.153 0 .205-.12.325-.205.65-.701 1.129-1.574 1.215-2.55.034-1.094.05-2.326-.137-3.37-.035-.206-.035-.41-.12-.582-.034-.034-.086.034-.12.051-.205-.137-.462-.188-.701-.273-.069 0-.257-.069-.223.085"/><path d="M79.991 0C60.673 0 45 15.673 45 34.991c0 19.319 15.673 34.992 34.991 34.992 19.336 0 34.992-15.674 34.992-34.992S99.327 0 79.991 0m26.06 18.634c.719 1.095.428 1.882-.684 2.515l-.479-.719c.325-.205.616-.428.701-.684.086-.257-.068-.633-.171-.77-.376-.582-.89-.582-.975-.548-.069.017-.308-.034-1.249.6l-1.472.974c-1.352.89-1.215 1.438-.855 1.968.136.206.65.804 1.728.103l.479.718c-1.711 1.181-2.515-.05-2.755-.41-.445-.685-1.095-1.763 1.027-3.166l1.557-1.026c1.54-1.027 2.447-.633 3.148.445m-3.011-3.423-4.877 4.415-.565-.616 4.877-4.415zm-5.014-4.397-2.635 3.285c-.907 1.13-.787 1.677-.171 2.173.616.497 1.18.48 2.088-.633l2.635-3.285.65.53-2.618 3.251c-1.147 1.42-2.122 1.557-3.2.685-1.095-.873-1.163-1.848-.017-3.285l2.618-3.251zm-8.247.838.77.394c-.257.53-.719 1.283.034 1.677.787.41 1.198-.24 1.557-.958l2.036-3.953.753.376-2.258 4.398c-.172.308-.822 1.574-2.43.736-.325-.171-.89-.6-.941-1.215-.017-.48.24-.975.479-1.455m-5.065-5.834 3.32.718-.155.719-2.498-.548-.445 2.07 2.31.497-.154.719-2.31-.497-.479 2.225 2.55.547-.154.719-3.371-.736zm-6.485-.377.838.017-.034 2.84 2.31.035.034-2.84.839.017-.086 6.553-.838-.017.034-3.012L79.016 9l-.034 3.012-.838-.017zm-1.933.154.136.719-1.694.325 1.096 5.75-.822.153-1.095-5.749-1.694.325-.137-.719zM65.55 8.915c.736-.394 1.557-.36 1.985.462.325.616.103 1.42-.171 2.053l1.899.856c-.086-.445-.29-.839-.753-1.712l.667-.342c.65 1.25.805 1.865.788 2.362l1.59.752-.838.445-.787-.36c-.154.77-.564 1.216-1.249 1.575-1.043.548-2.19.462-2.789-.667-.496-.958-.137-1.609.36-2.447-.548-.205-1.25-.53-1.54-1.06-.445-.856.102-1.54.838-1.917m-5.68 3.576.513.513-1.831 1.797 1.471 1.505 1.694-1.66.514.514-1.695 1.66 1.592 1.625 1.865-1.796.513.513-2.464 2.413-4.602-4.706zm-5.322 5.852c.787-1.147 1.848-1.232 2.943-.497l1.78 1.215c1.505 1.027 1.727 1.985.94 3.149s-1.762 1.3-3.268.273l-1.78-1.214c-1.077-.736-1.402-1.763-.615-2.926m.393 8.743.342-.804c.548.205 1.335.616 1.677-.171.343-.821-.342-1.164-1.078-1.471l-4.106-1.712.325-.77 4.569 1.9c.325.137 1.625.684.94 2.361-.136.342-.53.941-1.129 1.027-.53.068-1.06-.154-1.54-.36m2.807 29.43c-.291 0-.72-.016-.72-1.026v-.736c0-.735.292-.94.737-.94.444 0 .616.273.599.77h-.291c0-.155 0-.292-.069-.377-.051-.086-.188-.12-.256-.12-.24 0-.326.171-.343.205-.017.035-.068.086-.068.548v.701c0 .634.188.72.41.72.086 0 .36-.035.36-.549h.29c.018.805-.495.805-.65.805m2.617-1.009c0 .719-.24 1.01-.718 1.01-.48 0-.719-.291-.719-1.01v-.855c0-.514.24-.856.719-.856s.718.325.718.856zm1.746-1.369h-.839v.839h.787v.29h-.787v1.198h-.29v-2.6h1.129zm1.54 0h-.839v.839h.787v.29h-.787v1.198h-.29v-2.6h1.129zm1.625 2.31h-1.18v-2.6h1.163v.29h-.873v.839h.822v.29h-.822v.907h.89zm1.711 0h-1.18v-2.6h1.163v.29h-.873v.839h.822v.29h-.822v.907h.89zm.582.462h-.205l.17-.838h.326zm2.6-1.095c0 .137 0 .702-.632.702-.12 0-.36-.052-.48-.257-.085-.171-.085-.393-.085-.599h.308c0 .24-.017.582.274.582.308 0 .325-.308.325-.616v-1.762h.29zm2.106-.308c0 .719-.24 1.01-.72 1.01-.478 0-.718-.291-.718-1.01v-1.66h.291v1.66c0 .565.154.719.428.719s.428-.137.428-.719v-1.66h.29zm.975.941h-.291v-2.6h.29zm1.078 2.72c-.514 0-.514-.324-.514-.461h.291c0 .068 0 .257.24.257.154 0 .257-.069.257-.189s-.086-.136-.257-.17c-.308-.086-.496-.172-.496-.394s.154-.411.53-.411c.137 0 .308.034.394.154.068.103.068.205.068.24h-.274c0-.052-.017-.206-.222-.206-.137 0-.222.069-.222.171 0 .12.102.137.29.189.223.05.462.12.462.376.017.257-.17.445-.547.445m.29-2.651c-.29 0-.718-.017-.718-1.027v-.736c0-.735.29-.94.736-.94.445 0 .616.273.599.77h-.291c0-.155 0-.292-.069-.377-.051-.086-.188-.12-.256-.12-.24 0-.325.171-.343.205-.017.035-.068.086-.068.548v.701c0 .634.188.72.41.72.086 0 .36-.035.36-.549h.29c0 .805-.495.805-.65.805m1.027 2.635h-.29v-1.335h.29zm1.284-4.175v.29h-.822v.907h.89v.291h-1.18v-2.6h1.163v.29h-.873v.839h.822zm.41 4.175h-.393l-.514-1.095v1.095h-.273v-1.318h.41l.496 1.044v-1.044h.257v1.318zm1.42-.12a.55.55 0 0 1-.393.154c-.462 0-.599-.342-.599-.667 0-.428.24-.702.599-.702.29 0 .496.171.496.445h-.29c0-.051-.018-.24-.223-.24s-.291.223-.291.497c0 .085 0 .462.274.462.12 0 .24-.069.24-.257h.29c0 .069 0 .188-.102.308m-.581-2.584.718-2.6h.36l.735 2.6h-.325l-.17-.616h-.873l-.172.616zm2.036 2.704h-.907v-1.318h.89v.223h-.6v.308h.566v.222h-.565v.36h.616zm.496-4.962v2.258h-.257v-2.6h.411l.89 2.224v-2.225h.256v2.601h-.393zm1.574 4.962h-.907v-.257l.326-.308.188-.188c.068-.086.085-.12.085-.188 0-.103-.051-.171-.154-.171-.154 0-.154.154-.154.188h-.274c0-.052 0-.154.069-.24.068-.085.205-.137.36-.137.273 0 .427.154.427.343 0 .136-.051.308-.599.752h.616v.206zm.839.017c-.325 0-.445-.308-.445-.65 0-.171.034-.668.445-.668.17 0 .29.103.342.172.068.102.12.222.12.461-.017.291-.086.685-.462.685m.085-2.72h-.513v-2.602h.702c.29 0 .496.12.615.394.086.223.103.736.103.821 0 .548-.051.873-.137 1.044-.154.24-.376.342-.77.342m1.198 2.72c-.325 0-.445-.308-.445-.65 0-.171.034-.668.445-.668a.41.41 0 0 1 .342.172c.069.102.12.222.12.461 0 .291-.068.685-.462.685m1.728-.017h-.907v-.257l.325-.308.189-.188c.068-.086.085-.12.085-.188 0-.103-.051-.171-.154-.171-.154 0-.154.154-.154.188h-.274c0-.052 0-.154.069-.24.068-.085.205-.137.36-.137.273 0 .427.154.427.343 0 .136-.051.308-.599.752h.616v.206zm1.54-2.704h-.29v-2.31l-.634 2.31h-.274l-.616-2.31v2.31h-.273v-2.6h.462l.564 2.19.582-2.19h.48zm2.088-.94c0 .718-.24 1.009-.719 1.009-.48 0-.719-.291-.719-1.01v-1.66h.291v1.66c0 .565.154.719.428.719s.428-.137.428-.719v-1.66h.29zm1.334 1.009c-.29 0-.718-.017-.718-1.027v-.736c0-.735.273-.94.735-.94.445 0 .616.273.6.77h-.292c0-.155 0-.292-.068-.377-.051-.086-.188-.12-.257-.12a.36.36 0 0 0-.342.205c-.017.035-.068.086-.068.548v.701c0 .634.188.72.41.72.086 0 .36-.035.36-.549h.29c0 .805-.513.805-.65.805m2.584-.069h-.29v-1.197h-.788v1.197h-.29v-2.6h.29v1.129h.787v-1.13h.291zm3.61 0H97v-2.31l-.634 2.31h-.273l-.616-2.31v2.31h-.274v-2.6h.462l.564 2.19.582-2.19h.48zm2.02-.94c0 .718-.24 1.009-.72 1.009-.478 0-.718-.291-.718-1.01v-.855c0-.514.24-.856.719-.856s.719.325.719.856zm1.693.94c-.085-.188-.068-.513-.085-.872-.017-.325-.24-.325-.342-.325h-.343v1.197h-.29v-2.6h.787c.393 0 .547.325.547.65 0 .308-.154.547-.41.599.256.05.359.154.376.667 0 .12.034.513.086.684zm2.019 0h-1.18v-2.6h1.163v.29h-.872v.839h.821v.29h-.821v.907h.889zm1.746-4.893H55.335v-5.253h4.86v-.325c-.394-.668-1.044-1.232-.84-2.122.104-.633.326-1.232.172-1.9-.154-.923 0-1.882.667-2.549.685-.804 1.284-1.728 1.3-2.772.086-.479.275-1.044.754-1.266.701-.394 1.18-1.112 1.351-1.882.326-.958 1.267-1.609 1.917-2.379.085 0 .188.052.29.035.805-.822 1.318-1.712 2.037-2.567.479-.548.958-1.198 1.591-1.608.034-.069.137-.103.223-.154.513-.377 1.078-.702 1.557-1.113.41-.205.804-.496 1.197-.735.137 0 .223-.12.308-.172v-.222c-.12-.513-.342-.992-.359-1.557.034-.205.171-.377.342-.513-.308-.411-.89-.634-1.095-1.147-.222-.325-.36-.718-.24-1.146.326-1.095 1.472-1.865 2.071-2.823.599-.53 1.283-1.147 1.916-1.677.343-.343.839-.394 1.232-.685.326-.085.633-.205.959-.256.222-.052.496-.103.752-.154.634-.137 1.37-.018 1.985.24.137-.018.24.085.377.102.667.085 1.283.36 1.933.496.154.068.291.12.428.205.223.069.462.223.599.411.171.154.342.325.479.53.428.89.069 1.934 0 2.84.051.155.017.36.103.497.256 0 .496.034.633.274.222.77-.12 1.574-.086 2.395-.137.565-.188 1.284-.855 1.506-.24.171-.12.496-.223.736.069.256-.29.718.137.787.496.342 1.01.667 1.42 1.13.343.102.719.119 1.044.239.342.085.633.273.907.496.308.017.616.137.941.137.702.102 1.472.222 2.19.376.428.154.941.137 1.37.308.58.154 1.163.188 1.71.394.206.017.36.034.548.085.034-.051.085-.017.12 0 .923.719.804 1.917 1.505 2.755.257.48.736.822.719 1.386-.188.154-.034.41-.017.599 0 .394.068.941-.12 1.318.103.308.171.616.308.906.154.343.29.702.428 1.044.068.325-.24.565-.223.873.325.462.77.873.976 1.386.308.41.445.924.445 1.454-.052.051-.035.171-.018.24l.171.53c.343.171.6.496.873.787.086.565.086 1.25.171 1.848a48 48 0 0 0 .188 1.711c.086.052.189.394.291.668h4.928v5.253zm3.045-28.336-1.95.804.907 2.19-.668.274-.906-2.19-2.105.873.992 2.412-.667.274-1.317-3.182 6.074-2.516 1.3 3.132-.667.273z"/><path d="M73.763 19.233c.736-.497 1.557-.77 2.361-1.096.462-.273 1.027-.308 1.506-.547.462-.12.822-.12 1.283-.257.103-.034.377-.085.462-.17.326-.035.6-.12.924-.155.6-.12 1.3.034 1.848-.051a.16.16 0 0 0 .035-.171c-.137-.223-.428-.206-.65-.257-1.079-.154-2.071.274-3.08.29 0-.05.085-.067.085-.119.445-.12.89-.274 1.352-.342.53-.034 1.06-.171 1.608-.188.206-.052.445-.017.548-.206-.257-.12-.53-.068-.787-.17-.48-.07-.907-.24-1.318-.446-.445-.17-.53-.205-.941-.222-.428-.12-1.198.205-1.608.24a6.9 6.9 0 0 0-1.866 1.18c-.444.36-.872.668-1.3 1.044-.804.582-1.386 1.369-1.814 2.224-.325.394-.205 1.027-.017 1.438l.086.137c.051 0 .085 0 .12-.035.034-.154.12-.308.12-.479.12-.65.461-1.249 1.043-1.642M68.647 31.672c.12.051.205.034.257-.086.325-.24.513-.599.787-.89.154-.188.24-.479.496-.547.428.051.856-.069 1.232-.257.137-.085.274-.051.41-.12.086 0 1.575-.41 1.643-.359.137-.068.445-.017.582-.102.069-.052.137-.103.205-.171a1 1 0 0 0 .308-.052c.565-.274 1.198-.36 1.643-.958.274-.377-.034-.548-.103-.787-.12-.12.069-.496.103-.65.103-.36-.188-.343-.325-.548.017-.171.034-.205.085-.376.103-.377.017-.565-.29-.77a.31.31 0 0 0-.257-.035c-.034-.017-.017-.102 0-.136-.069-.154-.086-.326-.205-.445-.052-.052-.822.102-1.044.24-.291.187-.616.393-.924.581-.496.393-1.061.65-1.54 1.06-.41.258-.839.497-1.215.788-.325.188-.547.393-.89.582-.77.735-1.437 1.677-2.156 2.532-.137.12.052.223.086.325.222.48.65.958 1.112 1.18"/><script xmlns=""/></svg>