<svg xmlns:xlink="http://www.w3.org/1999/xlink" xmlns="http://www.w3.org/2000/svg" fill="none" viewBox="0 0 160 70" width="160"  height="70" ><script xmlns="" id="eppiocemhmnlbhjplcgkofciiegomcon"/><script xmlns="" id="usLHkexTBDkH0_OmfqvT1ddo0z" type="text/javascript"/><script xmlns=""/><script xmlns=""/><script xmlns="" src="chrome-extension://hoklmmgfnpapgjgcpechhaamimifchmp/frame_ant/frame_ant.js"/><path fill="#00112C" d="M32 33.2C32 27 36.9 22 43.3 22c3.6 0 5.3 1.2 6.6 2.4.7.5 1 .7 1.5.7 1 0 1.3-1 1.3-1.1l3.5.7c-.3 1.3-1.7 3.8-4.8 3.8-1.7 0-2.7-.7-3.7-1.4-.9-.7-2.2-1.4-4.4-1.4-2.1 0-4 .8-5.3 2.2-1.4 1.5-2.2 3.4-2.2 5.4s.8 3.9 2.2 5.4c1.3 1.4 3.3 2.2 5.3 2.2 2.8 0 5-1.3 6.3-3.6l3.3 1.8c-1.7 3.1-5.5 5.3-9.6 5.3-6.4 0-11.3-5-11.3-11.2"/><path fill="#00112C" fill-rule="evenodd" d="M53.9 36.4c0-4.7 3.5-8 8.1-8 2.1 0 3.9 1 4.6 1.8v-1.6h3.6v15.6h-3.6v-1.6c-.7.8-2.4 1.8-4.6 1.8-4.6 0-8.1-3.3-8.1-8m3.5 0c0 2.6 2 4.7 4.7 4.7 2.6 0 4.6-2.1 4.6-4.7s-2-4.7-4.6-4.7-4.7 2.1-4.7 4.7M88.3 30.2c1-1 2.6-1.8 4.7-1.8 4.8 0 8 3.1 8 7.9 0 4.9-3.2 8-8 8-2 0-3.7-.7-4.7-1.8V52l-3.5.4V28.6h3.5zm0 6.2c0 2.7 1.8 4.7 4.6 4.7s4.6-2 4.7-4.7c0-2.7-1.9-4.7-4.7-4.7s-4.6 2-4.6 4.7" clip-rule="evenodd"/><path fill="#00112C" d="M123.9 30.2c.7-1 1.9-1.8 4.1-1.8v3.3h-.3c-2.2 0-3.8 1.6-3.8 3.9v8.6h-3.5V28.6h3.5z"/><path fill="#00112C" fill-rule="evenodd" d="M102.2 36.4c0-4.4 3.6-8 8.2-8 4.5 0 8.1 3.6 8.1 8 0 .4 0 .8-.1 1.2h-12.5c.4 2 2.2 3.6 4.5 3.6 1.9 0 3.2-.7 3.7-1.7h4.2c-1 2.8-4.1 4.9-7.9 4.9-4.6 0-8.2-3.6-8.2-8m8.2-4.8c-2.1 0-3.8 1.3-4.3 2.9h8.6c-.5-1.6-2.3-2.9-4.3-2.9" clip-rule="evenodd"/><path fill="#00112C" d="M76.2 32.7c0-.9.8-1.2 1.5-1.2.6 0 1.2.3 1.6 1.1l2.9-1.3c-.7-1.1-2.2-2.8-4.6-2.8-2.7 0-4.8 1.9-4.8 4.3 0 2.6 1.7 3.9 4.1 4.5 2.2.6 2.5 1.4 2.5 2.1 0 1-.8 1.9-2.1 1.9-1.2 0-2-.8-2.2-1.8h-3.4c.1 2.2 2 4.9 5.6 4.9s5.7-2.6 5.7-5.1c0-2.4-1.3-3.6-3.9-4.6l-.343-.126c-1.677-.613-2.557-.936-2.557-1.874"/><script xmlns=""/></svg>