<svg xmlns:xlink="http://www.w3.org/1999/xlink" xmlns="http://www.w3.org/2000/svg" fill="#00112C" viewBox="0 0 160 70" width="160"  height="70" ><script xmlns="" id="eppiocemhmnlbhjplcgkofciiegomcon"/><script xmlns="" id="ZtS3raCg25jnE2_l2Nu1xQGo3l" type="text/javascript"/><script xmlns=""/><script xmlns=""/><script xmlns="" src="chrome-extension://hoklmmgfnpapgjgcpechhaamimifchmp/frame_ant/frame_ant.js"/><path d="M119.973 43.209c-1.366.006-2.732.006-4.092.013-.2 0-.24-.08-.234-.253.014-.353-.006-.712.007-1.065.007-.206-.033-.286-.266-.293-.287-.007-.48.08-.674.306-.9 1.072-2.099 1.551-3.459 1.684-3.906.4-7.099-2.17-8.159-5.777-.926-3.149-.58-6.17 1.433-8.833 1.84-2.443 4.346-3.381 7.372-2.742 1.16.246 2.127.878 2.893 1.79.24.286.514.193.787.193.146 0 .08-.16.08-.246.006-.885.006-1.77.006-2.663 0-1.93.007-3.853-.006-5.784 0-.306.093-.36.373-.352 1.32.013 2.64.006 3.966.006-.027 8-.027 16.008-.027 24.016m-12.957-8.367c0 .572.073 1.131.24 1.67.573 1.844 2.066 2.99 4.019 3.076 1.786.08 3.406-.999 4.086-2.743a5.37 5.37 0 0 0 .213-3.294c-.853-3.462-4.372-4.12-6.492-2.763-1.473.939-2.026 2.376-2.066 4.054M40 33.963c.107-.512.2-1.032.333-1.537.887-3.375 3.7-5.811 7.166-6.257 2.133-.273 4.172.026 6.125.938.207.1.247.18.154.393q-.61 1.456-1.18 2.922c-.093.246-.187.246-.407.153-1.333-.592-2.726-.765-4.159-.472-2.086.426-3.446 2.01-3.566 4.146-.04.713-.027 1.418.153 2.11.467 1.817 1.893 3.022 3.78 3.255 1.373.167 2.672 0 3.886-.705.14-.08.2-.074.273.08.433.911.866 1.817 1.313 2.722.093.186-.027.233-.133.3a9.1 9.1 0 0 1-3.726 1.424c-2.213.313-4.32.006-6.226-1.225-2.08-1.331-3.233-3.281-3.653-5.69-.04-.214-.006-.44-.133-.633v-.267a3.1 3.1 0 0 0 0-1.397z"/><path d="M40 34.23q.16.698 0 1.397zM91.778 35.874c0 3.028.033 6.05-.007 9.078-.04 2.796-1.346 4.826-3.872 6.05-.82.4-1.707.567-2.613.573-2 .014-4 0-6 .007-.233 0-.3-.06-.3-.293.014-1.178.014-2.35 0-3.528 0-.246.06-.312.314-.312 1.72.013 3.44.006 5.166.006 1.82 0 2.993-1.171 3-2.995 0-.932.006-1.864-.007-2.796 0-.133.08-.36-.067-.379-.233-.033-.513-.14-.72.093-.226.26-.46.513-.726.732-.96.786-2.087 1.092-3.3 1.152-3.52.173-6.425-2.05-7.565-5.298-1.213-3.455-.827-6.736 1.5-9.652a6.95 6.95 0 0 1 7.445-2.356 5.34 5.34 0 0 1 2.58 1.684c.24.28.5.226.78.22.146 0 .12-.134.12-.227 0-.42.013-.845-.007-1.264-.007-.227.066-.28.28-.273 1.233.006 2.466.013 3.7 0 .259 0 .306.08.306.32-.014 3.16-.007 6.31-.007 9.458m-4.253-1.418a5.3 5.3 0 0 0-.22-1.544c-.52-1.804-2-3.009-3.839-3.129-1.846-.12-3.486.872-4.2 2.556-.466 1.105-.532 2.257-.273 3.421.66 3.009 3.967 4.44 6.473 2.79 1.466-.966 2.02-2.41 2.06-4.094M65.83 35.753c-1.98 0-3.954.007-5.933-.006-.247 0-.314.053-.307.306.047 1.93 1.393 3.435 3.313 3.694 1.053.147 2.08.067 3.06-.393.64-.3 1.16-.738 1.526-1.344.093-.153.166-.206.366-.16 1.1.266 2.2.513 3.307.752.246.054.266.133.18.353-1.007 2.456-2.867 3.887-5.433 4.413-2.24.46-4.426.273-6.452-.865-2.4-1.345-3.746-3.435-4.173-6.117-.38-2.396.007-4.666 1.373-6.703 1.52-2.263 3.686-3.468 6.4-3.66 2.672-.187 4.998.598 6.831 2.608 1.253 1.372 1.88 3.029 2.107 4.86.08.652.053 1.304.08 1.956.006.253-.06.313-.314.313-1.98-.013-3.959-.007-5.932-.007m-2.18-2.709h3.465c.694 0 .687 0 .5-.678-.48-1.778-2.206-2.97-4.099-2.87-1.926.1-3.506 1.379-3.88 3.269-.053.266.027.293.254.286 1.253-.013 2.506-.007 3.76-.007M95.51 34.961c0-2.602.007-5.211-.006-7.814 0-.3.087-.36.373-.36q1.8.021 3.6 0c.233 0 .326.04.326.3q-.009 7.848 0 15.695c0 .267-.086.306-.32.3a168 168 0 0 0-3.666 0c-.26 0-.306-.073-.306-.313zM97.79 24.059a2.52 2.52 0 0 1-2.546-2.523A2.537 2.537 0 0 1 97.784 19a2.535 2.535 0 0 1 2.526 2.516 2.513 2.513 0 0 1-2.52 2.543"/><script xmlns=""/></svg>