<svg xmlns:xlink="http://www.w3.org/1999/xlink" xmlns="http://www.w3.org/2000/svg" fill="none" viewBox="0 0 160 70" width="160"  height="70" ><script xmlns="" id="eppiocemhmnlbhjplcgkofciiegomcon"/><script xmlns="" id="b8Hcsj3j6KDUvHDftzHEGO18mo" type="text/javascript"/><script xmlns=""/><script xmlns=""/><script xmlns="" src="chrome-extension://hoklmmgfnpapgjgcpechhaamimifchmp/frame_ant/frame_ant.js"/><path fill="#00112C" d="M72.832 18.681v2.446q-.167 0-.332.004c-.241.005-.48.01-.717-.008-1.39-.099-2.481-.69-3.131-1.966-.39-.767-.518-1.595-.52-2.447v-3.692h-1.25v-2.385h1.237V7h2.693v3.617h1.887v2.382h-1.865l-.006.096a2 2 0 0 0-.006.147l-.002.849c-.002.889-.004 1.778.007 2.666.003.282.047.57.118.844.16.613.59.938 1.206 1.024.149.021.3.03.458.04zM60.16 20.703c1.243-.668 1.972-1.748 2.343-3.13h-.517c-.765 0-1.513 0-2.26.005-.058.002-.134.073-.169.131a2.463 2.463 0 0 1-3.659.663c-1.245-.98-1.533-2.88-.646-4.265 1.142-1.783 3.339-1.602 4.294-.07.038.06.152.102.232.104q.655.009 1.31.006h1.373l-.003-.047a.3.3 0 0 0-.006-.06c-.299-1.06-.835-1.974-1.73-2.627-1.61-1.174-3.39-1.357-5.232-.703-2.538.901-3.929 3.586-3.365 6.325.846 4.113 5.136 5.224 8.035 3.668M98.21 21.121h2.663v-.278l-.001-1.75v-.002c-.002-1.4-.004-2.8.013-4.201.01-1.043.703-1.817 1.726-1.956.961-.13 1.87.219 2.155 1.307.069.266.099.549.101.824q.007 2.173.004 4.348v1.702h2.678l.004-.054q.005-.054.006-.104v-1.72q.001-2.15-.001-4.3c-.002-.897-.182-1.753-.601-2.558-1.189-2.291-4.492-2.724-6.105-.854-.013.015-.033.024-.06.038l-.051.027v-.952H98.21z"/><path fill="#00112C" fill-rule="evenodd" d="M97.325 16.914h-7.877l-.001.049q-.004.038.001.07c.498 1.89 2.924 2.618 4.372 1.307.078-.071.144-.156.21-.241q.075-.1.158-.19c.057-.06.145-.128.22-.129q1.11-.01 2.22-.005H97q.032 0 .07.007l.056.008a4.5 4.5 0 0 1-.76 1.573c-.815 1.1-1.926 1.706-3.259 1.92-1.732.275-3.297-.104-4.606-1.299-1.384-1.263-1.968-2.856-1.778-4.72.23-2.275 1.851-4.182 4.04-4.737 2.653-.673 5.751.651 6.462 4.065.162.776.198 1.774.101 2.322m-2.69-2.208c-.189-.98-1.118-1.906-2.382-1.97-1.336-.064-2.55.807-2.766 1.97z" clip-rule="evenodd"/><path fill="#00112C" d="m68.722 62.345.002.004.668 1.052.034-.05.026-.04.067-.101 2.237-3.51c3.598-5.642 7.195-11.283 10.803-16.918.23-.357.242-.583.011-.95a7248 7248 0 0 1-11.758-18.718c-.107-.171-.22-.228-.417-.227q-7.589.005-15.179.004h-2.839v1.907q-.001 5.776.005 11.554c0 .123.037.263.102.367q1.754 2.779 3.514 5.553l4.844 7.643 7.875 12.422.004.006zM58.199 52.082l-5.766-9.107-.042.009v20.705h13.156zM86.67 21.118h-9.145v-.373l-.001-.465q-.005-.658.005-1.314a.5.5 0 0 1 .126-.304q2.217-2.313 4.444-4.621l.807-.84c.027-.026.052-.055.091-.1l.041-.048h-5.28V10.64h8.745v.705c.001.5.002 1-.007 1.5a.53.53 0 0 1-.124.325 1817 1817 0 0 1-3.985 4.154l-1.14 1.186c-.028.029-.054.06-.09.102l-.07.08h5.584zM76.602 21.11h-2.669V10.633h2.669zM63.199 21.115h2.65V10.638h-2.65zM101.335 60.305c-.276-.016-.51.153-.605.445h1.151c-.058-.262-.265-.43-.546-.445M96.332 60.804c.075-.3.33-.487.604-.47.272.017.514.26.554.562.007.051.008.105.009.142v.01c.001.307-.104.538-.37.663a.515.515 0 0 1-.59-.085c-.258-.225-.284-.518-.207-.822"/><path fill="#00112C" fill-rule="evenodd" d="M105.347 22.89h1.988q.066 0 .138.007l.039.003.029.002v40.79H84.403v-.242q-.001-11.678.005-23.356c0-.123.038-.262.103-.366q2.844-4.478 5.69-8.955l4.907-7.72c.076-.121.153-.166.296-.166q4.972.004 9.943.003m-.253 39.496c.427.025.822-.067 1.09-.436a.696.696 0 0 0-.29-1.062c-.128-.055-.268-.09-.405-.122l-.012-.003q-.137-.033-.275-.06-.163-.033-.323-.073c-.05-.014-.121-.081-.121-.125-.001-.046.069-.13.112-.134q.06-.005.127-.014c.149-.018.309-.038.396.03.188.146.378.138.567.13.087-.005.174-.008.26.003l.026-.025.012-.011.014-.013-.041-.074-.033-.063c-.055-.105-.109-.21-.186-.295-.381-.419-1.269-.449-1.693-.073-.438.389-.341.969.203 1.193.103.043.213.068.323.093l.035.008q.105.024.211.043c.123.024.246.047.365.084.067.02.157.112.155.167-.003.062-.091.148-.159.171-.277.092-.533.057-.744-.169-.036-.038-.091-.08-.139-.083a7 7 0 0 0-.409-.004l-.188.001.025.09.005.02c.017.07.033.13.059.185.205.435.588.593 1.033.621m-1.458-.073h-.645v-3.648h.645zm-2.91-.996h1.845c.138-.807-.331-1.493-1.066-1.6-.746-.11-1.431.444-1.508 1.22-.074.742.505 1.41 1.262 1.455.614.037 1.231-.396 1.247-.894h-.327c-.186 0-.349.001-.51.163-.256.26-.88.123-.943-.344m-.95.406c-.349-.067-.425-.095-.44-.297-.019-.243-.014-.486-.01-.723l.003-.295c.054-.047.127-.038.199-.028.104.013.205.027.236-.141.024-.133.051-.332-.02-.4-.065-.061-.174-.076-.292-.091q-.082-.01-.164-.027v-.577h-.67v.6c-.317.042-.379.207-.254.617l.267.034-.002.31c-.004.232-.006.46.006.687.036.654.57 1.07 1.141.905zm-4.167-.674c-.003.75.583 1.355 1.304 1.346.714-.008 1.286-.607 1.284-1.345-.002-.754-.578-1.347-1.305-1.344-.715.004-1.279.595-1.283 1.343m-.938 1.258h.664q.001-.264.005-.525c.006-.388.012-.772-.012-1.153-.032-.488-.367-.846-.822-.9-.172-.019-.35.008-.534.035q-.122.02-.248.034V58.67h-.656v3.635h.661l-.002-.394c-.004-.33-.007-.656.011-.98a.8.8 0 0 1 .19-.461c.128-.143.333-.131.512-.048.183.086.228.257.23.44q.003.494.002 1z" clip-rule="evenodd"/><script xmlns=""/></svg>