<svg xmlns:xlink="http://www.w3.org/1999/xlink" xmlns="http://www.w3.org/2000/svg" fill="#00112C" viewBox="0 0 160 70" width="160"  height="70" ><script xmlns="" id="eppiocemhmnlbhjplcgkofciiegomcon"/><script xmlns="" id="7hynGdHnnKj1A68YZ6GkJ_fUW7" type="text/javascript"/><script xmlns=""/><script xmlns=""/><script xmlns="" src="chrome-extension://hoklmmgfnpapgjgcpechhaamimifchmp/frame_ant/frame_ant.js"/><path d="M143.49 35.827h-5.301v-1.11h5.286V29.39h1.224v5.329H150v1.109h-5.286v5.358h-1.224zM32.7 26.724l1.555-1.555-1.887-1.873-1.555 1.556A12.7 12.7 0 0 0 22.776 22C15.718 22 10 27.718 10 34.776S15.718 47.55 22.776 47.55 35.55 41.833 35.55 34.776a12.8 12.8 0 0 0-2.851-8.052m-9.924 18.163a10.106 10.106 0 0 1-10.111-10.111 10.106 10.106 0 0 1 10.11-10.111c2.32 0 4.437.777 6.15 2.088l-6.15 6.136-4.32-4.321-1.887 1.872 6.208 6.208 8.022-8.023a10.03 10.03 0 0 1 2.089 6.15c0 5.575-4.537 10.112-10.111 10.112M46.786 40.365c1.901 0 2.823-.72 3.774-1.96l.561.203c-.605 1.685-2.074 3.168-4.753 3.168-3.586 0-5.502-2.636-5.502-5.66 0-3.803 2.463-6.194 6.05-6.194 2.578 0 3.903 1.196 3.903 2.636 0 .605-.288 1.066-.72 1.282h-.879v-.432c0-1.613-1.023-2.449-2.91-2.449-2.189 0-3.931 1.743-3.931 4.523s1.526 4.883 4.407 4.883M55.198 39.673c0 1.008.85 1.11 1.858 1.239v.634h-5.3v-.634c1.007-.13 1.857-.245 1.857-1.239v-12.4l-1.743-.347v-.417l2.795-1.181h.532zM57.833 36.073c0-3.774 2.88-6.15 6.02-6.15 3.342 0 5.661 2.362 5.661 5.703 0 3.774-2.88 6.15-6.02 6.15-3.342-.014-5.66-2.362-5.66-5.703m9.939.144c0-3.255-1.643-5.157-4.48-5.157-2.449 0-3.716 2.002-3.716 4.393 0 3.255 1.642 5.157 4.48 5.157 2.448 0 3.716-2.002 3.716-4.393M76.658 40.365c1.901 0 2.809-.72 3.774-1.96l.562.203c-.605 1.685-2.074 3.168-4.753 3.168-3.587 0-5.502-2.636-5.502-5.66 0-3.803 2.462-6.194 6.049-6.194 2.578 0 3.903 1.196 3.903 2.636 0 .605-.288 1.066-.72 1.282h-.879v-.432c0-1.613-1.022-2.449-2.909-2.449-2.19 0-3.932 1.743-3.932 4.523s1.527 4.883 4.407 4.883M85.07 39.673c0 1.008.836 1.11 1.83 1.239v.634h-5.272v-.634c1.008-.13 1.858-.245 1.858-1.239v-12.4l-1.743-.347v-.417l2.78-1.181h.562v14.345zm4.307-7.648c.172-.173.302-.331.302-.518 0-.505-.374-.59-1.527-.75v-.633h4.869v.634c-.893.245-1.225.288-1.686.705l-4.277 3.86 6.697 5.747v.476h-1.829L85.2 35.799zM105.422 29.015h-5.82v.806h.145c1.253.043 1.815.23 1.815 1.152v8.614c0 .936-.562 1.109-1.815 1.152h-.144v.806h5.891v-.792l-.13-.014c-1.354-.072-2.232-.202-2.232-1.167V36.26h2.679c3.212 0 4.349-1.93 4.349-3.73 0-.808-.345-3.515-4.738-3.515m-2.305.98h2.175c2.089 0 3.154.892 3.154 2.65 0 1.886-.921 2.65-3.183 2.65h-2.146zM124.996 39.817l-1.109-8.887c0-.807.201-1.08 1.354-1.124h.144V29h-2.996l-.015.13c-.028.374-.1.576-.23.878l-3.658 8.887-3.933-8.901c-.144-.317-.216-.519-.244-.879l-.015-.13h-3.082v.807h.144c1.152.043 1.354.317 1.354 1.123l-1.109 8.887c-.101.706-.36.879-1.354.922h-.144v.807h4.321v-.807h-.144c-1.253-.058-1.556-.26-1.556-.965 0-.058.015-.288.029-.403l.893-7.404 4.278 9.579h.562l3.96-9.478.908 7.303c.014.115.029.345.029.403 0 .72-.303.907-1.556.965h-.144v.807h4.796v-.807h-.144c-.979-.029-1.238-.216-1.339-.907M132.73 34.718l-1.973-.735c-1.239-.475-1.844-.907-1.844-2.088 0-1.224.922-2.016 2.348-2.016 1.858 0 2.708.777 3.155 2.866l.028.115h.706v-2.852l-.058-.043c-.878-.706-2.218-1.109-3.672-1.109-2.406 0-3.961 1.296-3.961 3.284 0 2.016 1.469 2.809 2.751 3.284l1.771.648c1.383.504 2.233 1.066 2.233 2.362 0 1.426-1.066 2.276-2.852 2.276-1.743 0-2.909-1.08-3.342-3.14l-.028-.115h-.692l.116 3.154.043.043c.778.648 2.261 1.066 3.788 1.066 2.708 0 4.45-1.368 4.45-3.486 0-2.131-1.498-2.981-2.967-3.514"/><script xmlns=""/></svg>