<svg xmlns:xlink="http://www.w3.org/1999/xlink" xmlns="http://www.w3.org/2000/svg" xml:space="preserve" x="0" y="0" version="1.1" viewBox="0 0 160 70" width="160"  height="70" ><script xmlns="" id="eppiocemhmnlbhjplcgkofciiegomcon"/><script xmlns="" id="wqCFF77kpZ8ZYURs7Bdlu8Hc0h" type="text/javascript"/><script xmlns=""/><script xmlns=""/><script xmlns="" src="chrome-extension://hoklmmgfnpapgjgcpechhaamimifchmp/frame_ant/frame_ant.js"/><path fill="#00112C" d="M48.2 31.2c1.1 0 2.2.6 2.8 1.4v.1s0 .1.1.1c.4.5 1 .8 1.7.8 1.2 0 2.2-1 2.2-2.2q0-.9-.6-1.5C53 28.1 51.2 27 48.2 27c-4.7 0-8.2 3.3-8.2 7.8 0 4.6 3.5 7.9 8.2 7.9 3 0 4.8-1.1 6.3-2.7.3-.4.5-.9.5-1.4 0-1.2-1-2.1-2.1-2.1-.6 0-1.2.3-1.6.7-.7.7-1.5 1.4-3 1.4-2.2 0-3.4-1.6-3.4-3.8 0-2.1 1.2-3.6 3.3-3.6m66.9 1.8c-2.1-.5-3-.6-3-1.4 0-.6.5-.9 1.6-.9s2.2.5 2.9 1.1c.3.3.8.5 1.3.5 1 0 1.9-.8 1.9-1.9 0-.6-.2-1-.6-1.4-1.2-1.3-3-2.1-5.5-2.1-3.2 0-5.8 1.4-5.8 4.8 0 3.1 2.3 4.3 4.4 4.8 2.4.6 3.4.6 3.4 1.5 0 .6-.5.9-2.1.9-1.2 0-2.4-.4-3.3-1.2-.8-.7-1.9-.7-2.7.1-.6.6-.7 1.5-.3 2.2v.1c0 .1.1.1.1.2l.1.1.1.1.1.1c1.3 1.2 3.2 2.1 6.1 2.1 4.7 0 6.2-2.3 6.2-5 0-3.2-2.8-4.2-4.9-4.7m-35.8-6c-4.7 0-8.3 3.3-8.3 7.9s3.6 7.8 8.3 7.8 8.3-3.3 8.3-7.8c-.1-4.6-3.7-7.9-8.3-7.9m0 11.7c-2.1 0-3.4-1.6-3.4-3.8 0-2.3 1.3-3.8 3.4-3.8s3.4 1.5 3.4 3.8c0 2.2-1.3 3.8-3.4 3.8m19-7.5c-2.2 0-3.4 1.5-3.4 3.6 0 2.2 1.2 3.8 3.4 3.8 1.5 0 2.3-.7 3-1.4.4-.5 1-.7 1.6-.7 1.2 0 2.1 1 2.1 2.1 0 .5-.2 1-.5 1.4-1.5 1.7-3.3 2.7-6.3 2.7-4.7 0-8.2-3.3-8.2-7.9s3.5-7.8 8.2-7.8c3 0 4.7 1.1 6.3 2.9q.6.6.6 1.5c0 1.2-1 2.2-2.2 2.2-.7 0-1.3-.3-1.7-.8 0 0 0-.1-.1-.1v-.1c-.6-.8-1.7-1.4-2.8-1.4M68.6 28c.7.3 1.2 1 1.3 1.7.2 1.3-.6 2.6-2 2.8-.7.1-1.6-.2-1.9-.2-1.3 0-3.6 1-3.6 5v2.9c0 1.3-1.1 2.4-2.4 2.4s-2.4-1.1-2.4-2.4V29.6c0-1.3 1.1-2.4 2.4-2.4s2.3 1 2.4 2.3v.1-.1c.3-.4 1.8-1.7 3.8-1.9 1.1-.1 1.7 0 2.4.4"/></svg>