<svg xmlns:xlink="http://www.w3.org/1999/xlink" xmlns="http://www.w3.org/2000/svg" fill="none" viewBox="0 0 160 70" width="160"  height="70" ><script xmlns="" id="eppiocemhmnlbhjplcgkofciiegomcon"/><script xmlns="" id="xF9oKY3Nf9O26Y52JLZaGlaN2t" type="text/javascript"/><script xmlns=""/><script xmlns=""/><script xmlns="" src="chrome-extension://hoklmmgfnpapgjgcpechhaamimifchmp/frame_ant/frame_ant.js"/><g fill="#00112C" clip-path="url(#a)"><path d="M18.089 31.304s1.613-1.086 2.038-1.12l.488.63.09.04.349-.182.239.097.953 1.286s.337.223.691-.273a.8.8 0 0 0 .191-.508l-4.118-5.438a.45.45 0 0 0-.626.34l-.074.625.856 1.159-.089.327-.123.033-.026.207.305.39s-1.283.853-1.638 1.235l-1.809 1.55-1.284 1.232-1.128-1.087-1.818-1.55c-.35-.381-1.632-1.23-1.632-1.23l.305-.398-.026-.207-.13-.032-.09-.322.858-1.159-.064-.627a.45.45 0 0 0-.625-.34L6.03 31.418a.8.8 0 0 0 .19.506c.354.496.689.27.689.27l.957-1.284.238-.097.35.188.089-.041.488-.629c.425.031 2.038 1.12 2.038 1.12.28.167.5.418.631.717.14.403.383.764.704 1.045l.91.861-6.556 6.291s-.813.554-.458 1.064c0 0 .49.745 1.55-.02l2.486-2.258 4.167-3.948 4.318 4.093 2.487 2.255c1.057.765 1.548.02 1.548.02.357-.51-.457-1.063-.457-1.063l-6.707-6.436 1.062-1.004s.957-.594 1.194-1.272c0 0-.339-.196.142-.492"/><path fill-rule="evenodd" d="M14.716 20a14.716 14.716 0 1 0 14.716 14.716A14.733 14.733 0 0 0 14.716 20m0 27.593a12.877 12.877 0 1 1 12.876-12.877 12.89 12.89 0 0 1-12.876 12.877M40.843 29.536h-2.778l-.005.004v8.442h3.026a5.8 5.8 0 0 0 1.792-.275 4.6 4.6 0 0 0 1.505-.804 3.9 3.9 0 0 0 1.04-1.313 4 4 0 0 0 .389-1.808 4.44 4.44 0 0 0-.397-1.968 3.6 3.6 0 0 0-1.073-1.32 4.4 4.4 0 0 0-1.585-.73 7.8 7.8 0 0 0-1.914-.228m.035 6.729h-.961v-5.01h1.091c.375-.002.748.048 1.11.149.331.09.643.242.919.45.263.2.477.46.623.756.161.337.24.707.231 1.08a2.8 2.8 0 0 1-.231 1.21c-.143.315-.362.59-.636.8-.285.21-.61.358-.955.435-.39.09-.79.133-1.19.13M46.52 33.76a4.8 4.8 0 0 1 .33-1.837c.211-.53.532-1.007.941-1.403a4.1 4.1 0 0 1 1.437-.888 5.44 5.44 0 0 1 3.63 0 4.2 4.2 0 0 1 1.435.888c.41.396.733.874.946 1.403.231.585.346 1.209.337 1.838a4.8 4.8 0 0 1-.337 1.836A4.1 4.1 0 0 1 54.295 37a4.2 4.2 0 0 1-1.439.888 5.5 5.5 0 0 1-3.63 0 4.1 4.1 0 0 1-1.435-.89 4 4 0 0 1-.943-1.402 4.8 4.8 0 0 1-.337-1.837zm1.92 0c-.004.371.058.74.184 1.09.116.32.296.611.528.859.232.245.513.439.825.567.69.27 1.458.27 2.148 0 .312-.129.593-.322.825-.567.232-.248.411-.54.527-.859a3.3 3.3 0 0 0 0-2.176 2.5 2.5 0 0 0-.527-.865 2.4 2.4 0 0 0-.825-.567 2.95 2.95 0 0 0-2.148 0 2.4 2.4 0 0 0-1.353 1.432 3.1 3.1 0 0 0-.184 1.085" clip-rule="evenodd"/><path d="M58.496 29.536h-1.852v8.447h5.279v-1.72h-3.428zM62.611 29.536h1.852v6.728h3.428v1.72h-5.28z"/><path fill-rule="evenodd" d="M73.395 29.536h-1.531l-3.63 8.442h2.041l.7-1.79h3.263l.723 1.79h2.088zm-1.837 5.082 1.02-2.625h.002l1.032 2.625zM77.662 29.536h3.247q.616-.002 1.217.13c.36.072.703.213 1.01.416.291.2.528.47.686.787.184.385.273.81.26 1.236a2.5 2.5 0 0 1-.462 1.52q-.463.626-1.354.794l2.137 3.567h-2.217l-1.755-3.377h-.909v3.377h-1.86zm1.855 3.496h1.092q.247 0 .528-.018.26-.014.503-.108a.9.9 0 0 0 .374-.279.86.86 0 0 0 .15-.538.82.82 0 0 0-.465-.805 1.5 1.5 0 0 0-.461-.13 3.5 3.5 0 0 0-.51-.037h-1.211z" clip-rule="evenodd"/><path d="M92.181 31.177c.24.08.451.227.61.423v.005l1.272-1.394a3.2 3.2 0 0 0-1.199-.68 4.7 4.7 0 0 0-1.377-.205 4.2 4.2 0 0 0-1.188.17 3.1 3.1 0 0 0-1.029.52 2.6 2.6 0 0 0-.71.858 2.55 2.55 0 0 0-.266 1.194c-.02.398.082.793.29 1.134.19.28.439.516.73.69q.449.268.949.42c.34.101.657.207.95.308.26.088.507.215.73.377a.72.72 0 0 1 .29.602.7.7 0 0 1-.114.39.9.9 0 0 1-.296.274q-.196.112-.415.162-.225.051-.457.052c-.31 0-.617-.071-.896-.208a1.9 1.9 0 0 1-.717-.59l-1.317 1.455c.373.356.815.632 1.299.81.89.305 1.852.334 2.758.084.373-.1.723-.27 1.03-.503.3-.233.54-.53.707-.871.18-.384.27-.805.26-1.229q-.001-.74-.286-1.18a2.2 2.2 0 0 0-.718-.704 3.7 3.7 0 0 0-.932-.407q-.496-.142-.93-.287a2.7 2.7 0 0 1-.718-.345.68.68 0 0 1-.285-.585.67.67 0 0 1 .12-.405.86.86 0 0 1 .308-.268q.191-.102.403-.15.205-.045.415-.047c.249 0 .496.045.729.13M95.344 29.536h1.85v3.15h3.594v-3.15h1.851v8.447h-1.851v-3.65h-3.594v3.65h-1.85z"/><path fill-rule="evenodd" d="M108.417 29.536h-1.525l-3.637 8.442h2.041l.7-1.79h3.263l.724 1.79h2.086zm-.823 2.466-1.017 2.616h2.053z" clip-rule="evenodd"/><path d="M110.623 29.536h2.111l2.078 5.535h.023l2.112-5.535h1.981l-3.464 8.447h-1.483zM125.346 29.536h-5.707v8.447h5.92v-1.72h-4.069v-1.715h3.643v-1.72h-3.643v-1.574h3.856zM135.833 31.732l-.001-.001 1.421-1.162a2.8 2.8 0 0 0-.617-.584 3.4 3.4 0 0 0-.717-.39 4 4 0 0 0-.76-.208 4.5 4.5 0 0 0-.741-.066c-.62-.007-1.236.099-1.819.311a4.1 4.1 0 0 0-1.428.889c-.41.393-.732.869-.944 1.396a5.15 5.15 0 0 0 0 3.675c.212.529.533 1.007.944 1.401.41.392.896.695 1.428.89a5.2 5.2 0 0 0 1.819.31 4.2 4.2 0 0 0 1.688-.357 3.23 3.23 0 0 0 1.353-1.111l-1.543-1.157c-.181.279-.43.508-.723.667a2.1 2.1 0 0 1-1.009.24 2.2 2.2 0 0 1-.931-.202 2.3 2.3 0 0 1-.754-.568 2.7 2.7 0 0 1-.504-.858 3.3 3.3 0 0 1 0-2.177 2.7 2.7 0 0 1 .511-.866 2.3 2.3 0 0 1 1.738-.77c.315-.005.629.055.919.179.261.117.49.295.669.518l-.008.006zM140.284 29.536h-1.852v8.447h5.279v-1.72h-3.427zM151.706 34.726c.005.47-.071.939-.224 1.383-.143.41-.372.785-.672 1.098a3.05 3.05 0 0 1-1.109.728c-.994.35-2.077.35-3.071 0a3.1 3.1 0 0 1-1.111-.728 3 3 0 0 1-.67-1.098 4.1 4.1 0 0 1-.225-1.383v-5.195h1.851v5.12c-.001.248.043.494.13.727q.118.323.351.58a1.59 1.59 0 0 0 1.222.511c.232.005.462-.04.676-.13.203-.09.384-.22.534-.382.153-.168.272-.365.349-.579.087-.233.131-.479.13-.727v-5.115h1.851v5.195z"/><path fill-rule="evenodd" d="M156.535 29.536h-3.131l-.002.001v8.442h3.441q.566 0 1.121-.118c.357-.072.7-.204 1.014-.39.298-.18.55-.428.736-.723.2-.336.299-.723.285-1.114.002-.26-.042-.52-.13-.765a1.9 1.9 0 0 0-.374-.626 2 2 0 0 0-.579-.442 2.4 2.4 0 0 0-.755-.232v-.025a2.2 2.2 0 0 0 1.051-.673c.271-.335.412-.757.397-1.188a2 2 0 0 0-.274-1.11 1.9 1.9 0 0 0-.71-.649 3 3 0 0 0-.993-.31 8 8 0 0 0-1.097-.078m.38 6.872h-1.661v-1.92h1.4q.245 0 .486.037.252.033.487.13c.146.06.275.156.373.28.105.139.158.31.149.483a.9.9 0 0 1-.113.465.9.9 0 0 1-.291.31q-.183.12-.397.168-.214.046-.433.047m-.32-3.495h-1.341V31.11h1.258q.221.002.439.043.212.037.402.136a.8.8 0 0 1 .291.27c.08.13.12.281.114.434a.805.805 0 0 1-.368.716 1.2 1.2 0 0 1-.373.156q-.209.048-.422.048" clip-rule="evenodd"/></g><defs><clipPath id="a"><path d="M0 0H160V70H0z"/></clipPath></defs><script xmlns=""/></svg>