<svg xmlns:xlink="http://www.w3.org/1999/xlink" xmlns="http://www.w3.org/2000/svg" fill="none" viewBox="0 0 160 70" width="160"  height="70" ><script xmlns="" id="eppiocemhmnlbhjplcgkofciiegomcon"/><script xmlns="" id="y9GnTKtzdjPFo3fTBgptCEQzv4" type="text/javascript"/><script xmlns=""/><script xmlns=""/><script xmlns="" src="chrome-extension://hoklmmgfnpapgjgcpechhaamimifchmp/frame_ant/frame_ant.js"/><path fill="#00112C" fill-rule="evenodd" d="M57.44 25.033c-.933 0-1.835.46-2.414 1.215-.58.69-.676 1.116-.676 2.561v7.718c0 1.347-.611 2.135-1.705 2.135-1.062 0-1.706-.854-1.706-2.233v-7.62c0-1.379-.225-2.101-.837-2.758-.579-.591-1.448-1.018-2.317-1.018-.901 0-1.866.492-2.478 1.248-.547.722-.644 1.182-.644 3.021V36.1c0 2.562.354 3.908 1.545 5.55 1.513 2.102 3.926 3.35 6.437 3.35 2.252 0 4.473-1.05 5.986-2.824 1.351-1.577 1.995-3.449 1.995-6.076v-6.864c0-1.74-.129-2.331-.74-3.054-.58-.69-1.545-1.15-2.446-1.15m-15.64 6.37c-.516-1.444-1.385-2.725-2.511-3.776-1.834-1.675-4.023-2.463-6.887-2.463h-3.83c-1.802 0-2.993.723-3.443 2.102-.129.427-.129.624-.129 2.233v10.64c0 1.347 0 1.643.096 2.102.194.756.612 1.281 1.32 1.74.58.395 1.159.526 2.639.526h2.639c1.32 0 2.446-.098 3.218-.23 1.642-.36 3.25-1.182 4.474-2.331 1.93-1.84 3.057-4.434 3.057-7.094a11.1 11.1 0 0 0-.644-3.448m-7.95 0 .29.132a3.75 3.75 0 0 1 2.027 3.35c0 1.182-.611 2.365-1.544 3.087-.74.526-1.256.624-3.412.624v-7.488h.515c.998 0 1.61.099 2.124.296m43.189-6.37c-1.03 0-2.028.558-2.543 1.38-.45.656-.579 1.247-.579 2.528v3.58l-.9-1.15-4.056-5.09C68.253 25.394 67.545 25 66.644 25c-1.995.033-3.283 1.38-3.283 3.448v12.25c0 1.412.13 2.003.644 2.726a3.2 3.2 0 0 0 2.51 1.248c.933 0 1.835-.427 2.414-1.15.547-.69.708-1.28.708-2.561v-4.073l4.956 6.47c.644.854 1.48 1.314 2.478 1.314a3.06 3.06 0 0 0 2.446-1.183c.547-.722.676-1.346.676-2.89V28.777c0-1.183-.193-1.872-.74-2.562-.612-.755-1.48-1.182-2.414-1.182m17.926 9.59 2.188-3.22.997-1.51c.322-.46.483-1.084.483-1.675 0-1.707-1.448-3.185-3.154-3.185-1.062 0-1.963.525-2.574 1.478l-3.25 4.893-.226.328v-3.087c0-1.15-.225-1.872-.837-2.528-.579-.657-1.448-1.084-2.349-1.084-1.867 0-3.122 1.445-3.122 3.58v12.413c0 2.233 1.223 3.646 3.186 3.646 1.867 0 3.122-1.445 3.122-3.679v-3.35l4.699 6.076c.45.591 1.32.953 2.188.953 1.706 0 3.122-1.478 3.122-3.252 0-.657-.193-1.248-.612-1.74zm29.285-9.59c-1.029 0-2.027.558-2.542 1.38-.451.656-.579 1.247-.579 2.528v3.58l-.901-1.15-4.055-5.09c-.708-.887-1.416-1.281-2.317-1.281-1.964 0-3.283 1.346-3.283 3.415v12.25c0 1.412.129 2.003.644 2.726a3.2 3.2 0 0 0 2.51 1.248 3.11 3.11 0 0 0 2.413-1.15c.548-.69.708-1.28.708-2.561v-4.04l4.957 6.47c.643.854 1.48 1.314 2.478 1.314.965 0 1.866-.427 2.445-1.183.548-.722.676-1.346.676-2.89V28.777c0-1.183-.193-1.872-.74-2.562-.611-.755-1.448-1.182-2.414-1.182m7.982 0c-1.642 0-2.768 2.036-2.768 3.71 0 .756 0 1.741.161 2.66.225 1.15.772 2.168 2.027 2.398 1.32.263 2.221-.985 2.768-2.397.386-1.051.579-2.233.579-2.956.033-1.675-1.094-3.415-2.767-3.415m-27.742 0a3.1 3.1 0 0 0-2.317 1.05c-.643.723-.804 1.314-.804 2.924v11.986c0 1.347.193 2.004.804 2.66.547.592 1.481 1.019 2.317 1.019s1.738-.394 2.318-1.084c.579-.624.804-1.38.804-2.595V29.007c0-1.577-.193-2.234-.837-2.956-.547-.657-1.383-1.018-2.285-1.018" clip-rule="evenodd"/><script xmlns=""/></svg>