<svg xmlns:xlink="http://www.w3.org/1999/xlink" xmlns="http://www.w3.org/2000/svg" fill="#00112C" viewBox="0 0 160 70" width="160"  height="70" ><script xmlns="" id="eppiocemhmnlbhjplcgkofciiegomcon"/><script xmlns="" id="PXn1VSMCWHFKGgIZnjvoRP5USP" type="text/javascript"/><script xmlns=""/><script xmlns=""/><script xmlns="" src="chrome-extension://hoklmmgfnpapgjgcpechhaamimifchmp/frame_ant/frame_ant.js"/><g clip-path="url(#a)"><path d="M34.365 36.553h-7.34c-.313 0-.501.125-.501.439a2.47 2.47 0 0 0 1.066 1.882 3.52 3.52 0 0 0 2.384.878 5.2 5.2 0 0 0 1.63-.251 5.7 5.7 0 0 0 1.506-.69c.234-.195.516-.325.816-.377a.99.99 0 0 1 .815.502c.233.284.365.637.377 1.004 0 .753-.44 1.443-1.38 2.133a8.95 8.95 0 0 1-5.646 1.819 8.02 8.02 0 0 1-5.457-1.882 6.9 6.9 0 0 1-1.757-2.258 8 8 0 0 1 .69-8.406 8.6 8.6 0 0 1 3.45-2.697 8.8 8.8 0 0 1 3.388-.69 8.02 8.02 0 0 1 5.018 1.63 5.65 5.65 0 0 1 1.63 2.008c.47.755.73 1.62.754 2.51a2.64 2.64 0 0 1-.44 1.63c-.25.565-.564.816-1.003.816m-6.9-2.949h1.568c.69 0 1.004-.313 1.004-.878a1.8 1.8 0 0 0-.502-1.38 1.53 1.53 0 0 0-1.255-.502 1.75 1.75 0 0 0-1.38.69c-.292.376-.447.841-.439 1.318-.014.244.052.486.188.69.188 0 .44.062.816.062M45.719 28.022a7.35 7.35 0 0 1 4.579 1.38 3.7 3.7 0 0 1 1.38 1.631c.28.827.408 1.699.376 2.572v2.32c-.056 1.056.05 2.114.314 3.137.125.251.188.377.314.44.215.106.45.17.69.188.313.062.501.25.501.69a2.5 2.5 0 0 1-.627 1.568 4.23 4.23 0 0 1-1.568 1.38 5.2 5.2 0 0 1-2.447.69 3.2 3.2 0 0 1-2.571-1.13.86.86 0 0 0-.628-.376c-.303.04-.587.172-.815.377a5.73 5.73 0 0 1-3.513 1.129 5.6 5.6 0 0 1-3.262-.878 4.4 4.4 0 0 1-1.317-1.506 4.3 4.3 0 0 1-.502-1.944 3.76 3.76 0 0 1 1.317-2.823c1.38-1.317 3.388-1.945 6.085-1.945.387.043.777-.022 1.13-.188.186-.229.276-.521.25-.815a7.3 7.3 0 0 0-.314-2.384 1.2 1.2 0 0 0-1.129-.753 1.25 1.25 0 0 0-.815.251c-.352.278-.65.618-.878 1.004-.879 1.317-1.882 1.944-2.886 1.944a1.8 1.8 0 0 1-1.255-.439 1.61 1.61 0 0 1-.501-1.254c.013-.563.237-1.1.627-1.506.445-.549 1-.998 1.63-1.317a12.55 12.55 0 0 1 5.835-1.443m-1.067 8.97a1.64 1.64 0 0 0-1.191.565c-.32.365-.498.832-.502 1.317-.02.43.113.852.376 1.192a1.13 1.13 0 0 0 .94.44c.816 0 1.256-.69 1.256-2.071a2.27 2.27 0 0 0-.189-1.13.81.81 0 0 0-.69-.313M61.025 28.022q1.264.073 2.509.314c.25 0 .439.063.564.063a3.1 3.1 0 0 0 1.004-.251q.306-.099.627-.126a2.03 2.03 0 0 1 1.443.879c.409.482.728 1.035.94 1.63.23.47.358.983.377 1.506a1.17 1.17 0 0 1-.439 1.004c-.297.26-.672.415-1.066.439a1.5 1.5 0 0 1-.941-.251c-.251-.188-.753-.565-1.38-1.13-.627-.564-1.192-.94-1.631-.94a1.07 1.07 0 0 0-1.066 1.066c0 .502.501.941 1.442 1.443a13.9 13.9 0 0 1 4.015 2.572 3.88 3.88 0 0 1 1.192 2.885 4.3 4.3 0 0 1-1.882 3.576 6.4 6.4 0 0 1-4.015 1.254c-.376 0-1.129-.062-2.195-.188-1.067-.125-1.569-.188-1.694-.188q-.227-.015-.439.063c-.314 0-.502.063-.69.063a1.53 1.53 0 0 1-1.13-.377 5.4 5.4 0 0 1-1.191-1.819 5.4 5.4 0 0 1-.564-2.133c0-.94.376-1.442 1.129-1.442.292-.015.58.074.815.25a17 17 0 0 1 1.568 1.569q.501.507 1.067.94c.258.177.566.265.878.251.294.024.586-.066.815-.25a1.04 1.04 0 0 0 .314-.753c0-.44-.376-.878-1.192-1.255a10.7 10.7 0 0 1-3.575-2.509 4.83 4.83 0 0 1-1.13-3.01 4.75 4.75 0 0 1 1.13-3.2 5.3 5.3 0 0 1 4.39-1.945M84.736 35.675l-2.07 5.645a17.3 17.3 0 0 1-1.568 3.388 9 9 0 0 1-1.757 2.258 6.83 6.83 0 0 1-4.83 1.944 5.36 5.36 0 0 1-3.7-1.191 2.94 2.94 0 0 1-1.067-2.384c-.02-.742.25-1.462.752-2.007a2.38 2.38 0 0 1 1.882-.816 2.42 2.42 0 0 1 1.82.753q.26.285.439.627.188.555.313 1.13a.81.81 0 0 0 .816.69.99.99 0 0 0 .815-.44c.233-.28.346-.64.314-1.003a6.3 6.3 0 0 0-.816-2.447l-3.763-7.967a9 9 0 0 0-.879-1.568 5.2 5.2 0 0 0-1.317-.752 1.36 1.36 0 0 1-.564-.502 1.6 1.6 0 0 1-.189-.69c0-.878.879-1.569 2.76-1.882a26.5 26.5 0 0 1 4.14-.314 9.2 9.2 0 0 1 2.573.314 1.64 1.64 0 0 1 1.254 1.568 1.5 1.5 0 0 1-.376.878 1.37 1.37 0 0 0-.314.878q.024.415.126.816.305.71.69 1.38c.376.753.752 1.066 1.003 1.066s.69-.313 1.004-.94c.303-.561.475-1.183.502-1.82a1.53 1.53 0 0 0-.377-1.129 2.2 2.2 0 0 1-.627-1.192c0-.502.376-.94 1.066-1.254a6.9 6.9 0 0 1 2.823-.502c2.196 0 3.262.502 3.262 1.568.002.34-.108.67-.314.941-.344.312-.75.547-1.191.69a2.5 2.5 0 0 0-1.192.941 16.6 16.6 0 0 0-1.443 3.325M102.425 22a17 17 0 0 1 3.513.314 5 5 0 0 1 2.133.69 1.36 1.36 0 0 1 .627 1.191 1 1 0 0 1-.251.753 4.3 4.3 0 0 1-1.003.69c-.627.314-.941.69-1.004 1.067-.063.376-.188 2.07-.251 4.83s-.063 4.39-.063 4.893c0 .549-.063 1.096-.188 1.63a6.5 6.5 0 0 1-1.819 3.576 7.56 7.56 0 0 1-2.885 1.63 12 12 0 0 1-3.701.628 13 13 0 0 1-3.45-.439 13.2 13.2 0 0 1-3.011-1.254 4.4 4.4 0 0 1-1.631-1.757 4.7 4.7 0 0 1-.628-2.383 3.7 3.7 0 0 1 .941-2.572 3.31 3.31 0 0 1 2.447-1.004 3.72 3.72 0 0 1 2.446.815 2.67 2.67 0 0 1 1.004 2.133q-.04.542-.188 1.067v.313a1.01 1.01 0 0 0 .376.816c.27.205.601.315.94.313a1.82 1.82 0 0 0 1.632-.94 4.7 4.7 0 0 0 .627-2.447v-5.27c-.063-2.32-.125-3.638-.188-4.077a1.62 1.62 0 0 0-.376-1.003 1.2 1.2 0 0 0-.44-.377c-.125-.062-.439-.125-.94-.313a1.06 1.06 0 0 1-.628-.44 1.2 1.2 0 0 1-.25-.752 1.42 1.42 0 0 1 .69-1.317 5.4 5.4 0 0 1 2.132-.816c1.004-.063 2.196-.188 3.387-.188M123.816 36.553h-7.277c-.313 0-.501.125-.501.439a2.47 2.47 0 0 0 1.066 1.882c.658.579 1.508.892 2.384.878a5.2 5.2 0 0 0 1.631-.251 5.6 5.6 0 0 0 1.505-.69 1.74 1.74 0 0 1 .816-.377.99.99 0 0 1 .815.502c.233.284.365.637.376 1.004 0 .753-.439 1.443-1.38 2.133a8.95 8.95 0 0 1-5.645 1.819 8.02 8.02 0 0 1-5.458-1.882 6.9 6.9 0 0 1-1.756-2.258 8 8 0 0 1 .69-8.406 8.6 8.6 0 0 1 3.45-2.697 8.8 8.8 0 0 1 3.387-.69 8.03 8.03 0 0 1 5.019 1.63 5.65 5.65 0 0 1 1.631 2.008 5 5 0 0 1 .752 2.51 2.64 2.64 0 0 1-.439 1.63 1.16 1.16 0 0 1-1.066.816m-6.9-2.949h1.568c.69 0 1.004-.313 1.004-.878a1.8 1.8 0 0 0-.502-1.38 1.54 1.54 0 0 0-1.255-.502 1.75 1.75 0 0 0-1.38.69 2.1 2.1 0 0 0-.439 1.318c-.014.244.053.486.188.69.189 0 .439.062.816.062M135.295 32.1v5.206a2.27 2.27 0 0 0 .439 1.505 1.52 1.52 0 0 0 1.192.628 3.84 3.84 0 0 0 1.631-.565c.137-.07.286-.113.439-.125a.8.8 0 0 1 .69.439c.187.28.296.605.314.94a2.47 2.47 0 0 1-1.066 1.82 7.92 7.92 0 0 1-5.332 1.882 5.68 5.68 0 0 1-4.015-1.38 4.862 4.862 0 0 1-1.505-3.701V31.66c0-.25 0-.376-.063-.439-.063-.062-.188-.062-.439-.062h-1.568a.9.9 0 0 1-.565-.126 1.25 1.25 0 0 1-.125-.69v-.69a.73.73 0 0 1 .376-.69l7.088-4.454c.221-.083.455-.126.69-.125h1.255c.251 0 .439.063.502.188.09.219.132.454.125.69v2.07c-.009.216.034.431.126.627.193.1.41.144.627.126h2.885a1.1 1.1 0 0 1 .753.188c.159.264.225.573.188.878v.878c.031.346-.034.693-.188 1.004-.125.188-.439.25-.815.25h-2.823a.9.9 0 0 0-.565.126.87.87 0 0 0-.251.69"/></g><defs><clipPath id="a"><path d="M0 0H120V26.911H0z" transform="translate(20 22)"/></clipPath></defs><script xmlns=""/></svg>