<?xml version="1.0" encoding="utf-8"?>
<!-- Generator: Custom -->
<svg xmlns="http://www.w3.org/2000/svg" xmlns:xlink="http://www.w3.org/1999/xlink" x="0px" y="0px"
	 viewBox="0 0 200.4 66.5" style="enable-background:new 0 0 200.4 66.5;" xml:space="preserve">
<style type="text/css">
	.ebay-0{fill:#808080;} <!-- Grey color -->
</style>
<g>
	<path id="e" class="ebay-0" d="M20.4,28.6c-1.9,0-3.5,0.5-4.8,1.5c-1.3,1-2,2.4-2,4.3s0.7,3.3,2.1,4.4c1.4,1.1,3.2,1.6,5.4,1.6
		c3.6,0,6-1.4,7.1-4.1c0.1-0.3,0.2-0.7,0.2-1h-6.8c-0.2,0.7-0.4,1.3-0.7,1.6c-0.3,0.3-0.8,0.6-1.5,0.6c-0.7,0-1.3-0.2-1.8-0.6
		c-0.5-0.4-0.7-0.9-0.7-1.6h10.3c0.3-2.5-0.3-4.4-1.9-5.7C24.6,29.1,22.8,28.6,20.4,28.6z M20.4,31.6c0.7,0,1.3,0.2,1.8,0.6
		c0.5,0.4,0.7,0.9,0.8,1.6h-4.9C18.3,32.5,19.1,31.6,20.4,31.6z"/>
	<path id="b" class="ebay-0" d="M50.4,33.3c-2.2,0-3.9,0.7-5,2c-1.1,1.3-1.6,3-1.6,5c0,2.1,0.5,3.8,1.5,5c1,1.2,2.5,1.8,4.5,1.8
		c2.4,0,4.1-0.9,5-2.6v2.3h3.6c0.6,0,1-0.4,1-1v-13.5c0-2.3-0.6-4-1.9-5.2C53.7,33.9,52.1,33.3,50.4,33.3z M51,43.8
		c-0.7,0.8-1.6,1.2-2.7,1.2c-1.2,0-2.1-0.4-2.8-1.1c-0.7-0.8-1.1-1.8-1.1-3.1c0-1.4,0.3-2.5,1-3.3c0.7-0.8,1.7-1.2,2.8-1.2
		c1.2,0,2.1,0.4,2.7,1.1c0.6,0.8,1,1.8,1,3C52,41.8,51.7,43,51,43.8z"/>
	<path id="a" class="ebay-0" d="M93.6,33.3c-2.2,0-3.9,0.7-5,2c-1.1,1.3-1.6,3-1.6,5c0,2.1,0.5,3.8,1.5,5c1,1.2,2.5,1.8,4.5,1.8
		c2.4,0,4.1-0.9,5-2.6v2.3h3.6c0.6,0,1-0.4,1-1V31.8c0-0.7-0.5-1-1-1h-3.6v2.5C97.7,34.2,95.8,33.3,93.6,33.3z M94.1,43.8
		c-0.7,0.8-1.6,1.2-2.7,1.2c-1.2,0-2.1-0.4-2.8-1.1c-0.7-0.8-1.1-1.8-1.1-3.1c0-1.4,0.3-2.5,1-3.3c0.7-0.8,1.7-1.2,2.8-1.2
		c1.2,0,2.1,0.4,2.7,1.1c0.6,0.8,1,1.8,1,3C95.1,41.8,94.7,43,94.1,43.8z"/>
	<path id="y" class="ebay-0" d="M142.3,33.5c-0.8,0-1.4,0.3-1.9,0.9l-5.4,8.2l-5.4-8.2c-0.5-0.6-1.1-0.9-1.9-0.9h-3.5
		c-0.7,0-1,0.4-1,1v1.3l7.1,10.7v5.1c0,0.7,0.5,1,1,1h3.4c0.6,0,1-0.4,1-1v-5.1l7.1-10.7v-1.3c0-0.7-0.5-1-1-1H142.3z"/>
</g>
</svg>
