<svg xmlns:xlink="http://www.w3.org/1999/xlink" xmlns="http://www.w3.org/2000/svg" fill="#00112C" viewBox="0 0 160 70" width="160"  height="70" ><script xmlns="" id="eppiocemhmnlbhjplcgkofciiegomcon"/><script xmlns="" id="sDE6uM7NLt2T-twnAH4FkvRvvb" type="text/javascript"/><script xmlns=""/><script xmlns=""/><script xmlns="" src="chrome-extension://hoklmmgfnpapgjgcpechhaamimifchmp/frame_ant/frame_ant.js"/><path fill-rule="evenodd" d="M40.027 36.488c0-7.158 4.698-9.53 10.337-9.53 7.646 0 9.756 5.08 9.756 8.375v2.09H44.157c0 3.33 2.551 5.707 6.098 5.707 4.355 0 5.251-3.032 5.251-3.032h4.177s-.553 5.631-9.173 5.631c-7.324 0-10.483-3.57-10.483-9.241m15.87-1.733c0-3.075-2.302-5.126-5.678-5.126-2.965 0-5.97 1.862-5.97 5.126z" clip-rule="evenodd"/><path fill-rule="evenodd" d="M60.117 42.135V20.027h4.077v9.963s1.728-2.978 7.289-2.978c5.938 0 9.455 4.16 9.455 9.331 0 5.56-3.828 9.44-9.464 9.44-5.352 0-7.32-3.053-7.32-3.053a25 25 0 0 1-.144 2.422h-3.984s.09-1.762.09-3.017m16.598-5.791c0-3.78-2.433-6.598-6.26-6.598-4.284 0-6.261 3.366-6.261 6.634 0 3.506 2.203 6.669 6.288 6.669 3.422 0 6.233-2.652 6.233-6.706" clip-rule="evenodd"/><path fill-rule="evenodd" d="M81.811 32.3c0-.736.544-5.342 9.028-5.342 4.094 0 8.736 1.2 8.736 6.908v8.705c0 1.007.145 2.58.145 2.58h-3.753s-.1-1.27-.1-2.558c0 0-1.905 3.24-7.818 3.24-4.338 0-7.548-2.072-7.548-5.88 0-3.869 3.474-5.776 10.046-5.776h4.951v-.866c0-2.434-2.161-3.7-4.95-3.7-4.293 0-4.514 2.69-4.514 2.69zm13.687 5.632v-1.155c-6.41 0-10.775.02-10.775 3.176 0 1.735 1.296 3.231 4.318 3.231 5.52 0 6.457-3.745 6.457-5.252" clip-rule="evenodd"/><path d="M97.301 27.68h4.75l6.818 13.545 6.801-13.545h4.303l-12.389 24.115h-4.513l3.575-6.722z"/><script xmlns=""/></svg>