<svg xmlns:xlink="http://www.w3.org/1999/xlink" xmlns="http://www.w3.org/2000/svg" fill="none" viewBox="0 0 160 70" width="160"  height="70" ><script xmlns="" id="eppiocemhmnlbhjplcgkofciiegomcon"/><script xmlns="" id="e5R4sczzk9VdpZT5GKPF1_xzxb" type="text/javascript"/><script xmlns=""/><script xmlns=""/><script xmlns="" src="chrome-extension://hoklmmgfnpapgjgcpechhaamimifchmp/frame_ant/frame_ant.js"/><path fill="#00112C" fill-rule="evenodd" d="M20 48.55h27.549V21H20zm4.103-13.12c6.229 0 12.263 5.132 12.263 11.368-.78.16-1.763.277-2.596.277-6.556-.009-12.029-5.274-12.276-11.644zm9.667-12.95c.88 0 1.816.117 2.597.273 0 6.242-6.036 11.378-12.266 11.378l-2.606-.004c.428-6.398 5.722-11.647 12.275-11.647m3.887.625c4.87 1.595 8.388 6.212 8.402 11.665.013 5.365-3.435 9.97-8.402 11.672z" clip-rule="evenodd"/><path fill="#00112C" d="M56.77 37.197V35.46h5.732v-2.214H56.77v-3.224h6.099v-2.208h-8.445v9.282c0 2.346 1 3.951 3.345 4.281q.071.019.136.021h.043c.24.027.486.045.742.045h4.342v-2.206H58.71c-.746 0-1.939-.368-1.939-2.04M64.698 41.446V27.811h2.348v13.635z"/><path fill="#00112C" fill-rule="evenodd" d="M73.777 31.274c-2.967 0-5.188 2.044-5.188 5.227v.079c0 3.105 2.142 5.11 5.247 5.11 1.493 0 2.888-.414 4.166-1.77l-1.415-1.375c-.747.747-1.474 1.14-2.673 1.14-1.749 0-2.908-1.022-2.986-2.594h7.702c.04-.393.04-.825.04-.825 0-2.771-1.946-4.992-4.893-4.992m-2.79 4.166c.098-1.198 1.316-2.161 2.79-2.161 1.375 0 2.495.982 2.495 2.161z" clip-rule="evenodd"/><path fill="#00112C" d="M87.781 34.458c-.668-.688-1.454-1.08-2.515-1.08-1.73 0-3.046 1.316-3.046 3.104s1.317 3.105 3.046 3.105c1.061 0 1.847-.393 2.515-1.081l1.454 1.513c-1.14 1.218-2.495 1.71-3.97 1.71-2.986 0-5.383-2.22-5.383-5.247s2.397-5.247 5.384-5.247c1.474 0 2.83.492 3.97 1.71zM93.044 37.2h-.003v-3.481h2.135v-2.133h-2.132v-3.775h-2.348v9.527h.007c.067 2.215 1.074 3.724 3.338 4.042q.072.018.136.022h.043c.24.026.486.044.743.044h.248l.009-2.206h-.238c-.745 0-1.938-.367-1.938-2.04M99.48 31.586v1.467c.469-1.017 1.525-1.662 2.934-1.662.254 0 .606.039.704.058v2.27a4.7 4.7 0 0 0-.979-.099c-1.623 0-2.66 1.018-2.66 2.642v5.184h-2.328v-9.86z"/><path fill="#00112C" fill-rule="evenodd" d="M108.857 31.293c-2.993 0-5.38 2.269-5.38 5.224 0 2.953 2.387 5.223 5.38 5.223 2.973 0 5.38-2.27 5.38-5.223 0-2.955-2.407-5.224-5.38-5.224m0 8.315c-1.741 0-3.051-1.35-3.051-3.091s1.31-3.092 3.051-3.092c1.722 0 3.052 1.35 3.052 3.092 0 1.74-1.33 3.09-3.052 3.09" clip-rule="evenodd"/><path fill="#00112C" d="M115.681 41.446V27.811h2.349v13.635zM126.496 37.318c0 1.565-.919 2.23-2.153 2.23-1.232 0-2.151-.665-2.151-2.21v-5.751h-2.367v5.947c0 2.817 2.054 4.167 4.499 4.167 2.465 0 4.538-1.37 4.538-4.226v-5.888h-2.366zM136.264 36.223 140 41.446h-2.524l-2.504-3.482-2.504 3.482h-2.523l3.736-5.204-3.404-4.655h2.543l2.152 2.954 2.133-2.954h2.562z"/><script xmlns=""/></svg>