<svg xmlns:xlink="http://www.w3.org/1999/xlink" xmlns="http://www.w3.org/2000/svg" fill="none" viewBox="0 0 160 70" width="160"  height="70" ><script xmlns="" id="eppiocemhmnlbhjplcgkofciiegomcon"/><script xmlns="" id="06-OTpYPZ3_qAhGBJUwwaXYiEu" type="text/javascript"/><script xmlns=""/><script xmlns=""/><script xmlns="" src="chrome-extension://hoklmmgfnpapgjgcpechhaamimifchmp/frame_ant/frame_ant.js"/><path fill="#00112C" fill-rule="evenodd" d="M102.718 41.693c-1.818 5.079-4.044 6.394-6.05 6.394-.847 0-1.254-.376-1.38-.97l-.47-2.447-1.317.063c-.25 1.442-.502 3.042-.846 4.358.784.595 2.1.909 3.135.909 2.163 0 5.454-.283 8.463-7.43l5.048-11.912c.408-.972.564-1.066 1.755-1.536l.659-.25v-1.098l-2.979.157-3.197-.157v1.097l.814.25c.815.252 1.192.565 1.192 1.13 0 .281-.094.564-.251 1.002-.471 1.192-3.386 8.277-4.169 9.782l.783-.283c-1.38-3.417-3.479-9.123-3.793-10.094a1.6 1.6 0 0 1-.094-.502c0-.501.345-.909 1.097-1.066l1.035-.218v-1.098l-4.295.157-3.417-.157v1.098l.564.188c.784.25.972.47 1.442 1.567 2.601 5.956 3.825 9.216 5.485 13.48zm-18.93-3.628-1.192.031c.062.69.094 1.57.094 2.387 0 .848-.031 1.633-.094 2.01 0 0 2.386.878 4.805.878 3.266 0 5.873-1.57 5.873-4.648 0-5.275-7.915-4.49-7.915-8.04 0-1.475 1.32-2.04 2.764-2.04 1.13 0 2.073.407 2.261 1.005l.786 2.355 1.162-.063c.094-1.256.157-2.7.345-3.863-1.005-.44-3.11-.69-4.427-.69-3.079 0-5.56 1.35-5.56 4.365 0 5.244 7.726 4.177 7.726 8.04 0 1.381-.848 2.355-2.764 2.355-1.758 0-2.638-.91-2.982-1.822zm-9.923-14.83c-.44 1.947-.88 3.454-2.419 4.46-.942.627-1.884.847-2.26.878v1.194h2.794v9.641c0 2.701 1.79 4.02 4.177 4.02 1.853 0 3.769-.785 4.428-2.418l-.66-.848c-.313.534-1.318 1.32-2.574 1.32-1.382 0-2.136-.943-2.136-3.33v-8.51l4.649.345.25-2.136-4.898.189v-4.774zm-18.624 7.6v-8.48c0-.314.031-.503.566-.503h7.191c1.257 0 1.947 1.069 2.45 3.078l.408 1.602h1.225c.22-4.553.408-6.532.408-6.532s-3.078.345-4.9.345h-9.2l-4.932-.157v1.32l1.665.313c1.162.22 1.444.471 1.539 1.54 0 0 .094 3.14.094 8.322s-.094 8.291-.094 8.291c0 .942-.377 1.288-1.54 1.508l-1.664.314v1.319l4.932-.157h8.228c1.853 0 6.155.157 6.155.157.094-1.131.723-6.25.817-6.815h-1.162l-1.225 2.795c-.974 2.198-2.387 2.355-3.957 2.355h-4.68c-1.57 0-2.324-.628-2.324-1.978v-7.16s3.423 0 4.616.094c.88.063 1.413.314 1.696 1.538l.377 1.634h1.35l-.094-4.115.188-4.145h-1.35l-.44 1.821c-.282 1.194-.47 1.414-1.695 1.539-1.382.157-4.649.126-4.649.126z" clip-rule="evenodd"/><script xmlns=""/></svg>