<svg xmlns:xlink="http://www.w3.org/1999/xlink" xmlns="http://www.w3.org/2000/svg" fill="#00112C" viewBox="0 0 160 70" width="160"  height="70" ><script xmlns="" id="eppiocemhmnlbhjplcgkofciiegomcon"/><script xmlns="" id="xJVI9J9a2fquGiaL0XBKfEcE-Z" type="text/javascript"/><script xmlns=""/><script xmlns=""/><script xmlns="" src="chrome-extension://hoklmmgfnpapgjgcpechhaamimifchmp/frame_ant/frame_ant.js"/><g clip-path="url(#a)"><path d="m48.255 40.432.78-.163c.686-.184.87-.276.87-1.642V27.874c0-1.374-.206-1.487-.87-1.643l-.78-.163v-.637H60.63l.227 4.545h-.708c-.573-1.253-.934-1.918-1.281-2.42-.73-1.049-1.21-1.14-2.79-1.14-1.167 0-1.734.134-2.08.226v5.826h.615c1.6 0 1.961-.184 2.237-.687a7.2 7.2 0 0 0 .708-1.734h.687v5.89h-.687a10.4 10.4 0 0 0-.708-1.827c-.276-.573-.573-.687-2.237-.687h-.616v4.382c0 2.032.071 2.259 2.287 2.259 1.826 0 2.194-.227 2.945-1.345.41-.616.842-1.579 1.437-3.016h.729l-.319 5.366H48.263l-.022-.637zm15.072-8.566c-.524-1.281-.78-1.6-1.346-1.784l-.431-.134v-.595h6.781v.595l-.616.163c-.48.134-.708.368-.708.913 0 .318.114.708.298 1.21l1.897 5.203h.113l1.827-5.203c.205-.545.297-.934.297-1.253 0-.502-.227-.75-.708-.87l-.616-.163v-.595h4.177v.595l-.432.134c-.595.206-.843.545-1.395 2.032l-3.497 8.955H67.05zm10.434 3.292c0-3.929 2.902-6.095 5.89-6.095s5.047 1.55 5.118 5.642H77.3c.071 3.702 1.459 4.707 3.788 4.707 1.394 0 2.463-.41 3.313-.842v.75c-.8.871-2.513 2.053-4.772 2.053-3.928-.042-5.868-2.371-5.868-6.208zm3.54-1.324 3.857-.205c0-2.718-.368-3.724-1.713-3.724-1.14 0-2.053 1.098-2.145 3.93m13.407-3.037c.637-.686 1.94-1.805 3.447-1.805a1.76 1.76 0 0 1 1.756 1.756c0 .977-.779 1.755-1.756 1.755a1.74 1.74 0 0 1-1.6-1.047c-.134-.248-.431-.319-.637-.319-.41 0-.892.297-1.189.573v7.306c0 1.048.092 1.168.779 1.281l.75.163v.616h-6.505v-.616l.594-.163c.75-.205.843-.318.843-1.281v-7.008c0-.956-.114-1.027-.75-1.459l-.751-.502v-.46l4.75-.545.248.184-.043 1.55.07.021m5.89 9.663.595-.163c.75-.205.843-.318.843-1.281v-7.008c0-.956-.114-1.027-.75-1.459l-.751-.502v-.46l4.75-.545.248.162-.043 1.438h.092c1.189-.843 2.669-1.6 4.318-1.6 1.919 0 2.945.984 2.945 3.015v6.945c0 .984.092 1.097.821 1.281l.595.163v.616h-6.279v-.616l.545-.135c.687-.184.75-.247.75-1.302v-6.053c0-1.373-.502-1.805-1.55-1.805-.8 0-1.6.184-2.102.297v7.582c0 1.076.07 1.118.75 1.303l.545.134v.616h-6.279v-.616h-.042zm14.088-5.231c0-4.318 3.058-6.166 6.095-6.166 3.263 0 6.123 1.96 6.123 6.052 0 4.319-3.016 6.209-6.123 6.209-3.264 0-6.095-1.961-6.095-6.095m8.424.113c0-4.545-.871-5.415-2.421-5.415-1.416 0-2.259 1.026-2.259 4.912 0 4.616.751 5.621 2.4 5.621 1.345 0 2.287-.8 2.287-5.118zm5.734 2.874v-7.54h-1.416v-.544c1.755-.687 3.107-1.99 3.745-3.787h1.281v3.015h2.994l-.297 1.324h-2.697v7.305c0 1.119.34 1.579 1.458 1.579.545 0 1.211-.113 1.621-.205V40c-.545.502-1.663 1.324-3.561 1.324-2.031 0-3.128-.892-3.128-3.108m7.149-3.058c0-3.929 2.903-6.095 5.89-6.095s5.047 1.55 5.118 5.642h-7.447c.071 3.702 1.458 4.707 3.787 4.707 1.395 0 2.464-.41 3.313-.842v.75c-.8.871-2.513 2.053-4.771 2.053-3.95-.042-5.89-2.371-5.89-6.208zm3.54-1.324 3.858-.205c0-2.718-.368-3.724-1.713-3.724-1.14 0-2.053 1.098-2.145 3.93M25.376 27.187c0 .276-.021.73-.297 1.026-.297.276-.75.298-1.027.298H21.13c-.843 0-1.345 0-1.692.042-.184.021-.41.113-.524.163-.042.021-.042 0-.021-.021l6.668-6.782s.043-.021.022.021c-.043.114-.135.34-.163.524-.043.34-.043.843-.043 1.692zm6.208 20.508c-.778-.503-1.189-1.168-1.344-1.579a3.3 3.3 0 0 1-.248-1.253c0-1.897 1.55-3.447 3.468-3.447.574 0 1.027.46 1.027 1.026 0 .39-.205.708-.524.892-.113.07-.276.113-.39.135-.113.02-.544.07-.75.247-.226.184-.41.482-.41.8 0 .34.134.666.368.892.41.41.956.637 1.55.637 1.55 0 2.81-1.253 2.81-2.81 0-1.395-.934-2.626-2.166-3.171-.184-.092-.481-.163-.75-.227a8 8 0 0 0-.687-.113c-.955-.113-3.355-.87-3.518-2.995 0 0-.708 3.2-2.124 4.064-.134.07-.318.134-.524.184-.205.042-.431.07-.502.07-2.308.135-4.75-.594-6.442-2.328 0 0-1.14-.935-1.734-3.561-.135-.637-.41-1.784-.574-2.853-.07-.39-.092-.687-.113-.956 0-1.118.687-1.875 1.55-1.989h4.658c.8 0 1.253-.205 1.55-.481.39-.368.482-.892.482-1.508v-4.82c.113-.843.87-1.551 1.99-1.551h.544c.227 0 .503.021.75.043.185.02.34.07.617.134 1.394.34 1.691 1.756 1.691 1.756s2.627.46 3.95.686c1.253.227 4.361.432 4.956 3.56 1.394 7.448.545 14.661.481 14.661-.984 7.037-6.831 6.69-6.831 6.69-1.253 0-2.195-.41-2.81-.842zm5.253-14.958c-.75-.07-1.395.226-1.621.8-.043.113-.092.248-.07.318.02.071.07.092.112.114.276.134.73.205 1.395.276.665.07 1.119.113 1.416.07.042 0 .092-.02.134-.091s.021-.206.021-.32c-.091-.636-.637-1.075-1.394-1.167z"/></g><defs><clipPath id="a"><path d="M0 0H125V27.544H0z" transform="translate(18 21)"/></clipPath></defs><script xmlns=""/></svg>