<svg xmlns:xlink="http://www.w3.org/1999/xlink" xmlns="http://www.w3.org/2000/svg" fill="#00112C" viewBox="0 0 160 70" width="160"  height="70" ><script xmlns="" id="eppiocemhmnlbhjplcgkofciiegomcon"/><script xmlns="" id="0Kqqld3W83zhJt3S0iXCk8iscz" type="text/javascript"/><script xmlns=""/><script xmlns=""/><script xmlns="" src="chrome-extension://hoklmmgfnpapgjgcpechhaamimifchmp/frame_ant/frame_ant.js"/><path d="M40.015 34.395c-.388-.84-.59-1.277-.86-1.934-.252.657-.354.858-.81 1.987l-.924 2.273h3.636zm-3.639 5.136-1.295 2.862h-3.787l6.6-13.906h3.198l6.6 13.906h-3.738l-1.412-2.862zm20.76-5.016c.773 0 1.095-.05 1.412-.218a1.66 1.66 0 0 0 .823-1.412 1.68 1.68 0 0 0-.823-1.412c-.303-.17-.625-.201-1.412-.201h-4.63v3.243zm-4.63 7.878h-3.484V28.487h9.075c1.616 0 2.491.201 3.314.706a3.66 3.66 0 0 1 1.7 3.113c0 1.652-.857 2.88-2.424 3.53 1.38.486 1.804 1.263 1.835 3.433.067 1.733.17 2.238.59 3.131h-3.837c-.254-.773-.303-1.094-.271-2.425 0-2.019-.555-2.643-2.34-2.643h-4.158zM79.41 42.393V28.487h12.728v2.824h-9.244v2.608h8.164v2.823h-8.164v2.863h9.244v2.823zM102.235 42.393h-3.487V31.3h-4.81v-2.824h13.097V31.3h-4.8zM124.118 36.958c-.992 3.953-3.703 5.94-8.199 5.94-5.118 0-8.351-2.845-8.351-7.324 0-4.588 3.336-7.574 8.436-7.574 2.442 0 4.358.639 5.876 2.001a6.06 6.06 0 0 1 2.036 3.335h-3.765c-.706-1.764-2.086-2.625-4.176-2.625-2.795 0-4.729 1.969-4.729 4.796 0 2.764 1.92 4.68 4.662 4.68 2.224 0 3.554-.992 4.359-3.23zM136.516 28.487v5.421h-7.157v-5.42h-3.477v13.905h3.484V36.72h7.157v5.672H140V28.487zM20 42.393V28.487h12.205v2.824h-8.721v2.608h7.997v2.823h-7.998v5.65zM65.402 42.393V28.487h12.205v2.824h-8.721v2.608H76.9v2.823h-8.015v5.65z"/><script xmlns=""/></svg>