<svg xmlns:xlink="http://www.w3.org/1999/xlink" xmlns="http://www.w3.org/2000/svg" fill="none" viewBox="0 0 160 70" width="160"  height="70" ><script xmlns="" id="eppiocemhmnlbhjplcgkofciiegomcon"/><script xmlns="" id="vDd44HHH7fEhmpvV3jLj1dAM_W" type="text/javascript"/><script xmlns=""/><script xmlns=""/><script xmlns="" src="chrome-extension://hoklmmgfnpapgjgcpechhaamimifchmp/frame_ant/frame_ant.js"/><path fill="#00112C" d="M63.55 8.006v16.18q.042 0 .079.004.075.005.143.006h2.156q3.423-.001 6.844.004c.17 0 .23-.044.228-.242-.007-.646-.006-1.293-.005-1.94l.001-.716c0-.326 0-.326-.297-.326h-5.586c-.274 0-.274-.003-.274-.307v-2.703q.001-.089.007-.188l.005-.098h1.387q1.93-.001 3.862.004c.172 0 .227-.05.225-.244q-.014-1.35.001-2.703c.003-.218-.06-.267-.249-.266-1.279.006-2.558.005-3.837.005H66.84v-2.9210000000000003c0-.327 0-.328.296-.328h1.15q2.166-.005 4.33.004c.215.001.276-.068.273-.3q-.016-1.317 0-2.634c.003-.23-.052-.298-.27-.297-2.37.007-4.742.006-7.114.006zM52.772 18.167h3.358l-.01.074a1 1 0 0 1-.015.105c-.371 1.76-2.3 2.98-4.045 2.577-1.607-.37-2.616-1.779-2.673-3.443a39 39 0 0 1 0-2.664c.043-1.267.585-2.282 1.65-2.98.946-.62 1.996-.739 3.085-.548.907.16 1.712.548 2.333 1.245.185.207.34.442.498.683q.11.17.229.34l3.083-1.081-.033-.096c-.02-.055-.035-.103-.054-.15-.516-1.322-1.42-2.307-2.635-3-1.93-1.097-3.997-1.335-6.146-.884-1.371.287-2.568.93-3.54 1.957-1.215 1.285-1.758 2.845-1.79 4.597-.01.545-.007 1.09-.004 1.636l.003.657c0 .886.13 1.75.432 2.585 1.06 2.92 3.821 4.643 6.864 4.23 1.786-.242 3.21-1.14 4.28-2.599l.086-.111.035-.046a.53.53 0 0 1 .064.273v.389q.003.81-.002 1.62c-.002.162.038.23.218.228a117 117 0 0 1 2.52 0c.175.002.224-.055.223-.223q-.005-4.03 0-8.059c0-.175-.061-.22-.227-.22q-3.792.008-7.583 0c-.167 0-.225.043-.223.22q.007.858.005 1.717v.75c0 .042.003.084.007.134zM56.944 51.008q.114.175.236.351l.024-.006c.032-.008.085-.02.136-.039q.397-.14.793-.283c.635-.226 1.27-.453 1.908-.671.198-.068.217-.143.144-.33-.517-1.317-1.4-2.31-2.599-3.01-1.907-1.114-3.955-1.377-6.095-.942-1.398.283-2.619.928-3.612 1.978-1.234 1.305-1.782 2.895-1.811 4.684-.013.766-.008 1.533-.002 2.3v.085c.007.91.155 1.796.474 2.65 1.09 2.922 3.937 4.632 6.966 4.142 1.64-.266 2.976-1.094 4.002-2.428q.084-.11.167-.222l.05-.067.034-.044a.54.54 0 0 1 .067.279l.001.397q.005.795-.003 1.59c-.003.185.043.262.241.26q1.24-.015 2.477 0c.194.002.248-.066.245-.256q-.007-.66-.004-1.32v-1.8929999999999998q-.001-2.436.005-4.871c.001-.216-.063-.269-.269-.269q-3.759.011-7.518 0c-.208 0-.25.067-.248.262q.015 1.215-.001 2.43c-.003.203.056.263.255.261a204 204 0 0 1 2.41-.004l.436.001c.061 0 .122.008.186.015l.092.01-.002.02-.003.03-.008.061c-.365 1.855-2.336 3.1-4.15 2.636-1.522-.39-2.52-1.773-2.58-3.446a42 42 0 0 1-.002-2.694c.033-1.176.497-2.155 1.428-2.868.852-.652 1.828-.874 2.886-.77 1.06.106 1.996.492 2.728 1.291.192.21.351.451.516.7"/><path fill="#00112C" fill-rule="evenodd" d="M87.855 52.23q.002-3.065-.005-6.131c0-.232.055-.296.285-.295q1 .004 2 0c1.052-.005 2.105-.009 3.157.013 2.188.046 4.148.75 5.753 2.333 1.127 1.11 1.834 2.473 2.131 4.047.346 1.838.193 3.63-.616 5.322-1.067 2.23-2.839 3.568-5.152 4.189-.813.218-1.643.292-2.481.292H88.15c-.294 0-.295-.002-.295-.302zm3.49 3.707v2.62c-.002.117-.004.232.181.227q.404-.009.806-.009c.516-.002 1.032-.004 1.545-.045 1.104-.089 2.057-.574 2.745-1.468 1.368-1.777 1.493-3.747.595-5.758-.676-1.515-1.91-2.324-3.533-2.442a19 19 0 0 0-1.453-.033h-.585c-.298-.004-.301.001-.301.307v6.601" clip-rule="evenodd"/><path fill="#00112C" d="M79.755 30.936v1.178l-.002 1.256c-.002 1.076-.004 2.152.008 3.228.006.48.041.967.142 1.435.436 2.037 1.615 3.525 3.532 4.415 1.416.657 2.91.792 4.446.519 3.065-.544 5.282-2.945 5.34-6.139.037-2.144.03-4.289.023-6.434a590 590 0 0 1-.005-3.26c0-.2-.075-.233-.254-.232q-1.098.006-2.196.004h-.823c-.3 0-.3 0-.3.294v1.743q0 3.692-.002 7.385-.001.384-.04.767c-.143 1.513-1.377 2.683-2.914 2.767-1.9.105-3.385-1.273-3.385-3.145v-1.144q-.003-4.196.004-8.392c0-.213-.049-.284-.277-.28a131 131 0 0 1-3.018 0c-.22-.003-.285.055-.284.275.007 1.253.006 2.506.005 3.76M63.555 51.058v-1.184c.001-1.26.002-2.52-.005-3.779-.001-.228.063-.298.298-.295q1.508.016 3.017 0c.207 0 .272.054.272.267q-.01 4.793-.004 9.586c.002 1.528 1 2.749 2.52 3.053 1.825.364 3.595-.798 3.777-2.761q.041-.451.04-.904.002-3.313.002-6.626v-2.302c0-.307 0-.308.315-.308h.806q1.095.003 2.189-.004c.198-.002.26.051.26.255q-.002 1.662.004 3.325c.005 2.087.01 4.174-.018 6.26-.046 3.305-2.318 5.747-5.436 6.243-1.987.317-3.856.006-5.498-1.202-1.458-1.073-2.278-2.529-2.474-4.304-.06-.533-.06-1.074-.061-1.613q0-.2-.002-.399-.008-1.164-.003-2.33zM113.204 49.034h-6.462c-.307 0-.308 0-.308.304l.001.76c.001.623.003 1.246-.006 1.87-.003.223.075.286.297.285q2.205-.006 4.411-.004h1.103c.331 0 .332.001.332.33l-.001.71q-.004.925.005 1.851c.003.213-.071.271-.283.27q-2.16-.005-4.32-.003h-1.147c-.392 0-.392 0-.392.39l.001.715c.001.63.003 1.262-.005 1.892-.003.214.069.27.282.27q1.536-.006 3.073-.005h.004q1.63.001 3.261-.005c.217 0 .283.058.281.268q-.016 1.326-.001 2.653c.002.205-.058.276-.278.276q-5.007-.009-10.014-.001c-.199 0-.274-.05-.273-.256q.008-7.753-.001-15.505c0-.206.074-.257.274-.256q4.96.006 9.919-.001c.209 0 .266.06.264.26-.008.636-.007 1.27-.006 1.906v.77q0 .07-.006.154zM60.972 35.01l-.122.005.047.455c.032.32.063.63.113.937.277 1.695 1.017 3.166 2.242 4.35 2.072 2.002 4.557 2.712 7.36 2.165 4.294-.84 7.18-4.97 6.27-9.582-.734-3.717-3.9-6.342-7.648-6.44-.186-.005-.24.059-.238.24q.009 1.377 0 2.754c-.002.174.044.245.228.258 1.231.087 2.284.573 3.092 1.521 1.16 1.362 1.461 2.942 1.044 4.668-.559 2.318-2.773 3.821-5.1 3.447-2.297-.37-3.77-2.36-3.845-4.531-.007-.203-.055-.26-.257-.259-.726.008-1.452.007-2.177.006h-.857c-.045 0-.091.002-.153.005M53.385 33.535l.055-.087c.034-.052.062-.096.087-.142l.55-1q1.407-2.554 2.806-5.112c.091-.167.191-.228.375-.226.825.007 1.651.006 2.476.005h1.079l-.035.08q-.028.066-.056.117l-.452.784a6157 6157 0 0 1-4.992 8.647c-.113.197-.166.39-.165.62q.005 1.398.004 2.796-.001 1.357.004 2.716c0 .2-.037.275-.247.273-.978-.013-1.956-.01-2.934-.002-.181.002-.23-.054-.23-.243a700 700 0 0 0-.002-5.557 1 1 0 0 0-.124-.468q-2.19-3.826-4.388-7.648l-1.078-1.876-.071-.134-.047-.09.081-.007q.075-.007.142-.008h.982c.795 0 1.59.001 2.386-.005.17-.002.255.062.336.213q1.391 2.572 2.79 5.14v.002l.516.948a6 6 0 0 0 .152.264M106.507 36.902l.194-.075.146-.056a5.046 5.046 0 0 0 3.174-5.56c-.422-2.57-2.53-4.136-4.826-4.287a19 19 0 0 0-1.453-.019q-.41.007-.82.004c-.168-.002-.221.054-.22.225q.01 1.409-.001 2.817c-.001.179.067.219.227.216a55 55 0 0 1 1.513-.002l.072-.001c.163-.002.327-.004.483.03 1.055.233 1.69 1.3 1.438 2.39-.195.848-.78 1.417-1.62 1.49-.497.044-.998.038-1.499.031l-.344-.003c-.203-.002-.274.058-.271.273q.006.684.005 1.367-.001.633.004 1.266a.7.7 0 0 0 .104.363q1 1.542 2.006 3.081l.002.005q.803 1.23 1.603 2.46c.083.129.17.184.325.183q1.367-.007 2.733-.004h1.094c.041 0 .082-.004.133-.01l.02-.001.071-.007zM81.542 45.805l.443.002c.364.002.727.004 1.09-.007.21-.006.258.071.255.265q-.008.53.027 1.06c.022.319.168.58.41.795.6.53 1.1 1.135 1.281 1.945.289 1.293-.095 2.377-1.028 3.283q-.145.14-.294.274l-.195.179c-.253.238-.258.346-.013.587q.131.128.267.254.169.155.33.316c1.368 1.382 1.38 3.357.031 4.761l-.026.028a3 3 0 0 1-.304.29c-.36.288-.483.678-.49 1.12q-.008.403.002.807c.004.162-.04.237-.218.236q-.707-.004-1.415-.003h-.002q-.86 0-1.719-.006c-.073 0-.209-.084-.209-.129l-.002-.4c-.005-.52-.01-1.042.04-1.557.077-.8.522-1.43 1.087-1.974q.123-.117.25-.232.12-.11.238-.22c.244-.235.245-.408.004-.644q-.132-.128-.266-.255-.193-.18-.38-.366c-1.271-1.297-1.319-3.148-.111-4.504.18-.202.38-.385.578-.568l.046-.042c.416-.383.414-.492.015-.884l-.07-.07c-.288-.281-.577-.565-.825-.88-.398-.507-.6-1.1-.606-1.753l-.003-.511q0-.495-.01-.989c-.002-.159.052-.214.213-.211q.57.007 1.14.004zM99.463 37.015l1.732-2.012-.054-.065-.111-.13-.338-.383q-.564-.641-1.132-1.276c-.096-.106-.103-.175-.003-.284.153-.165.3-.338.447-.51l.001-.001.17-.199.739-.858.26-.303L99.418 29l1.907-2.1h-.66c-.927 0-1.824 0-2.721.007-.078 0-.17.072-.23.137q-.26.279-.51.566l-.177.2-1.077 1.215 1.75 1.983-.051.067a3 3 0 0 1-.096.12l-.352.41q-.53.623-1.071 1.232c-.14.157-.124.246.009.392.258.282.51.57.763.856l.001.001q.344.394.695.781c.115.127.1.206-.004.322q-.32.357-.63.722l-.164.19-.584.683-.219.256 1.755 1.992-1.73 2.011.04.048.082.098.464.513q.558.614 1.108 1.234a.43.43 0 0 0 .356.164q1.116-.005 2.233-.003h.834q.057 0 .127-.006l.084-.006-.04-.05-.048-.057-.412-.453-.001-.002q-.604-.668-1.216-1.329c-.112-.122-.136-.2-.011-.335q.336-.371.658-.754l.223-.261.507-.593.005-.005.001-.002.203-.238zM83.093 8.004q2.244.002 4.49-.004c.208 0 .27.045.267.224q-.017 1.14 0 2.28c.001.157-.064.196-.237.196q-5.84-.004-11.679 0c-.178 0-.235-.046-.233-.2q.013-1.148-.001-2.298c-.002-.166.066-.202.25-.201q2.277.004 4.556.003z"/><path fill="#00112C" d="M62.888 30.95c-1.18-.002-2.038.85-2.038 2.022 0 1.162.855 2.026 2.01 2.028 1.175.002 2.04-.856 2.04-2.025 0-1.159-.859-2.023-2.012-2.025M68.947 28.932c.057 1.01-.794 2.025-2.011 2.018-1.165-.006-2.028-.868-2.036-2.03-.008-1.226 1.027-2.028 2.047-2.02 1.064.008 2.055.89 2 2.032M81.269 24.197h.976q.663-.003 1.328.003c.168.002.228-.038.227-.177q-.01-1.166-.001-2.332c0-.127-.036-.191-.215-.191a683 683 0 0 1-3.62 0c-.155 0-.214.045-.213.172q.007 1.176-.001 2.353c-.001.14.063.177.229.175q.645-.006 1.29-.003M81.775 20.148l-.49-.001c-.437 0-.873-.002-1.31.003-.168.002-.226-.042-.225-.18q.009-1.17 0-2.341c-.001-.137.055-.18.225-.179q1.8.007 3.599 0c.169 0 .227.04.226.178q-.009 1.17 0 2.342c0 .137-.056.181-.226.18q-.648-.006-1.298-.003zM81.26 16.097h.989q.662-.003 1.324.003c.169.002.228-.04.227-.178q-.009-1.17 0-2.342c0-.138-.058-.18-.226-.18q-1.8.006-3.598 0c-.168 0-.227.042-.226.18q.009 1.17 0 2.342c-.001.138.057.18.226.178q.642-.006 1.284-.003"/><script xmlns=""/></svg>