<svg xmlns:xlink="http://www.w3.org/1999/xlink" xmlns="http://www.w3.org/2000/svg" fill="#00112C" viewBox="0 0 160 70" width="160"  height="70" ><script xmlns="" id="eppiocemhmnlbhjplcgkofciiegomcon"/><script xmlns="" id="-0ynsinVwxVkyY6I4paHyrwIpI" type="text/javascript"/><script xmlns=""/><script xmlns=""/><script xmlns="" src="chrome-extension://hoklmmgfnpapgjgcpechhaamimifchmp/frame_ant/frame_ant.js"/><g clip-path="url(#a)"><path d="M137.738 32.859c.155-.347.287-.67.431-.982a.35.35 0 0 1 .419-.143c.071 0 0 .083 0 .143v1.82c0 .12 0 .155-.156.155s-.156 0-.156-.155v-1.293a.5.5 0 0 0 0-.227c-.143.335-.311.622-.418.945 0 .072 0 .144-.144.144s-.144 0-.18-.12l-.335-.754s0-.12-.107-.144a.5.5 0 0 0 0 .24v1.197c0 .12 0 .167-.156.167s-.132-.072-.132-.167V31.96c0-.084 0-.215.096-.215s.275-.072.359.107c.084.18.275.61.407.91a.5.5 0 0 1 .06.12zM135.5 32.93a7 7 0 0 1 0-.706c0-.191 0-.239-.24-.227h-.311c-.108 0-.155 0-.155-.144 0-.143.059-.143.167-.143h1.389c.107 0 .155 0 .155.155 0 .156 0 .132-.155.132h-.36c-.119 0-.203 0-.203.18v1.472c0 .107 0 .203-.168.191-.167-.012-.119-.084-.119-.18zM108.45 37.55q.445-.42.958-.753a4.96 4.96 0 0 1 3.111-.683 4.7 4.7 0 0 1 1.509.383c.666.318 1.227.82 1.615 1.449 0 .095.096.12.18 0a3.96 3.96 0 0 1 2.98-1.796 4.01 4.01 0 0 1 3.339.946c.47.431.778 1.01.874 1.64q.111.635.096 1.28v6.56c0 .179 0 .227-.239.227h-3.447c-.168 0-.204 0-.204-.216v-5.194a5 5 0 0 0-.132-1.197 1.58 1.58 0 0 0-1.106-1.137 1.59 1.59 0 0 0-1.539.383 2.2 2.2 0 0 0-.646 1.496q-.045.724 0 1.448V46.6c0 .144 0 .192-.192.192h-3.494c-.168 0-.204 0-.204-.204V41.37a6.3 6.3 0 0 0-.072-1.065 1.49 1.49 0 0 0-1.197-1.197 1.72 1.72 0 0 0-1.903.718c-.202.365-.302.779-.287 1.197v5.53c0 .19 0 .239-.239.239h-3.447c-.168 0-.204 0-.204-.204V36.473c0-.167 0-.203.204-.203h3.495c.155 0 .203.06.191.203v1.102zM96.768 45.701a7 7 0 0 1-.766.623 4 4 0 0 1-1.986.73 5.48 5.48 0 0 1-5.985-4.512 5.69 5.69 0 0 1 .79-4.142 5.36 5.36 0 0 1 3.806-2.393 4.96 4.96 0 0 1 3.375.634q.409.275.766.61a.35.35 0 0 0 0-.215V30.01c0-.203.06-.251.252-.251h3.483c.143 0 .191 0 .191.191v16.625c0 .144 0 .192-.179.192h-3.591c-.156 0-.203 0-.203-.192v-.874zm-2.393-1.83h.419a2.396 2.396 0 0 0 1.95-3.017 2.476 2.476 0 0 0-3.71-1.329 2.26 2.26 0 0 0-1.089 2.394 2.394 2.394 0 0 0 2.394 1.951zM41.365 35.863a7.3 7.3 0 0 1 3.59.766 5.434 5.434 0 0 1-.143 9.839 7.4 7.4 0 0 1-2.681.646 9 9 0 0 1-2.945-.24 5.55 5.55 0 0 1-3.866-3.16 5.32 5.32 0 0 1 .97-5.768 6.16 6.16 0 0 1 3.59-1.88 10 10 0 0 1 1.532-.143zm.095 3.196q-.26.019-.514.084a2.393 2.393 0 0 0-1.736 3.459A2.56 2.56 0 0 0 42 43.93a2.466 2.466 0 0 0 1.95-2.956 2.526 2.526 0 0 0-2.489-1.891zM78.05 37.55a5.6 5.6 0 0 1 .909-.85 3.9 3.9 0 0 1 1.879-.646 5.2 5.2 0 0 1 2.537.264 3.4 3.4 0 0 1 2.226 2.729q.081.535.072 1.077v6.44c0 .167 0 .203-.203.203h-3.471c-.192 0-.228-.06-.228-.24v-5.29q0-.55-.107-1.09a1.39 1.39 0 0 0-1.125-1.136 2.01 2.01 0 0 0-2.06.622 1.94 1.94 0 0 0-.394 1.065q-.045.676 0 1.353v4.512c0 .156 0 .204-.191.204h-3.507c-.168 0-.204 0-.204-.204V36.45c0-.167 0-.203.215-.203h3.484c.155 0 .215 0 .203.191v1.114zM71.682 39.885V43.2a3.59 3.59 0 0 1-1.94 3.22c-.74.4-1.555.648-2.393.73-.667.077-1.34.101-2.01.071a7 7 0 0 1-3.568-.897 3.59 3.59 0 0 1-1.675-2.813 7 7 0 0 1 0-.85v-6.2c0-.167 0-.215.215-.215h3.495c.168 0 .216 0 .216.215v5.817c-.008.31.045.62.155.91a1.53 1.53 0 0 0 1.197.898c.472.108.965.083 1.424-.072a1.53 1.53 0 0 0 1.066-1.353 7 7 0 0 0 0-.873v-5.339c0-.167 0-.203.203-.203h3.495c.156 0 .203 0 .191.191v3.448zM133.357 42.207h-3.842c-.227 0-.239 0-.215.239.024.24 0 .43.096.634a1.8 1.8 0 0 0 1.196 1.329c.565.18 1.171.18 1.736 0 .411-.123.77-.38 1.017-.73a.32.32 0 0 1 .288-.156h3.351c.191 0 .191 0 .143.215a4.7 4.7 0 0 1-3.59 3.184 8.5 8.5 0 0 1-1.628.24 8 8 0 0 1-2.968-.443 5 5 0 0 1-3.447-3.986 5.77 5.77 0 0 1 .766-4.297 4.8 4.8 0 0 1 2.681-2.082 7.9 7.9 0 0 1 4.656-.096 5.03 5.03 0 0 1 3.59 3.77 7.4 7.4 0 0 1 .204 2.059c0 .155-.096.131-.192.131h-3.842zm-1.771-2.107h2.023c.071 0 .179 0 .143-.12-.111-.528-.409-1-.838-1.328a2.4 2.4 0 0 0-1.52-.347 2 2 0 0 0-1.951 1.64c0 .131 0 .155.132.155zM51.825 43.032v-3.507c0-.155 0-.203-.203-.203h-1.03c-.12 0-.155 0-.155-.156V36.39c0-.132 0-.168.168-.156h1.005c.18 0 .215 0 .215-.215V34.63a5.1 5.1 0 0 1 .742-2.669 4.79 4.79 0 0 1 3.029-2.07 4.36 4.36 0 0 1 2.645.191.275.275 0 0 1 .215.311v2.765c0 .263 0 .263-.227.156a2.55 2.55 0 0 0-1.293-.312 1.197 1.197 0 0 0-1.197 1.113v2.011c0 .144 0 .168.18.168h2.393c.144 0 .192 0 .192.191v2.681c0 .168 0 .228-.215.216H55.99c-.275 0-.239 0-.239.263v6.918c0 .252 0 .252-.263.252h-3.471c-.144 0-.192 0-.192-.192zM139.509 19.992a3.34 3.34 0 0 0-3.59-.61 4.4 4.4 0 0 0-.671.347l-6.511 4.788c-.487.35-.824.872-.945 1.46a1.62 1.62 0 0 0 .526 1.46 3.485 3.485 0 0 0 3.89.55c.826-.502 6.332-4.572 7.241-5.242l.228-.227a2.05 2.05 0 0 0-.12-2.49zM112.113 27.27a1.63 1.63 0 0 0 .478-1.485 2.4 2.4 0 0 0-.957-1.46l-6.511-4.728a4.4 4.4 0 0 0-.671-.347 3.33 3.33 0 0 0-3.59.61 2.034 2.034 0 0 0-.072 2.526l.227.227c.898.67 6.404 4.788 7.182 5.243a3.48 3.48 0 0 0 3.89-.55zM120.239 26.037a2.776 2.776 0 0 0 2.885-1.808 2.4 2.4 0 0 0 0-.502v-4.345000000000001c0-1.628-1.317-2.394-2.956-2.394s-2.981.874-2.993 2.49v4.284a2.2 2.2 0 0 0 0 .491c.288 1.197 1.484 1.784 2.921 1.784zM128.833 29.22a19.94 19.94 0 0 0-8.893-1.795c-6.391 0-10.676 2.023-12.854 4.955h25.685a11.1 11.1 0 0 0-3.938-3.172zM28.797 45.57l-.503.419a4.27 4.27 0 0 1-2.393.933 5.48 5.48 0 0 1-3.591-.79 4.79 4.79 0 0 1-2.274-3.59 5.78 5.78 0 0 1 .562-3.615 5.28 5.28 0 0 1 4.082-2.908 5 5 0 0 1 2.825.347c.395.187.753.447 1.053.766 0 .06.108.131.167.203h.06v-.85c0-.275 0-.203.192-.203h3.506c.132 0 .168 0 .168.168v10.329a5.06 5.06 0 0 1-.467 2.333 5.2 5.2 0 0 1-2.525 2.334 6.9 6.9 0 0 1-2.681.623 8.5 8.5 0 0 1-3.387-.395 5.52 5.52 0 0 1-3.184-2.693 2.8 2.8 0 0 1-.251-.778c0-.132 0-.18.155-.18h4.022c.072 0 .143 0 .18.096a1.51 1.51 0 0 0 1.352.993 2.86 2.86 0 0 0 1.771-.287 2.14 2.14 0 0 0 1.197-1.795v-1.46zM26.5 43.93a2.454 2.454 0 1 0-2.465-2.394 2.48 2.48 0 0 0 2.465 2.394"/></g><defs><clipPath id="a"><path d="M0 0H120V35.057H0z" transform="translate(20 17)"/></clipPath></defs><script xmlns=""/></svg>