<svg xmlns:xlink="http://www.w3.org/1999/xlink" xmlns="http://www.w3.org/2000/svg" fill="#00112C" viewBox="0 0 160 70" width="160"  height="70" ><script xmlns="" id="eppiocemhmnlbhjplcgkofciiegomcon"/><script xmlns="" id="z3cYxvm5yQD7Fch8psKwrnCPac" type="text/javascript"/><script xmlns=""/><script xmlns=""/><script xmlns="" src="chrome-extension://hoklmmgfnpapgjgcpechhaamimifchmp/frame_ant/frame_ant.js"/><g clip-path="url(#a)"><path d="M150 35.878h-2.344c-.137 0-.198-.046-.274-.152-.578-.883-1.156-1.781-1.75-2.664-.578-.882-1.157-1.78-1.75-2.663-.594-.898-1.172-1.78-1.765-2.679-.579-.882-1.157-1.78-1.751-2.663-.867-1.324-1.735-2.633-2.602-3.957-.259-.396-.502-.776-.761-1.157-.152-.213-.061-.456-.091-.684.076 0 .137-.016.197-.016h2.923c.121 0 .197.046.258.137 1.279 1.933 2.557 3.85 3.835 5.784.929 1.4 1.857 2.815 2.801 4.215.563.837 1.126 1.69 1.674 2.527.03.045.061.076.106.152V19.243h1.279c.015 5.555.015 11.095.015 16.635M109.137 19c.091.015.182.03.274.03 1.126.03 2.222.229 3.226.761.152.076.229.168.229.35-.016.366 0 .746 0 1.142-.183-.107-.351-.198-.503-.305a5.66 5.66 0 0 0-2.343-.852c-.335-.045-.67-.06-1.005-.076a3.9 3.9 0 0 0-1.765.259c-.837.335-1.416.883-1.568 1.81-.137.914.046 1.736.746 2.39.426.396.928.655 1.461.883.837.35 1.674.67 2.511 1.035.639.274 1.248.593 1.811 1.02.837.624 1.385 1.445 1.583 2.48.106.518.137 1.05.091 1.568-.076.913-.335 1.765-.898 2.511a4.4 4.4 0 0 1-1.324 1.172c-.639.396-1.354.624-2.085.776-.335.06-.685.091-1.035.122-.411.03-.806.045-1.217.03a9.7 9.7 0 0 1-2.283-.35 7.5 7.5 0 0 1-1.689-.715c-.107-.061-.153-.122-.153-.244V33.49c.229.152.442.304.655.44a6.95 6.95 0 0 0 2.541 1.005 7.2 7.2 0 0 0 1.72.137c.822-.045 1.644-.182 2.344-.654.67-.457 1.004-1.096 1.035-1.918.015-.471-.015-.928-.228-1.354-.229-.457-.579-.792-.975-1.08-.76-.533-1.613-.899-2.465-1.249-.502-.198-.989-.426-1.491-.639-.548-.243-1.066-.533-1.522-.913a3.95 3.95 0 0 1-1.309-1.902c-.213-.685-.259-1.37-.213-2.07.091-1.187.624-2.177 1.537-2.953a5.1 5.1 0 0 1 2.42-1.141c.411-.076.822-.107 1.232-.152.031 0 .046-.03.077-.03.182-.016.38-.016.578-.016M10 19.259h2.998v7.488h5.144v.989h-5.129v8.142h-2.998C10 30.338 10 24.798 10 19.258M120.688 29.486h2.237c.122 0 .168.03.213.152.092.29.213.563.35.867h-3.043c-.122 0-.168.03-.213.153-.487 1.232-.974 2.45-1.461 3.683-.183.471-.381.943-.564 1.43-.015.046-.076.107-.106.107-.426.015-.852 0-1.278 0 .273-.685.547-1.34.806-2.01.441-1.095.883-2.19 1.324-3.302.365-.928.761-1.841 1.126-2.754.518-1.279 1.02-2.572 1.538-3.866l1.278-3.15c.183-.457.365-.898.533-1.355.045-.121.106-.198.274-.198.41.016.821.016 1.217 0 .107 0 .152.046.198.137.35.898.7 1.781 1.05 2.679.335.852.685 1.704 1.02 2.557.426 1.08.852 2.16 1.278 3.226.365.913.731 1.842 1.096 2.755.396 1.02.806 2.04 1.202 3.044.274.684.533 1.37.807 2.054.015.046.03.107.061.168h-3.227c-1.689-4.338-3.378-8.69-5.083-13.058a879 879 0 0 0-2.633 6.68M84.543 35.878c.152-.38.29-.73.441-1.096l1.461-3.652c.366-.913.746-1.827 1.111-2.74l1.553-3.88 1.278-3.151c.259-.64.502-1.263.761-1.902.046-.122.106-.198.274-.198.41.015.822.015 1.217 0 .107 0 .153.03.198.137.365.913.73 1.826 1.08 2.74.397 1.004.807 2.023 1.203 3.028.396 1.02.807 2.04 1.203 3.044.365.913.73 1.841 1.095 2.754.426 1.096.852 2.177 1.294 3.272.198.487.395.99.578 1.477.015.045.03.106.061.167H96.14c-1.69-4.353-3.379-8.69-5.083-13.073-.883 2.237-1.75 4.444-2.633 6.681h2.237c.106 0 .152.03.198.137.106.29.228.578.35.898H88.18c-.123 0-.183.015-.229.152-.457 1.172-.928 2.329-1.4 3.5-.213.533-.426 1.066-.64 1.614-.045.106-.09.106-.167.106-.365-.015-.76-.015-1.202-.015M35.918 22.805c-.883 2.237-1.75 4.444-2.633 6.666h2.374c.137.334.259.67.396 1.02h-3.18c-.549 1.384-1.112 2.77-1.66 4.139-.152.365-.274.73-.426 1.096-.03.06-.106.137-.167.137-.396.015-.792 0-1.233 0 .076-.198.137-.366.213-.533l.959-2.374c.35-.883.715-1.75 1.065-2.633.305-.746.609-1.507.913-2.253.335-.821.67-1.643.99-2.465.304-.76.608-1.507.913-2.268.35-.867.7-1.735 1.065-2.617.183-.457.365-.898.548-1.355.046-.106.091-.137.198-.137h1.278c.092 0 .137 0 .183.122a561 561 0 0 0 1.796 4.55c.456 1.172.943 2.329 1.4 3.5l2.1 5.343c.411 1.035.822 2.07 1.233 3.12-.076 0-.137.015-.183.015h-2.846c-.137 0-.213-.03-.258-.183-.427-1.126-.883-2.267-1.325-3.394-.365-.943-.73-1.872-1.095-2.815-.32-.807-.64-1.613-.944-2.42l-1.096-2.83c-.198-.457-.38-.944-.578-1.431M61.775 19.259c-.441.472-.837.913-1.233 1.34-.487.532-.958 1.05-1.43 1.582-.35.38-.7.776-1.05 1.157-.487.532-.974 1.065-1.446 1.598-.29.32-.563.639-.852.958-.076.076-.061.137-.016.198.7.929 1.4 1.857 2.1 2.8.61.822 1.218 1.66 1.827 2.481.578.792 1.172 1.568 1.765 2.36.518.684 1.035 1.369 1.553 2.069.015.015.015.06.045.106h-3.363c-.107 0-.167-.03-.228-.121-.792-1.066-1.598-2.13-2.39-3.196-.76-1.005-1.537-2.024-2.298-3.029l-.913-1.233c-.03-.045-.076-.09-.122-.152-.182.198-.365.38-.532.563s-.335.38-.503.579a.47.47 0 0 0-.106.258v6.316h-2.998v-4.596c0-.167.045-.304.152-.426.274-.304.563-.609.837-.913l1.446-1.629c.243-.274.502-.547.76-.837l1.599-1.78c.274-.305.563-.609.837-.913l1.46-1.644c.244-.274.488-.533.731-.807l1.568-1.75c.243-.274.502-.548.746-.822.076-.091.152-.182.243-.274.137-.167.274-.274.518-.258.38.03.821.015 1.293.015M80.525 19.259c-.03.06-.046.106-.076.137-.304.334-.624.67-.928 1.004-.518.578-1.035 1.157-1.537 1.72-.26.289-.533.578-.792.867-.563.624-1.126 1.248-1.704 1.872-.335.365-.685.73-1.035 1.111 2.45 3.288 4.9 6.575 7.366 9.893-.076 0-.107.015-.153.015h-3.21a.32.32 0 0 1-.229-.107c-.35-.441-.685-.898-1.02-1.339-.502-.67-1.004-1.34-1.522-2.024-.563-.761-1.141-1.522-1.704-2.283-.457-.609-.928-1.233-1.4-1.841-.03-.046-.076-.092-.107-.137-.35.38-.715.76-1.065 1.156a.5.5 0 0 0-.092.29v6.2700000000000005H68.32V31.19c0-.076.03-.182.092-.243.502-.563 1.004-1.142 1.522-1.705.243-.274.502-.548.76-.837l1.583-1.765c.244-.274.503-.548.761-.837l1.537-1.72c.244-.274.503-.548.746-.822l1.553-1.735c.243-.259.471-.532.715-.791l1.263-1.4c.046-.046.106-.092.167-.092.487.016.99.016 1.507.016M20.973 19.259h2.937v16.588h-2.937zM67.939 44.127h1.415c.609 0 1.203-.016 1.811 0 .67.015 1.294.213 1.735.76.168.214.274.488.35.746.092.411.092.822-.045 1.218-.198.548-.594.898-1.111 1.126-.122.06-.244.091-.366.122.883 1.141 1.568 2.435 2.42 3.668h-.365c-.38 0-.76-.016-1.157 0-.121 0-.182-.046-.243-.137-.655-1.08-1.294-2.162-1.948-3.257-.076-.122-.152-.168-.305-.168-.258.016-.502 0-.776 0v3.531H67.94zm1.43.593v2.953c.487 0 .975.03 1.446-.016.518-.045.853-.35.99-.837.106-.395.106-.806.03-1.202-.122-.654-.396-.852-.852-.898-.533-.045-1.066 0-1.614 0M80.22 43.99c.823.045 1.584.228 2.253.685.837.563 1.324 1.37 1.522 2.359.06.273.106.563.106.852-.015.943-.213 1.841-.821 2.617-.609.777-1.416 1.203-2.39 1.34a4.6 4.6 0 0 1-1.933-.122c-.684-.213-1.278-.578-1.734-1.157a3.66 3.66 0 0 1-.807-1.841c-.152-1.126-.03-2.207.64-3.166a3.43 3.43 0 0 1 2.145-1.43c.35-.061.685-.092 1.02-.137m-2.358 3.957c-.03.685.06 1.37.335 2.024.213.502.532.928 1.034 1.157.457.212.944.243 1.446.167.67-.107 1.142-.487 1.461-1.065.365-.67.457-1.4.457-2.131 0-.518-.061-1.035-.152-1.537-.092-.502-.29-.974-.655-1.355-.578-.593-1.309-.73-2.085-.578-.822.152-1.324.685-1.598 1.461-.198.593-.258 1.202-.243 1.857M68.198 27.873v-8.6h2.983v5.0840000000000005c0 .168-.061.305-.168.411-.41.441-.822.883-1.217 1.34l-1.461 1.643c-.03.03-.076.06-.137.122M52.553 19.274v.228c0 1.553-.016 3.12.015 4.672 0 .305-.107.518-.305.731-.532.563-1.05 1.141-1.567 1.704-.365.396-.716.807-1.08 1.218 0 0-.016 0-.047.015v-8.568zM96.764 44.127h.806c.792 0 1.583-.016 2.375 0 .7.015 1.339.228 1.826.776.304.335.456.73.487 1.187.03.441 0 .867-.213 1.278-.305.61-.837.929-1.476 1.05-.487.092-.975.092-1.477.122-.289.015-.578 0-.882 0v3.242h-1.461c.015-2.542.015-5.083.015-7.655m1.46 3.804c.549 0 1.097.046 1.644-.015.427-.045.731-.32.883-.73.168-.472.183-.96.091-1.43-.091-.518-.365-.93-.928-.99-.548-.061-1.11-.061-1.69-.107zM64.21 45.329c-.38-.304-.745-.517-1.187-.624-.822-.198-1.628-.228-2.39.198-.593.335-.958.883-1.186 1.522-.244.684-.259 1.4-.213 2.1.045.593.197 1.187.532 1.705.38.578.898.943 1.583 1.05.609.09 1.187-.016 1.78-.153v-2.8h1.34c0 .06.015.122.015.168v2.556c0 .137-.045.198-.167.259-.411.228-.852.35-1.324.426-.38.061-.761.076-1.142.107-.73.06-1.43-.076-2.085-.38-.989-.473-1.628-1.249-1.902-2.299-.244-.928-.244-1.872.137-2.785.532-1.263 1.507-1.963 2.815-2.268.548-.137 1.111-.137 1.69-.076.532.061 1.05.168 1.522.411.106.046.152.107.152.229.015.213.03.41.03.654M87.221 44.127h1.462v5.479c0 .44.167.867.502 1.171.289.274.639.396 1.035.442.502.06.989.03 1.46-.152.564-.214.898-.64 1.005-1.218.06-.32.076-.64.076-.974v-4.748h.624v.198c0 1.72.015 3.44 0 5.174 0 .533-.183 1.02-.532 1.43-.472.564-1.096.807-1.781.898-.228.031-.472.077-.7.061-.563-.03-1.126-.045-1.644-.304-.259-.137-.532-.274-.76-.472a2.03 2.03 0 0 1-.67-1.217 5.3 5.3 0 0 1-.077-.99v-4.7780000000000005M138.205 35.863h-1.263V23.977c.015 0 .031-.016.031-.016.152.229.289.472.441.7.243.366.487.731.715 1.081a.37.37 0 0 1 .061.183v9.831c.015.03.015.061.015.107"/></g><defs><clipPath id="a"><path d="M0 0H160V70H0z"/></clipPath></defs><script xmlns=""/></svg>