<svg xmlns:xlink="http://www.w3.org/1999/xlink" xmlns="http://www.w3.org/2000/svg" fill="#00112C" viewBox="0 0 160 70" width="160"  height="70" ><script xmlns="" id="eppiocemhmnlbhjplcgkofciiegomcon"/><script xmlns="" id="0D1cphkFD_d556I2SDcwBC7fzC" type="text/javascript"/><script xmlns=""/><script xmlns=""/><script xmlns="" src="chrome-extension://hoklmmgfnpapgjgcpechhaamimifchmp/frame_ant/frame_ant.js"/><g fill-rule="evenodd" clip-path="url(#a)" clip-rule="evenodd"><path d="M48.613 32.615c-3.688 1.702-7.035 3.958-10.41 6.206-1.116.912-2.315 1.711-3.393 2.677-.437 0-2.369 1.036-1.661-.204.903-1.016 1.998-1.894 3.051-2.747 4.883-3.95 10.381-6.969 16.072-9.595 11.596-5.353 24.084-8.733 36.546-11.36 2.49-.524 4.97-1.09 7.493-1.423 1.831-.242 4.229-1.095 5.324.811 1.311 2.968-5.05 2.94-6.61 3.052a67 67 0 0 0-6.373.778c-2.427.412-4.891.824-7.322 1.253-9.116 1.61-17.882 4.158-26.548 7.696-2.057.958-4.167 1.778-6.17 2.856m58.312-15.63 11.46 1.22.745 4.203 4.237-5.186 4.508-1.016-2.814-2.576 1.291-3.63-4.234 2.985-3.151-1.965v2.747z"/><path d="M57.26 43.396v-7.222h8.678v7.692l-.067.337-.066.304-.17.27-.205.205-.27.17-.338.138-.44.066-.509.067h-.612v1.016h8.442v-1.016h-.612l-.541-.067-.441-.066-.337-.138-.271-.17-.237-.204-.138-.27-.1-.305-.066-.337V28.477l.067-.37.1-.304.137-.237.204-.238.27-.137.337-.137.442-.1.474-.033.612-.034v-1.015h-8.408v1.015l.612.034.54.033.442.1.37.137.271.137.204.238.17.237.067.304.067.37v6.677h-8.679v-6.677l.067-.37.1-.304.17-.237.204-.238.304-.137.337-.137.475-.1.54-.033.68-.034v-1.015h-8.571v1.015l.578.034.541.033.408.1.375.137.27.137.205.238.137.237.1.304.066.37v15.39l-.066.336-.1.304-.137.27-.204.209-.271.17-.375.138-.407.067-.542.066h-.578v1.016h8.612v-1.016h-.678l-.542-.066-.474-.067-.375-.137-.304-.171-.204-.204-.17-.27-.1-.304-.067-.338zm16.104-16.75v.237l.645.033.579.034.44.1.375.137.304.137.204.238.17.237.1.304.034.37.033.408v13.595l-.033.474-.033.442-.1.37-.1.337-.137.304-.138.27-.204.205-.237.17-.27.138-.338.104-.374.066-.442.067h-.474v1.016h7.051v-1.016h-.508l-.44-.067-.375-.066-.338-.104-.27-.138-.237-.17-.204-.204-.171-.27-.137-.305-.1-.337-.067-.37-.067-.442-.033-.474V27.125h.067L83.54 46.45h1.053l6.273-19.426h.033V43.87l-.066.338-.104.303-.138.27-.204.205-.27.17-.337.138-.408.067-.508.066h-.608v1.016H96.8v-1.016h-.679l-.54-.066-.475-.067-.342-.137-.304-.171-.237-.204-.137-.27-.1-.304-.067-.338V28.477l.067-.37.1-.304.137-.237.204-.238.27-.137.342-.137.408-.1.474-.033.608-.034v-1.015h-6.51l-4.883 15.322h-.066L80.29 25.872h-6.926zm34.515 8.375-.27-.1-.271-.1-.27-.067-.271-.1-.304-.066-.27-.1-.271-.067-.27-.066-.271-.1-.304-.067-.27-.066-.271-.1-.237-.067-.271-.1-.27-.1-.238-.066-.27-.1-.204-.1-.237-.1-.238-.137-.204-.1-.204-.138-.204-.1-.204-.137-.17-.17-.171-.138-.166-.17-.138-.171-.137-.17-.1-.171-.1-.204-.104-.204-.067-.204-.066-.238-.033-.237-.034-.27v-.238l.034-.44.033-.409.1-.408.137-.337.133-.304.204-.337.237-.237.238-.27.27-.205.304-.17.304-.171.375-.137.337-.1.374-.067.408-.033h.816l.371.033.374.1.375.1.337.1.304.17.304.171.304.204.27.237.271.238.237.237.237.27.238.304.204.304.204.304.204.304.17.337.167.337.17.37.138.338.133.374.104.338.133.37.104.337.1.375h.816v-6.952h-.982l-.204.508-.304.575-.408.304-.204-.034-.167-.066-.237-.138-.27-.17-.304-.171-.304-.204-.375-.204-.374-.17-.442-.205-.474-.137-.508-.137-.541-.1h-.962l-.374.033-.371.033-.341.067-.375.067-.337.104-.341.137-.304.137-.337.138-.304.17-.304.171-.304.204-.27.237-.27.238-.238.237-.237.27-.238.271-.17.304-.204.304-.138.304-.166.337-.104.337-.1.37-.067.408-.033.375v.79l.033.305.034.337.033.27.066.304.067.27.104.238.1.27.104.238.133.204.138.237.137.17.166.205.171.17.17.171.172.17.204.171.203.138.204.137.204.137.238.138.204.1.237.1.237.137.237.1.238.066.237.1.27.104.238.067.27.067.238.1.27.066.271.067.237.1.27.066.238.067.27.066.271.067.237.1.271.067.237.066.237.1.271.067.237.066.204.1.237.104.238.1.204.1.203.1.238.1.17.137.204.138.171.137.204.137.166.138.138.17.137.171.133.17.138.171.1.204.104.204.1.204.066.237.067.238.066.27.034.238v.27l.033.304-.033.408-.067.408-.1.374-.137.375-.171.304-.237.304-.237.304-.238.27-.303.237-.304.204-.337.171-.342.17-.374.138-.371.1-.375.067-.374.033-.408.033-.375-.033-.374-.033-.375-.067-.37-.067-.342-.137-.337-.137-.304-.138-.304-.17-.341-.204-.271-.204-.27-.237-.271-.271-.27-.237-.237-.304-.238-.27-.237-.305-.204-.303-.204-.304-.17-.337-.171-.338-.17-.337-.138-.375-.133-.337-.1-.337-.138-.374-.104-.375-.066-.337-.067-.375h-.816v7.797h.816l.27-.542.271-.44.375-.305.474-.1.271.034.237.066.271.1.27.138.304.17.341.17.338.172.374.203.408.138.475.17.474.1.579.067.608.033h.374l.375-.033.408-.033.337-.067.374-.066.375-.1.337-.1.342-.1.303-.137.342-.171.304-.17.304-.172.27-.203.271-.204.27-.238.237-.204.238-.27.237-.27.204-.271.204-.27.171-.305.137-.337.133-.304.138-.337.099-.375.104-.337.067-.408.067-.374.033-.408v-.737l-.033-.337-.067-.304-.033-.304-.067-.27-.1-.271-.1-.27-.137-.238-.1-.237-.171-.237-.137-.204-.171-.204-.17-.17-.204-.172-.204-.17-.204-.17-.204-.172-.237-.137-.238-.137-.237-.138-.237-.137-.271-.1-.237-.1-.271-.137-.27-.1zm-31.53 19.36-.1-.408-.171-.375-.237-.304-.304-.204-.442-.066-.407.1-.304.203-.238.304-.17.37-.067.409-.033.408.033.44.067.409.17.408.204.304.342.237.44.066.409-.066.304-.17.237-.305.17-.37.1-.441.034-.508zm0 0-.1-.408-.171-.375-.237-.304-.304-.204-.442-.066-.407.1-.304.203-.238.304-.17.37-.067.409-.033.408.033.44.067.409.17.408.204.304.342.237.44.066.409-.066.304-.17.237-.305.17-.37.1-.441.034-.508zM47.91 49.835V60h67.653V49.835zm15.522 8.275H61.33V55.6h-1.965v2.51h-2.102v-6.477h2.102v2.17h1.965v-2.17h2.102zm15.014-2.818-.066.408-.1.408-.138.37-.204.304-.204.304-.237.27-.27.238-.304.204-.304.17-.337.134-.375.067-.374.066-.408.033-.408-.033-.408-.066-.37-.067-.338-.133-.337-.17-.304-.205-.237-.237-.237-.27-.204-.305-.171-.337-.133-.374-.1-.375-.067-.441v-.883l.067-.408.1-.374.133-.337.17-.338.204-.303.238-.238.27-.237.304-.204.304-.17.341-.134.375-.1.408-.066h.882l.442.1.374.1.375.17.304.17.304.238.237.27.237.271.17.304.172.304.1.337.1.375.033.341v.85zm13.836 1.153-.1.337-.137.304-.204.27-.237.271-.27.171-.342.17-.37.134-.375.1-.441.033-.475.033-.474-.033-.442-.066-.408-.138-.374-.204-.341-.204-.238-.27-.237-.27-.166-.305-.105-.341-.033-.337h1.998l.067.204.104.17.166.138.171.1.204.033.204.033.474-.066.304-.171.1-.237-.033-.17-.1-.134-.17-.1-.205-.067-.27-.1-.27-.066-.305-.067-.303-.1-.342-.066-.304-.133-.303-.1-.271-.171-.27-.204-.205-.27-.17-.271-.1-.337-.033-.408.033-.408.1-.341.17-.304.204-.27.27-.238.338-.204.337-.133.408-.1.441-.067h.442l.574.033.475.067.407.17.371.205.304.237.204.304.204.304.133.337.067.375H90.13v.004l-.033-.204-.133-.138-.138-.1-.137-.066-.204-.033h-.166l-.375.033-.237.133-.067.204.034.137.1.134.17.1.204.1.237.066.304.067.304.1.304.066.341.1.304.1.304.137.27.17.271.205.204.237.17.27.1.338.034.374zm13.866-3.117h-1.898v4.778h-2.069v-4.779h-1.898v-1.694h5.865zm-29.904.645-.17-.375-.238-.304-.303-.204-.442-.066-.408.1-.304.203-.237.304-.17.37-.067.409-.033.408.033.44.067.409.17.408.204.304.341.237.442.066.408-.066.303-.17.238-.305.17-.37.1-.441.034-.508-.034-.441zm.104.408-.1-.408-.17-.375-.237-.304-.304-.204-.442-.066-.407.1-.304.203-.238.304-.17.37-.067.409-.033.408.033.44.067.409.17.408.204.304.342.237.44.066.409-.066.304-.17.237-.305.17-.37.1-.441.034-.508zm0 0-.1-.408-.17-.375-.237-.304-.304-.204-.442-.066-.407.1-.304.203-.238.304-.17.37-.067.409-.033.408.033.44.067.409.17.408.204.304.342.237.44.066.409-.066.304-.17.237-.305.17-.37.1-.441.034-.508z"/></g><defs><clipPath id="a"><path d="M0 0H94.88V50H0z" transform="translate(33 10)"/></clipPath></defs><script xmlns=""/></svg>