<svg xmlns:xlink="http://www.w3.org/1999/xlink" xmlns="http://www.w3.org/2000/svg" fill="#00112C" viewBox="0 0 160 70" width="160"  height="70" ><script xmlns="" id="eppiocemhmnlbhjplcgkofciiegomcon"/><script xmlns="" id="an-1KOns5Z3IJc0OobgivPZTtA" type="text/javascript"/><script xmlns=""/><script xmlns=""/><script xmlns="" src="chrome-extension://hoklmmgfnpapgjgcpechhaamimifchmp/frame_ant/frame_ant.js"/><path fill-rule="evenodd" d="M91.486 48.446c-1.912-.064-3.728-.51-5.353-1.498-2.262-1.402-3.632-3.441-3.982-6.086-.383-2.612.159-5.034 1.88-7.105 1.115-1.37 2.548-2.262 4.237-2.772 2.549-.764 5.066-.7 7.488.35 3.377 1.435 5.32 4.525 5.257 8.221-.032 2.454-.86 4.588-2.645 6.277-1.274 1.242-2.835 1.975-4.556 2.326-.765.127-1.561.191-2.326.287m4.142-9.05v-.382c0-.159-.032-.35-.064-.51-.254-1.433-.987-2.516-2.39-3.026-1.05-.383-2.134-.383-3.217-.064-1.147.35-1.912 1.147-2.326 2.262-.414 1.18-.414 2.358.032 3.537.382 1.02 1.083 1.752 2.103 2.135a4.85 4.85 0 0 0 3.218.063c1.083-.318 1.816-1.02 2.262-2.07a4.1 4.1 0 0 0 .382-1.944M58.223 32.133c.127-.064.159-.064.19-.096.67-.733 1.53-1.115 2.454-1.338a10 10 0 0 1 4.238-.064c1.943.382 3.218 1.53 3.855 3.41.382 1.082.542 2.23.542 3.377.032 1.88.032 3.791.032 5.67v4.5889999999999995c0 .191-.128.287-.32.287h-4.747000000000001c-.19 0-.286-.128-.286-.319V39.11c0-.637-.064-1.242-.191-1.848-.064-.35-.223-.7-.383-1.02a1.8 1.8 0 0 0-1.21-.923 3.53 3.53 0 0 0-2.072.063c-1.02.319-1.497 1.116-1.72 2.071-.191.765-.191 1.53-.191 2.294v7.584c0 .637 0 .669-.67.669h-4.173c-.478 0-.51-.032-.51-.542V31.432c0-.478.032-.51.51-.51h4.11c.51 0 .542.032.542.541zM72.21 37.199v-9.846c0-.956.128-1.911.446-2.835.542-1.593 1.657-2.613 3.282-3.123 1.338-.414 2.676-.446 4.046-.35.542.032 1.084.127 1.593.191.415.064.447.127.447.542-.064 1.21-.128 2.421-.192 3.6-.032.446-.095.478-.51.35a4.5 4.5 0 0 0-2.166-.127c-.797.127-1.275.605-1.466 1.37-.095.35-.127.733-.127 1.083-.032.797 0 1.593 0 2.39 0 .382.032.414.414.414h3.0580000000000003c.351 0 .415.064.415.414v3.409c0 .447-.064.51-.51.51h-3.155c-.158 0-.222.096-.254.255V47.49c0 .446-.064.51-.51.51H72.72c-.51 0-.542-.032-.542-.542.032-3.441.032-6.85.032-10.26M108.341 32.164a5.4 5.4 0 0 1 1.848-1.147 10.5 10.5 0 0 1 3.282-.605c.382 0 .764-.032 1.147 0 .318 0 .382.096.382.414v3.92c0 .318-.096.382-.446.286-.86-.223-1.721-.319-2.581-.191-1.912.223-2.995 1.179-3.409 3.09-.191.86-.255 1.753-.255 2.645v6.755c0 .637 0 .637-.637.637h-4.461c-.191 0-.287-.128-.287-.319V31.56c0-.7 0-.7.701-.7h4.2700000000000005c.318.031.382.063.382.381v.574c.032.096.064.16.064.35M50.385 39.397v8.06c0 .447-.032.51-.51.51h-4.27c-.573 0-.605-.031-.605-.573.032-2.676.032-5.353.032-8.029v-7.838c0-.67 0-.67.637-.67h4.396999999999999c.191 0 .287.096.319.288v8.252M50.353 21.746c.032.19.032.286.032.382v5.544c0 .446-.032.51-.478.51H45.51c-.414 0-.478-.064-.478-.478v-2.008c0-.286.095-.446.318-.605a237 237 0 0 0 4.62-3.186c.096-.064.223-.096.383-.16" clip-rule="evenodd"/><script xmlns=""/></svg>