<svg xmlns:xlink="http://www.w3.org/1999/xlink" xmlns="http://www.w3.org/2000/svg" fill="#00112C" viewBox="0 0 160 70" width="160"  height="70" ><script xmlns="" id="eppiocemhmnlbhjplcgkofciiegomcon"/><script xmlns="" id="Rc7xf4acw8zbcYfRoGh4513xgz" type="text/javascript"/><script xmlns=""/><script xmlns=""/><script xmlns="" src="chrome-extension://hoklmmgfnpapgjgcpechhaamimifchmp/frame_ant/frame_ant.js"/><path d="M71.825 37.271q.479 0 .792-.144.314-.145.503-.409.19-.263.264-.628.076-.364.076-.805v-4.954h1.899v4.79q0 .693-.114 1.352-.113.66-.458 1.17-.347.509-.981.823-.635.315-1.68.315a5.646 5.646 0 0 1-.98-.1 5 5 0 0 1-.521-.133 3 3 0 0 1-.485-.195V36.78q.415.239.874.365.46.125.811.125"/><path fill-rule="evenodd" d="M83.752 37.322h3.181l.565 1.308h1.9l-3.874-8.45h-.276l-3.937 8.45h1.862zm2.628-1.283h-2.063l1.02-2.3h.05z" clip-rule="evenodd"/><path d="M95.006 34.543q0-.905.313-1.704.315-.797.907-1.395a4.25 4.25 0 0 1 1.433-.943q.842-.346 1.898-.346.478 0 1.138.094a4.4 4.4 0 0 1 1.227.359v1.62a4.4 4.4 0 0 0-1.132-.407 5.4 5.4 0 0 0-1.082-.12q-.604 0-1.113.195-.507.195-.88.566a2.7 2.7 0 0 0-.585.9 3.2 3.2 0 0 0-.212 1.206q0 .566.156 1.063.157.497.477.861.322.365.806.579.482.214 1.15.214.263 0 .579-.05a2.6 2.6 0 0 0 .539-.14v-2.74h1.661v3.935q-.617.253-1.383.365-.767.113-1.547.113-1.07 0-1.886-.314-.817-.315-1.364-.88a3.7 3.7 0 0 1-.823-1.34 5 5 0 0 1-.277-1.691M111.276 35.009v2.175h3.985v1.446h-5.859v-8.3h5.62v1.447h-3.746v1.835h3.356v1.397zM125.556 34.644l-2.111 3.986h-2.013l2.465-4.288-2.302-3.999h2.012l1.949 3.723 1.936-3.723h2.025l-2.326 4q.603 1.08 1.238 2.143t1.239 2.144h-2.025zM37.259 34.468 30 48.92l10.584.016 13.04-25.976h3.947l-5.777 11.5 5.769 11.5h-7.256l1.478 2.96h10.584L55.11 34.468l7.26-14.452L51.784 20l-1.035 2.073-12.007 23.903h-3.945l5.775-11.5-5.766-11.498h7.254l-1.477-2.962H30z"/><script xmlns=""/></svg>