<svg xmlns:xlink="http://www.w3.org/1999/xlink" xmlns="http://www.w3.org/2000/svg" fill="#00112C" viewBox="0 0 160 70" width="160"  height="70" ><script xmlns="" id="eppiocemhmnlbhjplcgkofciiegomcon"/><script xmlns="" id="JSOX_JoGHeg2CeXbEGjkt6yxzi" type="text/javascript"/><script xmlns=""/><script xmlns=""/><script xmlns="" src="chrome-extension://hoklmmgfnpapgjgcpechhaamimifchmp/frame_ant/frame_ant.js"/><g clip-path="url(#a)"><path d="M27.072 35.506c-.01.754-.03 1.74-.03 2.725 0 .675.137 1.326.448 1.932.236.462.557.853 1.01 1.116.226.13.311.31.326.57.074 1.342.163 2.685.25 4.027.013.21.049.42.06.632.01.214-.031.254-.247.287-.063.01-.127.01-.19.012l-3.432.079q-.111.004-.223-.001c-.39-.023-.659-.25-.712-.64a63 63 0 0 1-.247-2.017c-.088-.832-.16-1.665-.236-2.498a23 23 0 0 1-.076-1.014c-.053-1.185-.11-2.37-.146-3.556-.03-.943-.034-1.886-.048-2.829-.008-.482-.228-.698-.717-.748a43 43 0 0 1-2.08-.25c-.73-.111-.983-.67-.614-1.302a40.2 40.2 0 0 1 9.104-10.732 42 42 0 0 1 4.08-2.978c.664-.429 1.302-.426 1.962-.005a42 42 0 0 1 3.82 2.74c.083.067.165.139.258.184.181.09.313.022.356-.172.013-.061.007-.126.01-.19q.022-.586.048-1.173c.003-.062.022-.125.036-.187.079-.343.298-.54.65-.53.55.018 1.1.058 1.65.099.285.02.568.061.852.094.55.064.863.36.945.905q.105.706.2 1.414.252 1.825.5 3.65c.022.158.042.316.048.475.023.562.262 1.046.569 1.495.359.524.758 1.02 1.118 1.544a202 202 0 0 1 2.112 3.137c.125.19.212.417.267.639.104.417-.094.74-.515.839-.277.065-.565.08-.849.113-.515.06-1.033.105-1.546.177-.5.072-.657.264-.67.758-.025.995-.031 1.992-.078 2.987-.088 1.84-.182 3.681-.309 5.52-.067.97-.2 1.937-.325 2.902-.031.236-.128.47-.232.688-.138.289-.373.432-.716.422-.805-.025-1.61-.025-2.416-.037-.305-.005-.368-.077-.343-.388.117-1.488.242-2.976.35-4.465a89 89 0 0 0 .14-2.57c.101-2.298.178-4.596.123-6.896-.03-1.27-.094-2.54-.252-3.803a1.8 1.8 0 0 0-.128-.49c-.214-.5-.75-.68-1.214-.396a1.6 1.6 0 0 0-.452.434 18.5 18.5 0 0 0-2.687 5.483 18.8 18.8 0 0 0-.773 4.432c-.04.785-.058 1.566.016 2.349.01.115.04.23.049.345.036.474.317.726.759.81.373.072.753.116 1.13.172.136.02.272.034.408.058.249.044.28.072.268.335-.018.412-.048.825-.082 1.236q-.118 1.395-.243 2.786c-.009.093-.013.198-.058.275a.4.4 0 0 1-.21.162c-.086.029-.188.012-.283.012l-5.406-.003q-.096 0-.19-.002-.227-.006-.245-.234c-.038-.433-.087-.864-.118-1.297q-.096-1.379-.18-2.758c-.015-.233-.004-.467-.023-.7a.52.52 0 0 1 .261-.53 2.76 2.76 0 0 0 1.073-1.307c.118-.291.224-.605.246-.914.046-.643.03-1.29.043-1.935.007-.36.02-.72.029-1.08.027-1.102.048-2.204.082-3.305.032-1.049.076-2.097.114-3.145.003-.084.01-.17.003-.254-.021-.313-.244-.503-.578-.508-.236-.004-.475.227-.488.487-.05 1.026-.127 2.05-.184 3.076q-.058 1.08-.091 2.16c-.01.274.022.55.01.825-.012.24-.03.489-.099.717-.094.308-.31.421-.64.404a.61.61 0 0 1-.587-.49 1.7 1.7 0 0 1-.034-.41c.028-1.398.054-2.797.095-4.195.014-.508.065-1.015.097-1.522.012-.2.03-.403.02-.603a.505.505 0 0 0-.44-.471.515.515 0 0 0-.556.33.7.7 0 0 0-.047.215c-.05.75-.09 1.501-.144 2.252a51 51 0 0 0-.124 4.097c.002.124-.026.254-.067.371-.104.292-.297.418-.605.419-.3 0-.516-.133-.613-.41a1.3 1.3 0 0 1-.073-.434c.005-.445.03-.89.044-1.334.026-.762.047-1.525.076-2.287q.049-1.254.105-2.508c.015-.35-.173-.603-.483-.633-.318-.032-.57.2-.593.561q-.038.618-.058 1.238c-.033.932-.059 1.864-.091 2.796-.022.636-.05 1.27-.083 2.137zM126.815 43.382c-.265 0-.531.007-.795-.002-.491-.016-.693-.172-.795-.654-.087-.404-.141-.814-.202-1.222-.055-.367-.095-.736-.151-1.102-.044-.291-.07-.313-.369-.313-1.527-.003-3.053.003-4.579-.006-.241-.002-.365.094-.455.305a98 98 0 0 1-.791 1.805q-.157.348-.337.684a.9.9 0 0 1-.826.501q-.874.012-1.749-.003a2 2 0 0 1-.469-.078c-.271-.074-.36-.21-.324-.496.014-.114.046-.23.093-.335q.319-.71.654-1.412 2.261-4.732 4.525-9.463.336-.702.685-1.398a4 4 0 0 1 .263-.435c.174-.262.426-.405.733-.456.084-.014.168-.033.252-.036 1.101-.037 2.203-.085 3.301.039.412.047.687.28.779.687q.17.759.307 1.525c.341 1.896.675 3.793 1.011 5.69.276 1.553.555 3.106.825 4.66.046.27.07.547.074.822.005.391-.129.572-.521.637-.373.063-.757.062-1.137.09l-.001-.034zm-2.448-6.13c0-.118.014-.243-.002-.364q-.214-1.555-.434-3.11c-.055-.386-.106-.774-.173-1.16-.041-.239-.165-.312-.404-.287-.199.02-.287.155-.359.317q-.465 1.025-.931 2.051-.507 1.111-1.008 2.226c-.047.107-.066.226-.099.342.402.075 3.154.06 3.41-.016M107.689 40.457c.157.01.292.024.426.024 1.611.002 3.221 0 4.832.002.201 0 .403 0 .604.01.382.02.505.16.481.546a3 3 0 0 1-.051.377c-.083.459-.159.918-.259 1.373-.088.404-.207.5-.624.555a4 4 0 0 1-.506.032q-3.385.004-6.771-.002c-.307 0-.614-.028-.919-.056-.507-.046-.724-.252-.69-.754.041-.621.125-1.242.226-1.857.323-1.953.662-3.903.996-5.854q.38-2.221.766-4.442c.029-.166.083-.328.133-.49.118-.377.393-.57.771-.614a8 8 0 0 1 .919-.06q3.53-.005 7.057-.002c.117 0 .234-.002.349.013.372.05.481.185.43.556q-.093.66-.209 1.316c-.032.187-.083.372-.127.557-.078.326-.305.47-.621.493-.179.013-.36.01-.54.01l-4.8-.002q-.127-.002-.255 0c-.263.008-.291.024-.335.279q-.14.83-.271 1.66c-.034.218-.062.436-.092.647.148.132.302.098.445.099 1.24.002 2.48 0 3.72.002.254 0 .509.003.762.025.364.03.533.2.495.557-.06.568-.153 1.132-.25 1.694-.048.279-.224.45-.523.468-.158.01-.316.032-.474.033q-2.13.002-4.26 0-.095-.002-.19 0c-.24.01-.257.015-.301.274-.081.48-.151.962-.224 1.444q-.069.455-.131.91c-.005.041.005.083.011.176M66.038 29.297c.254 0 .509-.007.763.001.625.02.803.223.715.833a88 88 0 0 1-.3 1.914c-.324 1.942-.656 3.882-.975 5.825-.064.387-.056.78.032 1.17.153.678.556 1.134 1.21 1.354.68.227 1.374.227 2.066.039.61-.166 1.036-.554 1.32-1.11.295-.575.42-1.199.526-1.825.318-1.88.626-3.76.94-5.638.107-.637.207-1.275.331-1.908.097-.495.277-.639.787-.65.54-.014 1.081-.005 1.622-.002q.142 0 .283.029c.325.07.473.218.457.548-.024.474-.066.95-.143 1.42a463 463 0 0 1-.882 5.196c-.155.886-.31 1.773-.514 2.649a6.3 6.3 0 0 1-1.09 2.382 4.63 4.63 0 0 1-2.227 1.62 7.4 7.4 0 0 1-1.894.377c-.797.063-1.589.05-2.367-.144-1.336-.332-2.404-1.041-3.08-2.268a4.9 4.9 0 0 1-.576-3.012c.142-1.176.354-2.344.548-3.514.243-1.472.5-2.942.751-4.413a3 3 0 0 1 .053-.248c.122-.462.27-.584.754-.62q.08-.006.159-.007h.73zM83.431 29.156l2.756.204q.016 0 .031.003c.626.101.738.35.703.828-.037.5-.16 1.003-.305 1.486-.149.494-.357.615-.88.595-.698-.026-1.395-.078-2.093-.112-.761-.038-1.524-.088-2.284.025-.296.044-.579.127-.831.294-.594.394-.64 1.155-.062 1.573.304.22.663.376 1.017.51.484.182.99.307 1.481.473.877.296 1.725.654 2.448 1.252.777.642 1.2 1.462 1.24 2.476.034.842-.093 1.648-.514 2.39-.492.866-1.237 1.437-2.15 1.8a7 7 0 0 1-2.48.49c-.836.014-1.676.04-2.51-.013-.917-.057-1.829-.197-2.743-.303-.083-.01-.165-.039-.245-.067-.178-.062-.286-.188-.278-.38.01-.243.019-.488.061-.726.077-.437.157-.875.276-1.302.102-.369.213-.431.606-.416.348.014.697.048 1.044.086 1.202.133 2.407.186 3.615.15.477-.016.951-.08 1.387-.302.238-.123.452-.275.595-.51.229-.378.189-.766-.137-1.064a1.7 1.7 0 0 0-.472-.313 17 17 0 0 0-1.193-.433c-.816-.265-1.639-.51-2.41-.894-.583-.29-1.126-.632-1.548-1.142a2.94 2.94 0 0 1-.685-1.743c-.077-1.252.243-2.37 1.123-3.296.6-.63 1.34-1.027 2.163-1.281a7.4 7.4 0 0 1 2.128-.317c.382-.004.763 0 1.144 0zM92.057 32.24h-.445c-.963-.008-1.928-.005-2.891-.029-.506-.012-.6-.115-.539-.624.071-.587.177-1.172.3-1.75.085-.396.267-.52.677-.538.254-.011.509-.01.763-.01h8.298q.444-.001.89.016c.392.015.537.145.486.531-.086.639-.21 1.273-.337 1.905-.055.273-.239.444-.529.473-.136.014-.273.032-.41.032-.922.003-1.844.001-2.766.002-.38 0-.388.003-.45.372q-.29 1.69-.574 3.38l-.54 3.226-.552 3.255c-.025.146-.06.29-.094.434-.076.318-.286.508-.604.518-.645.018-1.292.023-1.938 0-.368-.013-.53-.192-.5-.555.044-.547.12-1.093.212-1.635.235-1.398.485-2.794.728-4.192q.34-1.955.678-3.91c.048-.278.085-.558.137-.9M132.441 32.24h-.402c-.817 0-1.633.003-2.449-.002a7 7 0 0 1-.666-.039c-.273-.028-.357-.11-.355-.387.002-.253.029-.507.067-.758.059-.387.125-.774.211-1.155.102-.448.271-.578.731-.6.222-.01.445-.01.667-.01h8.428q.429 0 .858.015c.384.016.51.134.458.514a34 34 0 0 1-.326 1.876c-.061.312-.26.503-.591.53-.127.01-.253.022-.38.022q-1.384.002-2.767.003c-.357 0-.365 0-.426.357-.245 1.44-.484 2.882-.728 4.322q-.328 1.925-.658 3.851c-.097.564-.189 1.128-.288 1.691-.027.156-.065.31-.102.465-.073.306-.276.49-.582.497-.657.017-1.315.023-1.971 0-.345-.013-.5-.196-.483-.543.02-.39.069-.78.135-1.166.365-2.14.74-4.277 1.11-6.416q.224-1.282.443-2.566c.024-.144.038-.29.065-.5zM58.937 32.205c-.146-.009-.259-.021-.372-.021-.688-.002-1.377.003-2.066-.004a3 3 0 0 1-.567-.057c-.226-.045-.305-.143-.3-.378q.009-.318.065-.63c.076-.427.152-.855.256-1.276.1-.4.264-.524.675-.54.392-.014.784-.01 1.176-.01h3.593c.18 0 .36.002.54.014.428.029.589.202.574.632a5 5 0 0 1-.07.663q-.282 1.69-.575 3.38c-.288 1.659-.583 3.316-.865 4.975-.196 1.152-.453 2.285-.966 3.345-.925 1.91-2.43 3.116-4.473 3.656-.224.06-.46.076-.69.105a.47.47 0 0 1-.489-.23c-.357-.58-.652-1.186-.753-1.87-.036-.25.083-.41.282-.52.12-.065.257-.097.385-.147.395-.152.802-.28 1.181-.465 1.192-.579 1.88-1.556 2.12-2.842.294-1.571.557-3.148.834-4.722q.237-1.346.471-2.69c.02-.111.022-.225.035-.368"/></g><defs><clipPath id="a"><path d="M0 0H120V28.888H0z" transform="translate(20 18)"/></clipPath></defs><script xmlns=""/></svg>