<svg xmlns:xlink="http://www.w3.org/1999/xlink" xmlns="http://www.w3.org/2000/svg" fill="#00112C" viewBox="0 0 160 70" width="160"  height="70" ><script xmlns="" id="eppiocemhmnlbhjplcgkofciiegomcon"/><script xmlns="" id="W8tLbBzaeAQ0sUkjQDuOMXzVue" type="text/javascript"/><script xmlns=""/><script xmlns=""/><script xmlns="" src="chrome-extension://hoklmmgfnpapgjgcpechhaamimifchmp/frame_ant/frame_ant.js"/><path d="M33.752 55.614h1.008v5.399h-1.008v-2.356h-2.43v2.356h-1.02v-5.399h1.01v2.144h2.43zM39.585 61.149c-1.663 0-2.888-1.194-2.888-2.852 0-1.72 1.24-2.821 2.888-2.821s2.916 1.093 2.916 2.822c-.007 1.67-1.24 2.85-2.916 2.85m1.82-2.852c0-1.093-.748-1.907-1.813-1.907s-1.808.84-1.808 1.907c0 1.109.729 1.923 1.808 1.923s1.813-.814 1.813-1.922M43.855 55.614h4.283v.897h-1.633v4.502h-1.019V56.51h-1.64zM51.265 56.511v1.262h2.454v.899h-2.455v1.439h2.73v.902h-3.738v-5.399h3.6v.897zM57.332 60.11h2.275v.903h-3.28v-5.399h1.005zM61.509 55.614h1.008v5.399H61.51zM66.219 56.511v1.262h2.455v.899h-2.455v1.439h2.727v.902H65.21v-5.399h3.61v.897zM73.95 58.628l1.434 2.385h-1.215v-.015l-1.23-2.253h-.65v2.268h-1.008v-5.399h1.88c1.044 0 2.002.423 2.002 1.56-.003.757-.457 1.277-1.213 1.454m.202-1.458c0-.547-.525-.676-1.036-.676h-.829v1.41h.75c.49-.01 1.115-.088 1.115-.744zM79.813 57.808c.73.175 1.733.456 1.733 1.608 0 1.238-1.035 1.734-2.115 1.734-.755 0-1.679-.093-2.43-1.024h.012l.836-.583c.195.243.635.707 1.585.707.59 0 1.043-.209 1.043-.729 0-.338-.187-.506-.827-.656l-.938-.224c-.749-.172-1.512-.423-1.512-1.475s.866-1.685 2.132-1.685a2.5 2.5 0 0 1 2.088.987l-.82.613a1.51 1.51 0 0 0-1.329-.698c-.542 0-1.016.243-1.016.656 0 .46.503.518.994.635zM89.676 57.808c.73.175 1.736.456 1.736 1.608 0 1.238-1.036 1.734-2.117 1.734-.756 0-1.677-.093-2.43-1.024h.014l.834-.583c.194.243.634.707 1.584.707.59 0 1.045-.209 1.045-.729 0-.338-.187-.506-.828-.656l-.936-.224c-.749-.172-1.512-.423-1.512-1.475s.863-1.685 2.132-1.685a2.5 2.5 0 0 1 2.087.987l-.833.608a1.5 1.5 0 0 0-1.318-.685c-.54 0-1.016.242-1.016.656 0 .46.506.517.995.634zM93.611 55.614h1.009v5.399h-1.009zM98.022 57.002v4.01h-1.008v-5.398h1.31l2.455 3.89v-3.89h1.001v5.399h-1.247zM108.533 59.567a2.43 2.43 0 0 1-2.316 1.582c-1.434 0-2.535-1.042-2.535-2.85s1.188-2.823 2.571-2.823a2.13 2.13 0 0 1 2.166 1.52l-.972.33a1.11 1.11 0 0 0-1.16-.914c-.885 0-1.497.712-1.497 1.872 0 1.232.649 1.93 1.504 1.93.8 0 1.138-.661 1.277-.973zM111.598 56.511v1.262h2.457v.899h-2.457v1.439h2.729v.902h-3.748v-5.399h3.6v.897zM121.011 56.715l-1.079.669-.518-.785 1.597-.985h1.009v5.399h-1.009zM125.958 61.149c-1.123 0-1.945-.581-1.945-1.556a1.37 1.37 0 0 1 .972-1.373 1.33 1.33 0 0 1-.804-1.291c0-.885.77-1.458 1.777-1.458s1.801.561 1.801 1.458a1.35 1.35 0 0 1-.851 1.29 1.4 1.4 0 0 1 1.023 1.374c0 .98-.836 1.555-1.973 1.555m.957-1.627a.947.947 0 0 0-1.893 0c0 .487.381.807.943.807s.945-.325.945-.807zm-.172-2.484a.775.775 0 0 0-1.549 0 .753.753 0 0 0 .771.805.76.76 0 0 0 .564-.233.77.77 0 0 0 .214-.572M131.528 59.075c-1.216.18-2.001-.705-2.001-1.75 0-1.196.907-1.85 1.972-1.85 1.108 0 1.922.664 1.922 1.85 0 .749-.389 1.247-.972 2.103l-1.074 1.584h-1.23zm-.044-.729a.953.953 0 0 0 .953-1.023 1 1 0 0 0-.048-.385.948.948 0 0 0-.895-.636.97.97 0 0 0-.953 1.02c.014.601.384 1.02.945 1.02zM134.895 55.614h3.743v.754l-2.081 4.645h-1.079l2.11-4.502h-2.693zM99.958 19.55c-.972 0-2.34 1.543-2.34 2.282 0 .367.269.528.6.528.996 0 2.35-1.34 2.35-2.222a.59.59 0 0 0-.181-.423.6.6 0 0 0-.43-.165M141.27 19.55c-.972 0-2.343 1.543-2.343 2.282 0 .367.272.528.603.528.996 0 2.352-1.34 2.352-2.222a.59.59 0 0 0-.38-.549.6.6 0 0 0-.232-.039M73.995 9.324c-8.792 0-22.56 11.91-30.023 17.068 2.09-4.213 4.071-8.264 6.193-11.353.943-1.369.678-1.765.275-1.765-.404 0-1.906.574-7.673 1.303-5.678.729-8.738 3.796-8.738 7.374 0 1.701.729 3.092 1.57 3.743.294.243.576.095.258-.362-.418-.6-1.004-1.719-1.004-2.815 0-2.34 1.56-4.503 4.292-5.522 2.336-.868 4.429-.877 7.883-1.385-4.879 8.188-12.934 31.473-23.465 31.473a7.58 7.58 0 0 1-6.757-3.96c-.328-.59-.486-.823-1.014-.823a.87.87 0 0 0-.93.884c0 2.49 4.9 4.618 8.463 4.618 9.55 0 15.215-10.507 20.198-20.516 2.882 7.839 5.663 19.1 15.003 19.1 3.794 0 7.671-2.8 9.414-5.04.442-.565.284-.906-.2-.398-1.484 1.556-4.911 4.266-8.667 4.266-5.502 0-9.236-5.216-13.028-18.37 6.145-4.861 20.937-16.496 28.083-16.496 1.631 0 2.78.461 2.78 1.215 0 .872-.998 1.667-.998 1.886a.436.436 0 0 0 .486.384c.916 0 1.774-1.077 1.774-2.139-.005-1.347-1.918-2.37-4.175-2.37"/><path d="M144.969 27.6c-.114 0-.243.128-.41.388-1.094 1.772-5.488 6.66-8.021 6.66-.669 0-1.019-.632-1.019-1.322 0-2.43 2.662-5.495 2.662-6.32 0-.23-.27-.386-.566-.386-1.016 0-1.325.168-2.025 1.167-1.385 1.973-3.646 6.788-6.003 6.788-1.738 0-2.808-3.298-3.075-6.168.797-.73 4.657-3.37 5.755-3.794.564-.222.282-1.111-.347-1.111-.435 0-5.761 3.867-7.197 4.892 2.477-5.147 5.884-12.04 7.756-15.09.544-.888 2.08-2.38 2.08-3.212 0-.274-.116-.42-.364-.42-1.731 0-4.779 5.77-12.603 11.26-.945.662-3.624 2.298-3.796 4.395-2.134.044-3.517 1.128-3.93 2.43-1.656 3.678-4.922 6.69-6.507 6.69-.362 0-.452-.307-.452-.598 0-1.459 2.431-4.83 2.431-6.077 0-.729-.54-1.157-1.32-1.157-1.687 0-3.075 1.053-4.849 2.774.172-.487.746-1.88.868-2.188.192-.471-.202-.59-.499-.59-.77 0-1.521.454-1.701.984-1.828 2.917-5.649 6.878-7.049 6.878-.282 0-.42-.243-.42-.683 0-1.378 2.897-6.076 3.135-6.596.219-.486-.243-.584-.486-.584a2.03 2.03 0 0 0-1.636.815c-.05.07-.114.165-.187.274-1.73 2.326-5.425 5.299-8.495 6.563 2.103-1.583 3.93-3.928 3.93-5.882 0-1.135-.872-1.782-2.034-1.782-1.293 0-2.695.654-3.952 1.631.81-1.546 1.723-3.062 1.852-3.35.219-.485-.243-.582-.486-.582-.559 0-1.502.34-1.862.999-.996 1.825-2.299 4.598-3.11 6.397-1.313 1.818-3.294 2.73-4.011 2.73-.28 0-.435-.207-.435-.601 0-1.434 2.447-4.842 2.447-6.077 0-.729-.564-1.152-1.27-1.152-1.612 0-2.83.897-4.595 2.596.42-1.606-.124-2.596-1.349-2.596-1.667 0-3.337 1.459-4.71 3.16.282-.778.508-1.254.508-2.017s-.46-1.133-1.12-1.133c-3.712 0-6.32 8.283-10.627 8.283-1.196 0-1.757-.83-1.757-1.861q0-.376.068-.746c2.831-.312 7.253-2.917 7.253-5.382 0-.84-.754-1.28-1.702-1.28-3.5 0-7.79 4.462-7.79 7.549 0 1.913 1.342 3.07 3.019 3.07 3.194 0 5.821-2.959 7.698-5.481 1.164-1.56 2.156-2.448 2.486-2.448.085 0 .146.044.146.197 0 .972-2.674 6.358-2.674 6.983 0 .335.326.335.625.335 1.235 0 1.633-.649 2.372-2.187.71-1.459 3.607-5.712 5.18-5.712.306 0 .41.209.41.506 0 1.572-2.848 6.319-2.848 7.048 0 .336.325.336.624.336 1.49 0 1.877-1.172 3-3.471s3.607-4.397 4.589-4.397c.226 0 .303.085.303.301 0 .858-2.569 4.73-2.569 6.24 0 .877.61 1.356 1.553 1.356 1.01 0 2.71-.596 4.251-2.025-3.106 7.168-4.749 11.992-11.323 15.366-.188.097-.19.243.05.243a4.5 4.5 0 0 0 1.549-.51c6.13-3.01 8.521-7.336 11.453-13.573 2.046-4.35 3.959-7.695 5.92-7.695.55 0 .73.486.73.943 0 1.216-1.852 3.916-3.666 5.265-1.07.795-1.648 1.038-1.648 1.458 0 .314.35.508.696.508 2.702 0 6.501-2.148 9.452-4.9-.64 1.262-1.17 2.57-1.17 3.403 0 1.035.757 1.487 1.588 1.487 2.05 0 4.757-2.6 7.032-5.327-1.016 2.299-2.246 4.467-2.246 4.99 0 .335.328.335.627.335 1.49 0 1.876-1.172 2.999-3.47 1.123-2.3 3.702-4.395 4.686-4.395.224 0 .358.085.358.301 0 .858-2.572 4.73-2.572 6.24 0 .877.613 1.356 1.556 1.356 2.673 0 5.906-3.048 7.794-6.295.586 1.327 2.079 2.654 2.079 3.888a1.43 1.43 0 0 1-1.459 1.422c-1.509 0-1.66-1.249-2.348-1.249-.59 0-.945.343-.972.683-.061.797 1.592 1.534 2.72 1.534 1.888 0 3.889-1.396 3.889-3.384s-2.292-3.354-2.292-4.86c0-.71.522-1.243 1.516-1.243.433.022.852.158 1.216.394.49.444 1.132.682 1.793.663a3.8 3.8 0 0 0 2.295-.972c.328-.35.146-.627-.17-.452a3 3 0 0 1-1.337.272c-.783 0-1.458-.447-1.458-1.417 0-2.265 4.751-4.132 9.056-8.507-2.71 5.122-7.195 14.584-8.471 17.257-.435.92-.775 1.622-.775 1.882 0 .34.243.362.617.362.822 0 1.481-.268 2.083-1.578.392-.848 1.33-2.848 2.518-5.323.443 4.154 1.923 6.9 4.424 6.9 1.701 0 3.135-1.103 4.511-3.06-.041 1.945.929 3.058 2.718 3.058 3.684 0 9.017-6.061 9.017-8.074a.164.164 0 0 0-.178-.143m-86.114-.785c.32 0 .515.17.515.59 0 1.118-2.778 3.678-5.002 4.173.807-2.52 3.413-4.763 4.487-4.763"/><script xmlns=""/></svg>