<svg xmlns:xlink="http://www.w3.org/1999/xlink" xmlns="http://www.w3.org/2000/svg" fill="#00112C" viewBox="0 0 160 70" width="160"  height="70" ><script xmlns="" id="eppiocemhmnlbhjplcgkofciiegomcon"/><script xmlns="" id="5lVNHhvECXSYJImCC1da8-F8mA" type="text/javascript"/><script xmlns=""/><script xmlns=""/><script xmlns="" src="chrome-extension://hoklmmgfnpapgjgcpechhaamimifchmp/frame_ant/frame_ant.js"/><path d="M116.648 57.798a2.5 2.5 0 0 0-1.18-.307c-.415 0-.795.106-1.172.306-.39.22-.681.515-.911.91a2.5 2.5 0 0 0-.309 1.225c0 .422.094.822.309 1.212.22.39.509.694.891.902.382.22.767.321 1.19.321.412 0 .81-.104 1.18-.321.379-.208.688-.512.881-.902.215-.39.319-.79.319-1.212 0-.42-.104-.833-.319-1.226a2.24 2.24 0 0 0-.879-.909m.552 3.139q-.285.483-.754.757a1.894 1.894 0 0 1-1.965 0 2 2 0 0 1-.749-.757 2 2 0 0 1-.251-1.005 2.2 2.2 0 0 1 .258-1.018c.172-.327.431-.577.745-.752a1.95 1.95 0 0 1 1.956 0c.304.177.547.425.755.752.172.324.251.67.251 1.018q.008.54-.246 1.005"/><path d="m30 13 9.585 45.311.729-.377c10.192-5.354 20.372-5.035 27.106-3.82 7.33 1.311 12.291 3.927 12.352 3.944l.266.15.273-.132c12.033-5.352 21.967-5.043 28.183-3.846 6.731 1.304 10.681 3.907 10.721 3.937l.757.501.195-.898L130 13zm26.43 27.63H42.32V25.77h5.618v11.065h8.493zm9.079.512c-5.757 0-8.808-2.975-8.808-7.942 0-4.965 3.175-7.932 8.489-7.932 5.668 0 8.486 3.63 8.486 7.932 0 .34-.025.666-.07.911H62.878c0 2.114 1.182 3.408 3.055 3.408 1.603 0 2.828-.453 3.089-1.77h4.68c-.569 3.403-2.959 5.393-8.194 5.393m18.608-.486h-4.62L72.12 25.64h6.471l3.957 8.67h.104l3.96-8.67h4.643zm13.602-.033h-5.62V25.61h5.62zm5.19-13.808-1.947 2.352h-.803l.882-2.562h-1.78v-3.42h3.65v3.63zm7.326 14.144c-5.149 0-7.063-2.265-7.063-5.01v-.086h4.706c0 1.299 1.026 1.957 2.466 1.957 1.274 0 1.927-.422 1.927-1.23 0-2.14-8.972-.089-8.972-6.14 0-3.237 3.02-5.133 7.742-5.133 4.2 0 6.749 2.083 6.749 4.572h-4.309c0-.717-.899-1.436-2.428-1.436-1.557 0-2.162.55-2.162 1.036 0 2.36 9.382.045 9.382 6.202-.002 2.965-2.225 5.268-8.038 5.268"/><path d="M65.233 28.481c-1.59 0-2.15 1.486-2.15 2.962h4.29c0-1.648-.54-2.962-2.14-2.962M115.881 60.248a.6.6 0 0 0-.22-.14c.22-.02.41-.103.547-.242a.72.72 0 0 0 .19-.502.7.7 0 0 0-.117-.387.64.64 0 0 0-.321-.248q-.212-.068-.644-.066h-.896v2.613h.413v-1.097h.243c.149-.005.248.018.334.084.101.081.251.284.433.6l.228.413h.511l-.309-.507c-.164-.243-.286-.415-.392-.521m-.552-.448h-.499v-.787h.481c.195 0 .335.015.403.045.084.04.154.081.182.134.043.069.058.14.058.213 0 .129-.04.215-.126.291-.086.06-.248.104-.499.104"/><script xmlns=""/></svg>