<svg xmlns:xlink="http://www.w3.org/1999/xlink" xmlns="http://www.w3.org/2000/svg" fill="#00112C" viewBox="0 0 160 70" width="160"  height="70" ><script xmlns="" id="eppiocemhmnlbhjplcgkofciiegomcon"/><script xmlns="" id="OTP9IdjDJpZiuv5cTdar6R7_4-" type="text/javascript"/><script xmlns=""/><script xmlns=""/><script xmlns="" src="chrome-extension://hoklmmgfnpapgjgcpechhaamimifchmp/frame_ant/frame_ant.js"/><g clip-path="url(#a)"><path d="m16.653 18.286 1.579 2.747a1.89 1.89 0 0 1 0 1.832l-9.41 16.326 4.452 7.706a3.93 3.93 0 0 0 3.379 1.958c1.39 0 2.684-.758 3.379-1.958l4.452-7.706-1.168-2.084-5.053 8.748a1.83 1.83 0 0 1-1.579.915 1.79 1.79 0 0 1-1.579-.915l-3.884-6.664 8.748-15.158 1.579 2.748a1.89 1.89 0 0 1 0 1.831l-6.095 10.58 1.2 2.084 6.631-11.495 4.358 7.547a3.8 3.8 0 0 1 0 3.758l-4.42 7.674c-.664 1.168-2.78 3.79-6.57 3.79-3.789 0-5.873-2.622-6.568-3.79l-4.42-7.674a3.8 3.8 0 0 1 0-3.758zM37.21 26.465h3.064V44.56H37.21zM44.38 29.78a1.8 1.8 0 1 0 0-3.6 1.8 1.8 0 0 0 0 3.6M42.832 31.99h3.094V44.56h-3.095zm11.21-.315c-3.505 0-6.347 2.463-6.347 6.379s2.463 6.316 6.379 6.316c1.547 0 3.19.789 3.19 2.526s-1.39 2.716-3.19 2.716-3.285-1.074-3.285-2.716h-3.094c0 3.379 2.715 5.62 6.379 5.62 3.631 0 6.284-2.146 6.284-5.62 0-1.61-.505-3.126-2.59-4.169 2.053-.947 2.653-3.126 2.653-4.705 0-3.884-2.874-6.347-6.379-6.347m.032 10.137c-1.8 0-3.285-1.548-3.285-3.758 0-2.18 1.485-3.79 3.285-3.79s3.252 1.642 3.252 3.79c0 2.179-1.484 3.758-3.252 3.758m15.315-10.137c-1.42 0-2.778.442-3.915 1.863v-7.105h-3.095v18.094h3.095v-6.379c0-1.863 1.263-3.41 3.094-3.41 1.642 0 2.843.979 2.843 3.252v6.537h3.094V37.77c.032-3.695-1.547-6.095-5.116-6.095m12.664 10.737c-.38 0-.695-.127-.885-.38-.19-.252-.284-.631-.284-1.2v-6.189h2.495l.284-2.684h-2.747v-3.442l-3.127.347v3.127h-2.368v2.684h2.368v6.252c0 1.295.316 2.274.916 2.937s1.516 1.01 2.684 1.01c.537 0 1.043-.062 1.58-.22a4.9 4.9 0 0 0 1.42-.664l-1.073-1.989a2.2 2.2 0 0 1-1.263.41M94.779 37.8c-1.263-.79-2.748-.884-4.2-.979-.853-.063-2.147-.253-2.147-1.358 0-.79.82-1.231 2.305-1.231 1.2 0 2.242.284 3.126 1.105l1.737-2.021c-1.453-1.263-2.937-1.642-4.926-1.642-2.306 0-5.337 1.01-5.337 3.915 0 1.2.631 2.306 1.673 2.937 1.169.727 2.685.821 3.98.98.884.094 2.336.315 2.084 1.547-.158.852-1.2 1.105-1.927 1.136a8.6 8.6 0 0 1-2.368-.22c-.821-.222-1.484-.6-2.21-1.074l-1.58 1.99c.095.062.19.157.19.157 2.02 1.674 4.831 2.21 7.39 1.642 1.926-.442 3.568-1.831 3.568-3.916.063-1.168-.316-2.336-1.358-2.968m10.2-6.126c-1.421 0-3.095.6-4.074 1.99l-.095-1.706h-3v18.095l3.095-.348v-6.631c.884 1.358 2.811 1.8 4.137 1.8 4.011 0 6.347-3 6.347-6.632 0-3.695-2.558-6.568-6.41-6.568m-.253 10.516c-2.116 0-3.537-1.927-3.537-3.885s1.327-4.042 3.537-4.042c2.242 0 3.537 2.116 3.537 4.042.032 1.958-1.421 3.885-3.537 3.885m10.705-2.811c.348 1.484 1.706 2.779 3.916 2.779 1.137 0 2.653-.569 3.379-1.295l1.99 1.958c-1.327 1.358-3.506 2.021-5.4 2.021-3.916 0-6.758-2.59-6.758-6.6 0-3.79 2.937-6.568 6.537-6.568 3.789 0 6.947 2.59 6.631 7.705zm7.295-2.368c-.347-1.485-1.831-2.78-3.631-2.78-1.674 0-3.221 1.138-3.664 2.78zm7.042 2.368c.348 1.484 1.706 2.779 3.916 2.779 1.137 0 2.653-.569 3.379-1.295l1.989 1.958c-1.326 1.358-3.505 2.021-5.4 2.021-3.915 0-6.757-2.59-6.757-6.6 0-3.79 2.936-6.568 6.536-6.568 3.79 0 6.948 2.59 6.632 7.705zm7.327-2.368c-.348-1.485-1.832-2.78-3.632-2.78-1.674 0-3.221 1.138-3.663 2.78zm10.452 7.863c1.421 0 3.095-.6 4.074-1.99l.095 1.674h3V26.464h-3.095v7.01c-.884-1.357-2.842-1.768-4.169-1.768-4.01 0-6.315 2.969-6.315 6.632s2.558 6.537 6.41 6.537m.221-10.516c2.116 0 3.537 1.926 3.537 3.884s-1.326 4.042-3.537 4.042c-2.242 0-3.537-2.115-3.537-4.042 0-1.958 1.421-3.884 3.537-3.884"/></g><defs><clipPath id="a"><path d="M0 0H150V34.74H0z" transform="translate(5 18)"/></clipPath></defs><script xmlns=""/></svg>