<svg xmlns:xlink="http://www.w3.org/1999/xlink" xmlns="http://www.w3.org/2000/svg" fill="none" viewBox="0 0 160 70" width="160"  height="70" ><script xmlns="" id="eppiocemhmnlbhjplcgkofciiegomcon"/><script xmlns="" id="V-xiNddqb4AdANNuDhU6WoGb7w" type="text/javascript"/><script xmlns=""/><script xmlns=""/><script xmlns="" src="chrome-extension://hoklmmgfnpapgjgcpechhaamimifchmp/frame_ant/frame_ant.js"/><path fill="#00112C" fill-rule="evenodd" d="M105.501 23h21.306c1.021 0 1.849.807 1.849 1.803v21.393c0 .996-.828 1.804-1.849 1.804h-21.306c-1.016 0-1.844-.808-1.844-1.804V24.803c0-.996.828-1.803 1.844-1.803m15.753 21.303h3.707V37.76c0-3.214-.693-5.684-4.449-5.684-1.804 0-3.012.99-3.508 1.927h-.051v-1.63H113.4v11.93h3.703V38.4c0-1.555.296-3.064 2.223-3.064 1.905 0 1.928 1.78 1.928 3.163zm-14.187-15.711a2.151 2.151 0 1 0 4.302 0 2.151 2.151 0 0 0-4.302 0m4.007 15.71h-3.713v-11.93h3.713z" clip-rule="evenodd"/><path fill="#00112C" d="M46.703 28.586c0-1.186-.964-2.15-2.15-2.15a2.15 2.15 0 1 0 2.15 2.15M33.857 26.697H30v17.606h10.996v-3.56h-7.14zM42.699 44.297h3.707v-11.93h-3.707zM65.604 26.697H61.9v17.606h3.704v-5.899h.049l3.933 5.899h4.657l-4.758-6.417 4.86-5.525h-4.54l-4.2 4.857zM48.456 32.37h3.56v1.629h.047c.495-.938 1.705-1.927 3.51-1.927 3.756 0 4.447 2.472 4.447 5.684v6.541h-3.708v-5.801c0-1.384-.023-3.161-1.926-3.161-1.928 0-2.225 1.507-2.225 3.062v5.9h-3.705z"/><path fill="#00112C" fill-rule="evenodd" d="M85.286 42.232c-1.189 1.508-3.14 2.374-5.067 2.374-3.706 0-6.672-2.473-6.672-6.303 0-3.828 2.966-6.3 6.672-6.3 3.46 0 5.634 2.472 5.634 6.3v1.162h-8.599c.295 1.409 1.36 2.321 2.792 2.321 1.212 0 2.025-.615 2.643-1.455zm-3.14-5.286c.023-1.236-.94-2.274-2.274-2.274-1.63 0-2.52 1.113-2.618 2.274zM99.951 44.296H96.54v-1.584h-.049c-.57.866-2 1.88-3.682 1.88-3.56 0-5.905-2.57-5.905-6.202 0-3.336 2.076-6.4 5.486-6.4 1.532 0 2.965.42 3.804 1.58h.049v-6.873h3.71zm-6.377-9.045c-1.853 0-2.966 1.236-2.966 3.04s1.113 3.04 2.966 3.04 2.965-1.235 2.965-3.04c0-1.803-1.111-3.04-2.965-3.04" clip-rule="evenodd"/><script xmlns=""/></svg>