<svg xmlns:xlink="http://www.w3.org/1999/xlink" xmlns="http://www.w3.org/2000/svg" fill="#00112C" viewBox="0 0 160 70" width="160"  height="70" ><script xmlns="" id="eppiocemhmnlbhjplcgkofciiegomcon"/><script xmlns="" id="cFLFh8FRTdBHB9StYHzdKGknj2" type="text/javascript"/><script xmlns=""/><script xmlns=""/><script xmlns="" src="chrome-extension://hoklmmgfnpapgjgcpechhaamimifchmp/frame_ant/frame_ant.js"/><path d="M139.157 37.453c0 2.487-.212 2.56-1.315 2.676l-.866.093c-.168.166-.143.586.046.679a87 87 0 0 1 3.52-.07h2.675c2.749 0 4.765.022 5.796.07.33-.634.845-2.417.988-3.405-.14-.236-.54-.304-.751-.14-.823 1.903-1.336 2.582-4.32 2.534-1.971 0-2.369-.188-2.653-.513-.347-.4-.397-1.245-.397-2.444v-2.98c0-.585.022-.633.561-.633h1.126c2.042 0 2.442.048 2.607 1.031l.162.94c.19.141.631.141.749-.022-.025-.752-.07-1.577-.07-2.465 0-.872.045-1.717.07-2.35-.12-.187-.561-.187-.749-.02l-.162.796c-.165 1.011-.565 1.034-2.607 1.034h-1.126c-.541 0-.561-.023-.561-.634v-3.97c0-1.335 0-1.383 1.008-1.383h1.574c.634 0 1.335.048 1.878.211.75.189 1.102.775 1.479 2.135.188.141.654.096.749-.093-.141-1.008-.279-2.862-.374-3.261-.305.045-1.665.07-3.169.07h-4.481c-1.033 0-2.135-.025-3.029-.07-.189.093-.212.515-.048.679l.375.045c1.103.164 1.315.236 1.315 2.726zm-5.206-6.22c0-1.854 0-3.895.329-4.624.164-.375.561-.473 1.004-.54l.545-.119c.187-.166.139-.56-.047-.679-.845.045-1.456.068-2.467.068-.915 0-1.785-.025-2.698-.068-.236.068-.259.513-.048.679l.541.07c.588.094.963.234 1.172.589.425.704.447 2.861.447 4.624v4.576c0 .375 0 .493-.07.563-.236-.14-2.419-2.63-3.405-3.709l-2.348-2.534c-.822-.893-3.379-3.852-3.777-4.858-.565.045-1.126.068-1.619.068-.588 0-1.878.025-2.769-.068-.234.068-.259.54-.095.679l.352.07c.332.073.988.26 1.247.468.797.682.772 1.059.772 2.89v5.561c0 1.853 0 3.898-.304 4.624-.164.375-.586.47-1.034.538l-.515.12c-.189.164-.141.562.045.68.82-.048 1.458-.073 2.444-.073.893 0 1.81.025 2.675.073.234-.073.259-.516.046-.68l-.518-.07c-.584-.093-.983-.236-1.197-.588-.397-.704-.422-2.864-.422-4.624v-4.576c0-1.245 0-1.501.07-1.501.397.352 1.154 1.244 2.675 2.957l5.494 6.266c1.69 1.926 2.371 2.72 2.746 3.216.284.025.611-.07.797-.327-.07-.54-.07-3.427-.07-4.134zm-22.6 3.85c.656 0 .727 0 .963.63l1.104 3.194c.306 1.01.236 1.151-.611 1.245l-.513.07c-.141.14-.119.563.07.681.822-.023 1.853-.072 2.864-.072 1.217 0 2.087.024 3.052.072.162-.118.162-.515-.025-.681l-.352-.07c-1.197-.212-1.315-.375-1.855-1.95l-3.38-9.83c-.374-1.06-.679-2.163-1.054-3.22a.48.48 0 0 0-.401-.188c-.046 0-.82.963-1.643 1.127.071.397-.14.96-.447 1.715l-3.216 8.355c-.49 1.265-.867 2.253-1.149 2.862-.35.774-.609.988-1.29 1.078l-.704.119c-.164.21-.141.563.025.681.82-.048 1.549-.073 2.321-.073.963.025 1.74.025 2.487.073.191-.093.216-.516.048-.681l-.68-.118c-.869-.116-.962-.187-.492-1.572l.96-2.816c.212-.632.189-.632.8-.632zm-2.746-1.057c-.563 0-.633 0-.375-.679l.988-2.748c.421-1.101.609-1.687.7-1.853h.05c.113.166.259.61.656 1.853l.988 2.819c.189.56.091.608-.565.608zm-12.362 3.427c0 2.487-.21 2.56-1.315 2.653l-.983.118c-.168.118-.143.586.045.68 1.5-.049 2.603-.071 3.639-.071 1.03 0 2.087.023 3.45.07.188-.093.211-.513.045-.679l-.845-.093c-1.101-.116-1.312-.188-1.312-2.675V27.315c0-.986.025-1.033.63-1.033h1.339c2.514 0 2.959.447 3.263 2.278.211.165.611.118.729-.07-.072-.753.116-2.77.352-3.735-.05-.07-.166-.115-.306-.115a.7.7 0 0 0-.284.093c-.28.54-.632.61-1.783.61h-9.575c-1.594 0-1.926-.024-2.04-.61-.047-.068-.14-.093-.238-.093-.116 0-.211.025-.26.093a38 38 0 0 1-.914 3.545c.093.234.586.307.751.164.873-1.901 1.504-2.16 3.664-2.16h1.313c.61 0 .635.047.635 1.033zm-9.588-8.73c0-2.49.21-2.562 1.312-2.7l.518-.07c.166-.164.141-.587-.047-.68a71 71 0 0 1-6.29 0c-.19.093-.21.516-.05.68l.52.07c1.102.14 1.314.21 1.314 2.7v8.73c0 2.487-.212 2.56-1.313 2.7l-.52.071c-.162.166-.141.586.05.68a74 74 0 0 1 3.166-.071c1.033 0 2.091.025 3.123.07.188-.093.213-.513.047-.679l-.518-.07c-1.101-.141-1.312-.211-1.312-2.7zm-6.657-3.1c-.214-.045-.375-.07-.659-.14-1.101-.28-2.72-.514-4.06-.514-2.37 0-4.743.679-6.48 1.992-1.738 1.337-2.957 3.475-2.957 6.22 0 3.076 1.43 5.213 3.334 6.453 1.69 1.103 3.686 1.576 6.007 1.576 1.529 0 3.148-.4 3.663-.566.26-.07.541-.16.823-.21.329-.446.963-1.997 1.126-3.569-.118-.211-.495-.304-.706-.093-.657 1.529-1.949 3.498-4.908 3.498-3.025 0-6.148-2.444-6.148-7.44 0-4.813 3.005-6.925 5.982-6.925 3.1 0 4.156 1.948 4.556 3.427.161.166.584.14.747-.046-.23-1.737-.275-3.123-.32-3.663m-16.284 0c-.211-.045-.375-.07-.659-.14-1.101-.28-2.72-.514-4.058-.514-2.37 0-4.742.679-6.478 1.992-1.74 1.337-2.959 3.475-2.959 6.22 0 3.076 1.43 5.213 3.334 6.453 1.69 1.103 3.686 1.576 6.01 1.576 1.523 0 3.143-.4 3.658-.566.26-.07.54-.16.825-.21.327-.446.958-1.997 1.124-3.569-.118-.211-.493-.304-.706-.093-.654 1.529-1.947 3.498-4.901 3.498-3.032 0-6.15-2.444-6.15-7.44 0-4.813 3.002-6.925 5.984-6.925 3.098 0 4.156 1.948 4.553 3.427.162.166.586.14.752-.046-.236-1.737-.28-3.125-.33-3.663m-26.298 15.68c5.665 0 10.182-4.313 10.182-10.238C47.598 25.902 44.196 21 37.416 21c-6.043 0-10.445 4.488-10.445 10.354 0 5.28 3.934 9.948 10.445 9.948m.38-.91c-5.776 0-7.89-5.633-7.89-9.973 0-6.425 3.963-8.508 7.01-8.508 5.604 0 7.745 5.219 7.745 10.061.002 5.78-3.343 8.42-6.865 8.42M22.226 24.4c-1.055 0-1.337.706-1.337 1.104 0 .515.375.797.727.845.56.072 1.267.447 1.267 1.22 0 1.033-.892 1.716-1.903 2.136-.07.191-.023.47.168.611 1.617-.4 3.214-1.714 3.214-3.5.002-1.285-.984-2.416-2.135-2.416m-7.355 4.322c0-2.444.21-2.514 1.312-2.678l.518-.093c.186-.118.164-.586-.045-.679-1.031.046-2.092.07-3.12.07a84 84 0 0 1-3.312-.07c-.211.093-.211.561-.046.68l.657.092c1.104.164 1.315.234 1.315 2.678v8.73c0 2.44-.211 2.51-1.315 2.653l-.707.118c-.21.118-.136.586.05.68.986-.046 2.158-.071 3.357-.071h2.442c2.625 0 4.644.025 5.63.07.28-.633.8-2.416.986-3.404-.116-.189-.493-.26-.727-.141-1.084 2.419-1.458 2.535-4.063 2.535-1.876 0-2.253-.187-2.535-.514-.35-.4-.4-1.244-.4-2.416zM120.136 49.82c0 .886-.077.91-.47.951l-.309.032c-.057.06-.052.211.018.245.375-.018.886-.027 1.251-.027h.954c.977 0 1.697.011 2.065.027.116-.224.3-.86.349-1.212-.049-.082-.193-.107-.265-.05-.291.676-.479.92-1.538.901-.699 0-.845-.066-.942-.181-.128-.144-.146-.446-.146-.87v-1.06c0-.21.012-.226.205-.226h.399c.727 0 .866.016.927.368l.059.334c.066.052.225.052.266-.009-.009-.268-.025-.561-.025-.879 0-.309.018-.609.025-.836-.041-.066-.2-.066-.266-.009l-.059.286c-.061.36-.202.368-.927.368h-.399c-.193 0-.205-.009-.205-.224v-1.413c0-.477 0-.493.361-.493h.559c.225 0 .477.016.67.077.266.066.391.275.525.761.066.048.236.032.265-.036-.045-.36-.099-1.018-.131-1.16-.107.017-.595.024-1.129.024h-1.597c-.368 0-.758-.009-1.078-.025-.066.032-.075.182-.019.243l.134.018c.393.06.471.084.471.968v3.107zm-4.474-4.211c-.078-.018-.137-.025-.237-.052-.39-.1-.969-.184-1.444-.184-.843 0-1.685.24-2.307.71-.616.478-1.05 1.236-1.05 2.213 0 1.095.509 1.855 1.186 2.298.602.393 1.31.561 2.137.561.543 0 1.12-.14 1.306-.197.093-.03.191-.062.291-.08.12-.157.345-.709.404-1.267-.043-.077-.175-.11-.252-.034-.236.543-.693 1.244-1.749 1.244-1.079 0-2.187-.87-2.187-2.648 0-1.715 1.07-2.466 2.128-2.466 1.104 0 1.478.692 1.624 1.22.057.056.206.05.265-.019-.084-.613-.102-1.106-.115-1.299m-9.391 1.996c0-.66 0-1.39.118-1.644.059-.134.199-.168.361-.193l.188-.04c.068-.062.052-.203-.016-.244-.302.016-.52.025-.874.025-.327 0-.636-.011-.963-.025-.086.025-.093.182-.016.243l.193.025c.207.034.341.084.416.211.152.25.159 1.018.159 1.645v1.628c0 .134 0 .175-.025.202-.08-.052-.859-.936-1.209-1.322l-.838-.904c-.293-.315-1.203-1.369-1.346-1.728-.202.016-.4.025-.577.025-.211 0-.668.005-.986-.025-.084.025-.088.19-.034.243l.127.025c.114.025.35.091.441.168.284.24.275.375.275 1.027v1.98c0 .661 0 1.386-.107 1.647-.059.134-.209.168-.368.188l-.182.046c-.068.059-.052.202.016.245.291-.018.52-.027.87-.027.316 0 .643.011.954.027.079-.027.091-.186.016-.245l-.182-.025c-.211-.032-.354-.084-.427-.207-.141-.252-.15-1.022-.15-1.647V47.3c0-.44 0-.534.023-.534.145.127.411.443.954 1.052l1.955 2.23c.604.686.847.97.977 1.147.102.007.22-.028.286-.12-.027-.191-.027-1.218-.027-1.47zM93.759 49.82c0 .886-.073.91-.466.951l-.309.032c-.059.06-.052.211.016.245.377-.018.886-.027 1.254-.027h.954c.976 0 1.694.011 2.062.027.118-.224.3-.86.352-1.212-.052-.082-.193-.107-.268-.05-.293.676-.475.92-1.538.901-.7 0-.844-.066-.94-.181-.127-.144-.143-.446-.143-.87v-1.06c0-.21.007-.226.202-.226h.4c.727 0 .87.016.927.368l.059.334c.068.052.225.052.265-.009-.009-.268-.025-.561-.025-.879 0-.309.018-.609.025-.836-.04-.066-.197-.066-.265-.009l-.06.286c-.056.36-.197.368-.926.368h-.4c-.195 0-.202-.009-.202-.224v-1.413c0-.477 0-.493.361-.493h.559c.225 0 .475.016.668.077.265.066.39.275.526.761.066.048.235.032.266-.036-.052-.36-.1-1.018-.134-1.16-.109.017-.59.024-1.129.024h-1.594c-.368 0-.76-.009-1.079-.025-.068.032-.072.182-.018.243l.134.018c.393.06.466.084.466.968zm-5.276-1.906c.375-.845.615-1.403.852-1.803.14-.243.322-.302.515-.34l.211-.044c.039-.066.046-.202-.02-.243a11 11 0 0 1-.81.025c-.267 0-.55-.009-.893-.025-.066.041-.073.175-.019.243l.246.06c.25.058.272.124.14.458-.442 1.136-.947 2.29-1.396 3.34-.084-.192-.31-.685-.461-1.06l-.602-1.487c-.343-.852-.407-1.036-.407-1.113 0-.066.064-.107.248-.148l.211-.052c.077-.06.066-.193-.009-.243a21.434 21.434 0 0 1-2.114 0c-.082.025-.082.175-.023.234l.2.04c.334.069.408.185.642.743l1.463 3.52c.15.348.286.76.384 1.093.04.025.098.043.159.043.057 0 .125-.018.14-.043.144-.425.537-1.404.873-2.162zm-10.37-2.539c-1.751 0-2.991 1.26-2.991 2.966 0 1.486 1.085 2.816 2.975 2.816 1.685 0 2.941-1.228 2.941-2.872 0-1.522-.995-2.91-2.925-2.91m-.107.334c1.329 0 1.897 1.46 1.897 2.723 0 1.678-.773 2.39-1.722 2.39-1.428 0-1.921-1.57-1.921-2.726-.003-1.778.908-2.387 1.746-2.387m-10.49 4.11c0 .886-.075.911-.468.96l-.182.024c-.077.06-.052.211.018.245a24 24 0 0 1 2.237 0c.066-.031.075-.184.019-.245l-.184-.025c-.391-.047-.466-.072-.466-.958v-1.07c0-.175.005-.186.259-.186.275 0 .368.038.518.286.202.327.436.783.658 1.136.511.776.945 1.101 1.75 1.101.292 0 .449-.025.547-.05.027-.04.027-.132-.014-.168a1.03 1.03 0 0 1-.577-.259c-.39-.325-.81-1.035-1.478-2.162-.032-.052-.053-.12 0-.143.41-.168 1.001-.554 1.001-1.322 0-.6-.306-.992-.733-1.217-.366-.202-.934-.286-1.586-.286-.688 0-1.396.025-1.921.075-.068.04-.068.174-.007.233l.214.025c.395.04.401.141.401.943zm.97-3.592c0-.384.004-.409.442-.409.727 0 1.152.575 1.152 1.236 0 .794-.375 1.196-1.197 1.196-.397 0-.397-.018-.397-.286zM59.53 49.82c0 .886-.077.91-.47.97l-.132.015c-.058.06-.052.212.014.246.334-.019.713-.028 1.079-.028.368 0 .743.012 1.238.028.059-.032.066-.184.018-.246l-.311-.031c-.39-.041-.466-.066-.466-.952v-3.657c0-.324.007-.347.425-.347.76 0 1.195.593 1.195 1.27 0 .685-.275 1.237-1.038 1.387-.041.05-.032.157.027.211.066.007.132.007.211.007.659 0 1.87-.352 1.87-1.621 0-.555-.278-.995-.712-1.252-.374-.218-.951-.334-1.746-.334-.759 0-1.26.01-1.844.075-.066.034-.066.175-.01.234l.294.034c.347.048.358.175.358.934zm-10.197-2.215c0-.66 0-1.39.118-1.644.06-.134.198-.168.359-.193l.193-.04c.066-.062.05-.203-.018-.244-.3.016-.518.025-.877.025-.325 0-.633-.011-.96-.025-.085.025-.094.182-.019.243l.193.025c.211.034.345.084.418.211.15.25.16 1.018.16 1.645v1.628c0 .134 0 .175-.028.202-.082-.052-.859-.936-1.21-1.322l-.834-.904c-.293-.315-1.204-1.369-1.347-1.728a7 7 0 0 1-.577.025c-.211 0-.668.005-.988-.025-.081.025-.088.19-.031.243l.127.025c.115.025.347.091.44.168.284.24.275.375.275 1.027v1.98c0 .661 0 1.386-.107 1.647-.059.134-.209.168-.368.188l-.184.046c-.065.059-.05.202.019.245.293-.018.517-.027.87-.027.317 0 .642.011.951.027.082-.027.093-.186.018-.245l-.184-.025c-.209-.032-.35-.084-.424-.207-.143-.252-.153-1.022-.153-1.647V47.3c0-.44 0-.534.025-.534.144.127.412.443.957 1.052l1.955 2.23c.602.686.845.97.977 1.147.102.007.22-.028.283-.12-.025-.191-.025-1.218-.025-1.47zm-12.51 2.215c0 .886-.074.91-.467.951l-.312.032c-.058.06-.05.211.019.245.374-.018.885-.027 1.251-.027h.954c.979 0 1.697.011 2.062.027.12-.224.302-.86.352-1.212-.05-.082-.193-.107-.268-.05-.293.676-.474.92-1.535.901-.702 0-.845-.066-.945-.181-.127-.144-.14-.446-.14-.87v-1.06c0-.21.006-.226.2-.226h.399c.727 0 .87.016.929.368l.057.334c.068.052.224.052.265-.009-.009-.268-.025-.561-.025-.879 0-.309.016-.609.025-.836-.043-.066-.197-.066-.265-.009l-.057.286c-.06.36-.202.368-.93.368h-.399c-.193 0-.2-.009-.2-.224v-1.413c0-.477 0-.493.36-.493h.558c.225 0 .477.016.668.077.265.066.393.275.524.761.068.048.239.032.268-.036-.05-.36-.1-1.018-.134-1.16-.107.017-.59.024-1.126.024h-1.597c-.368 0-.76-.009-1.079-.025-.066.032-.075.182-.016.243l.134.018c.393.06.468.084.468.968z"/><script xmlns=""/></svg>