<svg xmlns:xlink="http://www.w3.org/1999/xlink" xmlns="http://www.w3.org/2000/svg" fill="#00112C" viewBox="0 0 160 70" width="160"  height="70" ><script xmlns="" id="eppiocemhmnlbhjplcgkofciiegomcon"/><script xmlns="" id="KohYhrwnH2tGejw_joitPbO7t4" type="text/javascript"/><script xmlns=""/><script xmlns=""/><script xmlns="" src="chrome-extension://hoklmmgfnpapgjgcpechhaamimifchmp/frame_ant/frame_ant.js"/><path d="M8.107 33.547H0V20.8h2.667v10.987h5.866zM20.8 28.933c0-2.96-1.867-4.906-5.173-4.906-3.067 0-5.067 1.92-5.067 4.88 0 2.986 1.973 4.88 5.12 4.88s5.12-1.867 5.12-4.854m-7.44-.16c0-2.266.693-3.226 2.293-3.226 1.467 0 2.374.8 2.374 3.413 0 2.347-.827 3.307-2.32 3.307-1.52 0-2.347-.774-2.347-3.494M33.6 32.88s-.72-.453-.72-1.867V24l-2.427.373v6.667c-.4.667-1.413 1.2-2.266 1.2-1.494 0-1.707-.853-1.707-2V24l-2.48.373v6.32c0 1.147.187 1.76.64 2.214.587.56 1.573.933 2.88.933 1.333 0 2.453-.373 3.307-1.147.213.534.506.854 1.013 1.147zm12.533-8.64h-2.64l-1.92 4.72a17 17 0 0 0-.693 2.16h-.053s-.32-1.093-.72-2.08l-2.027-5.013-2.587.293 4.187 9.28h2.213zm9.094-.107a2.4 2.4 0 0 0-.88-.16c-1.12 0-2.054.48-2.96 1.494 0-.507-.16-1.04-.427-1.467l-2.32.48c.24.587.427 1.333.427 2.507v6.56h2.506v-6.294c.24-.746 1.12-1.386 2.187-1.386.267 0 .453.053.72.133zm11.146 5.307v-.427c0-2.16-.506-3.306-1.52-4.053-.986-.72-2.026-.96-3.2-.96-1.466 0-2.613.4-3.546 1.253-1.014.907-1.44 2-1.44 3.627 0 2.987 2.053 4.88 5.333 4.88 1.547 0 2.96-.4 4.16-1.227l-.987-1.226a4.86 4.86 0 0 1-2.88.906c-2.266 0-2.853-1.36-2.853-2.64v-.16h6.933zm-4.72-3.893c1.254 0 2.08.906 2.08 2.4H59.44c.027-1.494.8-2.4 2.213-2.4m25.867 8V20.8h-2.667v5.12H79.44V20.8h-2.613v12.72h2.613v-5.893h5.413v5.893zm13.813-4.614c0-2.96-1.866-4.906-5.173-4.906-3.067 0-5.067 1.92-5.067 4.88 0 2.986 1.974 4.88 5.12 4.88s5.12-1.867 5.12-4.854m-7.466-.16c0-2.266.693-3.226 2.293-3.226 1.467 0 2.373.8 2.373 3.413 0 2.347-.826 3.307-2.32 3.307s-2.346-.774-2.346-3.494m13.253-4.533c0-.907.08-2.053.213-2.8l-2.586.507c-.107.693-.107 1.52-.107 2.293h-1.28v1.387h1.28v5.76c0 1.333.773 2.4 3.04 2.4.773 0 1.52-.134 2.267-.4l-.32-1.227c-.454.133-.747.187-1.094.187-1.093 0-1.413-.32-1.413-1.494v-5.226h2.133l.667-1.387zm14.293 5.2v-.427c0-2.16-.506-3.306-1.52-4.053-.986-.72-2.026-.96-3.2-.96-1.466 0-2.613.4-3.546 1.253-1.014.907-1.44 2-1.44 3.627 0 2.987 2.053 4.88 5.333 4.88 1.547 0 2.96-.4 4.187-1.227l-.987-1.226a4.86 4.86 0 0 1-2.88.906c-2.267 0-2.853-1.36-2.853-2.64v-.16h6.906zm-4.72-3.893c1.254 0 2.08.906 2.08 2.4h-4.293c.027-1.494.8-2.4 2.213-2.4m10.48 8.186c.587 0 1.067-.08 1.52-.213l-.4-1.253c-.293.106-.693 0-.826-.134-.187-.213-.24-.426-.24-1.68V22.56c0-1.227-.027-1.973-.214-2.56l-2.586.453c.16.774.213 1.467.213 2.72v7.92c0 .8 0 2.64 2.533 2.64m8.24.054c2.8 0 4.694-1.28 4.694-3.174 0-1.093-.614-2.106-2.96-2.586l-1.44-.294c-1.174-.24-1.547-.533-1.547-1.093 0-.72.693-1.2 1.76-1.2.907 0 1.76.213 2.853.693l.827-1.413a9.4 9.4 0 0 0-3.813-.8c-2.56 0-4.32 1.227-4.32 2.96 0 1.307 1.04 2.267 2.773 2.56l1.387.24c1.306.213 1.893.587 1.893 1.307 0 .773-.773 1.306-1.893 1.306-1.307 0-2.72-.506-3.76-.96l-.88 1.44c1.466.667 2.986 1.014 4.426 1.014M97.2 50.4c1.333 0 2.453-.32 3.04-.56v-2.773h-1.173v2.293c-.32.133-.854.24-1.574.24-2.106 0-3.386-1.013-3.386-2.613 0-1.467 1.173-2.56 3.413-2.56 1.013 0 1.867.266 2.453.506v-.906a8.4 8.4 0 0 0-2.48-.374c-2.8 0-4.666 1.414-4.666 3.44 0 1.92 1.733 3.307 4.373 3.307m12.8-.107c-1.413-1.68-2.347-2.88-2.667-3.013.88-.24 1.68-.827 1.68-1.76 0-.987-.826-1.813-2.96-1.813h-2v6.56h1.174v-2.72h.88c.346.053 1.12 1.04 2.506 2.72zm-3.947-5.786c1.254 0 1.707.533 1.707 1.12 0 .64-.72 1.2-1.68 1.2h-.88v-2.32zm7.467.106c-.773.614-1.227 1.467-1.227 2.454 0 1.04.507 1.92 1.36 2.533.774.533 1.787.827 3.014.827 1.253 0 2.32-.32 3.093-.88.8-.614 1.28-1.467 1.28-2.48 0-.934-.4-1.734-1.093-2.347-.774-.64-1.92-1.04-3.28-1.04-1.28 0-2.374.347-3.147.933m3.147-.133c2 0 3.12 1.067 3.12 2.56 0 1.573-1.227 2.587-3.12 2.587s-3.12-1.014-3.12-2.587 1.226-2.56 3.12-2.56m13.68 5.227c.56-.454.826-1.067.826-1.707v-4.267H130v4.24c0 .507-.133.934-.533 1.227-.347.267-.88.427-1.707.427-.72 0-1.227-.16-1.547-.427-.453-.347-.586-.827-.586-1.28v-4.187h-1.2v4.187c0 .64.186 1.387.853 1.893.507.374 1.307.587 2.453.587 1.254 0 2.08-.267 2.614-.693m6.613-1.76c2.24 0 3.147-1.094 3.147-2.16 0-1.307-1.174-2.054-3.014-2.054h-1.946v6.56h1.2v-2.346zm.027-3.44c1.253 0 1.893.533 1.893 1.28 0 .826-.56 1.386-1.813 1.386h-.72v-2.666zM160 39.04H15.68v.932H160z"/><script xmlns=""/></svg>