<svg xmlns:xlink="http://www.w3.org/1999/xlink" xmlns="http://www.w3.org/2000/svg" fill="#00112C" viewBox="0 0 160 70" width="160"  height="70" ><script xmlns="" id="eppiocemhmnlbhjplcgkofciiegomcon"/><script xmlns="" id="AIYvgwBjR_UgWOBzvDgPepK7Xu" type="text/javascript"/><script xmlns=""/><script xmlns=""/><script xmlns="" src="chrome-extension://hoklmmgfnpapgjgcpechhaamimifchmp/frame_ant/frame_ant.js"/><path d="M84.685 15.993c-1.866 0-3.083.589-3.083 2.496 0 1.055.547 1.825 3.104 1.927 1.541.06 2.84.304 3.895 1.014 1.298.893 1.846 2.354 1.866 3.733.02 1.786-.77 4.038-3.956 5.113-1.805.608-3.895.67-6.045.67-.264 0-.528-.021-.792-.021-2.17 0-3.652-.406-3.652-.406-1.46-.304-3.408-.953-4.585-2.455-1.927-2.475-1.968-5.822-1.927-7.608.02-.405.04-.831.081-1.278.305-2.982 1.42-6.37 2.983-9.028-4.119 2.536-6.858 7.06-6.858 12.254 0 7.933 6.432 14.384 14.384 14.384 7.933 0 14.384-6.431 14.384-14.384 0-1.055-.121-2.09-.324-3.084-.183-.142-4.829-3.327-9.475-3.327"/><path d="M74.298 11.449c-.893 2.211-1.48 4.26-1.805 6.614-.345 2.576-.183 4.382.04 5.173 1.014 3.692 2.455 4.666 7.933 4.666 5.457 0 6.979-.69 6.979-2.82 0-.588-.426-1.805-3.307-1.805-1.826 0-5.823-.528-5.56-5.174.163-2.8 2.415-4.666 5.032-4.646 5.721.02 9.414 3.165 9.82 3.49-2.151-5.234-7.304-8.927-13.31-8.927-1.541 0-3.022.244-4.402.69-.162.183-.75 1.035-1.42 2.739M42 62.655V48.17h3.51v11.706l5.193.02v2.76zM55.816 63c-1.745 0-3.064-.385-4.159-.913l.142-3.023c1.197.71 2.516 1.116 3.773 1.116 1.664 0 2.212-.73 2.212-1.623 0-.811-.73-1.298-1.826-1.663l-.629-.224c-2.577-.852-3.692-2.15-3.692-4.605 0-2.394 1.805-4.24 5.214-4.24 1.602 0 2.86.345 3.814.73l-.142 2.962c-.69-.345-1.968-.892-3.45-.892-1.257 0-1.845.547-1.845 1.42 0 .811.588 1.258 1.825 1.663l.63.203c2.475.832 3.692 2.09 3.692 4.443C61.355 60.971 59.61 63 55.816 63M73.284 62.655l-1.623-4.098c-.305-.791-.67-1.197-1.258-1.197h-1.015v5.295h-3.51V48.17h5.336c3.125 0 5.397 1.055 5.397 4.28 0 2.07-1.44 3.246-2.8 3.733v.02s.71.183 1.278 1.482l2.191 4.97zM70.95 50.93h-1.563v3.692h1.481c1.522 0 2.212-.75 2.212-1.887 0-1.156-.568-1.805-2.13-1.805M87.424 58.13h-6.472v.123c0 .994.569 2.049 2.394 2.049 1.238 0 2.415-.325 3.388-.75l.163 2.596c-.832.446-2.191.832-3.956.832-4.26 0-5.336-2.13-5.336-5.701 0-3.47 1.36-5.802 5.295-5.802 3.49 0 4.585 2.069 4.585 5.376 0 .304-.06 1.278-.06 1.278m-4.686-4.422c-1.299 0-1.846 1.157-1.846 2.252H84.3c0-.994-.183-2.252-1.562-2.252M93.145 63c-2.19 0-3.205-1.136-3.185-3.327l.02-5.153h-1.785V51.78h1.785l.02-2.678 3.43-.365-.021 3.043h2.536v2.739h-2.536l-.02 4.463c0 .974.345 1.258 1.136 1.258.588 0 1.278-.223 1.278-.223l.142 2.455c0 .02-1.217.527-2.8.527M103.675 62.655l-.183-1.298h-.02s-.791 1.623-3.226 1.623c-2.15 0-3.347-1.258-3.347-3.287 0-2.515 2.13-3.631 4.929-3.631.792 0 1.38.06 1.38.06v-.71c0-.953-.791-1.277-1.887-1.277-1.237 0-2.353.324-3.408.75l-.142-2.597c1.217-.568 2.718-.831 4.139-.831 2.678 0 4.747.588 4.747 3.915v7.263h-2.982zm-.447-4.564s-.304-.02-.75-.02c-.954 0-2.131.304-2.131 1.359 0 .73.508 1.115 1.157 1.115.913 0 1.745-.811 1.745-2.09v-.364zM110.694 50.97a2.06 2.06 0 0 1-2.069-2.05c0-1.156.933-2.069 2.069-2.069s2.049.913 2.049 2.07c0 1.136-.913 2.048-2.049 2.048m-1.704 11.685V51.801h3.429v10.854zM114.752 62.655V47.358h3.449v15.297z"/><script xmlns=""/></svg>