<svg xmlns:xlink="http://www.w3.org/1999/xlink" xmlns="http://www.w3.org/2000/svg" fill="none" viewBox="0 0 160 70" width="160"  height="70" ><script xmlns="" id="eppiocemhmnlbhjplcgkofciiegomcon"/><script xmlns="" id="VtCTMBziiumc5T_kSxIzkDxUuq" type="text/javascript"/><script xmlns=""/><script xmlns=""/><script xmlns="" src="chrome-extension://hoklmmgfnpapgjgcpechhaamimifchmp/frame_ant/frame_ant.js"/><path fill="#00112C" d="M116.651 28c4.601 0 8.349 3.201 8.349 7.33 0 3.714-3.22 6.662-7.192 7.142v-2.316c2.676-.467 4.692-2.48 4.692-4.895 0-2.764-2.631-5.003-5.881-5.003-3.247 0-5.88 2.239-5.88 5.003 0 2.434 2.047 4.463 4.755 4.905v2.311c-4.142-.482-7.216-3.545-7.216-7.37 0-4.052 3.913-7.107 8.373-7.107M98.135 30.349c1.925 0 3.631.738 4.74 1.887l1.82-1.613c-1.58-1.562-3.921-2.532-6.525-2.532-4.385 0-8.258 2.788-8.592 6.578h2.568c.402-2.438 2.93-4.32 5.989-4.32M66.828 42.243l-2.151-4.295-6.897.003-2.214 4.292h-2.62l5.92-11.495 1.271 2.602-1.217 2.394h4.673l-3.518-7.341.002-.008H62.6l7.03 13.848zM35 28.395v13.848h2.329v-9.517l5.284 8.448 1.345-2.154-6.61-10.625zM43.862 34.896l1.337 2.125 2.699-4.298v9.52h2.32V28.395H47.85zM85.98 28.395h-2.327v6.728l2.327 2.335zM72.373 28.395h2.367l11.237 12.16v1.688h-1.733L74.7 31.894v10.349h-2.326zM97.92 40.307c-2.552 0-4.727-1.386-5.545-3.321h-2.613c.867 3.335 4.27 5.566 8.304 5.566.938 0 2.015-.096 2.911-.317 2.02-.496 4.23-1.815 4.23-3.887v-3.681h-7.312l-.01 2.319h4.984v1.048c0 1.165-1.735 1.834-2.799 2.068-.567.134-1.3.205-1.897.205z"/><script xmlns=""/></svg>