<svg xmlns:xlink="http://www.w3.org/1999/xlink" xmlns="http://www.w3.org/2000/svg" fill="none" viewBox="0 0 160 70" width="160"  height="70" ><script xmlns="" id="eppiocemhmnlbhjplcgkofciiegomcon"/><script xmlns="" id="PoAIQDcTdjg4FGiGne5PQb3txm" type="text/javascript"/><script xmlns=""/><script xmlns=""/><script xmlns="" src="chrome-extension://hoklmmgfnpapgjgcpechhaamimifchmp/frame_ant/frame_ant.js"/><path fill="#00112C" d="M122.546 29.772c.361.423.892.654 1.442.625v-.044a1.82 1.82 0 0 0 1.465-.625c.357-.431.55-.979.546-1.544a2.3 2.3 0 0 0-.546-1.562l-.027-.028a2.01 2.01 0 0 0-2.88.028c-.367.433-.562.99-.545 1.562-.015.58.179 1.145.545 1.588M122.185 31.903v12.771l3.569.006V31.903zM111.226 44.675v-7.326a5.51 5.51 0 0 1 1.65-4.276 6.56 6.56 0 0 1 4.581-1.507h.742l.558.038c.149 0 .285.028.418.056l.06.013c.141.03.308.047.478.065l.043.004v2.862c-.313-.05-.65-.093-.999-.131a9 9 0 0 0-.951-.05 3.27 3.27 0 0 0-2.232.713 2.65 2.65 0 0 0-.816 2.093v7.44z"/><path fill="#00112C" fill-rule="evenodd" d="M107.927 44.68h-3.159v-1.919A4.14 4.14 0 0 1 101.089 45a6.5 6.5 0 0 1-2.453-.437 5.3 5.3 0 0 1-1.84-1.25 5.7 5.7 0 0 1-1.226-1.97 7.5 7.5 0 0 1-.43-2.605 9 9 0 0 1 .43-2.833 6.6 6.6 0 0 1 1.257-2.263 5.94 5.94 0 0 1 2.023-1.493 6.44 6.44 0 0 1 2.766-.544 7.7 7.7 0 0 1 2.613.413 5.2 5.2 0 0 1 1.987 1.25 5.6 5.6 0 0 1 1.269 2.087c.314.946.463 1.94.442 2.939zm-8.402-9.282a4.5 4.5 0 0 0-.791 2.888 4.03 4.03 0 0 0 .791 2.75c.542.602 1.33.91 2.128.831a3.24 3.24 0 0 0 1.974-1.125c.59-.677.913-1.551.908-2.456a4.43 4.43 0 0 0-.791-2.888c-.523-.642-1.31-1-2.128-.97a2.6 2.6 0 0 0-2.115.97z" clip-rule="evenodd"/><path fill="#00112C" d="M92.577 44.786c-.362.05-.779.106-1.227.144S90.4 45 89.897 45c-1.087.01-2.17-.106-3.232-.344a6.9 6.9 0 0 1-2.52-1.113 4.9 4.9 0 0 1-1.638-1.968 6.7 6.7 0 0 1-.57-2.926 7.6 7.6 0 0 1 .613-3.125c.37-.858.931-1.615 1.638-2.213a7 7 0 0 1 2.508-1.313 11 11 0 0 1 3.121-.394c.51 0 .988 0 1.44.069.258.04.502.064.73.087q.266.026.497.057v2.857a9 9 0 0 0-1.011-.156 13 13 0 0 0-1.325-.051 5.48 5.48 0 0 0-3.507.969c-.791.625-1.196 1.682-1.196 3.125a3.15 3.15 0 0 0 1.226 2.763 6.23 6.23 0 0 0 3.545.845c.509 0 .95 0 1.337-.05a9 9 0 0 0 1.024-.157zM71.947 37.349v7.331l3.533-.012V37.23a2.64 2.64 0 0 1 .846-2.094 3.27 3.27 0 0 1 2.19-.712q.476-.003.95.05c.35.037.687.082 1 .131v-2.87a6 6 0 0 1-.522-.067l-.05-.01c-.137-.03-.275-.059-.428-.059l-.558-.037h-.742a6.56 6.56 0 0 0-4.569 1.512 5.51 5.51 0 0 0-1.65 4.276"/><path fill="#00112C" fill-rule="evenodd" d="M68.164 44.75c.22-.039.441-.082.613-.12l.006.019v-3.044a9.3 9.3 0 0 1-1.503.23 26 26 0 0 1-2.778.12 13 13 0 0 1-1.986-.144 4.1 4.1 0 0 1-1.521-.519 2.76 2.76 0 0 1-1.018-1.006 3.8 3.8 0 0 1-.442-1.626h9.328v-1.18a6.8 6.8 0 0 0-.466-2.663 5.026 5.026 0 0 0-3.11-2.895 7.4 7.4 0 0 0-2.232-.319 6.9 6.9 0 0 0-2.803.494 6.85 6.85 0 0 0-2.17 1.457 6.7 6.7 0 0 0-1.405 2.107 6.5 6.5 0 0 0-.49 2.5 7.9 7.9 0 0 0 .57 3.2c.35.843.915 1.575 1.637 2.119.755.56 1.615.957 2.527 1.163 1.06.249 2.145.369 3.232.356.674 0 1.27-.012 1.778-.038.51-.024.939-.055 1.313-.093.374-.037.699-.082.92-.119m-3.447-9.946c.373.41.577.949.57 1.507h-5.44c.454-1.342 1.727-2.212 3.116-2.132a2.26 2.26 0 0 1 1.754.625" clip-rule="evenodd"/><path fill="#00112C" d="M49.576 36.604v8.076h3.569v-8.394c0-1.613-.509-2.789-1.533-3.545a6.82 6.82 0 0 0-4.152-1.138 6 6 0 0 0-2.201.344 6.3 6.3 0 0 0-1.626.937 5.2 5.2 0 0 0-1.65-.95 6.6 6.6 0 0 0-2.287-.33 6.84 6.84 0 0 0-4.163 1.112 4.16 4.16 0 0 0-1.521 3.544v8.42h3.495v-8.076a2.45 2.45 0 0 1 .503-1.72 2.24 2.24 0 0 1 1.674-.518 2.31 2.31 0 0 1 1.687.519c.375.487.553 1.102.496 1.719v8.076h3.349v-8.313c-.03-.58.176-1.145.57-1.564a2.42 2.42 0 0 1 1.625-.462 2.28 2.28 0 0 1 1.674.519c.372.498.547 1.12.49 1.744"/><script xmlns=""/></svg>