<svg xmlns:xlink="http://www.w3.org/1999/xlink" xmlns="http://www.w3.org/2000/svg" xml:space="preserve" x="0" y="0" version="1.1" viewBox="0 0 160 70" width="160"  height="70" ><script xmlns="" id="eppiocemhmnlbhjplcgkofciiegomcon"/><script xmlns="" id="n5JqS8gW5enrpobXyN4volOsID" type="text/javascript"/><script xmlns=""/><script xmlns=""/><script xmlns="" src="chrome-extension://hoklmmgfnpapgjgcpechhaamimifchmp/frame_ant/frame_ant.js"/><g fill="#00112C"><path d="M44.4 37.6h4.3c2.4 0 4.3.6 5.5 1.7s1.8 2.8 1.8 5c0 2.1-.7 3.8-2 5.1s-3.1 2-5.5 2h-4.2V37.6zm2.4 11.7h1.8c1.6 0 2.8-.5 3.7-1.3.9-.9 1.3-2.1 1.3-3.7 0-1.5-.4-2.7-1.3-3.5s-2.1-1.2-3.7-1.2h-1.8zM61.9 49.1l2.5-7.6h2.3l-4 10.6c-.5 1.2-1 2.1-1.7 2.6-.7.6-1.4.8-2.3.8h-.8c-.2 0-.5-.1-.7-.1v-2c.2.1.4.1.6.2.2 0 .4.1.6.1.4 0 .8-.1 1-.3.3-.2.5-.5.7-.9l.5-1.1-3.9-9.9h2.6zM76.5 45.3v6h-2.3v-5.5c0-.9-.2-1.6-.5-2-.3-.5-.8-.7-1.5-.7s-1.2.3-1.6.8c-.3.5-.6 1.1-.6 1.9v5.6h-2.3v-9.9H70v1.3c.4-.5.8-.9 1.3-1.1.5-.3 1.1-.4 1.8-.4 1 0 1.9.3 2.4 1 .7.7 1 1.7 1 3M86.4 45.2V49c0 .9.1 1.7.2 2.3h-2.3l-.1-1c-.3.4-.7.7-1.1.9q-.75.3-1.8.3c-.9 0-1.6-.3-2.2-.8s-.9-1.2-.9-2.1.4-1.7 1.1-2.3c.8-.6 1.9-1 3.5-1.2l1.4-.2c0-.7-.2-1.1-.5-1.4s-.8-.4-1.4-.4c-.7 0-1.3.1-1.9.3s-1 .4-1.4.7V42c.3-.2.8-.4 1.5-.5q1.05-.3 2.1-.3c1.2 0 2.2.3 2.8 1 .7.7 1 1.7 1 3m-3.2 1.4c-1 .1-1.7.3-2.2.6-.4.3-.6.7-.6 1.1s.1.8.4 1 .6.4 1.1.4c.7 0 1.3-.2 1.7-.7s.6-1 .7-1.7v-.8zM103.3 45.3v6.1H101v-5.5c0-.9-.1-1.6-.4-2s-.8-.6-1.3-.6c-.7 0-1.2.2-1.6.7q-.6.75-.6 1.8v5.6h-2.3v-5.7c0-.8-.2-1.4-.5-1.8s-.8-.6-1.4-.6-1.1.2-1.5.7-.6 1.1-.6 1.9v5.6h-2.3v-9.9h2.3v1.3c.3-.5.8-.9 1.3-1.1.5-.3 1.1-.4 1.8-.4s1.2.1 1.7.4.8.7 1.1 1.2c.3-.5.7-.8 1.2-1.1s1.2-.5 2.1-.5q1.5 0 2.4.9t.9 3M105.2 38.6c0-.4.1-.7.4-1s.6-.4 1-.4.8.1 1 .4c.3.3.4.6.4.9 0 .4-.1.7-.4.9-.3.3-.6.4-1 .4s-.7-.1-1-.4c-.2-.1-.4-.4-.4-.8m2.6 2.9v9.9h-2.3v-9.9zM114.8 49.6c.4 0 .7-.1 1.1-.2.4-.2.8-.4 1.1-.6V51c-.4.2-.8.4-1.3.5s-1 .2-1.5.2c-1.4 0-2.6-.5-3.5-1.4s-1.4-2.1-1.4-3.5c0-1.6.5-2.9 1.4-3.9s2.3-1.5 3.9-1.5c.4 0 .9.1 1.3.2.5.1.8.2 1 .4v2c-.4-.3-.7-.5-1.1-.6s-.8-.2-1.1-.2c-.9 0-1.7.3-2.2.9-.6.6-.8 1.4-.8 2.4s.3 1.8.8 2.3c.7.6 1.4.8 2.3.8M120.8 44.1c0 .3.1.6.3.8s.7.4 1.4.7c.9.4 1.6.8 2 1.2.4.5.6 1 .6 1.7 0 .9-.4 1.7-1.1 2.2-.7.6-1.7.8-2.9.8-.4 0-.8-.1-1.4-.2-.5-.1-.9-.2-1.3-.4v-2.3c.4.3.9.5 1.4.7s.9.3 1.3.3c.5 0 .9-.1 1.2-.2.3-.2.4-.4.4-.8 0-.3-.1-.6-.4-.8s-.8-.5-1.5-.8c-.8-.4-1.5-.8-1.8-1.2-.4-.5-.5-1-.5-1.7 0-.9.4-1.6 1-2.2.7-.6 1.6-.8 2.7-.8.4 0 .7 0 1.2.1.4.1.8.2 1.1.3v2.2c-.3-.2-.7-.4-1.1-.5s-.8-.2-1.2-.2c-.5 0-.8.1-1 .3s-.4.5-.4.8M135.5 44.1c1 .2 1.8.5 2.3 1.1.6.6.8 1.3.8 2.2 0 1.2-.5 2.3-1.4 3-.9.8-2.2 1.1-3.8 1.1-.6 0-1.3-.1-1.9-.2s-1.1-.3-1.4-.5v-2.3c.4.3.9.6 1.5.8s1.2.3 1.7.3c.8 0 1.5-.2 2-.6s.8-.9.8-1.6c0-.8-.3-1.3-.9-1.7s-1.4-.6-2.5-.6h-1.2v-1.9h1.1c1 0 1.7-.2 2.2-.5.5-.4.8-.9.8-1.6q0-.9-.6-1.5c-.4-.3-1-.5-1.7-.5-.5 0-.9.1-1.4.2-.5.2-.9.4-1.3.7v-2.1q.6-.3 1.5-.6c.6-.1 1.2-.2 1.8-.2q1.8 0 3 .9c1.2.9 1.1 1.4 1.1 2.4 0 .9-.2 1.6-.7 2.2-.3.9-.9 1.3-1.8 1.5M142.5 44.2c.3-.5.7-.9 1.2-1.1.6-.3 1.2-.4 1.8-.4 1.1 0 2 .4 2.8 1.1s1.2 1.8 1.2 3.2c0 1.5-.5 2.6-1.3 3.4q-1.35 1.2-3.3 1.2c-1.5 0-2.7-.6-3.6-1.7-.8-1.1-1.3-2.7-1.3-4.7 0-2.6.6-4.6 1.7-5.9s2.6-2 4.3-2c.5 0 1 0 1.4.1s.8.2 1.1.3v2.1c-.4-.2-.8-.4-1.2-.5s-.8-.2-1.2-.2c-1.1 0-2.1.4-2.7 1.3-.7 1-1 2.2-.9 3.8m0 2.7c0 .8.2 1.4.7 2 .5.5 1 .8 1.7.8s1.2-.2 1.6-.7.6-1.1.6-1.9-.2-1.5-.6-1.9-1-.7-1.7-.7-1.3.2-1.7.7c-.4.4-.6 1-.6 1.7M159 47.1c0 1.4-.5 2.5-1.4 3.3s-2.2 1.2-3.8 1.2c-.7 0-1.3-.1-1.9-.2-.6-.2-1-.3-1.4-.5v-2.2c.5.4 1 .6 1.5.8q.75.3 1.5.3c.9 0 1.6-.2 2.2-.7s.8-1.1.8-1.9-.3-1.4-.8-1.8q-.9-.6-2.4-.6h-1.2c-.5 0-.8.1-1 .1l.5-7.3h6.8v2h-4.9l-.2 3.4h1.2c1.4 0 2.6.4 3.4 1.1.7.6 1.1 1.7 1.1 3M59.3 18.7v13.8h-2.4V21.6l-4.3 10.8H51l-4.4-10.8v10.8h-2.2V18.7h3.4l3.9 10.2h.1L56 18.7zm2 1c0-.4.1-.7.4-1s.6-.4 1-.4.8.1 1 .4c.3.3.4.6.4.9 0 .4-.1.7-.4.9-.3.3-.6.4-1 .4s-.7-.1-1-.4c-.3-.1-.4-.4-.4-.8m2.6 2.9v9.9h-2.3v-9.9zm7 8.1c.4 0 .7-.1 1.1-.2.4-.2.8-.4 1.1-.6v2.2c-.4.2-.8.4-1.3.5s-1 .2-1.5.2c-1.5 0-2.6-.5-3.6-1.4-.9-.9-1.4-2.1-1.4-3.5 0-1.6.5-2.9 1.4-3.9s2.3-1.5 3.9-1.5c.4 0 .9.1 1.3.2.5.1.8.2 1 .4v2.2c-.4-.3-.7-.5-1.1-.6s-.8-.2-1.1-.2c-.9 0-1.7.3-2.2.9-.6.6-.8 1.4-.8 2.4s.3 1.8.8 2.3q1.05.6 2.4.6m8.9-8.3h.5c.2 0 .3.1.4.1v2.3c-.1-.1-.3-.2-.5-.3s-.5-.1-.8-.1c-.6 0-1 .2-1.4.7s-.6 1.2-.6 2.2v5H75v-9.9h2.3V24c.2-.5.5-.9.9-1.3.5-.1 1-.3 1.6-.3m1 5.3c0-1.6.5-2.9 1.4-3.9.9-.9 2.2-1.4 3.8-1.4 1.5 0 2.7.5 3.6 1.4s1.3 2.2 1.3 3.7c0 1.6-.5 2.9-1.4 3.8s-2.2 1.4-3.8 1.4c-1.5 0-2.7-.5-3.7-1.3-.8-1-1.2-2.2-1.2-3.7m2.4-.1c0 1 .2 1.8.7 2.3.5.6 1.1.8 2 .8.8 0 1.5-.3 1.9-.8.5-.6.7-1.3.7-2.4s-.2-1.9-.7-2.4c-.5-.6-1.1-.8-1.9-.8s-1.5.3-2 .8c-.4.6-.7 1.4-.7 2.5m11.2-2.4c0 .3.1.6.3.8s.7.4 1.4.7c.9.4 1.6.8 2 1.2.4.5.6 1 .6 1.7 0 .9-.4 1.7-1.1 2.3s-1.7.8-2.9.8c-.4 0-.8-.1-1.4-.2-.5-.1-.9-.2-1.3-.4v-2.3c.4.3.9.5 1.4.7s.9.3 1.3.3c.5 0 .9-.1 1.2-.2.3-.2.4-.4.4-.8 0-.3-.1-.6-.4-.8s-.8-.5-1.5-.8c-.8-.4-1.5-.8-1.8-1.2s-.5-1-.5-1.7c0-.9.4-1.6 1.1-2.2s1.6-.8 2.7-.8c.4 0 .7 0 1.2.1.4.1.8.2 1.1.3V25c-.3-.2-.7-.4-1.1-.5-.4-.2-.8-.2-1.2-.2-.5 0-.8.1-1 .3-.4 0-.5.3-.5.6m5.2 2.5c0-1.6.5-2.9 1.4-3.9.9-.9 2.2-1.4 3.8-1.4 1.5 0 2.7.5 3.6 1.4s1.3 2.2 1.3 3.7c0 1.6-.5 2.9-1.4 3.8s-2.2 1.4-3.8 1.4c-1.5 0-2.7-.5-3.7-1.3-.7-1-1.2-2.2-1.2-3.7m2.4-.1c0 1 .2 1.8.7 2.3.5.6 1.1.8 2 .8s1.5-.3 1.9-.8c.5-.6.7-1.3.7-2.4s-.2-1.9-.7-2.4c-.5-.6-1.1-.8-1.9-.8s-1.5.3-2 .8c-.4.6-.7 1.4-.7 2.5m15.5-3.1H114v8h-2.3v-8H110v-1.9h1.7v-1.4c0-1 .3-1.9 1-2.5s1.5-1 2.6-1h.8c.2 0 .4.1.6.1v2c-.1 0-.2-.1-.4-.2s-.4-.1-.7-.1c-.5 0-.8.2-1.1.5s-.4.8-.4 1.3v1.2h3.5v-2.2l2.3-.7v2.9h2.3v1.9h-2.3V29c0 .6.1 1 .3 1.3s.6.4 1 .4c.1 0 .3 0 .5-.1s.4-.1.5-.2v1.9c-.2.1-.4.2-.8.2-.3.1-.7.1-1 .1-1 0-1.7-.3-2.2-.8s-.8-1.3-.8-2.3zM17.5 18.7H2v15.5h15.5zM34.6 18.7H19.1v15.5h15.5zM17.5 35.8H2v15.5h15.5zM34.6 35.8H19.1v15.5h15.5z"/></g><script xmlns=""/></svg>