<svg xmlns:xlink="http://www.w3.org/1999/xlink" xmlns="http://www.w3.org/2000/svg" fill="#00112C" viewBox="0 0 160 70" width="160"  height="70" ><script xmlns="" id="eppiocemhmnlbhjplcgkofciiegomcon"/><script xmlns="" id="KzWJEUyf085rfpOOcEbkzAsnpx" type="text/javascript"/><script xmlns=""/><script xmlns=""/><script xmlns="" src="chrome-extension://hoklmmgfnpapgjgcpechhaamimifchmp/frame_ant/frame_ant.js"/><path d="M3.01 31.054c-.199.321-.122.581-.122.825 0 3.637.015 7.273-.016 10.91 0 .595.153.886.734 1.115 4.767 1.88 9.503 1.91 14.255-.015.504-.199.688-.444.672-.994-.03-4.965-.015-9.916-.015-14.881 0-.947.122-1.1 1.054-1.177.352-.03.703 0 1.054.046.535.061.78.336.764.917-.015 5.592-.015 11.184 0 16.791 0 .581-.32.81-.733 1.024-4.782 2.49-9.778 3.3-15.065 1.895-1.742-.459-3.438-1.07-5.027-1.956C.168 45.34 0 45.08 0 44.591q.023-8.434 0-16.867c0-.55.183-.764.718-.84 1.299-.184 2.384-.031 3.361 1.038 3.285 3.575 6.662 7.059 10.023 10.573.382.397.413.718.123 1.13-.107.154-.214.291-.336.413-.932 1.055-1.284 1.07-2.216.092-2.643-2.766-5.317-5.562-7.976-8.373-.213-.214-.427-.428-.687-.703M64.721 29.465c.122-.03.138-.046.168-.046.871.016 1.895-.26 2.536.107.627.352.612 1.482.887 2.262.733 2.154 1.436 4.339 2.154 6.493.061.168.122.321.23.611.962-2.887 1.94-5.638 2.78-8.449.26-.886.657-1.115 1.528-1.07 1.329.077 1.329.016 1.772 1.33.81 2.43 1.604 4.859 2.414 7.288.076.23.092.489.367.733.397-1.191.779-2.307 1.146-3.422.596-1.788 1.191-3.56 1.742-5.348.137-.458.35-.596.81-.565.702.03 1.42.015 2.23.015-.642 1.757-1.268 3.469-1.895 5.164-.916 2.476-1.848 4.936-2.734 7.426-.184.52-.428.703-.978.688-1.406-.046-1.406-.016-1.864-1.33a3894 3894 0 0 1-2.858-7.99c-.366.488-.458 1.023-.626 1.512a354 354 0 0 0-2.506 7.105c-.183.534-.427.748-1.023.718-1.345-.046-1.36-.016-1.834-1.299-1.42-3.804-2.826-7.609-4.232-11.398-.107-.183-.153-.351-.214-.535M42.964 38.113c0-2.674.016-5.348-.015-8.006 0-.565.137-.764.703-.703.596.061 1.405-.199 1.772.107.428.367.122 1.192.138 1.818.015 3.56 0 7.12.015 10.68 0 .535-.168.611-.672.688-1.758.275-2.812-.352-3.606-1.987-1.04-2.139-2.414-4.11-3.637-6.157-.122-.199-.244-.412-.504-.81v6.371c0 .688-.015 1.376.015 2.063.016.413-.122.504-.519.52-2.108.06-2.108.076-2.108-2.048 0-3.514.015-7.013-.016-10.527 0-.58.168-.642.703-.718 1.772-.305 2.796.352 3.606 1.971 1.176 2.338 2.658 4.538 4.003 6.8a.5.5 0 0 1 .122-.062M52.01 36.05c0-2.001.015-4.018-.016-6.02 0-.504.137-.641.642-.626q3.322.045 6.646 0c.474 0 .596.138.596.596 0 1.696.015 1.696-1.696 1.696-.993 0-1.986.015-2.98-.015-.443-.015-.58.122-.55.55.046.703-.229 1.635.123 2.062.366.474 1.329.138 2.032.153 1.818.016 1.803 0 1.741 1.803-.015.397-.122.52-.519.504-.947-.03-1.88.016-2.827-.015-.427-.015-.58.122-.565.565.03.795.03 1.574 0 2.369-.015.489.122.657.642.641 1.451-.03 2.903 0 4.354-.015.459-.015.611.107.611.58.016 1.773.031 1.773-1.772 1.773-1.956 0-3.911-.015-5.882.015-.474 0-.611-.137-.596-.596.03-2.001.015-4.018.015-6.02M124.354 42.544c-3.529 0-5.867-2.338-6.004-5.913-.077-2.2.428-4.202 2.2-5.684 1.833-1.527 4.874-1.772 6.967-.61 2.093 1.145 3.362 3.727 3.087 6.279-.337 3.01-1.819 4.98-4.294 5.699-.672.168-1.344.26-1.956.229m4.981-6.417h-.061c0-.275.016-.565 0-.84-.183-2.537-1.528-4.156-3.804-4.584-2.766-.52-4.935.764-5.562 3.315a8.37 8.37 0 0 0 .138 4.508c.351 1.176 1.054 2.078 2.2 2.597 3.086 1.406 6.295-.244 6.921-3.575.077-.474.107-.948.168-1.421M146.432 42.239c-.871.198-1.451.03-2.001-.642-1.177-1.467-2.46-2.842-3.698-4.263-.351-.397-1.512-.733-2.001-.58-.336.106-.199.381-.199.565-.015 1.451-.03 2.903 0 4.354.015.49-.107.657-.626.657-.504 0-.566-.198-.566-.626.016-3.82.016-7.624 0-11.444 0-.474.107-.611.581-.596 1.07.046 2.139-.046 3.209.061 3.01.275 4.492 3.102 2.918 5.5-.443.673-1.085 1.085-1.818 1.3-.52.152-.459.305-.168.626 1.39 1.589 2.765 3.178 4.155 4.767.062.091.107.183.214.32m-7.899-9.091c0 .702.015 1.42 0 2.123 0 .336.092.52.474.52.779.015 1.574.06 2.353-.122 1.283-.306 2.001-1.3 1.971-2.69-.031-1.237-.734-2.016-2.032-2.26a6 6 0 0 0-1.055-.093c-1.68-.03-1.68-.03-1.68 1.681-.031.29-.031.566-.031.84M97.739 31.406c-1.452-.718-2.918-.993-4.477-.627-.963.23-1.482.81-1.574 1.635-.091.932.199 1.513 1.162 1.925 1.13.504 2.322.871 3.468 1.345 1.115.458 2.063 1.1 2.399 2.368.534 2.032-.504 3.79-2.567 4.293-1.864.443-3.667.199-5.44-.535-.672-.275-.366-.687-.229-1.054.23-.596.505-.046.673.061 1.543.825 3.147.932 4.813.505.84-.214 1.451-.734 1.604-1.635.168-.917-.199-1.635-.902-2.2-.718-.596-1.62-.84-2.46-1.162-.61-.229-1.252-.443-1.833-.733-1.482-.749-2.063-1.91-1.788-3.499.214-1.283 1.238-2.139 2.812-2.353a9.1 9.1 0 0 1 3.62.23c1.131.26 1.131.274.719 1.436M156.364 42.315c-.993 0-1.987-.015-2.98 0-.428.015-.565-.107-.565-.55.015-3.835.015-7.685 0-11.52 0-.367.046-.55.489-.55 1.94.015 3.865.015 5.806 0 .412 0 .504.152.504.534 0 .428-.107.566-.55.566-1.497-.03-3.01 0-4.507-.016-.443 0-.55.123-.55.55q.045 1.605 0 3.209c-.016.413.091.58.534.565 1.07-.03 2.14.016 3.209-.015.443-.015.55.137.55.565.015.459-.153.55-.565.535-1.039-.03-2.093.03-3.132-.03-.55-.031-.612.198-.612.657a79 79 0 0 1 0 3.82c-.015.488.107.656.627.64 1.528-.03 3.056-.014 4.584-.014.382 0 .794-.138.794.55-.015.733-.474.504-.825.52-.932 0-1.864-.016-2.811-.016M109.58 36.6c0 1.712-.016 3.408.015 5.119 0 .443-.076.626-.581.626-.488-.015-.657-.122-.641-.641.03-3.407 0-6.815.03-10.222 0-.596-.168-.718-.718-.703-.962.046-1.94-.015-2.903.03-.473.016-.535-.183-.535-.58 0-.412.138-.504.52-.504q4.24.023 8.48 0c.458 0 .473.199.473.55s-.015.566-.473.55c-1.039-.03-2.094.015-3.132-.015-.444-.015-.551.137-.535.565.015 1.711 0 3.468 0 5.226M10.772 21.016c1.039 0 2.078.015 3.132-.015.504-.016.764.183.825.657.03.229.061.458.076.672.016 1.299-.183 1.497-1.451 1.497-1.91 0-3.82-.03-5.714.016-.673.015-.917-.321-.994-.887a3.6 3.6 0 0 1-.03-.81c.046-.962.214-1.13 1.176-1.13z"/><script xmlns=""/></svg>