<svg xmlns:xlink="http://www.w3.org/1999/xlink" xmlns="http://www.w3.org/2000/svg" fill="none" viewBox="0 0 160 70" width="160"  height="70" ><script xmlns="" id="eppiocemhmnlbhjplcgkofciiegomcon"/><script xmlns="" id="TWeoC88mAi0hXi10F219_FJEdN" type="text/javascript"/><script xmlns=""/><script xmlns=""/><script xmlns="" src="chrome-extension://hoklmmgfnpapgjgcpechhaamimifchmp/frame_ant/frame_ant.js"/><path fill="#00112C" d="M76.669 53.209a1.28 1.28 0 0 1 .914-.365q.517 0 .893.36t.376.849q0 .492-.38.864t-.889.372q-.522 0-.91-.363-.387-.361-.387-.846 0-.506.383-.871M74.977 42.404q0-.55-.31-.902a1.57 1.57 0 0 0-.828-.476q-.517-.125-1.517-.126v3.021q2.655.054 2.655-1.517M64.925 22.603q1.065.982 2.61.982 1.42 0 2.45-1.003 1.032-1.002 1.032-2.382 0-1.434-1.048-2.416-1.05-.982-2.58-.982-1.454 0-2.492.999-1.037 1-1.037 2.399 0 1.42 1.065 2.403M85.61 22.603q1.065.982 2.609.982 1.42 0 2.451-1.003Q91.7 21.58 91.7 20.2q0-1.434-1.047-2.416-1.048-.982-2.579-.982-1.454 0-2.492.999-1.038 1-1.038 2.399 0 1.42 1.065 2.403"/><path fill="#00112C" fill-rule="evenodd" d="M38 6.734 107.791 6l14.881 14.197V50.05L108.741 64H38.434zm76.186 28.604c0 1.394 1.145 2.523 2.557 2.523s2.557-1.13 2.557-2.523-1.145-2.523-2.557-2.523-2.557 1.13-2.557 2.523m-6.872 1.196h1.186v-8.668h-1.186V31.2h-4.199v-3.334h-1.2v8.668h1.2V32.37h4.199zm-9.322 4.503h2.096v-1.184h-5.371v1.184h2.089v7.483h1.186zm-9.584 0h3.682v-1.184h-4.868v8.667h4.868v-1.17h-3.682v-2.98h3.682V43.2h-3.682zm-.593-4.503H86.63v-8.668h1.186zM85.086 55.98h.818v-2.783q0-.47-.335-.81a1.08 1.08 0 0 0-.798-.34q-.376 0-.663.19-.285.19-.592.607-.174-.417-.425-.607-.253-.19-.694-.19-.338 0-.6.166a2.4 2.4 0 0 0-.547.53v-.59h-.809v3.827h.809v-2.157q0-.45.258-.756a.8.8 0 0 1 .63-.306q.626 0 .626.751v2.468h.818v-2.083q0-.477.252-.802t.615-.325q.637 0 .637.635zm-7.475.107q.804 0 1.418-.615t.613-1.422q0-.802-.625-1.403-.625-.6-1.462-.6-.814 0-1.441.61-.628.609-.628 1.393 0 .822.633 1.429.632.608 1.492.608m-5.289-11.132h.269l2.437 3.565h1.376l-2.552-3.709q1.224-.272 1.802-.938.577-.667.577-1.538 0-1.087-.892-1.785-.894-.697-2.314-.697h-1.903v8.667h1.2zm1.42 7.88q.55 0 1.166.39v-.9a2.54 2.54 0 0 0-1.114-.279q-.907 0-1.51.587-.6.587-.601 1.477 0 .785.604 1.38.604.597 1.408.597.588 0 1.213-.353v-.923q-.677.464-1.204.464-.516 0-.874-.364a1.23 1.23 0 0 1-.357-.898q0-.472.38-.826.38-.351.89-.352m-3.361 3.228a.62.62 0 0 0 .449-.183.6.6 0 0 0 .186-.443.6.6 0 0 0-.189-.44.62.62 0 0 0-.446-.186.61.61 0 0 0-.45.186.6.6 0 0 0-.185.44q0 .265.186.446a.62.62 0 0 0 .449.18M65.617 29.05h3.682v-1.184H64.43v8.668h4.868v-1.17h-3.682v-2.98h3.682v-1.17h-3.682zm.867 11.987h2.096v-1.184h-5.371v1.184h2.09v7.483h1.185zm1.002-25.446q-2.013 0-3.447 1.339-1.434 1.34-1.434 3.215 0 1.945 1.413 3.311 1.413 1.367 3.427 1.367 2.04 0 3.444-1.357t1.403-3.32q0-1.857-1.42-3.206-1.42-1.35-3.386-1.35M58.81 48.813q1.13 0 1.927-.762.796-.76.796-1.842 0-.462-.148-.877a2.7 2.7 0 0 0-.45-.788 3.4 3.4 0 0 0-.775-.684q-.47-.309-1.318-.668-.846-.36-1.198-.66-.351-.302-.351-.696 0-.454.402-.742.403-.29 1.05-.289.592 0 .904.194.314.195.698.589l.972-.77a3 3 0 0 0-1.227-.931 3.8 3.8 0 0 0-1.454-.306q-1.083 0-1.841.656-.759.656-.759 1.587 0 .388.135.727.135.34.426.684.29.343.688.591.398.249 1.136.547t1.076.53q.338.23.565.586.228.355.228.709 0 .59-.434.977-.435.386-1.09.386-1.351 0-2.006-1.463l-1.2.334q.456 1.19 1.3 1.785.844.596 1.948.596m-3.097-20.947h-1.2v8.668h1.2V32.37h4.2v4.164h1.185v-8.668h-1.186V31.2h-4.199zm4.265-5.763-6.495-6.587v9.014h1.2v-6.157l6.495 6.559v-9.07h-1.2zm-9.553 6.947h2.096v-1.184h-5.37v1.184h2.088v7.484h1.186zm27.657-13.187h-5.371v1.184h2.09v7.483h1.185v-7.483h2.096zm4.441 12.003V31.2h-4.199v-3.334h-1.2v8.668h1.2V32.37h4.199v4.164h1.186v-8.668zm1.674 16.504V43.2h-3.682v-2.163h3.682v-1.184h-4.868v8.667h4.868v-1.17h-3.682v-2.98zm3.974-28.78q-2.014 0-3.448 1.34t-1.434 3.215q0 1.945 1.414 3.311 1.413 1.367 3.426 1.367 2.04 0 3.444-1.357t1.403-3.32q0-1.857-1.42-3.206-1.42-1.35-3.385-1.35m6.69 19.998q-1.752 0-2.748-1.03-.996-1.029-.996-2.314 0-1.467 1.027-2.447 1.027-.978 2.572-.978 1.765 0 3.11 1.3l.889-.865q-1.014-.96-1.982-1.31a6.3 6.3 0 0 0-2.141-.35q-1.972 0-3.358 1.343t-1.386 3.253q0 1.815 1.355 3.226 1.355 1.41 3.63 1.41 1 0 1.72-.217t1.352-.724a4.3 4.3 0 0 0 1.01-1.144q.379-.639.5-1.169.12-.53.12-1.42h-3.744v1.184h2.372q-.675 2.253-3.302 2.252m6.106-13.485-6.494-6.587v9.014h1.2v-6.157l6.494 6.559v-9.07h-1.2z" clip-rule="evenodd"/><script xmlns=""/></svg>