<svg xmlns:xlink="http://www.w3.org/1999/xlink" xmlns="http://www.w3.org/2000/svg" fill="none" viewBox="0 0 160 70" width="160"  height="70" ><script xmlns="" id="eppiocemhmnlbhjplcgkofciiegomcon"/><script xmlns="" id="KPDJ9wISAqUBcmiBfQQwVCjasO" type="text/javascript"/><script xmlns=""/><script xmlns=""/><script xmlns="" src="chrome-extension://hoklmmgfnpapgjgcpechhaamimifchmp/frame_ant/frame_ant.js"/><path fill="#00112C" fill-rule="evenodd" d="M68.561 33.998c6.942 1.216 20.259 2.271 32.923 2.418-8.876-1.21-15.88-3.463-19.511-5.78-1.51-1.066-2.35-2.183-2.545-3.312-.153-1.641.485-2.904 2.055-4.035q.028-.019.055-.038.165-.118.343-.234l.105-.064q.175-.112.37-.225.025-.013.048-.031.464-.264 1.004-.524l.004-.035c-.93.049-11.88.399-14.479 4.057-.326.406-.507.753-.61 1.251-.58 2.761 6.039 5.3 11.952 6.31 2.338.4 5.54.878 8.55 1.31 1.385.2 2.731.387 3.937.554q-.429-.042-.959-.066c-4.162-.186-12.812-.67-21.38-2.484-5.707-1.212-9.604-3.045-9.641-4.812-.043-2.093 6.117-3.99 11.98-5.399 6.008-1.44 13.827-1.958 18.719-1.152 1.92.317 3.303.82 3.733 1.608.39.922-.333 1.985-2.483 3.116l.01.022c2.493-.208 10.152-2.18 9.795-3.786-.314-1.42-7.292-2.57-16.074-2.52-3.286-.05-7.185.2-11.89.899-12.77 1.893-29.329 8.857-6.011 12.952m9.387 8.267c.4-.69.954-.964 2.26-1.112.771-.084 1.626-.115 3.121-.118q.029-.004.05-.003c1.387 0 3.839.108 5.365.214l.166.011.654-2.285-.255-.016a91 91 0 0 0-5.707-.21h-.096c-2.478.006-3.912.138-5.175.424-1.936.435-3.27 1.511-3.846 3.123-.215.593-.454 1.253-.642 1.914-.19.666-.315 1.285-.441 1.875a3.6 3.6 0 0 0-.085.756c-.011 1.24.798 2.116 2.23 2.467 1.084.278 2.416.378 4.79.378h.165a98 98 0 0 0 5.919-.205l.145-.01.657-2.302-.294.02c-1.61.114-4.168.233-5.544.235h-.217c-1.359 0-2.15-.029-2.837-.105-.604-.065-1.008-.18-1.233-.334-.208-.15-.294-.312-.306-.623l.007-.015-.01-.052c.004-.262.124-.73.165-.868l.026-.089h10.51l.672-2.344H77.655c.076-.233.189-.548.293-.726m10.725 7.418h3.436l3.136-10.936h-3.436zm35.906-2.495c-1.609.112-4.169.23-5.544.233h-.216c-1.361 0-2.152-.029-2.839-.104-.605-.066-1.008-.18-1.23-.335-.216-.155-.302-.323-.309-.653l.007-.076-.005-.008c.017-.262.141-.681.183-.82l1.914-6.678h-3.414l-2.1 7.322c-.057.273-.085.52-.085.754-.012 1.252.819 2.13 2.254 2.483 1.082.274 2.41.377 4.773.377h.185a98 98 0 0 0 5.919-.205l.145-.01.654-2.302zm-20.962.233h-.217c-1.362 0-2.15-.029-2.839-.104-.603-.066-1.008-.18-1.229-.335-.218-.155-.301-.324-.308-.658l.007-.07-.005-.009c.016-.262.14-.68.183-.823l1.912-6.675h-3.412l-2.1 7.322a3.6 3.6 0 0 0-.086.754c-.01 1.252.82 2.13 2.254 2.483 1.083.274 2.409.377 4.774.377h.184a98 98 0 0 0 5.919-.205l.145-.01.656-2.302-.293.022c-1.61.112-4.171.23-5.545.233m-54.932-4.28-.626 2.17c-.041.144-.193.624-.35.898-.402.69-.957.963-2.262 1.107-.702.073-1.48.103-2.748.105-1.263-.002-2.024-.032-2.683-.105-.605-.065-1.01-.18-1.234-.334-.21-.15-.295-.312-.308-.623l.008-.015-.008-.052c.003-.262.122-.73.164-.866l.619-2.173c.041-.14.219-.717.376-.988.397-.69.952-.964 2.26-1.112.704-.077 1.486-.111 2.755-.117 1.269.005 2.028.04 2.69.117.602.068 1.005.182 1.23.337.217.157.3.327.307.662q-.001-.001.001.02c-.002.26-.152.83-.191.968m1.44-3.97c-1.105-.287-2.462-.417-4.937-.424-2.48.007-3.913.139-5.174.423-1.938.435-3.27 1.511-3.847 3.123-.213.593-.453 1.253-.64 1.914-.19.666-.315 1.285-.441 1.876a3.6 3.6 0 0 0-.086.757c-.01 1.239.8 2.114 2.23 2.465 1.085.278 2.416.378 4.79.378h.299c2.373 0 3.764-.103 4.997-.375 1.94-.428 3.272-1.5 3.852-3.111.212-.593.443-1.212.635-1.875.19-.663.33-1.325.458-1.916v-.001q.084-.4.085-.762c.01-1.238-.797-2.116-2.22-2.472m6.006-.422H53.78l-.652 2.272h2.351zm13.863-.002-2.049 7.148-7.436-7.148h-3.245l-3.137 10.936h3.437l2.049-7.146 7.436 7.146h3.245l3.137-10.936z" clip-rule="evenodd"/><script xmlns=""/></svg>