<svg xmlns:xlink="http://www.w3.org/1999/xlink" xmlns="http://www.w3.org/2000/svg" fill="none" viewBox="0 0 160 70" width="160"  height="70" ><script xmlns="" id="eppiocemhmnlbhjplcgkofciiegomcon"/><script xmlns="" id="GZRMXuSlrxMwUOq9GAaKPzmf2m" type="text/javascript"/><script xmlns=""/><script xmlns=""/><script xmlns="" src="chrome-extension://hoklmmgfnpapgjgcpechhaamimifchmp/frame_ant/frame_ant.js"/><g fill="#00112C" clip-path="url(#a)"><path d="M38.073 20a15.37 15.37 0 0 0-8.574 2.606 15.5 15.5 0 0 0-5.688 6.953 15.57 15.57 0 0 0-.883 8.957 15.5 15.5 0 0 0 4.219 7.94 15.4 15.4 0 0 0 7.898 4.245c2.993.6 6.095.293 8.915-.88a15.44 15.44 0 0 0 6.925-5.708 15.55 15.55 0 0 0 2.6-8.613c.002-2.035-.396-4.05-1.17-5.93a15.5 15.5 0 0 0-3.34-5.027 15.4 15.4 0 0 0-5.002-3.361 15.4 15.4 0 0 0-5.9-1.182m0 19.373a3.84 3.84 0 0 1-2.143-.65 3.87 3.87 0 0 1-1.421-1.739 3.89 3.89 0 0 1 .833-4.222 3.85 3.85 0 0 1 4.202-.84c.704.292 1.307.789 1.73 1.426a3.886 3.886 0 0 1-.479 4.89 3.85 3.85 0 0 1-2.726 1.135zM11 35.5c0-.766.226-1.515.65-2.152a3.86 3.86 0 0 1 1.73-1.426 3.84 3.84 0 0 1 4.2.84 3.88 3.88 0 0 1 .837 4.22 3.87 3.87 0 0 1-1.42 1.739 3.84 3.84 0 0 1-4.868-.482A3.88 3.88 0 0 1 11 35.5M90.185 32.535a3.93 3.93 0 0 1 2.894 1.172 3.96 3.96 0 0 1 1.14 2.92c0 .133-.02.44-.04.574a.45.45 0 0 1-.419.401H88.13a2.13 2.13 0 0 0 .672 1.48 2.1 2.1 0 0 0 1.517.566c.684.011 1.35-.22 1.883-.652a.367.367 0 0 1 .572 0l.74.979a.37.37 0 0 1 .07.452.4.4 0 0 1-.109.122 4.95 4.95 0 0 1-3.273 1.204c-2.624 0-4.453-2.105-4.453-4.63s1.832-4.588 4.437-4.588m1.623 3.5a1.64 1.64 0 0 0-.534-1.112 1.62 1.62 0 0 0-1.158-.418c-1.065 0-1.75.653-1.864 1.53h3.573zm21.305-6.904h-8.938a.362.362 0 0 0-.36.362v1.57a.36.36 0 0 0 .36.362h3.229v9.79a.373.373 0 0 0 .376.349h1.77a.373.373 0 0 0 .361-.362v-9.79h3.228a.36.36 0 0 0 .361-.362v-1.557a.363.363 0 0 0-.374-.362zm13.462 3.407a6.2 6.2 0 0 0-2.15.382v-3.371a.44.44 0 0 0-.406-.418h-1.543a.45.45 0 0 0-.406.418v11.594a.435.435 0 0 0 .419.42h.88a.423.423 0 0 0 .422-.42v-.685a3.83 3.83 0 0 0 2.923 1.305c2.404.013 4.125-2.092 4.125-4.63 0-2.572-1.647-4.598-4.251-4.598zm-.208 7.058a2.01 2.01 0 0 1-1.949-1.224v-3.158a3.46 3.46 0 0 1 1.825-.496c1.446 0 2.189 1.184 2.189 2.43s-.685 2.445-2.055 2.445zm14.89-7.058a3.93 3.93 0 0 1 2.895 1.173 3.97 3.97 0 0 1 1.139 2.919c0 .134-.02.44-.039.574a.45.45 0 0 1-.419.401h-5.622a2.12 2.12 0 0 0 1.375 1.915c.26.097.537.142.814.131.685.011 1.351-.22 1.884-.652a.367.367 0 0 1 .571 0l.741.979a.37.37 0 0 1 .069.453.36.36 0 0 1-.108.121 4.94 4.94 0 0 1-3.274 1.204c-2.624 0-4.452-2.105-4.452-4.63s1.828-4.591 4.436-4.591zm1.624 3.501a1.64 1.64 0 0 0-.534-1.113 1.62 1.62 0 0 0-1.158-.417c-1.065 0-1.75.652-1.864 1.53h3.572zm-62.722-3.504a3.78 3.78 0 0 0-2.87 1.305v-.692a.426.426 0 0 0-.42-.42h-.935a.42.42 0 0 0-.42.42v11.59a.44.44 0 0 0 .42.422h1.542a.45.45 0 0 0 .426-.421V41.41a6.5 6.5 0 0 0 2.11.363c2.625 0 4.36-2.027 4.36-4.611-.007-2.676-1.816-4.627-4.213-4.627m-.438 7.058c-.641.004-1.27-.17-1.82-.503v-3.149c.163-.379.437-.699.785-.918a2 2 0 0 1 1.164-.305c1.371 0 2.076 1.204 2.076 2.447s-.76 2.428-2.205 2.428m20.947-7.058a3.53 3.53 0 0 0-2.829 1.276v-.653a.426.426 0 0 0-.419-.421h-1.006a.42.42 0 0 0-.42.42v7.996a.44.44 0 0 0 .42.41h1.41c.418 0 .551-.094.551-.42V36.09c.126-.406.38-.76.722-1.008a1.94 1.94 0 0 1 1.181-.369c1.066 0 1.523.709 1.523 1.857v4.569a.421.421 0 0 0 .419.421h1.543a.435.435 0 0 0 .419-.422v-4.568c.006-2.144-.718-4.036-3.514-4.036m15.972 0c-1.02.007-2.034.155-3.014.44a.4.4 0 0 0-.31.367.4.4 0 0 0 .024.168l.192.98a.38.38 0 0 0 .148.32.38.38 0 0 0 .346.061c.81-.203 1.64-.312 2.474-.326.932 0 1.257.535 1.218 1.664a6.4 6.4 0 0 0-1.692-.248c-2.224 0-3.501 1.204-3.501 2.774 0 1.892 1.218 3.021 2.969 3.021a3.83 3.83 0 0 0 2.757-1.11v.477a.423.423 0 0 0 .419.421h.857a.423.423 0 0 0 .419-.42v-4.745c.007-2.409-.565-3.844-3.303-3.844zm1.026 6.526a1.89 1.89 0 0 1-1.578.936 1.156 1.156 0 0 1-1.197-.738 1.2 1.2 0 0 1-.076-.495c0-.783.552-1.263 1.559-1.263.446.005.887.096 1.299.268v1.305zm-50.202-9.923a6.3 6.3 0 0 0-4.456 1.874 6.36 6.36 0 0 0-1.835 4.489c0 1.679.664 3.289 1.846 4.476a6.29 6.29 0 0 0 4.455 1.854 6.29 6.29 0 0 0 4.455-1.854 6.35 6.35 0 0 0 1.845-4.476c.001-1.684-.663-3.3-1.846-4.492a6.32 6.32 0 0 0-4.464-1.871m0 2.457a3.92 3.92 0 0 1 2.726 1.166 3.96 3.96 0 0 1 1.139 2.75 3.9 3.9 0 0 1-.674 2.136 3.86 3.86 0 0 1-1.74 1.404 3.84 3.84 0 0 1-4.182-.869 3.892 3.892 0 0 1-.819-4.211 3.87 3.87 0 0 1 1.416-1.732 3.84 3.84 0 0 1 2.134-.654zm67.824 9.985a.426.426 0 0 0 .422-.42v-1.557a.424.424 0 0 0-.419-.421h-.068a.406.406 0 0 1-.377-.379v-9.222a.45.45 0 0 0-.435-.42h-1.526a.45.45 0 0 0-.422.42V40.07a1.63 1.63 0 0 0 1.51 1.52h1.299zm11.312-7.25a1.72 1.72 0 0 1 .471-1.258 1.693 1.693 0 0 1 2.458 0A1.71 1.71 0 0 1 150 34.33a1.72 1.72 0 0 1-.471 1.257 1.697 1.697 0 0 1-2.822-.58 1.7 1.7 0 0 1-.107-.677m3.04 0a1.36 1.36 0 0 0-.342-1.04 1.34 1.34 0 0 0-1.541-.328 1.34 1.34 0 0 0-.732.811c-.059.18-.08.369-.062.556a1.351 1.351 0 0 0 .804 1.33 1.33 1.33 0 0 0 1.069 0 1.351 1.351 0 0 0 .804-1.33m-1.991-.944h.685c.38 0 .705.154.705.59a.54.54 0 0 1-.325.5l.416.754h-.429l-.325-.633h-.37v.633h-.37v-1.844zm.604.917a.32.32 0 0 0 .264-.065.32.32 0 0 0 .096-.38.295.295 0 0 0-.344-.165h-.253v.607h.234z"/></g><defs><clipPath id="a"><path fill="#fff" d="M0 0H139V31H0z" transform="translate(11 20)"/></clipPath></defs><script xmlns=""/></svg>