<svg xmlns:xlink="http://www.w3.org/1999/xlink" xmlns="http://www.w3.org/2000/svg" fill="#00112C" viewBox="0 0 160 70" width="160"  height="70" ><script xmlns="" id="eppiocemhmnlbhjplcgkofciiegomcon"/><script xmlns="" id="Q2BLcN4AWJoK8MfZH0yvFGKg0J" type="text/javascript"/><script xmlns=""/><script xmlns=""/><script xmlns="" src="chrome-extension://hoklmmgfnpapgjgcpechhaamimifchmp/frame_ant/frame_ant.js"/><path d="M72.763 27.003h7l-3.704-5.995-6.796 10.826h-3.104l8.279-12.993A1.93 1.93 0 0 1 76.059 18c.666 0 1.246.313 1.6.82l8.29 13.014h-3.093l-1.46-2.426h-7.087l-1.546-2.415m32.126 2.415V18.129h-2.63v12.4c0 .334.139.669.386.906.247.259.591.399.956.399h11.961l1.557-2.426zm-43.422-2.016c2.556 0 4.606-2.081 4.606-4.637a4.61 4.61 0 0 0-4.606-4.626H49.978v13.705h2.62V20.555h8.687c1.224 0 2.212.992 2.212 2.21a2.22 2.22 0 0 1-2.212 2.222h-7.398l7.838 6.847h3.812l-5.262-4.442zM33.83 31.845h7.935c3.78 0 6.818-3.062 6.818-6.847s-3.038-6.869-6.818-6.869h-7.935C30.06 18.13 27 21.202 27 24.987s3.06 6.847 6.829 6.847m7.752-2.415h-7.58c-2.438 0-4.413-1.995-4.413-4.443s1.975-4.442 4.413-4.442h7.58a4.427 4.427 0 0 1 4.424 4.442 4.427 4.427 0 0 1-4.424 4.443m49.854 2.415h8.107l1.536-2.415h-9.46c-2.448 0-4.424-1.995-4.424-4.443s1.976-4.442 4.424-4.442h7.699l1.557-2.426h-9.428c-3.769 0-6.84 3.073-6.84 6.857a6.84 6.84 0 0 0 6.84 6.847m32.105-2.415a4.42 4.42 0 0 1-4.252-3.224h11.221l1.546-2.415h-12.767a4.42 4.42 0 0 1 4.252-3.224h7.699l1.535-2.426h-9.416c-3.769 0-6.819 3.073-6.819 6.857s3.06 6.847 6.819 6.847h8.106l1.536-2.415h-9.471M28.181 49.7V38.725h1.396v4.723h5.755v-4.723h1.396V49.7h-1.396v-5.047h-5.755V49.7zM42.312 49.862c-1.181 0-2.105-.366-2.75-1.1-.654-.733-.976-1.736-.976-3.008s.322-2.296.977-3.019c.655-.722 1.567-1.089 2.749-1.089 1.18 0 2.115.367 2.77 1.089.655.723.977 1.736.977 3.02 0 1.282-.322 2.285-.977 3.007q-.983 1.1-2.77 1.1m0-1.121c.773 0 1.352-.259 1.76-.766.398-.507.602-1.25.602-2.232 0-.98-.204-1.714-.602-2.22-.397-.508-.987-.766-1.76-.766s-1.343.258-1.74.765-.601 1.25-.601 2.221c0 .97.204 1.715.601 2.232s.988.766 1.74.766M47.39 49.302v-1.144c.473.205.902.346 1.289.443s.794.14 1.224.14c1.3 0 1.954-.388 1.954-1.175 0-.313-.096-.561-.29-.734s-.526-.334-1.009-.463l-1.235-.335c-.72-.204-1.245-.474-1.578-.82-.333-.344-.494-.797-.494-1.336 0-.68.268-1.23.805-1.617.537-.4 1.256-.594 2.17-.594.504 0 .955.044 1.363.12.408.075.762.193 1.063.333v1.143a6.2 6.2 0 0 0-2.341-.463c-1.138 0-1.718.334-1.718.992 0 .28.086.506.268.668.172.162.484.313.924.431l1.245.335c.763.205 1.31.485 1.654.84.344.357.515.842.515 1.446 0 .733-.29 1.315-.859 1.736-.569.42-1.363.636-2.373.636-.483 0-.955-.054-1.417-.151a4.4 4.4 0 0 1-1.17-.41zM54.82 52.73V41.82h.913l.226 1.272a3.153 3.153 0 0 1 2.663-1.434c1.041 0 1.857.356 2.437 1.078q.87 1.083.87 3.008c0 1.283-.29 2.308-.88 3.03-.591.723-1.407 1.09-2.46 1.09q-.66 0-1.288-.26a3.7 3.7 0 0 1-1.127-.722v3.85zm3.598-9.973c-.473 0-.902.129-1.3.388a2.8 2.8 0 0 0-.944 1.046v3.504c.612.712 1.342 1.067 2.18 1.067.708 0 1.256-.258 1.631-.765.376-.518.559-1.262.559-2.232s-.183-1.693-.559-2.221c-.375-.529-.89-.787-1.578-.787zM63.808 49.7v-6.825l-.784-.496v-.56h2.137V49.7zm-.311-9.704v-1.218h1.653v1.218zM67.673 47.296v-4.367H66.32v-.69l1.353-.453.537-2.146h.816v2.178h1.697v1.122h-1.697v4.345c0 .863.365 1.294 1.117 1.294.118 0 .236 0 .354-.022.118-.01.226-.032.323-.043v1.176c-.14.032-.28.054-.43.064-.14 0-.3.011-.462.011-.773 0-1.342-.205-1.707-.604q-.548-.598-.548-1.876zM77.541 49.7l-.225-1.272c-.645.96-1.514 1.434-2.62 1.434-.795 0-1.428-.226-1.9-.668-.473-.442-.72-1.046-.72-1.79 0-.83.279-1.467.848-1.93.57-.464 1.353-.69 2.373-.69h1.804v-.496c0-.561-.118-.96-.365-1.197s-.666-.345-1.257-.345a6.2 6.2 0 0 0-1.213.13 11 11 0 0 0-1.46.42v-1.1a6 6 0 0 1 1.31-.4q.741-.142 1.385-.14c1.976 0 2.964.885 2.964 2.642V49.7h-.923m-2.673-.916c.461 0 .89-.13 1.288-.399q.596-.405.966-1.1v-1.499h-1.685c-.677 0-1.181.119-1.514.367-.323.248-.494.625-.494 1.143 0 .453.129.809.386 1.078.258.27.602.4 1.042.4zM80.644 49.7V39.426l-.784-.496v-.56h2.137V49.7zM84.37 49.7v-6.825l-.784-.496v-.56h2.137V49.7zm-.311-9.704v-1.218h1.653v1.218zM88.236 47.296v-4.367h-1.353v-.69l1.353-.453.536-2.146h.816v2.178h1.697v1.122h-1.697v4.345c0 .863.366 1.294 1.117 1.294.118 0 .236 0 .355-.022.118-.01.225-.032.322-.043v1.176c-.14.032-.28.054-.43.064-.14 0-.3.011-.462.011-.773 0-1.342-.205-1.707-.604q-.547-.598-.547-1.876zM95.13 49.625l-2.846-7.806H93.7l2.47 7.051 2.147-7.051h1.364l-2.513 7.71c-.236.743-.504 1.347-.784 1.81q-.435.696-1.03 1.068c-.398.248-.902.453-1.504.593l-.333-1.132c.398-.108.741-.248 1.02-.41.28-.162.527-.388.73-.658q.307-.404.548-1.067l.043-.108h-.74z"/><script xmlns=""/></svg>