<svg xmlns:xlink="http://www.w3.org/1999/xlink" xmlns="http://www.w3.org/2000/svg" fill="#00112C" viewBox="0 0 160 70" width="160"  height="70" ><script xmlns="" id="eppiocemhmnlbhjplcgkofciiegomcon"/><script xmlns="" id="_4dZueEYPY363hp7XB_ApOsL7n" type="text/javascript"/><script xmlns=""/><script xmlns=""/><script xmlns="" src="chrome-extension://hoklmmgfnpapgjgcpechhaamimifchmp/frame_ant/frame_ant.js"/><path d="M72.626 28.042h7.133l-3.774-6.02-6.925 10.872h-3.162l8.435-13.05c.361-.53.974-.844 1.652-.844s1.27.314 1.63.823l8.446 13.07H82.91l-1.488-2.436h-7.22l-1.576-2.425m32.733 2.425V19.13h-2.68v12.453c0 .336.142.672.394.91.251.26.601.4.973.4h12.187l1.587-2.436zm-44.241-2.025c2.603 0 4.693-2.09 4.693-4.656 0-2.567-2.09-4.646-4.694-4.646H49.413v13.764h2.669V21.567h8.85c1.248 0 2.254.996 2.254 2.22 0 1.223-1.006 2.23-2.254 2.23h-7.537l7.986 6.877h3.884l-5.36-4.462zm-28.16 4.473h8.084c3.851 0 6.947-3.076 6.947-6.877s-3.096-6.898-6.946-6.898h-8.085c-3.84 0-6.958 3.086-6.958 6.887s3.118 6.877 6.958 6.877m7.899-2.426h-7.724c-2.484 0-4.497-2.003-4.497-4.462s2.014-4.461 4.497-4.461h7.724c2.494 0 4.507 1.992 4.507 4.461s-2.013 4.462-4.507 4.462m50.794 2.426h8.26l1.564-2.426h-9.638c-2.494 0-4.507-2.003-4.507-4.462s2.013-4.461 4.507-4.461h7.844l1.586-2.437h-9.605c-3.84 0-6.969 3.087-6.969 6.888s3.118 6.876 6.97 6.876m32.71-2.426a4.495 4.495 0 0 1-4.332-3.238h11.432l1.575-2.425h-13.007a4.495 4.495 0 0 1 4.332-3.238h7.844l1.564-2.437h-9.594c-3.84 0-6.947 3.087-6.947 6.888s3.118 6.876 6.947 6.876h8.26l1.564-2.426h-9.649M26.678 50.838V39.813h3.785q3.873 0 3.873 3.25c0 1.688-.864 2.728-2.603 3.118l3.095 4.657H33.21l-2.822-4.365-2.297-.368v4.733zm1.412-5.675h1.695c1.138 0 1.948-.162 2.418-.476s.7-.867.7-1.625c0-.53-.098-.942-.295-1.256s-.514-.53-.974-.671-1.072-.206-1.86-.206h-1.696v4.234zM41.994 50.437c-.284.173-.667.314-1.137.412S39.86 51 39.303 51c-1.269 0-2.22-.357-2.866-1.072s-.974-1.754-.974-3.13.306-2.328.93-3.02c.613-.683 1.499-1.03 2.658-1.03 2.221 0 3.337 1.213 3.337 3.65v.877h-5.524q.098 1.332.722 1.95.623.615 1.87.616c.46 0 .897-.043 1.302-.14a7 7 0 0 0 1.258-.423v1.148zm-2.953-6.562c-.679 0-1.193.194-1.565.595q-.558.598-.623 1.733h4.2c0-.834-.153-1.43-.47-1.787-.317-.368-.82-.541-1.542-.541M44.533 48.423v-4.386h-1.379v-.693l1.378-.455.548-2.155h.83v2.188h1.73v1.126h-1.73v4.364c0 .866.373 1.3 1.139 1.3.12 0 .24 0 .36-.022.121-.011.23-.033.329-.043v1.18a3 3 0 0 1-.438.065c-.142 0-.306.01-.47.01-.788 0-1.368-.205-1.74-.606q-.558-.6-.558-1.884zM54.597 50.838l-.23-1.278c-.656.963-1.542 1.44-2.669 1.44-.81 0-1.455-.227-1.936-.671-.482-.444-.733-1.05-.733-1.798 0-.834.284-1.473.864-1.938.58-.466 1.379-.694 2.418-.694h1.838v-.498c0-.563-.12-.964-.372-1.202s-.678-.346-1.28-.346a6.4 6.4 0 0 0-1.236.13c-.438.086-.93.227-1.488.422V43.3a6 6 0 0 1 1.334-.4c.504-.098.974-.141 1.412-.141 2.013 0 3.02.888 3.02 2.653v5.426h-.9420000000000001m-2.724-.92c.47 0 .908-.13 1.313-.402q.607-.406.985-1.104v-1.505h-1.718c-.69 0-1.203.119-1.543.368-.328.249-.503.628-.503 1.148 0 .454.132.812.394 1.083.263.27.613.4 1.061.4zM57.88 50.838v-6.855l-.8-.498v-.563h2.178v7.916zm-.318-9.747v-1.223h1.685v1.223zM61.555 50.837v-10.32l-.798-.498v-.563h2.177v11.381z"/><script xmlns=""/></svg>