<svg xmlns:xlink="http://www.w3.org/1999/xlink" xmlns="http://www.w3.org/2000/svg" fill="#00112C" viewBox="0 0 160 70" width="160"  height="70" ><script xmlns="" id="eppiocemhmnlbhjplcgkofciiegomcon"/><script xmlns="" id="ClrefD63yUKXwW2I6Zlponi7c3" type="text/javascript"/><script xmlns=""/><script xmlns=""/><script xmlns="" src="chrome-extension://hoklmmgfnpapgjgcpechhaamimifchmp/frame_ant/frame_ant.js"/><path d="M69.956 36.8h7.655l-4.044-6.508-7.43 11.755h-3.385l9.029-14.125A2.17 2.17 0 0 1 73.549 27c.695 0 1.354.339 1.73.884l9.066 14.144h-3.386l-1.599-2.633h-7.749zm35.078 2.633V27.169h-2.858v13.467c0 .377.15.734.413.997.282.282.64.433 1.054.433h13.072l1.693-2.633zm-47.416-2.201c2.783 0 5.04-2.238 5.04-5.022a5.04 5.04 0 0 0-5.04-5.04H45.072v14.896h2.859V29.802h9.48a2.41 2.41 0 0 1 2.407 2.408 2.4 2.4 0 0 1-2.407 2.408l-8.088-.02 8.558 7.449h4.157L56.3 37.232zm-30.17 4.815A7.44 7.44 0 0 1 20 34.599c0-4.12 3.33-7.448 7.448-7.448H36.1c4.12 0 7.449 3.347 7.449 7.448 0 4.119-3.33 7.448-7.449 7.448zm8.464-2.614a4.8 4.8 0 0 0 4.815-4.815c0-2.671-2.163-4.834-4.815-4.834h-8.276a4.816 4.816 0 0 0-4.815 4.834 4.81 4.81 0 0 0 4.815 4.815zm54.414 2.614a7.44 7.44 0 0 1-7.448-7.448c0-4.12 3.348-7.448 7.448-7.448h10.288l-1.674 2.633h-8.426a4.83 4.83 0 0 0-4.834 4.834 4.816 4.816 0 0 0 4.834 4.815h10.326l-1.693 2.633h-8.821zm35.041-2.614a4.824 4.824 0 0 1-4.646-3.518h12.245l1.692-2.633h-13.937a4.85 4.85 0 0 1 4.646-3.517h8.407l1.693-2.633H125.16c-4.119 0-7.448 3.348-7.448 7.448 0 4.12 3.348 7.448 7.448 7.448H134l1.693-2.633h-10.326M137.009 28.73c0-.733.583-1.316 1.317-1.316s1.317.583 1.317 1.316-.583 1.317-1.317 1.317c-.734.019-1.317-.564-1.317-1.317m1.317 1.693c.922 0 1.674-.752 1.674-1.674s-.752-1.674-1.674-1.674-1.674.753-1.674 1.674c0 .922.752 1.674 1.674 1.674m-.15-2.67c.263 0 .376.018.489.056a.525.525 0 0 1 .376.526c0 .02 0 .076-.019.15a.5.5 0 0 1-.226.32c-.019.02-.037.02-.075.057l.433.771h-.414l-.376-.714h-.264v.714h-.376v-1.88zm.131.846c.113-.02.245-.02.301-.113a.26.26 0 0 0 .057-.17c0-.093-.057-.169-.151-.225-.075-.038-.169-.038-.338-.038h-.113v.546z"/><script xmlns=""/></svg>