<svg xmlns:xlink="http://www.w3.org/1999/xlink" xmlns="http://www.w3.org/2000/svg" fill="#00112C" viewBox="0 0 160 70" width="160"  height="70" ><script xmlns="" id="eppiocemhmnlbhjplcgkofciiegomcon"/><script xmlns="" id="dhkd4oOfEon6GjnmfI6CIwcYlj" type="text/javascript"/><script xmlns=""/><script xmlns=""/><script xmlns="" src="chrome-extension://hoklmmgfnpapgjgcpechhaamimifchmp/frame_ant/frame_ant.js"/><g clip-path="url(#a)"><path d="M55.086 39.659q0 1.503.757 2.681.756 1.178 2.566 1.178 1.316 0 2.006-.84.691-.838.92-1.816.1-.375.133-.726.033-.35.034-.651-.001-1.578-.707-2.832-.707-1.252-2.517-1.251-1.907 0-2.548 1.314-.642 1.316-.642 2.895v.074-.026zm19.656-.152q.001-.254-.016-.558a4 4 0 0 0-.077-.608 4.6 4.6 0 0 0-.866-2.005q-.68-.913-2.291-.913t-2.307.913a4.25 4.25 0 0 0-.852 2.005 4 4 0 0 0-.077.608 11 11 0 0 0 0 1.168q.014.306.077.608a4.24 4.24 0 0 0 .852 2.005q.697.914 2.307.914t2.29-.913a4.6 4.6 0 0 0 .867-2.006 4 4 0 0 0 .077-.608q.016-.305.016-.584zm3.626-.782q.028.391.028.808v-.026q0 1.34-.279 2.42l3.086-.02q0 .886.654 1.445.653.558 2.373.558.988 0 1.498-.266.509-.267.668-.596a.9.9 0 0 0 .127-.292q.031-.139.032-.24 0-.633-.78-.913a14 14 0 0 0-1.896-.507q-.382-.075-.795-.151-.413-.075-.828-.178a10.8 10.8 0 0 1-2.977-1.166 2.54 2.54 0 0 1-.91-.876m-23.282-6.032v1.93h.032q.066-.075.132-.177.066-.1.164-.2.526-.701 1.432-1.29.904-.589 2.582-.589 2.369 0 4.162 1.704 1.01.96 1.45 2.477.521-1.473 1.638-2.395 2.089-1.725 4.814-1.726t4.814 1.726q1.112.92 1.632 2.383.008-.091.018-.183.031-.278.095-.558.319-1.268 1.56-2.333t3.917-1.064a14 14 0 0 1 1.179.051 7.8 7.8 0 0 1 3.344 1.052q1.528.9 1.72 3.36v-.025h-3.567l-.016-.04a.2.2 0 0 1-.016-.062 2.44 2.44 0 0 0-.573-1.14q-.447-.507-1.847-.507-1.243 0-1.687.316-.446.317-.51.697a.4.4 0 0 0-.033.152v.151q0 .584.749.863.75.279 1.83.483.413.075.86.164t.924.217a10 10 0 0 1 2.979 1.153q1.353.799 1.354 2.675 0 2.028-1.163 3.017a6.05 6.05 0 0 1-2.563 1.317 10 10 0 0 1-1.241.217q-.605.063-1.114.063h-.303q-.142 0-.303-.026-2.26-.075-4.139-1.078-1.348-.718-1.761-2.226a5.1 5.1 0 0 1-1.322 1.655q-2.09 1.713-4.814 1.713t-4.814-1.713q-1.249-1.023-1.752-2.74a9 9 0 0 1-.958 2.01q-1.414 2.204-4.638 2.205-1.348 0-2.172-.376-.82-.375-1.25-.852a3.6 3.6 0 0 1-.624-.802l-.032-.026v6.539H51.47V32.693zm58.018 6.906q0-.245-.014-.54a4 4 0 0 0-.073-.59 4.5 4.5 0 0 0-.818-1.938q-.643-.885-2.164-.884-1.521 0-2.178.884a4.16 4.16 0 0 0-.805 1.939 4 4 0 0 0-.072.589 11 11 0 0 0 0 1.129q.013.294.072.589.147 1.055.805 1.939t2.178.884q1.522 0 2.164-.884a4.5 4.5 0 0 0 .818-1.94 4 4 0 0 0 .073-.588q.014-.294.014-.565zm3.452 0q0 3.558-1.974 5.214-1.975 1.657-4.548 1.657t-4.548-1.657-1.974-5.19q0-3.533 1.974-5.202t4.548-1.67q2.573 0 4.548 1.67t1.974 5.202zm19.285-6.488-4.04 13.056h-3.783l-2.18-9.522h-.065l-2.18 9.522h-3.783l-3.943-13.056h3.912l2.18 9.374h.065l1.988-9.374h3.687l2.115 9.374h.033l2.212-9.374zm-32.838 4.049v9.03h-3.452v-7.925a7 7 0 0 0-.014-.418q-.015-.245-.046-.514-.12-.588-.57-1.105-.45-.516-1.62-.515-1.14 0-1.922.761-.78.761-.78 2.257v7.462h-3.45V33.135h3.3v1.915h.06q.12-.172.27-.392t.36-.467c.302-.343.715-.658 1.247-.945q.795-.43 2.056-.429 1.92 0 3.241 1.105 1.32 1.106 1.32 3.264z"/><path fill-rule="evenodd" d="M36.983 21.374c7.524 0 13.622 6.155 13.622 13.748 0 7.594-6.098 13.748-13.622 13.748s-13.624-6.154-13.624-13.748 6.1-13.748 13.624-13.748m3.476 12.515a5.3 5.3 0 0 1 1.954.272l-6.456 5.935a3.74 3.74 0 0 1-.394-1.68c0-2.382 2.193-4.41 4.896-4.527m.306-3.046a8.21 8.21 0 0 1 6.351 2.973l-9.587 8.799c2.365 2.18 8.096 1.624 8.554-5.047l2.725-.119c.08.453.124.92.124 1.395 0 4.42-3.657 8.002-8.167 8.002s-8.166-3.583-8.166-8.001c-.002-4.42 3.656-8.002 8.166-8.002" clip-rule="evenodd"/></g><defs><clipPath id="a"><path d="M0 0H113V30H0z" transform="translate(23 21)"/></clipPath></defs><script xmlns=""/></svg>