<svg xmlns:xlink="http://www.w3.org/1999/xlink" xmlns="http://www.w3.org/2000/svg" fill="#00112C" viewBox="0 0 160 70" width="160"  height="70" ><script xmlns="" id="eppiocemhmnlbhjplcgkofciiegomcon"/><script xmlns="" id="0Z5HgEf4-qbBaTAD8BZAnsn85I" type="text/javascript"/><script xmlns=""/><script xmlns=""/><script xmlns="" src="chrome-extension://hoklmmgfnpapgjgcpechhaamimifchmp/frame_ant/frame_ant.js"/><g clip-path="url(#a)"><path d="M112.222 17.465c.341.061.684.115 1.02.188 1.263.274 2.299.945 3.243 1.85l-.977 1.051c-.369-.287-.71-.582-1.08-.834-1.834-1.242-4.196-1.223-5.894.052-1.193.895-1.831 2.126-1.998 3.587-.192 1.692.21 3.228 1.391 4.496 1.086 1.166 2.452 1.63 4.031 1.512 1.346-.099 2.438-.727 3.405-1.619q.112-.104.228-.206l.951.983c-.107.095-.25.216-.386.345-1.326 1.258-2.906 1.869-4.733 1.87-3.147.005-5.789-2.183-6.322-5.289-.392-2.285.117-4.342 1.728-6.058 1.019-1.084 2.297-1.682 3.768-1.88.067-.01.133-.032.2-.048h1.427zM96.76 52.055V37.17h.6c.738 0 1.475.004 2.21-.004.149 0 .242.04.335.163q3.356 4.413 6.716 8.82c.028.038.06.074.127.159v-9.126h3.228v14.873c-.069.004-.144.014-.219.014-.785 0-1.568-.004-2.353.004a.38.38 0 0 1-.335-.166q-3.438-4.516-6.879-9.025c-.047-.062-.097-.121-.184-.232v9.405zM128.189 46.32h-3.282v-2.817h6.467v.246c0 1.996.002 3.99-.006 5.985 0 .111-.044.264-.123.325-2.751 2.188-5.83 2.894-9.18 1.762-2.778-.94-4.36-3.004-4.803-5.892-.371-2.42.2-4.614 1.845-6.462 1.397-1.572 3.186-2.389 5.277-2.527 1.363-.091 2.705.033 3.997.519.908.34 1.707.858 2.462 1.502q-1.038 1.25-2.059 2.483c-.351-.247-.672-.505-1.021-.717-1.298-.78-2.701-1.054-4.146-.56-1.786.61-2.713 1.979-2.975 3.802-.162 1.136.028 2.236.627 3.222.983 1.622 2.481 2.25 4.332 2.123.858-.057 1.665-.29 2.402-.745.135-.083.192-.179.188-.343-.01-.624-.004-1.247-.004-1.908zM74.943 46.755c1.208 1.768 2.405 3.516 3.628 5.303-.107.006-.178.012-.251.012q-1.69-.001-3.375.004c-.15 0-.244-.038-.331-.168-1.621-2.428-3.25-4.852-4.876-7.277-.041-.064-.079-.131-.138-.23h.261c.84 0 1.68.023 2.52-.01a3.8 3.8 0 0 0 1.176-.23c.839-.313 1.273-1.058 1.237-1.992-.036-.917-.511-1.583-1.373-1.843a4.3 4.3 0 0 0-1.144-.182c-1.06-.024-2.123-.008-3.185-.008-.031 0-.061.008-.13.016v11.902h-3.274V37.18c.057-.004.109-.01.162-.01 2.345.002 4.691-.01 7.035.014 1.098.01 2.15.26 3.106.83a4.16 4.16 0 0 1 1.938 2.569 5.7 5.7 0 0 1-.014 3.095c-.404 1.421-1.347 2.367-2.68 2.953-.086.038-.174.074-.296.125zM39.67 38.838q-.877 1.273-1.69 2.448c-.654-.341-1.268-.702-1.914-.99-.852-.378-1.752-.552-2.685-.36a2.1 2.1 0 0 0-.656.26 1.186 1.186 0 0 0-.024 2.021c.565.37 1.219.517 1.853.712.96.295 1.924.57 2.87.907a4.4 4.4 0 0 1 1.765 1.17c.573.62.844 1.367.9 2.195.087 1.314-.184 2.523-1.116 3.512-.739.783-1.672 1.229-2.715 1.407-2.955.505-5.582-.23-7.88-2.152-.023-.02-.04-.046-.077-.083.645-.771 1.287-1.54 1.905-2.282.57.365 1.104.754 1.678 1.06 1.14.61 2.357.87 3.647.621.244-.047.483-.152.703-.271.765-.415.855-1.677.006-2.093-.592-.291-1.222-.51-1.85-.716-.93-.307-1.885-.543-2.809-.868-.783-.277-1.484-.713-1.993-1.399-.585-.79-.726-1.706-.694-2.655.077-2.222 1.607-3.782 3.813-4.18 2.519-.454 4.822.127 6.867 1.683.026.02.055.031.097.053M50.511 52.055H47.22v-7.38h.296c1.908 0 3.819.01 5.727-.006.71-.006 1.366-.22 1.861-.76.61-.663.698-1.454.454-2.284-.246-.837-.888-1.24-1.699-1.403a5 5 0 0 0-.943-.09c-1.8-.008-3.597-.003-5.396-.003h-.3v-2.943c.064-.006.123-.018.183-.018 2.09 0 4.183-.026 6.274.018 1.562.031 2.98.503 4.077 1.688.975 1.056 1.302 2.344 1.248 3.746-.045 1.216-.428 2.312-1.276 3.212-.828.878-1.869 1.387-3.04 1.587-.73.125-1.479.145-2.22.177-.64.028-1.282.006-1.956.006v4.449zM78.553 30.52V17.694c.076-.005.145-.015.212-.015 1.427 0 2.852-.012 4.28.002 1.721.015 3.305.471 4.629 1.617 1.589 1.375 2.25 3.153 2.13 5.226-.184 3.143-2.507 5.507-5.706 5.913q-.59.075-1.183.078c-1.363.01-2.725.003-4.088.003h-.272zM80 29.16c.446 0 .88.006 1.312 0 .846-.012 1.702.044 2.537-.06 4.201-.52 5.335-4.732 3.838-7.477-.963-1.767-2.558-2.515-4.506-2.582-.997-.036-1.996-.006-2.993-.006-.061 0-.12.008-.188.012v10.113000000000001M52.374 25.312c1.29 1.717 2.584 3.435 3.918 5.206h-.311c-.436 0-.872.008-1.308-.006a.4.4 0 0 1-.276-.126c-1.567-2.01-3.127-4.025-4.688-6.04-.022-.03-.04-.064-.08-.13.387 0 .74-.004 1.092 0 .581.01 1.156-.021 1.715-.196 1.137-.357 1.813-1.157 1.9-2.263.09-1.118-.472-2.047-1.544-2.426a5 5 0 0 0-1.48-.287c-1.346-.038-2.693-.014-4.041-.012-.046 0-.091.01-.163.018v11.456h-1.436V17.688q.122-.008.248-.01c1.76 0 3.517-.006 5.277 0 .987.004 1.942.167 2.808.668 1.28.741 1.867 1.883 1.815 3.338-.053 1.502-.806 2.568-2.172 3.184-.4.18-.832.292-1.272.442zM88.764 37.184v14.87h-3.27v-14.87zM31.2 25.992v4.512h-1.454V24.66h.28q2.174.001 4.35 0c.705 0 1.387-.117 2.02-.444 1.07-.553 1.592-1.55 1.462-2.768-.123-1.136-.87-1.958-2.095-2.253a5.5 5.5 0 0 0-1.221-.153c-1.504-.018-3.01-.008-4.515-.008h-.275v-1.356h.258c1.512 0 3.026-.006 4.538 0 1.16.006 2.271.212 3.242.898.96.678 1.455 1.625 1.548 2.787.095 1.187-.177 2.267-1.017 3.15-.731.77-1.657 1.18-2.687 1.352-.474.08-.96.111-1.44.121-.897.018-1.79.006-2.686.006zM121.831 19.036v-1.338h10.082v1.334h-4.287V30.5h-1.48V19.036zM62.586 30.503v-7.105h8.44v1.308h-6.971v4.475h7.885v1.326h-9.352zM96.689 17.692h1.415v12.813h-1.415zM62.594 17.692h9.261v1.302h-9.26z"/></g><defs><clipPath id="a"><path d="M0 0H103.734V34.911H0z" transform="translate(28.266 17.465)"/></clipPath></defs><script xmlns=""/></svg>