<svg xmlns:xlink="http://www.w3.org/1999/xlink" xmlns="http://www.w3.org/2000/svg" fill="#00112C" viewBox="0 0 160 70" width="160"  height="70" ><script xmlns="" id="eppiocemhmnlbhjplcgkofciiegomcon"/><script xmlns="" id="EugDoCqQpwIekpx3TeMAyn2EmG" type="text/javascript"/><script xmlns=""/><script xmlns=""/><script xmlns="" src="chrome-extension://hoklmmgfnpapgjgcpechhaamimifchmp/frame_ant/frame_ant.js"/><path d="M98.513 21.695c-.65 0-.706.223-.112.502 0 0 1.894.872 3.213 2.265 2.135 2.228 2.525 5.756 2.525 5.756.074.65.446.743.836.223l5.756-7.78c.39-.52.167-.947-.483-.947zM114.89 21.695c-.65 0-.705.223-.111.502 0 0 1.894.872 3.212 2.265 2.136 2.228 2.526 5.756 2.526 5.756.074.65.445.743.835.223l5.756-7.78c.39-.52.168-.947-.482-.947zM107.259 32.354c-.65 0-.706.223-.112.501 0 0 1.894.873 3.213 2.247 2.135 2.228 2.525 5.756 2.525 5.756.074.65.446.743.836.223l5.756-7.78c.39-.52.167-.947-.483-.947zM106.479 11c-.65 0-.706.223-.112.501 0 0 1.894.873 3.213 2.266 2.135 2.228 2.525 5.756 2.525 5.756.074.65.446.743.836.223l5.756-7.78c.39-.52.167-.947-.483-.947zM122.596 11c-.65 0-.705.223-.111.501 0 0 1.894.873 3.212 2.266 2.136 2.228 2.526 5.756 2.526 5.756.074.65.445.743.835.223l5.756-7.78c.39-.52.168-.947-.482-.947zM38.89 46.336c0 1.225-.13 2.34-.39 3.324s-.65 1.82-1.152 2.506a5.1 5.1 0 0 1-1.894 1.597c-.761.372-1.615.557-2.58.557-.41 0-.762-.037-1.115-.111a4.3 4.3 0 0 1-.966-.353 5.6 5.6 0 0 1-.928-.594c-.316-.242-.631-.52-.966-.836v6.5a.46.46 0 0 1-.093.278.7.7 0 0 1-.315.204 3.2 3.2 0 0 1-.594.13c-.242.037-.557.037-.947.037s-.687-.019-.947-.037a3.2 3.2 0 0 1-.594-.13.7.7 0 0 1-.316-.204.56.56 0 0 1-.093-.297V39.633c0-.112.019-.186.074-.28a.53.53 0 0 1 .279-.185q.195-.083.501-.111a8.456 8.456 0 0 1 1.578 0c.205.018.39.056.52.111.13.056.223.112.279.186a.45.45 0 0 1 .074.279v1.633c.409-.408.799-.78 1.189-1.095.39-.316.78-.576 1.188-.78a5.3 5.3 0 0 1 1.244-.464 6.5 6.5 0 0 1 1.374-.149c1.003 0 1.876.205 2.581.595s1.3.947 1.746 1.634.78 1.504.984 2.413c.167.892.278 1.876.278 2.916m-4.049.278c0-.594-.037-1.151-.13-1.69a5.5 5.5 0 0 0-.445-1.448 2.5 2.5 0 0 0-.836-1.002c-.353-.26-.78-.372-1.3-.372-.26 0-.52.037-.761.112-.26.074-.501.204-.78.37-.26.168-.538.41-.817.688a9 9 0 0 0-.873 1.04v4.549c.539.687 1.059 1.226 1.56 1.597s1.003.557 1.541.557c.502 0 .929-.13 1.3-.39.353-.26.65-.594.873-1.003s.39-.89.501-1.41a8 8 0 0 0 .167-1.598M50.272 40.932c0 .372-.019.669-.037.91a3 3 0 0 1-.093.557.5.5 0 0 1-.167.279.4.4 0 0 1-.26.074 1 1 0 0 1-.279-.056c-.111-.037-.223-.074-.353-.111s-.278-.074-.427-.111a2 2 0 0 0-.501-.056c-.223 0-.427.037-.65.13a2.6 2.6 0 0 0-.668.408 4.6 4.6 0 0 0-.725.743c-.26.316-.52.687-.817 1.151v8.597a.5.5 0 0 1-.093.279.57.57 0 0 1-.315.186 2.3 2.3 0 0 1-.594.111 12 12 0 0 1-1.894 0 2.3 2.3 0 0 1-.595-.111c-.148-.056-.26-.112-.315-.186a.46.46 0 0 1-.093-.279V39.652c0-.111.019-.186.074-.279a.53.53 0 0 1 .279-.185c.13-.056.316-.093.52-.112a9 9 0 0 1 1.615 0q.334.028.502.112a.7.7 0 0 1 .26.186.45.45 0 0 1 .074.278v1.708c.353-.52.705-.947 1.021-1.28.316-.335.631-.595.91-.8.297-.204.575-.334.873-.408.297-.074.575-.111.872-.111.13 0 .279 0 .427.018.149.019.316.038.483.075s.316.074.427.13c.13.055.223.092.279.148s.093.111.13.167c.018.056.055.149.074.26s.037.279.037.483c.019.223.019.52.019.891M65.498 46.41c0 1.17-.149 2.247-.464 3.212s-.78 1.801-1.412 2.507c-.63.706-1.41 1.244-2.358 1.634-.947.39-2.06.576-3.323.576-1.226 0-2.303-.167-3.194-.52a5.8 5.8 0 0 1-2.266-1.486q-.891-.975-1.337-2.395c-.297-.947-.427-2.024-.427-3.25 0-1.17.149-2.246.465-3.23.315-.966.78-1.801 1.41-2.507a6.1 6.1 0 0 1 2.359-1.616c.947-.39 2.043-.575 3.324-.575 1.244 0 2.302.167 3.212.501s1.653.836 2.247 1.486 1.04 1.448 1.318 2.395c.316.947.446 2.024.446 3.268m-3.992.149c0-.687-.056-1.3-.167-1.876s-.297-1.077-.557-1.485a2.6 2.6 0 0 0-1.022-.984c-.427-.242-.965-.353-1.615-.353-.576 0-1.077.111-1.523.315-.427.205-.78.52-1.058.929-.279.408-.483.891-.632 1.467-.148.575-.204 1.225-.204 1.95 0 .686.056 1.3.167 1.875s.297 1.077.557 1.485c.26.427.595.743 1.022.984.427.242.965.353 1.615.353.594 0 1.096-.111 1.523-.315s.78-.52 1.058-.929a4.2 4.2 0 0 0 .613-1.467 7.8 7.8 0 0 0 .223-1.95M75.228 52.074c0 .445-.037.798-.093 1.04q-.084.361-.223.5a1.2 1.2 0 0 1-.408.26c-.186.075-.39.15-.632.205a9 9 0 0 1-.78.13c-.278.037-.575.037-.854.037-.78 0-1.448-.093-2.005-.297-.576-.204-1.04-.501-1.411-.91-.372-.409-.65-.928-.817-1.541s-.26-1.356-.26-2.191V36.012a.5.5 0 0 1 .093-.279.7.7 0 0 1 .315-.204c.149-.056.353-.093.594-.13a12.1 12.1 0 0 1 1.875 0c.26.018.447.074.595.13.149.056.242.13.316.204a.5.5 0 0 1 .093.279v3.082h3.008c.111 0 .185.019.278.074.075.056.149.13.186.26.056.112.093.279.111.483s.037.464.037.761c0 .576-.055.966-.148 1.207-.111.242-.26.372-.446.372h-3.045v6.48c0 .761.111 1.319.353 1.69.241.371.668.557 1.263.557q.306 0 .556-.056a2.5 2.5 0 0 0 .446-.13c.13-.055.242-.093.334-.13a.6.6 0 0 1 .242-.055c.055 0 .13.018.186.055s.092.112.13.223c.037.111.055.26.092.446 0 .223.019.464.019.742M89.953 46.132c0 .464-.112.817-.316 1.058-.204.223-.501.334-.873.334h-8.393c0 .594.075 1.114.205 1.597.148.483.353.891.668 1.226.297.334.687.594 1.17.76.483.168 1.058.26 1.727.26.687 0 1.281-.055 1.801-.148s.966-.204 1.337-.315.687-.223.928-.335c.242-.093.446-.148.595-.148.092 0 .167.018.24.056a.4.4 0 0 1 .15.185c.037.093.074.223.092.39s.019.39.019.632c0 .222 0 .427-.019.575-.018.167-.018.297-.037.409a.873.873 0 0 1-.26.501c-.074.074-.241.167-.557.297-.297.13-.687.242-1.151.371-.464.112-1.003.223-1.597.316s-1.244.13-1.913.13c-1.225 0-2.302-.148-3.23-.464-.929-.316-1.69-.78-2.322-1.411-.612-.632-1.076-1.43-1.392-2.377-.297-.966-.464-2.08-.464-3.38 0-1.225.167-2.34.482-3.323q.474-1.477 1.393-2.507a6.2 6.2 0 0 1 2.228-1.578c.873-.353 1.857-.539 2.953-.539 1.15 0 2.135.167 2.97.52a5.5 5.5 0 0 1 2.025 1.411c.52.594.91 1.319 1.15 2.136a9.5 9.5 0 0 1 .372 2.692v.669zm-3.77-1.115c.037-1.095-.185-1.95-.65-2.58-.464-.632-1.188-.929-2.172-.929-.501 0-.928.093-1.3.278a2.8 2.8 0 0 0-.91.743 3.5 3.5 0 0 0-.557 1.114c-.13.427-.204.892-.223 1.374zM96.322 53.448a.5.5 0 0 1-.093.278.57.57 0 0 1-.316.186 2.3 2.3 0 0 1-.594.111 12 12 0 0 1-1.894 0 2.3 2.3 0 0 1-.594-.111c-.149-.056-.26-.111-.316-.186a.46.46 0 0 1-.093-.278V33.097c0-.112.038-.205.093-.279a.7.7 0 0 1 .316-.204c.148-.056.353-.093.594-.13s.557-.037.947-.037.706.018.947.037c.241.037.446.074.594.13.149.056.26.13.316.204a.46.46 0 0 1 .093.279z"/><script xmlns=""/></svg>