<svg xmlns:xlink="http://www.w3.org/1999/xlink" xmlns="http://www.w3.org/2000/svg" fill="#00112C" viewBox="0 0 160 70" width="160"  height="70" ><script xmlns="" id="eppiocemhmnlbhjplcgkofciiegomcon"/><script xmlns="" id="X-ZdJkxRltw-JfwtZC5wE-fMIo" type="text/javascript"/><script xmlns=""/><script xmlns=""/><script xmlns="" src="chrome-extension://hoklmmgfnpapgjgcpechhaamimifchmp/frame_ant/frame_ant.js"/><path d="M50.564 38.38c-1.68-.11-5.702 1.256-8.31 2.116-.884-1.323-2.078-2.381-3.249-3.108 1.06-.463 2.188-1.08 3.183-1.676.596.507 1.083.992 1.392 1.389-.199.242-.376.463-.464.64-.287.682.42 1.366 1.017.682.198-.22.287-.66-.155-1.344.22-.243.464-.485.685-.706.177.11.796.353 1.282.574-.066.132-.11.264-.155.418-.132.64.332 1.014.774.926.508-.132.597-.771.199-1.168a1.6 1.6 0 0 0-.354-.264l.133-.199c.31-.419.574-.727.773-.992.2.088.442.199.685.33.177.089.332.177.487.265a1 1 0 0 0-.11.22c-.377.927.33 1.147.64 1.125a.675.675 0 0 0 .376-1.102 1.8 1.8 0 0 0-.42-.353c.265-.353.597-.75.862-1.058.331.176.73.33 1.127.507-.022.463.022.882.243 1.102.708.684 1.326-.286.73-.904-.177-.176-.42-.308-.686-.44.155-.794.509-1.808.487-2.844-.022-1.433-2.233-1.631-5.791.44-1.238.728-2.475 1.522-3.846 2.337-1.083-.881-2.541-1.873-4.11-2.38.994-.86 2.099-1.94 3.182-2.998.707.397 1.238.816 1.57 1.146-.465.617-.642 1.323-.045 1.521.619.22 1.171-.397.774-1.124a2 2 0 0 0-.31-.397c.155-.22.354-.485.53-.75.398.155.84.243 1.216.42a2 2 0 0 0-.132.66c.088.794 1.26.86 1.215-.087-.022-.331-.31-.551-.64-.728.176-.375.375-.793.552-1.102.42.132.884.242 1.26.353-.11.352-.133.639-.023.86.376.66 1.526.374 1.061-.618-.088-.176-.331-.33-.618-.463.022-.022.022-.044.044-.088.088-.22.287-.595.442-.992.331.088.663.177.972.243.089 1.234.597 1.366 1.017 1.19.354-.132.685-.926-.265-1.345a2.5 2.5 0 0 0-.487-.154c0-.75.089-1.61.133-2.006.243-2.292-2.122-1.543-3.602-.793-1.282.66-3.338 2.446-4.775 3.791-.044-.022-.11-.066-.176-.088-1.216-.595-2.852-.794-4.244-.662.044-.11.11-.242.155-.352.177-.397.486-1.169.906-2.094.928.044 1.591.242 2.033.463-.022.198-.044.374-.044.55 0 .574.31 1.103.928.816.2-.088.752-.55-.243-1.322-.066-.066-.176-.11-.265-.177.066-.286.133-.595.199-.947.398-.023.862-.045 1.26-.067v.133c.088.727.663 1.168 1.171.793a.656.656 0 0 0-.177-1.102c-.154-.088-.397-.132-.663-.132.022-.33.089-.772.133-1.168.243 0 .53 0 .884-.023h.354v.11c.066.794.618 1.037 1.083.794.442-.242.353-1.08-.685-1.19h-.089c0-.243.022-.53.022-.838v-.463a8 8 0 0 0 1.083-.154c.354.948.707 1.036.973.992.574-.066.884-1.058-.045-1.323a2.4 2.4 0 0 0-.729-.044c-.353-1.234-.575-3.042-1.414-3.174-1.592-.264-3.338 2.204-4.399 3.858-.486.75-1.06 2.028-1.657 3.35-1.945-.066-4.465.463-6.498 2.38.331-1.388 1.525-4.54 3.78-5.091.066.242.132.463.22.617.42.728 1.459.397 1.326-.33-.066-.353-.574-.662-1.282-.618a7 7 0 0 1-.088-.793v-.133c.376-.044.796-.11 1.194-.132.132.684.397.904.75.948.797.088.885-.97.244-1.212-.11-.044-.354-.066-.685-.066a11 11 0 0 1-.133-1.147c.398-.066.752-.132 1.061-.154.044.198.11.375.2.485.397.617 1.303.573 1.259-.176-.044-.573-.641-.684-.818-.684h-.354a2 2 0 0 1-.044-.375c-.044-.374-.066-.705-.11-.991.31-.066.64-.11.928-.155.089.199.199.397.31.551.508.662 1.326.265 1.237-.33-.044-.33-.22-.463-.64-.551-.2-.044-.465-.044-.752-.022-.265-.948-.53-2.227-.906-2.69-.42-.507-1.614-.683-3.559 1.543-1.834 2.094-2.807 5.29-3.16 7.12a18 18 0 0 0-.288 2.116c-.044-.617-.132-1.3-.287-2.116-.354-1.807-1.326-5.026-3.16-7.12-1.968-2.226-3.161-2.05-3.559-1.543-.376.463-.64 1.742-.906 2.69-.287-.023-.553-.023-.752.022-.42.088-.574.22-.64.55-.089.574.707.993 1.215.331.133-.154.221-.352.31-.55.309.043.618.088.928.154-.044.286-.067.617-.11.992-.023.132-.023.264-.045.374h-.354c-.154 0-.773.11-.817.684-.045.771.862.793 1.26.176.088-.132.154-.309.198-.485.31.044.663.088 1.061.154-.022.353-.066.772-.132 1.146-.31 0-.553.023-.685.067-.642.22-.553 1.3.243 1.212.375-.044.619-.264.751-.948.398.022.818.088 1.194.132v.133a7 7 0 0 1-.089.793c-.707-.044-1.215.243-1.282.617-.132.728.906 1.059 1.326.331a2 2 0 0 0 .221-.617c2.255.551 3.448 3.703 3.78 5.092-2.034-1.918-4.553-2.447-6.498-2.38-.575-1.323-1.172-2.602-1.658-3.351-.884-1.565-2.63-4.034-4.221-3.77-.84.155-1.061 1.94-1.415 3.175-.287-.023-.552-.023-.73.044-.95.264-.618 1.256-.043 1.322.265.022.618-.066.972-.992.288.044.619.11 1.083.154v.463c.022.331.022.596.022.838H17.7c-1.017.11-1.127.948-.663 1.19.464.243 1.016 0 1.083-.793v-.11h.353c.354 0 .641.022.884.022.045.396.111.837.133 1.168-.265.022-.508.066-.663.132-.553.287-.442.904-.177 1.102.509.353 1.083-.066 1.172-.793v-.132c.397 0 .862.044 1.237.066.067.33.133.639.2.947a.8.8 0 0 0-.266.177c-.995.771-.442 1.234-.243 1.323.619.286.928-.243.928-.816 0-.154-.022-.353-.066-.551.442-.22 1.105-.419 2.033-.463.42.926.752 1.697.906 2.094.045.132.11.242.155.353-1.392-.133-3.028.066-4.243.661-.067.022-.11.066-.177.088-1.459-1.344-3.492-3.13-4.774-3.791-1.481-.772-3.846-1.5-3.603.793.044.375.133 1.257.133 2.006-.177.044-.354.11-.486.155-.95.418-.62 1.212-.266 1.344.42.154.906.044 1.017-1.19.31-.066.663-.154.973-.243.154.397.331.772.441.992.023.022.023.044.023.088-.288.133-.53.265-.62.463-.463.97.686 1.257 1.062.618.11-.199.088-.507-.022-.86.375-.11.861-.22 1.26-.353.154.309.375.728.552 1.102-.332.177-.619.397-.641.728-.044.97 1.127.881 1.216.088.022-.176-.045-.419-.133-.661.398-.177.818-.265 1.216-.42.176.265.375.53.53.75a3.3 3.3 0 0 0-.31.397c-.42.727.155 1.323.774 1.124.597-.198.42-.904-.044-1.52.332-.331.862-.772 1.57-1.147 1.082 1.036 2.187 2.116 3.182 2.998-1.459.419-2.94 1.433-4 2.315-1.37-.816-2.609-1.61-3.846-2.337-3.537-2.072-5.769-1.896-5.791-.441 0 1.036.354 2.05.486 2.844-.265.11-.508.264-.685.44-.575.618.044 1.588.73.904.22-.22.287-.639.243-1.102.397-.176.795-.33 1.127-.507.265.309.596.706.862 1.058-.177.11-.332.243-.42.353-.42.55.044 1.08.375 1.102.288.022 1.017-.198.641-1.124-.022-.066-.066-.133-.11-.22.133-.089.287-.177.486-.265.265-.132.486-.243.685-.33.2.264.464.572.774.991l.133.198c-.155.089-.288.177-.354.265-.376.397-.287 1.058.22 1.168.443.11.907-.264.774-.925-.022-.155-.088-.287-.154-.42.486-.242 1.105-.462 1.282-.572.22.22.464.462.685.705-.442.683-.354 1.102-.155 1.345.619.683 1.304-.023 1.017-.684a2.2 2.2 0 0 0-.464-.639c.287-.397.795-.904 1.37-1.389.995.595 2.122 1.19 3.205 1.676-1.172.727-2.387 1.785-3.25 3.108-2.607-.86-6.63-2.249-8.31-2.117-1.812.133-1.989.948-1.856 1.698.133.661.64 1.543.928 2.27-.376.243-.663.507-.707.816-.11.771.751 1.058 1.105.463.155-.265.11-.684-.044-1.124.31-.22.73-.463 1.26-.75.177.154.375.33.574.507.177.176.332.309.486.441-.22.176-.397.353-.464.507-.22.617.266.948.553.948.243 0 .663-.176.685-.64 0-.286-.066-.506-.265-.771.464-.309.994-.551 1.15-.64.021-.021.043-.021.066-.043.243.22.53.44.685.595.088.066.243.198.397.353-.442.396-.442.66-.397.881.132.662.884.684 1.149.11.177-.33.022-.683-.243-1.014.353-.242.773-.462 1.083-.639.31.22.663.441.994.617-.199.662-.22 1.125.177 1.39.73.506 1.481-.442.752-1.103-.2-.176-.376-.309-.53-.44.154-.442.397-.993.795-1.72.044-.088.088-.154.133-.243a37 37 0 0 0 4.22 1.014c2.277.397 4.333.309 5.261-.837.11.661.464 1.256.818 1.63.376.398.685.706.84.86v1.301c0 .661-.221 1.102-.53 1.41-.31-.33-.62-.418-.818-.484-.509-.154-1.547-.154-1.636.573-.11.816 1.06.948 1.945.64a2 2 0 0 0 .442-.221c.088.132.155.286.221.463.199.573.354 1.631.376 2.314v5.136c0 .133.044.331.155.331.11 0 .154-.198.154-.33v-5.137c.022-.661.177-1.741.376-2.314.066-.177.133-.33.221-.463.133.088.265.176.442.22.884.309 2.033.177 1.945-.639-.088-.727-1.105-.727-1.636-.573-.198.066-.508.132-.817.485-.31-.309-.53-.75-.53-1.41v-1.301c.176-.155.485-.441.84-.86.353-.397.706-.992.817-1.631.928 1.146 2.984 1.234 5.26.837a37 37 0 0 0 4.221-1.014c.045.089.089.155.133.243.398.705.641 1.278.796 1.72-.177.11-.332.242-.53.44-.708.661.021 1.61.75 1.102.399-.264.377-.75.178-1.389.31-.198.663-.396.994-.617.288.177.73.397 1.083.64-.265.308-.42.66-.243 1.014.287.573 1.039.528 1.15-.11.044-.221.021-.486-.398-.882.154-.155.331-.287.397-.353.177-.154.442-.375.686-.595.022.022.044.044.066.044.133.088.663.352 1.15.639a1.26 1.26 0 0 0-.266.772c.022.463.442.639.685.639.287 0 .752-.33.553-.948-.067-.154-.243-.33-.465-.507.133-.132.288-.265.487-.44.199-.177.398-.354.574-.508.53.287.95.53 1.26.75-.154.418-.199.86-.044 1.124.354.595 1.216.286 1.105-.463-.044-.309-.331-.573-.707-.816.287-.727.795-1.609.928-2.27.287-.772.11-1.587-1.702-1.72m-6.962.198c-.22-.044-.287-.199-.243-.507.022-.176.177-.419.398-.661.022.022.022.044.044.066.442.925 0 1.124-.199 1.102m.707-3.395c.2-.55.973-.419.796.22-.044.133-.199.353-.442.574-.243-.177-.464-.441-.354-.794m2.255 2.182c.575.64-.133.926-.354.75-.177-.154-.31-.375.044-.97.155.088.266.154.31.22m.707-2.116c-.287-.176-.553-.396-.53-.617.044-.573.663-.793.84-.22.066.242-.089.529-.31.837m1.99 2.116c-.156.22-.686.11-.642-.485 0-.088.089-.242.2-.418.552.374.662.617.441.903m.53-2.645c-.31-.198-.575-.44-.42-.771.287-.661.972-.353.862.132-.044.132-.221.375-.442.64m1.746 1.169c.906.462.398 1.278-.11.683-.178-.199-.2-.485-.178-.816.11.044.2.088.288.133m-6.255-2.073c3.16-1.961 6.608-2.733 6.144-.374-.088.44-.287 1.146-.376 1.807-.154-.066-.309-.132-.42-.176-.088-.044-.309-.11-.53-.22.11-.133.199-.22.221-.265.354-.507.332-1.102-.376-1.234-.552-.11-.972.485-.928.903.044.287.243.485.553.684-.288.33-.62.705-.862 1.036-.243-.133-.509-.265-.752-.397-.066-.044-.22-.11-.398-.198.354-.485.442-.706.31-1.058-.288-.684-1.26-.596-1.393.198-.088.551.11.771.53.992-.154.198-.309.375-.441.55-.133.177-.31.376-.442.618-.31-.154-.597-.286-.73-.353-.088-.044-.265-.11-.442-.198.266-.287.464-.507.487-.661.199-.97-.884-1.014-1.238-.507-.464.661-.088 1.058.22 1.278-.198.199-.419.42-.618.617-.155-.22-.376-.44-.663-.705-.199-.176-.42-.397-.663-.595 1.37-.794 2.475-1.543 2.807-1.742m4.266-4.915c1.083.242.861 1.124.243.904-.221-.067-.31-.463-.354-.926a.2.2 0 0 0 .11.022m-6.565 3.593c-.42-.022-.31-.64.022-1.08l.067-.066q.099.132.132.198c.31.507.133.97-.22.948m.95-3.329a2.1 2.1 0 0 1-.264.706c-.332-.176-.597-.419-.553-.728.133-.815.906-.396.818.022m1.813 2.095c.42.462-.287.903-.53.352-.067-.132 0-.397.11-.683.155.088.287.198.42.33m.354-2.756c-.044.132-.133.33-.243.53-.398-.155-.686-.376-.62-.816.155-.75 1.04-.375.863.286m1.724 1.565c.663.353.31.992-.067.816-.243-.11-.31-.441-.176-.926.11.044.176.066.243.11M48 27.843c-.022.088-.066.198-.088.286-.354-.132-.597-.308-.64-.617-.09-.815 1.126-.86.728.33m-4.442-.044c1.945-1.675 5.99-3.814 5.658-.75-.066.551-.088 1.014-.066 1.411l-.862-.198c.177-.596.22-1.19-.288-1.455-.84-.419-1.127.771-.84 1.256.089.133.332.287.642.397-.155.397-.288.772-.42 1.08a20 20 0 0 0-.708-.22c-.154-.044-.331-.088-.486-.133 0-.022.022-.044.022-.066.221-.485.464-1.19-.353-1.432-.597-.199-1.04.639-.774 1.278.088.176.31.33.597.44-.177.331-.398.706-.553 1.059-.155-.066-.31-.11-.42-.154-.154-.067-.442-.155-.751-.265.088-.154.154-.309.22-.44.155-.442.09-1.08-.618-1.08-.73 0-.928 1.057-.597 1.388.155.154.31.242.486.33a5.4 5.4 0 0 1-.464.64 7.8 7.8 0 0 0-1.525-1.147c.752-.705 1.459-1.366 2.1-1.94m.751-2.844c-.442.044-.574-.22-.596-.771 1.06.154.884.75.596.771m1.57-2.513c.331.133.398.86-.155.728-.265-.066-.442-.375-.597-.816.287-.022.508-.022.752.088m-5.437 4.673c.287.199.508.75.199.882-.354.154-.575-.22-.487-.948 0-.044.022-.066.022-.11.11.066.2.132.266.176m-.42-1.741c-.575.022-.929-.727-.53-1.036.242-.176.684.066.707.485 0 .154-.023.353-.045.529-.044.022-.11.022-.132.022m1.856-1.984c0 .11-.022.265-.044.419-.243-.022-.442-.044-.53-.11-.398-.309-.266-.97 0-1.014.243-.066.618.11.574.705m.442 2.293c.53.088.62.352.575.55-.155.552-.884.155-.906-.572.132 0 .243 0 .331.022m-.066-5.952c1.68-.86 2.033.64 2.32 1.785.045.22.111.397.155.574-.331.022-.663.088-.972.11-.066-.948-.332-1.146-.641-1.213-.442-.088-.774.133-.906.42-.155.352-.044 1.212 1.039 1.19h.132c.022.484 0 .947 0 1.278-.398-.022-.84-.022-1.193-.022.044-.309.066-.573.044-.683-.066-.397-.354-.772-.884-.662-.597.11-.663 1.036-.265 1.433.154.155.375.22.729.243a21 21 0 0 0-.11 1.168c-.398 0-.84.022-1.194.044.022-.132.022-.242.022-.375.022-.86-.663-1.102-1.06-.815-.752.55-.2 1.433.397 1.52.066 0 .155.023.243.023-.044.264-.11.529-.155.793-.486-.198-1.171-.352-1.989-.419 1.061-2.402 2.763-5.62 4.288-6.392m1.105 2.469h-.243c-.619-.044-.796-.662-.663-.86.199-.287.796-.375.884.551.022.11.022.22.022.309m-7.294 1.918c-.243.176-.663.066-.884-.816.708-.022 1.238.551.885.816m1.216-2.05c.42.264.155.749-.354.55-.154-.066-.265-.33-.331-.66.287 0 .53.021.685.11m1.503-1.39c.044.375-.619.684-.95-.374.574-.022.906.066.95.375m1.039-2.027c.243.397-.597.86-1.039-.22.486-.023.884 0 1.039.22m-18.124 0c.155-.22.553-.265 1.04-.22-.443 1.08-1.305.617-1.04.22m1.04 2.028c.021-.309.353-.419.95-.375-.332 1.058-.995.772-.95.375m1.856 1.94c-.509.198-.774-.287-.354-.552.155-.088.398-.132.685-.11-.066.331-.177.595-.331.662m.862 1.499c-.354-.265.176-.86.884-.816-.244.882-.641.992-.884.816m-9.681-.948c-.553.132-.486-.596-.155-.728.243-.11.487-.11.752-.088-.155.441-.332.75-.597.816m1.415 1.785c-.266-.022-.465-.617.596-.771-.022.529-.154.793-.596.771m1.436 1.257c-.044-.199.044-.463.575-.551.088-.023.199-.023.331-.023-.044.75-.751 1.125-.906.574m1.017-2.822c-.044-.595.331-.75.597-.705.265.044.397.705 0 1.014-.089.066-.288.088-.53.11a1.8 1.8 0 0 1-.067-.419m1.238 4.63c-.31-.133-.089-.684.198-.883.067-.044.155-.11.266-.176 0 .044.022.066.022.11.088.706-.133 1.102-.486.948m.442-3.175c.022-.419.464-.661.707-.485.398.309.044 1.058-.53 1.036h-.111a3 3 0 0 1-.066-.551m.265 1.653c-.044-.264-.11-.529-.155-.793.088 0 .177 0 .243-.022.597-.067 1.15-.97.398-1.521-.42-.309-1.083-.044-1.06.815 0 .133.021.243.021.375a21 21 0 0 0-1.215-.044 21 21 0 0 0-.11-1.168c.353-.023.574-.089.729-.243.397-.397.309-1.322-.266-1.433-.53-.11-.817.265-.884.662-.022.11 0 .374.044.683-.375 0-.795 0-1.193.022 0-.33-.022-.794 0-1.279h.133c1.082.023 1.193-.86 1.038-1.19a.82.82 0 0 0-.906-.419c-.31.066-.575.265-.64 1.213-.31-.022-.642-.088-.973-.11.044-.177.11-.353.154-.574.288-1.146.641-2.623 2.321-1.785 1.525.771 3.227 4.012 4.31 6.348-.818.11-1.503.265-1.99.463M18.14 22.2c0-.11.022-.199.022-.309.088-.948.685-.86.884-.55.155.22-.044.837-.663.859a.45.45 0 0 1-.243 0m-6.41 7.605c-.618.22-.862-.662.244-.904.044 0 .066-.022.11-.022-.044.485-.133.86-.354.926m1.768-1.962c-.375-1.19.84-1.169.73-.33-.044.308-.287.484-.641.616-.022-.088-.044-.176-.088-.286m.244 3.042c-.376.176-.73-.463-.067-.816.067-.044.133-.066.221-.11.155.485.089.794-.154.926m1.657-2.38c-.177-.662.708-1.037.862-.287.089.44-.22.66-.619.815a3.4 3.4 0 0 1-.243-.529m.906 3.107c-.22.53-.95.11-.53-.352.133-.133.265-.243.42-.331.11.309.155.551.11.683m1.26-2.447c-.088-.418.685-.86.818-.022.044.309-.221.552-.553.728a4 4 0 0 1-.265-.706m.95 3.329c-.353.022-.53-.419-.22-.97q.033-.066.132-.198l.066.066c.332.463.443 1.08.023 1.102m-.021-1.653c-.133-.177-.31-.397-.465-.64a1.9 1.9 0 0 0 .487-.33c.331-.33.132-1.389-.597-1.389-.685.022-.774.661-.619 1.08.044.133.133.287.221.441-.287.11-.575.198-.751.265-.11.044-.266.088-.42.154-.155-.353-.376-.727-.553-1.058.287-.132.508-.265.597-.441.287-.64-.155-1.477-.774-1.279-.818.265-.574.97-.353 1.433 0 .022.022.044.022.066-.155.044-.332.089-.486.133-.177.044-.443.132-.708.22-.11-.308-.265-.683-.42-1.08.31-.11.553-.242.641-.397.288-.485 0-1.675-.84-1.256-.486.264-.464.86-.287 1.455-.265.066-.575.132-.84.198 0-.375-.022-.838-.088-1.41-.332-3.043 3.713-.905 5.658.749a51 51 0 0 1 2.055 1.895c-.596.42-1.127.838-1.48 1.19m-8.4 5.73c-.508.596-1.016-.242-.11-.682l.266-.133c.044.331 0 .617-.155.816m1.194-2.512c-.11-.463.575-.794.862-.132.133.33-.11.595-.42.771-.243-.242-.42-.485-.442-.639m.973 3.307c-.221-.287-.11-.53.442-.882.11.176.177.308.199.419.044.573-.487.683-.641.462m1.68-2.954c.176-.573.795-.353.84.22.021.22-.244.441-.531.617-.221-.308-.376-.595-.31-.837m1.348 3.703c-.2.176-.928-.132-.354-.75.066-.066.177-.132.31-.22.353.595.198.838.044.97m1.525-2.116c-.221-.243-.398-.441-.442-.573-.177-.64.619-.794.795-.22.155.33-.066.594-.353.793m1.348 2.072c.044.309-.022.463-.243.507-.199.044-.641-.177-.199-1.102 0-.022.022-.044.044-.066.2.242.354.463.398.66m.177-1.896c-.265.265-.486.485-.641.706l-.619-.618c.31-.22.685-.617.221-1.278-.354-.507-1.437-.463-1.238.507.022.154.243.397.487.661-.177.088-.354.154-.442.199-.133.066-.42.198-.73.352-.155-.242-.331-.44-.442-.617-.133-.176-.287-.353-.442-.551.42-.22.619-.419.53-.992-.132-.816-1.105-.882-1.392-.198-.155.352-.066.573.31 1.058-.177.088-.332.154-.398.198-.243.132-.509.242-.752.397-.243-.33-.574-.706-.862-1.036.31-.199.53-.397.553-.684.044-.418-.376-1.036-.928-.903-.708.154-.708.727-.354 1.234.022.044.11.132.22.265-.22.11-.441.176-.53.22-.132.044-.265.11-.42.176-.088-.66-.287-1.388-.375-1.807-.464-2.359 3.006-1.61 6.144.375.332.198 1.415.925 2.785 1.741a6 6 0 0 0-.685.595m-8.797 7.296c-.044-.198.133-.44.597-.793.044.176.088.33.088.463.023.727-.618.815-.685.33m2.144-2.16c-.22-.198-.42-.397-.464-.507-.066-.176-.044-.661.398-.683.31-.022.552.617.354.882-.089.11-.177.22-.288.308m1.525 2.249c-.022.529-.773.639-.796.044 0-.199.221-.42.509-.64.199.22.31.397.287.596m1.282-1.94-.022.022c-.31-.287-.53-.551-.508-.728.066-.639.618-.507.773-.154.11.22.133.551-.243.86m1.591 2.314c-.132.53-.707.353-.751 0-.022-.242.155-.463.42-.683.199.242.376.507.331.683m1.061-1.962c-.53-.44-.707-.837-.398-1.08.089-.066.376-.176.553.044s.354.596-.155 1.036m1.901 1.83c.088.287-.066.485-.221.551-.221.088-.707-.044-.42-1.146.332.22.597.419.641.595m-.685-1.565c-.066.154-.11.309-.155.463-.132-.088-.265-.154-.442-.265-.132-.066-.243-.154-.354-.22l.023-.022c.53-.485.287-1.433-.332-1.543-.774-.154-1.017.683-.774 1.058.111.176.266.33.465.485-.044.022-.11.066-.155.088q-.53.298-.862.53c-.044-.045-.11-.089-.155-.155-.265-.243-.619-.507-.928-.772.265-.198.376-.374.376-.727 0-.441-.42-.86-.752-.86-.574 0-.994.507-.597 1.147.067.11.221.264.376.418-.331.199-.773.42-1.171.684-.133-.133-.265-.287-.442-.441-.11-.088-.354-.287-.597-.507.796-.661.199-1.587-.31-1.61-.508-.044-.75.375-.773.728-.022.287.199.551.508.838-.353.242-.751.44-1.127.661 0-.022-.022-.044-.022-.066-.73-1.543-.884-2.557-.287-2.976.928-.64 3.05-.375 5.813.573 1.06.375 2.166.728 3.293 1.08-.2.441-.442.904-.62 1.411m10.52-1.741c-1.436 2.116-5.57 1.102-7.625.617-.376-.088-.95-.265-1.657-.507a8.5 8.5 0 0 1 .773-1.08c.774-.882 1.68-1.521 2.52-1.984.994.419 1.9.683 2.586.661 1.591-.066 2.077-1.19.64-1.83-.618-.286-1.878.023-3.226.772-.354-.154-.73-.309-1.127-.507a28 28 0 0 1-2.144-1.168c.906-.728 1.945-1.433 2.785-1.808.486-.22.906-.397 1.281-.529.288.243.553.463.818.64.73.55 2.122 1.234 2.476.462.486-1.058-.862-1.697-1.724-1.675-.487 0-.995.088-1.481.22a38 38 0 0 1-1.857-1.74c-.199-.2-.707-.684-1.348-1.302a7.3 7.3 0 0 1 2.255-.683c.729-.11 1.414-.088 2.055-.022.796 1.742 1.304 2.204 2.011 2.226.884.045 1.216-.881.464-1.63-.398-.397-1.215-.684-2.188-.838a74 74 0 0 1-1.127-2.513c.199 0 .42.022.641.044 2.52.264 4.288 1.146 5.813 2.733-.066.066-.11.133-.177.199-.265.33-1.503 1.432-1.415 3.064.067 1.036.774 1.454 1.526 1.83-.73.374-1.614.947-1.526 2.336.067.992.818 1.499 1.592 1.984-.177.11-.354.242-.553.374-.707.485-.994 1.08-1.06 1.654m-5.525-3.175c.84-.396 1.591-.595 2.033-.66.575-.067 1.393.11 1.304.594-.066.463-1.06.904-3.337.066m.707-4.276c1.017-.287 1.636-.22 2.188.044.398.176.906.882.332 1.058s-1.37-.176-2.52-1.102m1.26-3.924c1.105.22 1.923.662 2.1 1.147.375.947-.84.903-1.393.154a13 13 0 0 1-.707-1.3m4.818.948c.133-.176.288-.33.42-.507v4.299c-1.26-.662-2.033-1.676-.42-3.792m.42 8.068c-.751-.485-1.304-.904-1.26-1.94.022-.992.597-1.433 1.26-1.807zm-1.304 2.359c.022-.86.641-1.345 1.326-1.786v4.43c-.64-.572-1.37-1.476-1.326-2.644m-1.414-16.952q-.597-.363-1.128-.463c.067-.308.11-.639.133-.947.177.022.331.022.442 0 .752-.177.973-1.367.155-1.477-.663-.088-.84.154-.929 1.124-.22-.022-.442-.066-.64-.088-.177-.022-.354-.044-.53-.044.021-.22.043-.463.065-.75 0-.132.023-.264.023-.375 1.392.089 1.392-1.322.84-1.565-.752-.308-1.084.309-1.128.882 0 .066 0 .154-.022.265-.31-.044-.663-.089-1.017-.133.089-.418.133-.925.177-1.322 1.481.154 1.481-1.477.73-1.587-.663-.088-.907.22-1.061 1.19-.288-.044-.575-.088-.862-.11.331-.948.486-2.116 1.083-2.425.95-.485 3.36 1.499 4.663 4.497 1.437 3.328 1.702 6.04 1.724 7.539-.398-1.411-1.282-3.307-2.718-4.21m-.95-1.719c.021-.264.043-.485.066-.617.088-.507.84-.573.795.066-.022.463-.42.551-.862.551m-1.415-1.675c.066-.816.199-1.036.619-1.058.199-.022.596.485.132.948-.11.11-.398.132-.751.11m-1.15-1.83c0-.132.023-.242.023-.33.088-.75.795-.904.928-.463.11.396-.133.86-.752.815-.066 0-.132-.022-.199-.022m4.178 28.568c-.597-.066-.818-.705 0-.771.464-.044.928.088 1.281.44-.464.31-1.016.375-1.281.331m4.508-.771c.796.088.597.705 0 .771-.287.044-.817-.022-1.282-.33.354-.353.818-.486 1.282-.441m-1.768.485c-.22.352-.398.86-.486 1.63-.088-.77-.287-1.3-.486-1.63.265-.287.42-.596.486-.772.066.198.221.507.486.772m1.415-26.364c1.304-2.998 3.713-5.004 4.663-4.497.597.309.752 1.477 1.083 2.425a12 12 0 0 0-.862.11c-.154-.97-.398-1.278-1.06-1.19-.73.11-.752 1.741.729 1.587.044.419.088.904.177 1.323-.332.044-.686.088-1.017.132 0-.11-.022-.199-.022-.265-.044-.573-.376-1.19-1.127-.881-.575.242-.553 1.653.84 1.565 0 .11.022.242.022.374.022.287.044.53.066.75-.177 0-.354.022-.53.044s-.398.066-.642.088c-.088-.97-.287-1.212-.928-1.124-.796.11-.597 1.3.155 1.477.11.022.265.022.442 0 .022.308.066.639.133.948q-.531.099-1.128.463c-1.436.903-2.32 2.799-2.74 4.232.044-1.521.331-4.232 1.746-7.561m4.53-1.918c-.066 0-.132.022-.198.022-.62.044-.862-.419-.752-.815.133-.463.84-.287.929.462 0 .089 0 .199.022.331m-1.149 1.83c-.353.022-.64 0-.751-.133-.464-.462-.066-.947.133-.947.42.044.53.264.618 1.08m-1.414 1.675c-.442 0-.84-.088-.862-.551-.044-.64.707-.573.795-.066.023.132.045.353.067.617m-3.67 7.737c.134.176.288.33.42.507 1.614 2.116.84 3.13-.42 3.792zm1.26 6.635c.023 1.036-.53 1.477-1.26 1.94V34.39c.664.352 1.239.815 1.26 1.807m-1.281 6.944v-4.43c.685.44 1.282.925 1.326 1.785.044 1.168-.685 2.072-1.326 2.645m9.327-2.006c-2.056.485-6.189 1.499-7.625-.617-.067-.574-.354-1.169-1.061-1.698a8 8 0 0 0-.553-.374c.774-.485 1.503-.992 1.592-1.984.088-1.367-.796-1.962-1.525-2.337.751-.375 1.458-.771 1.525-1.83.088-1.63-1.128-2.733-1.415-3.063-.066-.067-.11-.133-.177-.199 1.503-1.587 3.293-2.469 5.79-2.69.222-.021.443-.021.642-.043a75 75 0 0 1-1.127 2.513c-.973.132-1.813.419-2.188.837-.752.772-.398 1.698.464 1.632.707-.044 1.215-.507 2.011-2.227a7.2 7.2 0 0 1 2.055.022c.862.11 1.614.375 2.255.684-.641.617-1.15 1.102-1.348 1.3-.708.706-1.326 1.3-1.857 1.742a5.6 5.6 0 0 0-1.48-.22c-.84-.023-2.21.594-1.725 1.674.354.772 1.746.089 2.476-.462.265-.199.53-.42.818-.64.375.133.795.287 1.281.53.84.374 1.88 1.08 2.785 1.807-.685.397-1.392.793-2.166 1.168a12 12 0 0 1-1.127.507c-1.348-.75-2.608-1.058-3.227-.771-1.436.639-.95 1.785.641 1.83.685.021 1.591-.243 2.586-.662.84.463 1.746 1.102 2.52 1.984.265.308.53.683.773 1.08-.685.22-1.26.419-1.613.507M36.176 29.12c-.265.53-.508.992-.73 1.279-.552.75-1.745.793-1.392-.154.221-.463 1.017-.904 2.122-1.125m1.26 3.924c-1.15.948-1.923 1.279-2.542 1.102-.552-.176-.044-.882.332-1.058.574-.264 1.193-.33 2.21-.044m.707 4.276c-2.276.838-3.271.397-3.337-.066-.067-.485.751-.661 1.304-.595.464.066 1.193.265 2.033.661m4.53 7.032c-.154-.066-.286-.264-.22-.55.044-.177.31-.376.64-.596.288 1.102-.176 1.234-.42 1.146m1.703-2.38c-.509-.441-.354-.816-.177-1.036a.42.42 0 0 1 .575-.045c.309.243.132.64-.398 1.08m1.812 1.961c-.022.375-.619.53-.751 0-.045-.198.11-.463.331-.683.265.22.442.463.42.683m.862-2.292-.022-.022c-.376-.287-.332-.64-.243-.86.155-.353.73-.485.773.154.023.177-.22.441-.508.728m2.033 1.962c0 .595-.773.463-.795-.044 0-.177.088-.375.287-.574.287.199.508.42.508.618m.752-2.293a1.3 1.3 0 0 1-.287-.308c-.221-.287.022-.904.353-.882.442.022.464.507.398.683-.044.11-.243.309-.464.507m2.144 2.16c-.089.485-.707.397-.685-.33 0-.133.044-.309.088-.463.464.353.619.595.597.793m-.707-1.344c0 .022-.023.044-.023.066-.353-.22-.773-.44-1.127-.661.31-.287.53-.573.509-.838-.023-.353-.266-.772-.774-.727-.508.022-1.105.947-.31 1.609-.243.22-.486.419-.596.507-.177.154-.31.308-.442.44-.376-.242-.818-.484-1.172-.683.177-.154.31-.308.376-.419.398-.639-.022-1.146-.597-1.146-.353 0-.751.441-.751.86 0 .352.11.507.376.727-.31.265-.663.551-.929.772-.044.044-.11.088-.154.154a8 8 0 0 0-.862-.529c-.067-.022-.11-.066-.155-.088.199-.154.354-.309.464-.485.265-.397 0-1.212-.773-1.058-.62.11-.84 1.058-.332 1.543l.022.022c-.11.066-.22.154-.353.22-.155.11-.31.177-.442.265-.045-.154-.111-.287-.155-.463a8.3 8.3 0 0 0-.685-1.41c1.127-.331 2.21-.706 3.293-1.08 2.763-.949 4.906-1.213 5.813-.574.663.419.53 1.433-.221 2.976M84.69 23.015h-.575L80.093 34.52c-.31.86-.73 1.3-1.327 1.3h-.486v.552h3.713v-.551h-.574c-.928 0-.95-.617-.73-1.257l.818-2.358h4.553l1.392 3.615h-1.458v.55h5.061v-.55h-1.48zm-2.984 8.574 1.945-5.576 2.166 5.576zM125.224 31.899c-.199 2.976-1.26 3.902-4.398 3.902h-1.415V23.589h1.415v-.551h-4.774v.55h1.348v12.235h-1.348v.55h9.636v-4.452h-.464zM142.287 25.507c0-1.345 1.348-2.072 2.674-2.072 2.475 0 3.36 1.455 3.868 3.681h.508v-4.078h-.464c-.066.551-.287.727-.553.727-.64 0-1.348-.86-3.403-.86-2.122 0-4.222 1.434-4.222 3.726 0 4.409 7.648 3.262 7.648 6.944 0 1.63-1.503 2.49-2.94 2.49-2.763 0-4.067-2.16-4.398-4.166h-.486v4.497h.464c.088-.485.398-.55.574-.55.884 0 1.857.77 3.868.77 2.586 0 4.575-1.807 4.575-4.077 0-4.85-7.713-2.932-7.713-7.032M136.761 31.898c-.198 2.976-1.259 3.902-4.376 3.902h-1.414v-6.018h1.436c.818 0 1.415.353 1.415 1.896h.53v-4.343h-.53c0 1.543-.597 1.896-1.415 1.896h-1.436v-5.643h2.763c1.591 0 2.387.948 2.63 3.152h.464v-3.725h-9.217v.55h1.349V35.8h-1.349v.55h9.637v-4.452zM104.139 23.588h1.348v12.234h-1.348v.55h4.752v-.55h-1.37v-6.04h1.458c.818 0 1.415.353 1.415 1.896h.53v-4.343h-.53c0 1.543-.597 1.896-1.415 1.896h-1.458v-5.643h2.541c1.592 0 2.387.948 2.631 3.152h.464v-3.725h-9.018zM92.226 23.588h1.348v12.234h-1.348v.55h4.752v-.55h-1.37v-6.04h1.436c.818 0 1.415.353 1.415 1.896h.53v-4.343h-.53c0 1.543-.597 1.896-1.415 1.896h-1.436v-5.643h2.52c1.59 0 2.386.948 2.629 3.152h.465v-3.725h-9.018v.573zM75.583 32.383c-.354-2.248-1.503-2.866-2.94-2.998 1.79-.353 3.271-1.323 3.271-3.152 0-2.822-2.961-3.218-5.15-3.218h-4.773v.55h1.348v12.213H65.99v.55h4.774v-.55H69.35v-5.952h1.57c2.01 0 2.188.75 2.43 2.27.133.816.133 1.125.288 2.095.221 1.476.928 2.821 3.713 2.182v-.551c-1.79.396-1.547-1.984-1.768-3.439m-4.84-3.218H69.35v-5.6h1.415c1.503 0 2.784.221 2.784 2.646s-1.281 2.954-2.806 2.954M122.129 44.793c.641-.176.973-.55.973-1.08 0-.771-.619-1.168-1.835-1.168h-1.702v.264h.465v4.189h-.465v.264h1.746v-.264h-.486V44.97h.509c.663 0 .751.22.817.771.022.176.045.397.111.728.066.374.199.86.884.86.133 0 .331-.023.486-.067v-.264c-.044.022-.132.022-.177.022-.773 0 .022-1.94-1.326-2.227m-.862-.088h-.442V42.81h.442c.509 0 .929.067.929.882.022.882-.487 1.014-.929 1.014M90.9 42.789c.066 0 .133-.044.155-.243h.243v1.5h-.265c-.11-.75-.442-1.301-1.304-1.301-.442 0-.906.242-.906.683 0 .661.596.882 1.237 1.102.707.242 1.459.507 1.459 1.41 0 .816-.73 1.456-1.636 1.456-.751 0-1.149-.309-1.348-.309-.066 0-.132.044-.177.198h-.243v-1.63h.266c.044.396.309 1.476 1.48 1.476.486 0 .995-.286.995-.837 0-.596-.597-.838-1.216-1.08-.707-.265-1.459-.596-1.459-1.411 0-.838.774-1.345 1.526-1.345.685 0 .994.33 1.193.33M98.768 42.832h.287c.266 0 .354.132.354.33v2.623l-2.32-3.218h-1.504v.264h.62v3.858c0 .22-.133.33-.332.33h-.288v.265h1.57v-.264h-.31c-.265 0-.353-.133-.353-.331v-3.483l2.94 4.078h.264V43.14c0-.22.133-.33.332-.33h.287v-.265h-1.547zM92.58 42.831h.596v4.21h-.596v.265h1.967v-.264h-.597v-4.21h.597v-.265H92.58zM112.162 42.567h-1.658v.264h.465v4.189h-.465v.264h1.746v-.264h-.486v-1.742h.398c1.216 0 1.812-.595 1.812-1.367.022-.771-.574-1.344-1.812-1.344m0 2.447h-.398V42.83h.398c.508 0 .995.199.995 1.014 0 .882-.553 1.169-.995 1.169M106.459 46.645l.266-.794h1.547l.442 1.19h-.531v.265h1.879v-.264h-.53l-1.702-4.475h-.243l-1.415 4.034c-.11.286-.243.419-.42.419h-.199v.264h1.415v-.264h-.288c-.221.022-.331-.089-.221-.375m.354-1.08.641-1.874.685 1.874zM127.567 45.675c-.045 1.014-.31 1.367-1.371 1.367h-.574v-2.028h.574c.243 0 .332.088.332.661h.265v-1.61h-.265c0 .574-.111.662-.332.662h-.574v-1.895h1.038c.531 0 .686.352.774 1.102h.265v-1.39h-3.337v.265h.464v4.189h-.464v.264h3.47v-1.631h-.265zM116.825 42.457c-1.304 0-2.099 1.102-2.099 2.469s.795 2.469 2.099 2.469 2.1-1.103 2.1-2.47c0-1.344-.796-2.468-2.1-2.468m0 4.673c-.906 0-1.237-.97-1.237-2.182s.331-2.182 1.237-2.182 1.238.97 1.238 2.182c-.022 1.19-.354 2.182-1.238 2.182M103.409 45.455h.508v.837c0 .463-.375.838-.928.838-.862 0-1.216-.904-1.216-2.182 0-1.41.442-2.204 1.216-2.204.729 0 1.348.595 1.392 1.41h.266v-1.609h-.266c0 .176-.044.33-.154.33-.199 0-.509-.418-1.216-.418-1.149 0-2.144 1.124-2.144 2.49 0 1.368.928 2.47 2.144 2.47.619 0 1.304-.33 1.702-.75v-1.19h.42v-.265h-1.702v.243z"/><script xmlns=""/></svg>