<svg xmlns:xlink="http://www.w3.org/1999/xlink" xmlns="http://www.w3.org/2000/svg" fill="none" viewBox="0 0 160 70" width="160"  height="70" ><script xmlns="" id="eppiocemhmnlbhjplcgkofciiegomcon"/><script xmlns="" id="33eD0A7Uzi2-aUcVNsAfSY-PA7" type="text/javascript"/><script xmlns=""/><script xmlns=""/><script xmlns="" src="chrome-extension://hoklmmgfnpapgjgcpechhaamimifchmp/frame_ant/frame_ant.js"/><path fill="#00112C" d="M85.501 43.502c-2.692 2.472-6.537 3.155-8.968 1.622 3.483-2.092 12.772-8.433 12.772-8.433a19 19 0 0 0-.595-1.908c-.202-.48-1.92-4.754-5.943-6.406a9.16 9.16 0 0 0-7.399.303 11.7 11.7 0 0 0-4.195 3.245c-2.11 2.62-3.049 6.692-2.538 10.388a10.46 10.46 0 0 0 4.594 7.506c4.66 3.114 11.464 2.24 16.183-2.086zm-10.198-7.857c2.425-4.07 6.02-2.14 6.805-.76-1.997 1.319-4.91 3.125-7.898 4.932a9.04 9.04 0 0 1 1.093-4.172M107.805 29.303c.12.65.164 1.312.13 1.973a16 16 0 0 1-.398 2.728c-.844 3.66-4.576 9.467-6.192 9.782a1 1 0 0 1 0-.16v-.042c.737-5.694 1.313-10.198-1.557-13.134-.927-.957-3.138-2.49-7.393-2.039l-.72.078-.689 6.537 1.189-.226a8.6 8.6 0 0 1 2.11-.178 1.44 1.44 0 0 1 1.33 1.319c.155 1.735-.26 4.95-.516 6.882v.25c-.595 4.326.267 6.982 2.555 7.892a5.6 5.6 0 0 0 2.092.416 6.1 6.1 0 0 0 2.187-.446c3.655-1.379 9.966-7.678 11.815-15.452a22 22 0 0 0 .594-4.094q.039-1.036-.066-2.068h-6.471zM122.608 26.962a4.208 4.208 0 1 0 0-8.416 4.208 4.208 0 0 0 0 8.416M122.787 45.884c-.595-.868.701-7.726 1.634-12.278l.897-4.32h-7.292l-.594 2.893c-2.335 11.47-2.93 15.256.119 18.548q.315.318.666.594l.986.844 5.224-5.182a3.7 3.7 0 0 1-1.64-1.1M60.155 40.446a13.67 13.67 0 0 0 7.315-10.483C68.16 23.355 63.37 18 56.773 18s-12.522 5.349-13.217 11.963c0 .202-.035.404-.047.594 0 .101-.036.202-.048.303l-.356 3.322c-1.462-.22-2.699-.641-3.435-1.467L34 37.825c2.193 2.46 5.271 3.322 8.32 3.655l-.915 8.665h7.131l.88-8.367q1.134.05 2.246.279c.523.125 1.236 1.188 1.92 2.24 1.866 2.823 4.689 7.09 12.278 7.09l.766-7.244c-3.72 0-5.01-1.522-6.471-3.697M55.4 35.098h-5.283l.553-5.278a6.01 6.01 0 0 1 5.836-5.277 4.666 4.666 0 0 1 4.754 5.277 6.01 6.01 0 0 1-5.866 5.278z"/><script xmlns=""/></svg>