<svg xmlns:xlink="http://www.w3.org/1999/xlink" xmlns="http://www.w3.org/2000/svg" fill="#00112C" viewBox="0 0 160 70" width="160"  height="70" ><script xmlns="" id="eppiocemhmnlbhjplcgkofciiegomcon"/><script xmlns="" id="jflSLFPxPxu7v_lJyQ40AX59u7" type="text/javascript"/><script xmlns=""/><script xmlns=""/><script xmlns="" src="chrome-extension://hoklmmgfnpapgjgcpechhaamimifchmp/frame_ant/frame_ant.js"/><path d="M125.991 41.357c-1.231 3.333-4.41 5.538-9.794 5.538-4.41 0-8.82-2.564-7.641-8.512.872-4.974 5.385-8.358 10.615-8.358 5.845 0 8.512 4 7.486 8.717l-.205 1.077h-11.024c-.103.41-.154.82-.206 1.23 0 1.436.77 1.898 1.641 1.898 1.026 0 1.949-.667 2.308-1.641zm-5.692-4.768.102-.36c.206-1.23-.358-2.204-1.64-2.204s-2.308.871-2.564 2.564zm-12.819-6.154c-1.641 0-3.128.82-4 2.205h-.205l.307-2h-7.076l-.461 2.103 3.948-.462-.102.36-4 .666-2.666 13.23h7.64s.769-3.846 1.23-6.051c.77-3.641 2.667-4.308 4-4.308.667-.051 1.333.154 1.897.564l1.231-5.845a2.64 2.64 0 0 0-1.743-.462m-69.686 6.718c-3.077-.975-5.384-2.77-5.384-6.205 0-4.974 4.973-7.845 11.793-7.948 5.64 0 9.487 2.41 8.82 7.076H44.87c.308-1.23-.462-2-1.897-2-1.077 0-1.898.462-2 1.231-.205.872.461 1.538 1.897 1.897 1.23.36 2 .564 3.282.872 3.435 1.077 5.076 3.077 5.486 5.18l-10.152 1.076zm.307 5.538.667-3.282H30.05c-.564 5.384 3.64 7.64 9.178 7.64 5.282 0 10.923-1.846 12.05-6.615zm45.124-11.025c1.231-.974 2.718-1.538 4.308-1.538 2.307 0 4.102.974 4.974 2.871l-17.742 1.897 2.307-11.332h7.64l-1.743 8.153h.205v-.051zm-.461 3.743c-.564.923-1.026 2-1.23 3.077-.667 3.179.102 4 .973 4 1.231 0 2.308-1.231 2.872-3.949.308-1.743.205-2.974-.205-3.538l7.64-1.23c.41 1.486.462 3.025.103 4.512-1.128 5.743-4.615 8.614-8.41 8.614-1.743 0-3.64-.461-4.41-2.307h-.205l-.564 1.897h-6.922l2-9.794zm-21.075 0c.154-.974.923-1.692 1.897-1.743.667.051 1.23.615 1.18 1.282 0 .102-.052.256-.052.359l-.102.564 7.076-.77c-.462-3.64-3.948-5.281-7.846-5.281-5.948 0-8.82 2.974-9.383 5.538l-.103.359h7.18zm-8.82 4.82c-.256.615-.359 1.333-.359 2 0 2.513 1.898 4.718 4.974 4.718 1.949.102 3.846-.616 5.282-2h.102l-.205 1.538h7.179l1.743-8.358c.103-.308.206-.667.206-.974zm10.82.667c-.205 1.23-1.077 2.205-2.205 2.205s-1.538-.872-1.436-1.898c.205-.871 1.077-1.64 2.564-1.64h1.23zM129.58 46.434a1.43 1.43 0 0 1-1.026.41c-.41 0-.717-.154-1.025-.41a1.43 1.43 0 0 1-.41-1.026c0-.41.153-.718.41-1.025a1.43 1.43 0 0 1 1.025-.41c.411 0 .718.154 1.026.41s.41.615.41 1.025c.051.41-.102.77-.41 1.026m-1.846-1.897a1.13 1.13 0 0 0-.359.871c0 .36.103.616.359.872s.513.36.872.36.615-.104.871-.36c.257-.256.359-.513.359-.872 0-.358-.102-.615-.359-.871a1.12 1.12 0 0 0-.871-.36c-.359 0-.667.155-.872.36m.82.102c.206 0 .359 0 .411.051.153.052.256.206.256.41q0 .232-.154.308c-.051.052-.154.052-.205.052a.28.28 0 0 1 .256.154c.052.102.103.153.103.256v.308h-.256v-.154c0-.205-.052-.308-.154-.36-.051-.05-.154-.05-.308-.05h-.205v.615h-.308v-1.59zm.308.257c-.051-.052-.205-.052-.359-.052h-.256v.564h.256c.103 0 .205 0 .257-.05.102-.052.153-.103.153-.257.052-.103 0-.154-.051-.205"/><script xmlns=""/></svg>