<svg xmlns:xlink="http://www.w3.org/1999/xlink" xmlns="http://www.w3.org/2000/svg" fill="#00112C" viewBox="0 0 160 70" width="160"  height="70" ><script xmlns="" id="eppiocemhmnlbhjplcgkofciiegomcon"/><script xmlns="" id="QFxtmMR9PL9XsGECqI1zXKMUn4" type="text/javascript"/><script xmlns=""/><script xmlns=""/><script xmlns="" src="chrome-extension://hoklmmgfnpapgjgcpechhaamimifchmp/frame_ant/frame_ant.js"/><path fill-rule="evenodd" d="M91.88 30.802c-.678 0-1.16.236-1.479.72-.319.489-.48 1.188-.48 2.075s.161 1.588.482 2.082c.316.49.798.729 1.476.729.676 0 1.161-.24 1.483-.729.325-.494.49-1.195.49-2.083 0-.886-.166-1.585-.49-2.074-.322-.484-.807-.72-1.483-.72M58.106 34.156c-.31.22-.46.548-.46 1.003q0 .435.155.675c.067.105.095.145.297.307-.004-.001.463.367 1.512.303.738-.045 1.393-.186 1.393-.186v-2.357s-.662-.11-1.4-.12c-1.052-.014-1.5.375-1.497.375M71.138 30.77c-.678 0-1.158.268-1.476.753-.208.32-.342.73-.416 1.223h3.68c-.037-.476-.13-.903-.342-1.223-.322-.485-.769-.754-1.447-.754" clip-rule="evenodd"/><path fill-rule="evenodd" d="M115.836 33.895c-.014.134-.15.135-.15.135l-5.157-.004c.032.788.22 1.345.601 1.724.371.372.963.609 1.764.61 1.224.003 1.747-.244 2.117-.382 0 0 .143-.052.194.089l.338.95c.067.16.013.215-.044.248-.323.18-1.108.514-2.597.518-.724.002-1.354-.103-1.873-.304a3.4 3.4 0 0 1-1.297-.864 3.4 3.4 0 0 1-.747-1.319 5.6 5.6 0 0 1-.234-1.655c0-.588.076-1.144.226-1.654.15-.514.386-.967.698-1.347a3.4 3.4 0 0 1 1.188-.91c.475-.224 1.059-.334 1.702-.334.554 0 1.058.12 1.478.302q.482.21.98.75c.209.226.529.722.659 1.214.331 1.168.159 2.178.154 2.233m-7.637 3.496c-.576.228-1.377.387-2.157.387-1.321 0-2.333-.383-3.008-1.139-.674-.75-1.014-1.778-1.014-3.048 0-.59.082-1.144.249-1.65a3.8 3.8 0 0 1 .74-1.33c.328-.376.74-.677 1.228-.894.488-.218 1.058-.328 1.697-.328.429 0 .815.026 1.143.076.353.054.819.181 1.016.259.037.014.136.063.096.18-.142.409-.241.673-.375 1.047-.056.157-.177.105-.177.105a5.1 5.1 0 0 0-1.61-.232c-.753 0-1.319.254-1.691.749-.374.498-.582 1.15-.584 2.017-.003.953.234 1.658.653 2.094s1.008.656 1.744.656q.452 0 .834-.06c.253-.04.488-.117.709-.203 0 0 .145-.056.195.092l.374 1.04c.048.128-.062.182-.062.182m-6.449-7.566c-.047.141-.3.852-.387 1.09-.034.089-.089.15-.19.14 0 0-.296-.071-.566-.071-.186 0-.451.025-.69.099q-.355.108-.639.385-.283.277-.451.762c-.114.325-.172.842-.172 1.361v3.865a.155.155 0 0 1-.155.156h-1.355a.156.156 0 0 1-.157-.156V29.72c0-.087.061-.156.148-.156h1.322c.086 0 .148.07.148.156l.001.633c.197-.267.55-.503.871-.647.322-.146.681-.255 1.33-.216.338.023.777.116.865.149.034.013.116.07.077.186m-6.375 5.418a3.7 3.7 0 0 1-.693 1.33 3.3 3.3 0 0 1-1.17.888c-.468.213-1.016.32-1.633.32-.618 0-1.168-.107-1.633-.32a3.3 3.3 0 0 1-1.17-.887 3.7 3.7 0 0 1-.694-1.331 5.8 5.8 0 0 1-.225-1.647c0-.586.076-1.14.225-1.646.15-.507.382-.956.693-1.329.31-.376.704-.677 1.17-.896s1.016-.33 1.634-.33 1.167.112 1.632.33c.467.219.86.52 1.17.895.31.373.545.821.694 1.33.149.507.225 1.06.225 1.646 0 .587-.076 1.14-.225 1.647m-7.55-4.442c-.029.156-.172.151-.172.151h-1.7l-1.16 6.61c-.124.684-.275 1.27-.455 1.742-.18.477-.37.827-.67 1.161a2.4 2.4 0 0 1-.953.668c-.358.13-.79.198-1.265.198-.227 0-.469-.005-.756-.073a4 4 0 0 1-.471-.138c-.065-.024-.117-.104-.08-.206.037-.104.34-.944.382-1.055.054-.134.187-.083.187-.083.091.038.156.066.278.09.123.025.29.046.414.046q.338 0 .607-.087c.215-.073.34-.199.472-.367.136-.175.247-.416.36-.737a8 8 0 0 0 .308-1.279l1.157-6.49h-1.14c-.137 0-.182-.064-.167-.167l.192-1.078c.029-.157.173-.151.173-.151h1.17l.063-.352c.175-1.04.524-1.831 1.037-2.35.516-.524 1.251-.79 2.184-.79a3.9 3.9 0 0 1 1.21.177c.037.014.135.064.095.181l-.394 1.089c-.034.081-.056.131-.223.079-.042-.012-.105-.03-.264-.065a2.2 2.2 0 0 0-.424-.042q-.307 0-.553.079-.241.08-.432.271c-.13.13-.281.318-.362.554-.19.548-.264 1.132-.272 1.169h1.649c.137 0 .18.064.167.166zm-9.009 7.01c-.896 0-1.754-.14-2.661-.625-.172-.098-.34-.186-.508-.309-.018-.025-.094-.055-.038-.202l.361-1.005c.052-.164.207-.104.24-.083.096.063.172.115.3.191a4.3 4.3 0 0 0 2.352.68c.794 0 1.287-.423 1.287-.992v-.031c0-.62-.759-.855-1.638-1.126l-.193-.06c-1.205-.346-2.493-.844-2.493-2.376v-.03c0-1.455 1.166-2.47 2.838-2.47l.182-.001c.982 0 1.929.287 2.615.706.063.038.123.11.09.206l-.372 1.005c-.064.172-.242.058-.242.058-.6-.334-1.533-.597-2.319-.597-.707 0-1.164.377-1.164.89v.03c0 .6.78.855 1.686 1.15l.157.05c1.2.382 2.48.91 2.48 2.364v.03c0 1.571-1.134 2.547-2.96 2.547m-4.286-3.916c-.014.134-.15.135-.15.135l-5.157-.004c.031.788.22 1.345.6 1.724.372.372.965.609 1.765.61 1.224.003 1.747-.244 2.117-.382 0 0 .142-.052.193.089l.34.95c.066.16.012.215-.045.248-.323.18-1.108.514-2.598.518-.723.002-1.353-.103-1.872-.304a3.4 3.4 0 0 1-1.298-.864 3.4 3.4 0 0 1-.746-1.319 5.6 5.6 0 0 1-.234-1.655c0-.588.075-1.144.226-1.654.15-.514.385-.967.698-1.347a3.4 3.4 0 0 1 1.188-.91c.474-.224 1.059-.334 1.704-.334.552 0 1.055.12 1.476.302q.482.21.98.75c.209.226.53.722.659 1.214.33 1.168.16 2.178.154 2.233m-8.54 3.56c0 .088-.062.159-.148.159h-1.369c-.086 0-.147-.071-.147-.158V26.388c0-.087.061-.156.147-.156h1.368c.087 0 .148.07.148.156zm-3.463-.149s-.19.053-.361.092c-.173.041-.793.167-1.299.254a9.4 9.4 0 0 1-1.567.131 6 6 0 0 1-1.366-.14 2.8 2.8 0 0 1-1.05-.458 2.1 2.1 0 0 1-.673-.811c-.158-.326-.236-.724-.236-1.185 0-.45.093-.852.276-1.194a2.5 2.5 0 0 1 .748-.856 3.3 3.3 0 0 1 1.076-.5c.401-.11.83-.165 1.271-.165.324 0 .595.008.804.024 0 0 .408.036.85.1v-.219c0-.691-.142-1.017-.423-1.236-.29-.22-.718-.335-1.275-.335 0 0-1.256-.016-2.247.526-.046.027-.085.043-.085.043s-.124.044-.17-.084l-.365-.986c-.055-.143.047-.206.047-.206.463-.366 1.589-.586 1.589-.586a8.5 8.5 0 0 1 1.382-.127c1.03 0 1.829.24 2.37.716.543.479.819 1.25.819 2.291l.002 4.742s.01.136-.117.17m-7.473-2.042c0 1.571-1.134 2.547-2.96 2.547-.896 0-1.753-.14-2.661-.625-.171-.098-.34-.186-.507-.309-.019-.025-.095-.055-.038-.202l.36-1.005c.057-.172.188-.116.24-.083.1.06.172.115.3.191a4.3 4.3 0 0 0 2.352.68c.792 0 1.286-.423 1.286-.992v-.031c0-.62-.758-.855-1.636-1.126l-.194-.06c-1.206-.346-2.493-.844-2.493-2.376v-.03c0-1.455 1.167-2.47 2.838-2.47l.182-.001c.981 0 1.93.287 2.616.706.063.038.123.11.089.206l-.372 1.005c-.064.172-.242.058-.242.058-.6-.334-1.532-.597-2.318-.597-.708 0-1.164.377-1.164.89v.03c0 .6.78.855 1.685 1.15l.157.05c1.2.382 2.48.91 2.48 2.364zm50.746-22.58c-2.763 0-5.387.592-7.76 1.657-2.729-4.889-7.853-8.181-13.728-8.181-4.419 0-8.414 1.864-11.283 4.87C69.87 6.88 64.89 4.2 59.287 4.2c-9.545 0-17.283 7.77-17.283 17.354 0 2.453.508 4.786 1.422 6.902C38.986 31.064 36 35.94 36 41.526c0 8.332 6.649 15.087 14.851 15.087 1.047 0 2.068-.11 3.053-.32 2.253 6.147 8.125 10.53 15.014 10.53 6.615 0 12.292-4.04 14.727-9.803 1.855.91 3.936 1.42 6.135 1.42 5.257 0 9.838-2.912 12.24-7.221 1.223.247 2.486.379 3.78.379 10.594 0 19.183-8.711 19.183-19.458 0-10.745-8.589-19.457-19.183-19.457" clip-rule="evenodd"/><path fill-rule="evenodd" d="M112.444 30.77c-.678 0-1.159.268-1.474.753-.209.32-.344.73-.417 1.223h3.679c-.037-.476-.13-.903-.343-1.223-.322-.485-.768-.754-1.445-.754" clip-rule="evenodd"/><script xmlns=""/></svg>