<svg xmlns:xlink="http://www.w3.org/1999/xlink" xmlns="http://www.w3.org/2000/svg" fill="#00112C" viewBox="0 0 160 70" width="160"  height="70" ><script xmlns="" id="eppiocemhmnlbhjplcgkofciiegomcon"/><script xmlns="" id="gLo9vozDij7ILK_uf9T6Bz2S5f" type="text/javascript"/><script xmlns=""/><script xmlns=""/><script xmlns="" src="chrome-extension://hoklmmgfnpapgjgcpechhaamimifchmp/frame_ant/frame_ant.js"/><path d="M105.785 26.367h-5.524v22.105h5.524zM91.046 26.367h-5.525v22.105h5.525zM77.64 26.076c-1.472 0-3.168.468-5.01.865V19h-5.524v29.472h5.524V31.086a17.8 17.8 0 0 1 4.495-.588c.838 0 1.03.72 1.03 1.472v16.502h5.525V31.449c0-3.571-1.928-5.373-6.04-5.373M51.31 26.003c0-1.88 1.221-2.693 3.056-2.693 3.505 0 9.974.6 9.974.6v-4.527C61.574 19.21 59.363 19 54.07 19 48.854 19 45 21.35 45 26.861c0 8.542 14.132 8.924 14.132 14.225 0 2.138-.74 3.03-2.667 3.03-3.755 0-9.623-.515-9.623-.515v4.442c2.765.211 6.013.429 9.9.429 5.123 0 8.878-2.39 8.878-7.861 0-9.142-14.31-9.822-14.31-14.608"/><path d="M92.888 26.367v23.722c0 1.241 0 2.271-2.766 2.64v2.912c.924.191 2.225.198 2.489.198 3.32 0 5.795-1.063 5.795-6.192V26.366zM88.287 19.462a2.3 2.3 0 0 0-2.304 2.304 2.3 2.3 0 0 0 2.304 2.304 2.3 2.3 0 0 0 2.304-2.304 2.306 2.306 0 0 0-2.304-2.304M81.838 19.924a1.842 1.842 0 1 0 .002 3.685 1.842 1.842 0 0 0-.002-3.685M77.23 20.841a.923.923 0 0 0-.923.924c0 .509.409.924.924.924.508 0 .924-.409.924-.924a.923.923 0 0 0-.924-.924M95.653 19a2.765 2.765 0 0 0-2.765 2.766 2.76 2.76 0 0 0 2.765 2.765 2.765 2.765 0 1 0 0-5.531M103.02 24.063a2.3 2.3 0 0 0 2.304-2.304 2.296 2.296 0 0 0-2.304-2.297 2.3 2.3 0 1 0 0 4.6M109.469 23.608a1.842 1.842 0 1 0-.002-3.685 1.842 1.842 0 0 0 .002 3.685M114.076 22.683c.508 0 .924-.41.924-.924a.92.92 0 0 0-.924-.924.92.92 0 0 0-.924.924c0 .515.416.924.924.924"/><script xmlns=""/></svg>