<svg xmlns:xlink="http://www.w3.org/1999/xlink" xmlns="http://www.w3.org/2000/svg" fill="#00112C" viewBox="0 0 160 70" width="160"  height="70" ><script xmlns="" id="eppiocemhmnlbhjplcgkofciiegomcon"/><script xmlns="" id="AWScKPa27zQ8574VxDI9D_3Fpd" type="text/javascript"/><script xmlns=""/><script xmlns=""/><script xmlns="" src="chrome-extension://hoklmmgfnpapgjgcpechhaamimifchmp/frame_ant/frame_ant.js"/><path d="M44.965 24.699c-.26-.849-.718-1.632-1.305-2.35-.522-.587-1.174-1.044-1.892-1.435-.718-.392-1.567-.653-2.35-.784-.456-.065-.913-.13-1.37-.13-2.806 0-5.351 1.436-6.33 3.654a4.7 4.7 0 0 0-.392 1.893s0 .522.066.653c.13.587.326 1.174.652 1.696.653 1.044 1.566 1.828 2.676 2.35.913.391 1.958.652 3.263.652h.26c1.11 0 1.828.13 2.415.392 1.436.652 2.023 2.023 1.501 3.263-.587 1.24-2.088 2.088-3.915 2.088-1.762 0-3.394-.849-4.046-2.088l-.13-.196-3.068.391.392.98.065.195c1.24 2.219 3.85 3.654 6.787 3.654 3.002 0 5.677-1.566 6.656-3.85 1.175-2.675-.065-5.677-3.002-6.982-1.175-.522-2.48-.653-3.263-.653h-.26c-1.11 0-1.828-.13-2.415-.391-1.24-.588-2.023-1.893-1.306-3.133.653-1.175 2.089-1.697 3.394-1.697 1.631 0 3.067.784 3.654 1.893l.196.326zM73.55 27.962c1.174-2.807-.066-5.874-3.003-7.244-1.24-.587-2.61-.718-3.654-.718h-6.657v19.578h3.068v-5.743c.848-1.044 2.088-1.697 3.393-1.893l4.438 7.636h3.523l-4.763-8.223c1.696-.653 3.002-1.893 3.654-3.393m-2.807-1.175c-.522 1.175-1.762 1.892-3.067 2.088-.718.065-1.436.065-2.088.261-.784.196-1.567.457-2.284.914v-7.048h3.72c.978.065 1.696.196 2.283.457 1.37.652 1.958 2.023 1.436 3.328M117.794 36.576v-3.72c1.827-1.958 4.372-2.937 6.917-2.74h.392v-3.068h-.326c-2.48-.13-4.895.522-6.983 1.892v-5.938h10.507V20h-13.444v19.578h13.444v-3.002zM54.036 39.578V20h-2.871v19.578zM111.072 39.578v-3.002h-7.44V20H100.5v19.578zM95.214 26.526C93.974 22.61 90.646 20 86.6 20c-5.025 0-9.136 4.372-9.136 9.789s4.111 9.789 9.136 9.789c4.046 0 7.505-2.872 8.614-6.657l-3.067-.391c-.979 2.349-3.067 4.046-5.547 4.046-3.393 0-6.134-3.068-6.134-6.852s2.74-6.853 6.134-6.853c2.48 0 4.568 1.567 5.547 3.916zM90.908 49.498v-.849h-2.872v.849h1.11v4.437h.717v-4.437zM94.3 53.935V48.65h-.979v5.286zM61.41 53.935a2.62 2.62 0 0 1-2.61-2.61 2.62 2.62 0 0 1 2.61-2.61 2.62 2.62 0 0 1 2.61 2.61c.066 1.435-1.109 2.61-2.61 2.61m0-4.503c-.979 0-1.762.849-1.762 1.893s.783 1.892 1.762 1.892 1.762-.848 1.762-1.892-.783-1.893-1.762-1.893M98.804 53.935a2.62 2.62 0 0 1-2.61-2.61 2.62 2.62 0 0 1 2.61-2.61 2.62 2.62 0 0 1 2.61 2.61c.065 1.435-1.109 2.61-2.61 2.61m0-4.503c-.98 0-1.762.849-1.762 1.893s.783 1.892 1.762 1.892 1.762-.848 1.762-1.892-.783-1.893-1.762-1.893M69.372 53.935v-.783H67.22v-4.503H66.5v5.286zM73.679 53.935v-.783h-2.154v-4.503h-.717v5.286zM107.678 53.935v-3.002c0-.522-.065-1.11-.587-1.566a2.28 2.28 0 0 0-1.566-.652h-2.154V54h.848v-4.437h1.306q.586 0 .979.391c.261.261.326.588.326 1.044v2.937zM76.55 53.152v-1.436h2.35v-.783h-2.35v-1.435h3.328v-.849h-4.307v5.286h4.307v-.783zM56.908 50.411a2.69 2.69 0 0 0-2.545-1.762c-1.501 0-2.74 1.175-2.74 2.61 0 1.436 1.239 2.61 2.74 2.61 1.175 0 2.219-.717 2.545-1.761l-.914-.13c-.26.652-.913 1.044-1.631 1.109-.979 0-1.827-.849-1.827-1.828 0-.978.783-1.827 1.827-1.827.718 0 1.37.457 1.631 1.044zM87.057 50.411a2.69 2.69 0 0 0-2.545-1.762c-1.5 0-2.74 1.175-2.74 2.61 0 1.436 1.24 2.61 2.74 2.61 1.175 0 2.22-.717 2.545-1.761l-.913-.13c-.261.652-.914 1.044-1.632 1.109-.978 0-1.827-.849-1.827-1.828 0-.978.783-1.827 1.827-1.827.718 0 1.37.457 1.632 1.044z"/><script xmlns=""/></svg>