<svg xmlns:xlink="http://www.w3.org/1999/xlink" xmlns="http://www.w3.org/2000/svg" fill="#00112C" viewBox="0 0 160 70" width="160"  height="70" ><script xmlns="" id="eppiocemhmnlbhjplcgkofciiegomcon"/><script xmlns="" id="ZGHqW0Xfah2cP451OhB5Ud3IPE" type="text/javascript"/><script xmlns=""/><script xmlns=""/><script xmlns="" src="chrome-extension://hoklmmgfnpapgjgcpechhaamimifchmp/frame_ant/frame_ant.js"/><path fill-rule="evenodd" d="M36.686 30.993c4.788-1.453 13.06-1.179 18.074 1.8a1.455 1.455 0 1 0 1.486-2.504c-5.774-3.427-14.909-3.749-20.404-2.08a1.455 1.455 0 0 0 .844 2.784m16.242 6.61a1.214 1.214 0 0 0 1.27-2.067c-4.803-2.951-11.827-3.782-17.478-2.067a1.215 1.215 0 0 0-.809 1.513c.195.64.873 1.002 1.514.808 4.947-1.502 11.322-.757 15.503 1.813m-1.569 4.16a.97.97 0 0 0 1.012-1.656c-4.1-2.507-9.184-3.09-15.11-1.735a.968.968 0 1 0 .431 1.89c5.416-1.237 10.014-.733 13.667 1.5M30 34.556C30 25.966 36.965 19 45.558 19s15.557 6.965 15.557 15.557-6.965 15.558-15.557 15.558S30 43.15 30 34.557m39.162-3.23c0 .945.479 1.395 3.165 2.035 3.273.796 4.607 2.032 4.607 4.265 0 2.643-2.02 4.351-5.145 4.351-2.209 0-4.256-.785-5.92-2.27a.175.175 0 0 1-.018-.245l1.47-1.75a.18.18 0 0 1 .121-.062.18.18 0 0 1 .13.042c1.43 1.239 2.709 1.767 4.277 1.767 1.411 0 2.289-.61 2.289-1.593 0-.887-.434-1.383-3.005-1.975-3.02-.73-4.767-1.676-4.767-4.346 0-2.49 2.026-4.231 4.926-4.231 1.973 0 3.66.584 5.159 1.787a.176.176 0 0 1 .033.24l-1.311 1.848a.17.17 0 0 1-.116.072.18.18 0 0 1-.133-.032c-1.26-.94-2.46-1.395-3.672-1.395-1.25 0-2.09.6-2.09 1.493m39.123-.394h-2.647v-2.706a.176.176 0 0 0-.175-.176h-2.405a.177.177 0 0 0-.177.176v2.706h-1.156a.176.176 0 0 0-.175.176v2.068c0 .096.078.176.175.176h1.156v5.349c0 2.161 1.076 3.257 3.198 3.257.863 0 1.579-.178 2.253-.56a.18.18 0 0 0 .089-.153v-1.969a.177.177 0 0 0-.255-.157 3 3 0 0 1-1.412.34c-.771 0-1.116-.35-1.116-1.136v-4.971h2.647c.097 0 .176-.08.176-.176v-2.068a.177.177 0 0 0-.176-.176m9.222-.322v.333h4.108c.073 0 .139.045.165.113l2.809 7.331 2.565-7.326a.18.18 0 0 1 .167-.118h2.504c.058 0 .111.028.144.076.034.048.04.11.019.164l-4.173 10.782c-.865 2.226-1.847 3.053-3.623 3.053-.949 0-1.718-.197-2.569-.657a.175.175 0 0 1-.075-.228l.815-1.788a.18.18 0 0 1 .104-.095.18.18 0 0 1 .14.013c.456.25.902.376 1.326.376.525 0 .908-.172 1.299-1.04l-3.44-8.247h-2.246v8.25a.176.176 0 0 1-.176.176h-2.405a.176.176 0 0 1-.175-.176v-8.25h-1.156a.176.176 0 0 1-.176-.176v-2.078c0-.097.079-.176.176-.176h1.156v-.51c0-2.365 1.174-3.616 3.395-3.616.913 0 1.523.146 1.999.287a.18.18 0 0 1 .125.17v2.026c0 .056-.026.11-.073.143a.18.18 0 0 1-.158.025c-.452-.15-.854-.25-1.356-.25-.841 0-1.215.436-1.215 1.413m-5.346.322h-2.406a.177.177 0 0 0-.176.176v10.494c0 .097.079.176.176.176h2.406c.097 0 .176-.079.176-.176V31.109a.177.177 0 0 0-.176-.176m-2.917-3.053a1.725 1.725 0 1 1 3.45 0 1.725 1.725 0 0 1-3.45 0m-25.239 2.833c-1.355 0-2.466.534-3.382 1.627v-1.23a.176.176 0 0 0-.176-.177h-2.405a.176.176 0 0 0-.176.176v13.674c0 .097.079.176.176.176h2.405c.097 0 .176-.079.176-.176v-4.316c.916 1.029 2.028 1.53 3.382 1.53 2.517 0 5.065-1.937 5.065-5.64 0-3.706-2.548-5.644-5.065-5.644m5.816 5.683c0-3.187 2.54-5.683 5.781-5.683 3.23 0 5.761 2.479 5.761 5.643 0 3.175-2.548 5.663-5.8 5.663-3.22 0-5.742-2.47-5.742-5.623m-3.547-.04c0 1.886-1.162 3.203-2.826 3.203-1.644 0-2.885-1.377-2.885-3.203s1.24-3.202 2.885-3.202c1.637 0 2.826 1.346 2.826 3.202m6.304 0c0 1.837 1.3 3.222 3.024 3.222 1.74 0 3.004-1.337 3.004-3.182 0-1.838-1.308-3.223-3.044-3.223-1.73 0-2.984 1.339-2.984 3.183" clip-rule="evenodd"/><script xmlns=""/></svg>