<svg xmlns:xlink="http://www.w3.org/1999/xlink" xmlns="http://www.w3.org/2000/svg" fill="#00112C" viewBox="0 0 160 70" width="160"  height="70" ><script xmlns="" id="eppiocemhmnlbhjplcgkofciiegomcon"/><script xmlns="" id="2K00af1tR24fuLgvc_LTxU8st3" type="text/javascript"/><script xmlns=""/><script xmlns=""/><script xmlns="" src="chrome-extension://hoklmmgfnpapgjgcpechhaamimifchmp/frame_ant/frame_ant.js"/><g clip-path="url(#a)"><path d="m70.547 28.605-4.025 8.007h3.006l.601-1.334h4.213l.602 1.334h3.054l-4.024-8.007h-3.427m.296 5.092 1.392-3.085 1.391 3.085zm16.875-5.092h3.265v8.007h-2.898v-5.04l-3.149 3.886-3.148-3.885v5.039h-2.825v-8.007h3.388l2.67 3.517zM59.535 34.74h6.326v1.872h-9.199v-8.007h9.064v1.872h-6.19v1.268h4.491v1.63h-4.492zM46.07 28.605h9.419v2.005H52.25v6.002h-2.947V30.61h-3.236v-2.005m83.589 2.84c0-1.779-1.518-2.84-4.06-2.84h-5.924v8.007h2.922v-2.329h1.89l1.925 2.329h3.23l-2.213-2.546.329-.12c.867-.313 1.9-1.002 1.9-2.502zm-4.355 1.186h-2.707v-2.178h2.707c1.193 0 1.371.682 1.371 1.09 0 .406-.178 1.088-1.371 1.088m15.698 3.981h-3.368l-2.213-3.137-1.59 1.543v1.594h-2.947v-8.007h2.947v3.65l3.485-3.65h3.374l-3.245 3.165zm-28.046-8.298c-3.502 0-5.592 1.606-5.592 4.295s2.09 4.294 5.592 4.294 5.592-1.605 5.592-4.294-2.09-4.295-5.592-4.295m0 6.475c-1.602 0-2.597-.835-2.597-2.18s.995-2.18 2.597-2.18 2.596.835 2.596 2.18-.995 2.18-2.596 2.18m-8.428-6.184h2.83l-2.938 8.007h-2.984l-1.725-5.619-1.725 5.619h-2.984l-2.937-8.007h2.879l1.641 5.657 1.82-5.657h2.66l1.82 5.657 1.642-5.657zM58.538 41.96l.907.448c-.41.608-1.249 1.1-2.385 1.1-1.634 0-2.695-.854-2.695-2.285s1.062-2.285 2.739-2.285c1.093 0 1.931.497 2.329 1.093l-.913.448c-.31-.48-.783-.694-1.429-.694-1.03 0-1.714.492-1.714 1.438s.683 1.438 1.714 1.438c.646 0 1.124-.21 1.448-.7zm8.57-3.023c-1.696 0-2.765.848-2.765 2.285s1.069 2.285 2.764 2.285c1.696 0 2.764-.847 2.764-2.285 0-1.437-1.068-2.285-2.764-2.285m0 3.723c-1.081 0-1.752-.517-1.752-1.438s.677-1.437 1.751-1.437c1.075 0 1.752.516 1.752 1.437 0 .922-.677 1.438-1.752 1.438M80 39.073h1.062v4.3h-.994v-2.991l-1.906 2.303h-.05l-1.907-2.303v2.992h-.963v-4.3h1.081l1.839 2.272zm11.465 0h1.061v4.3h-.993v-2.991l-1.907 2.303h-.05l-1.906-2.303v2.992h-.963v-4.3h1.08l1.84 2.272zm7.694 3.477h3.49v.824h-4.478v-4.3h4.416v.822h-3.428v.885h2.864v.823h-2.864zm13.687-2.057c0-.935-.801-1.42-1.863-1.42h-3v4.3h.988v-1.462h1.571l1.248 1.462h1.187l-1.342-1.529c.721-.166 1.211-.62 1.211-1.351m-3.882.608v-1.204h1.963c.521 0 .907.123.907.601 0 .48-.386.602-.907.602zm13.122.86.907.449c-.41.608-1.249 1.1-2.385 1.1-1.634 0-2.696-.854-2.696-2.285s1.063-2.286 2.74-2.286c1.093 0 1.931.498 2.329 1.094l-.913.448c-.311-.48-.783-.694-1.429-.694-1.031 0-1.714.492-1.714 1.438s.683 1.437 1.714 1.437c.646 0 1.124-.209 1.448-.7zm10.607.59v.823h-4.478v-4.3h4.416v.823h-3.429v.885h2.864v.823h-2.864v.946zM19.753 43.026 30.858 24H24.3a3 3 0 0 0-2.587 1.477l-5.24 8.977a2.93 2.93 0 0 0 0 2.954z"/><path stroke="#00112C" stroke-miterlimit="10" d="M19.753 43.026 30.858 24H24.3a3 3 0 0 0-2.587 1.477l-5.24 8.977a2.93 2.93 0 0 0 0 2.954z"/><path d="m42.607 34.454-3.284-5.626-11.107 19.026h6.564c.996 0 1.92-.483 2.473-1.29l5.453-9.34a2.93 2.93 0 0 0-.1-2.77"/><path stroke="#00112C" stroke-miterlimit="10" d="m42.607 34.454-3.284-5.626-11.107 19.026h6.564c.996 0 1.92-.483 2.473-1.29l5.453-9.34a2.93 2.93 0 0 0-.1-2.77Z"/><path d="M24.3 24s3.836-.117 5.345 2.462L39.33 43.02l3.276-5.611a2.93 2.93 0 0 0 0-2.954l-5.24-8.977a3 3 0 0 0-2.587-1.477z"/><path stroke="#00112C" stroke-miterlimit="10" d="M24.3 24s3.836-.117 5.345 2.462L39.33 43.02l3.276-5.611a2.93 2.93 0 0 0 0-2.954l-5.24-8.977a3 3 0 0 0-2.587-1.477z"/><path d="M34.78 47.855s-3.835.118-5.344-2.462l-9.687-16.557-3.275 5.611a2.93 2.93 0 0 0 0 2.954l5.24 8.976a3 3 0 0 0 2.586 1.478z"/><path stroke="#00112C" stroke-miterlimit="10" d="M34.78 47.855s-3.835.118-5.344-2.462l-9.687-16.557-3.275 5.611a2.93 2.93 0 0 0 0 2.954l5.24 8.976a3 3 0 0 0 2.586 1.478z"/></g><defs><clipPath id="a"><path d="M0 0H128V27H0z" transform="translate(16 22)"/></clipPath></defs><script xmlns=""/></svg>