<svg xmlns:xlink="http://www.w3.org/1999/xlink" xmlns="http://www.w3.org/2000/svg" fill="#00112C" viewBox="0 0 160 70" width="160"  height="70" ><script xmlns="" id="eppiocemhmnlbhjplcgkofciiegomcon"/><script xmlns="" id="33dp0cYVg6iU8-eadjew02e-Fg" type="text/javascript"/><script xmlns=""/><script xmlns=""/><script xmlns="" src="chrome-extension://hoklmmgfnpapgjgcpechhaamimifchmp/frame_ant/frame_ant.js"/><path fill-rule="evenodd" d="M57.038 34.834c0-7.57 6.076-13.728 13.545-13.728 7.468 0 13.544 6.157 13.544 13.728S78.05 48.562 70.583 48.562s-13.545-6.158-13.545-13.728m-2.053 0c0 8.718 6.997 15.81 15.597 15.81 8.601 0 15.599-7.092 15.599-15.81s-6.998-15.81-15.599-15.81-15.597 7.092-15.597 15.81" clip-rule="evenodd"/><path fill-rule="evenodd" d="M72.832 35.344h3.797c1.127 0 1.794.212 2.224 1.233.356-.871.965-1.217 2.004-1.233h.399v5.083h-4.939c.46-.407.697-.933.697-1.549 0-1.114-.86-1.94-2.076-1.94-1.378 0-2.195.826-2.195 1.94 0 .751.386 1.293 1.127 1.55-.727.358-1.127.99-1.127 1.773 0 1.234.875 1.893 2.61 1.893.208 0 .446-.016.698-.03v1.714h-3.22c-1.171 0-1.809-.24-2.223-1.248-.417 1.008-1.054 1.248-2.226 1.248h-3.22v-1.714c.254.014.49.03.713.03 1.72 0 2.611-.659 2.611-1.893 0-.782-.416-1.415-1.143-1.774.742-.256 1.127-.798 1.127-1.549 0-1.114-.8-1.94-2.18-1.94-1.216 0-2.076.826-2.076 1.94 0 .616.222 1.142.682 1.55h-4.938v-5.084h.399c1.038.016 1.647.362 2.003 1.233.415-1.007 1.053-1.233 2.225-1.233h3.797c1.097 0 1.78.181 2.226 1.233.414-1.007 1.052-1.233 2.224-1.233M68.334 34.325h-3.797c-1.127 0-1.795-.212-2.225-1.235-.356.873-.964 1.217-2.002 1.235h-.402v-5.082h4.941c-.46.406-.698.932-.698 1.548 0 1.112.86 1.939 2.077 1.939 1.38 0 2.194-.827 2.194-1.939 0-.752-.384-1.293-1.127-1.548.727-.361 1.127-.993 1.127-1.775 0-1.233-.875-1.894-2.61-1.894-.207 0-.445.015-.696.03V23.89h3.218c1.172 0 1.81.242 2.225 1.249.415-1.007 1.053-1.25 2.225-1.25h3.219v1.716c-.252-.016-.49-.03-.714-.03-1.719 0-2.61.66-2.61 1.893 0 .782.417 1.414 1.143 1.775-.742.255-1.127.796-1.127 1.548 0 1.112.801 1.939 2.18 1.939 1.216 0 2.076-.827 2.076-1.939 0-.616-.222-1.142-.683-1.548h4.94v5.082h-.401c-1.038-.018-1.644-.362-2.001-1.235-.415 1.008-1.053 1.235-2.225 1.235h-3.797c-1.097 0-1.78-.181-2.225-1.235-.415 1.008-1.053 1.235-2.225 1.235M10.94 29.305v2.04H6.867v9.124H4.089v-9.124H0v-2.04zM16.26 31.328c-2.044.916-2.2 2.895-2.2 3.638 0 .223.015.949.296 1.613.078.206.173.412.422.76.078.095.28.394.562.632.437.379 1.28.853 2.637.853a4.7 4.7 0 0 0 1.591-.268c2.17-.79 2.357-2.957 2.357-3.653 0-.473-.078-1.692-.985-2.72-.779-.855-1.949-1.265-3.09-1.218-.248 0-.903.064-1.59.363m5.555-1.58c.172.092.484.252.874.536.311.239.624.522.874.84.467.552 1.17 1.785 1.17 3.652 0 .222-.015.808-.125 1.423-.156.745-.578 2.357-2.246 3.495-.766.506-2.17 1.141-4.355 1.141-3.275 0-5.008-1.346-5.804-2.532-.375-.536-.983-1.709-.983-3.416 0-2.578 1.233-3.922 2.044-4.555 1.202-.934 2.808-1.329 4.29-1.375 1.374-.065 3.028.17 4.26.79M29.772 34.002h4.417c.015 0 .452 0 .687-.049.327-.094.967-.363.967-1.279 0-.11-.016-.524-.219-.84-.342-.536-.95-.553-1.513-.57h-4.339zm4.84-4.697c.95.015 1.372.062 1.825.203 1.418.428 2.198 1.663 2.198 3.131 0 .287-.015.842-.294 1.473-.5 1.14-1.453 1.487-2.577 1.691l3.354 4.666h-3.26l-2.933-4.49h-3.153v4.49h-2.746V29.305zM42.209 29.305l2.932 4.206c.157.206.234.316.313.554.048-.126.092-.238.267-.475l2.995-4.285h3.353l-5.257 6.974v4.19h-2.746v-4.19l-5.245-6.974zM93.501 38.621h4.152c.311 0 .64 0 .95-.11.376-.126.845-.49.845-1.407 0-.13-.03-.634-.328-.98-.312-.35-.704-.366-1.141-.38l-4.478.014zm0-4.824h3.947c.531 0 1.065 0 1.36-.536.171-.286.171-.6.171-.711 0-.097 0-.317-.092-.554-.265-.711-1.046-.649-1.22-.649h-4.166zm4.414-4.379c.831.016 1.718.03 2.47.424.514.287 1.247.902 1.247 2.311 0 .488-.095 1.597-1.327 2.183-.109.047-.247.11-.498.19.498.125.684.188.935.315 1.373.696 1.451 2.01 1.451 2.531 0 .426-.031 1.726-1.106 2.549-.829.647-1.78.66-2.747.66h-7.568V29.419zM107.467 29.418v6.577c.033.855.125 1.568.874 2.105.874.632 2.14.602 2.388.602.202 0 1.294 0 2.061-.443.513-.287.765-.68.874-.887.125-.254.155-.444.185-.98v-6.975h2.745v6.499c-.014 1.045-.014 1.916-.561 2.816a4 4 0 0 1-.653.792c-1.188 1.075-3.154 1.438-4.667 1.438-.357 0-1.201-.015-2.154-.22-2.2-.491-3.135-1.644-3.528-2.564-.233-.552-.294-1.06-.309-2.277v-6.484zM122.48 34.114h4.415c.015 0 .453 0 .688-.047.324-.095.964-.364.964-1.28 0-.112-.013-.524-.216-.84-.344-.536-.954-.553-1.515-.57h-4.336zm4.834-4.696c.956.016 1.375.062 1.827.203 1.419.427 2.2 1.664 2.2 3.131 0 .287-.014.84-.296 1.473-.499 1.14-1.449 1.485-2.576 1.691l3.356 4.666h-3.261l-2.934-4.49h-3.15v4.49h-2.749V29.418zM142.919 32.927a3.8 3.8 0 0 0-1.105-1.185c-.363-.238-1.11-.618-2.203-.618-.28 0-.982.018-1.716.334-1.435.6-2.2 1.99-2.2 3.56 0 .772.234 1.626.687 2.274.095.143.329.428.686.713.422.347 1.266.901 2.621.901 1.609 0 2.464-.681 2.903-1.2.186-.207.311-.414.562-.887l2.902-.033c-.153.57-.248.777-.389 1.06-.174.348-.469.856-1.141 1.458-.904.804-2.353 1.657-5.07 1.657-.624 0-2.807-.014-4.524-1.31-2-1.501-2.093-3.844-2.093-4.666 0-1.139.265-2.324.889-3.275.219-.333.424-.568.701-.839.378-.363.564-.49.784-.631.716-.491 2.198-1.17 4.398-1.17.61 0 2.731.061 4.449 1.215a5.6 5.6 0 0 1 1.653 1.788c.077.16.158.316.218.476zM150.442 29.418v4.302h6.647v-4.302h2.761v11.164h-2.761V35.79h-6.647v4.792h-2.763V29.418z" clip-rule="evenodd"/><script xmlns=""/></svg>