<svg xmlns:xlink="http://www.w3.org/1999/xlink" xmlns="http://www.w3.org/2000/svg" fill="#00112C" viewBox="0 0 160 70" width="160"  height="70" ><script xmlns="" id="eppiocemhmnlbhjplcgkofciiegomcon"/><script xmlns="" id="ab5q9VaAaF0zvy-xNpMqvVCkLm" type="text/javascript"/><script xmlns=""/><script xmlns=""/><script xmlns="" src="chrome-extension://hoklmmgfnpapgjgcpechhaamimifchmp/frame_ant/frame_ant.js"/><path d="M61.308 47.362c-.398.239-1.076.518-1.514.518-.518 0-.677-.16-.677-.638 0-.716.358-.916.876-.916h1.315zm1.155.916v-.239c0-.08-.04-.12-.16-.12-.278-.04-.318-.04-.318-.398V45.57c0-.956-.16-1.593-1.593-1.593-.439 0-1.116.04-1.474.16-.12.04-.16.119-.16.199l.04.239c0 .08.08.08.16.08.358-.04.916-.08 1.235-.08.796 0 1.035.199 1.035.876v.319h-1.235c-1.195 0-1.673.478-1.673 1.474 0 .796.319 1.234 1.195 1.234.717 0 1.235-.278 1.673-.557.08.398.24.518.638.518.08 0 .199 0 .318-.04.28 0 .32-.04.32-.12m4.143 0V45.65c0-.956-.12-1.633-1.275-1.633-.637 0-1.275.398-1.553.558h-.04v-.319c0-.12-.04-.16-.16-.16h-.358c-.08 0-.16.04-.16.16v4.023c0 .12.04.16.16.16h.358c.12 0 .16-.04.16-.16v-3.147c.279-.12 1.075-.517 1.474-.517.557 0 .717.199.717 1.035v2.63c0 .119.04.159.159.159h.359c.119 0 .159-.04.159-.16m6.015-.797c-.2.08-.717.24-1.076.24-.398 0-.717-.12-.717-.558 0-.398.2-.598.757-.637l1.036-.04zm.04.678c.04 0 .199.16.956.16V45.25c0-.916-.558-1.275-1.554-1.275-.876 0-1.553.2-1.832.359l.199.717s.677-.24 1.314-.24c.558 0 .877.16.877.718v.318h-.877c-1.434 0-1.872.638-1.872 1.395 0 .956.757 1.274 1.474 1.274.797-.04 1.235-.358 1.315-.358m6.453.279h.995l-.438-4.422h-.438c-.398 0-.637.04-.797.398l-.876 2.191c-.04.08-.04.2-.08.24 0-.08-.04-.2-.08-.24l-.876-2.19c-.159-.36-.358-.399-.796-.399h-.438l-.439 4.422h.996l.2-2.948.916 2.23c.08.16.199.24.478.24q.418 0 .478-.24l.916-2.23zm4.7-.957c-.2.08-.717.24-1.075.24-.399 0-.717-.12-.717-.558 0-.398.199-.598.756-.637l1.036-.04zm.04.678c.04 0 .2.16.956.16V45.25c0-.916-.598-1.275-1.554-1.275-.876 0-1.553.2-1.832.359l.2.717s.676-.24 1.314-.24c.557 0 .876.16.876.718v.318h-.876c-1.474 0-1.873.638-1.873 1.395 0 .956.757 1.274 1.435 1.274.836-.04 1.314-.358 1.354-.358m5.417-1.952c0 1.035-.278 1.514-1.354 1.514-.359 0-.677-.04-.677-.04v-2.828c.16-.04.478-.08.797-.08.677 0 1.234.398 1.234 1.434m1.036 0c0-1.394-.876-2.23-2.27-2.23-.558 0-1.315.079-1.793.278v4.103c.398.08 1.115.12 1.633.12 1.753 0 2.43-.638 2.43-2.271m2.908 2.27c1.036 0 1.514-.12 1.514-.12v-.756s-.518.08-1.235.08c-.638 0-.996-.08-.996-.08v-1.075h1.952v-.757h-1.952v-.996s.398-.08.956-.08c.637 0 1.235.08 1.235.08v-.757s-.518-.12-1.315-.12c-1.115 0-1.832.2-1.832.2v4.103c-.08.08.677.278 1.673.278m5.617-.318s.318.199.956.199v-4.262c-.08 0-.558-.08-.797-.08h-.2v3.306c-.238.12-.756.319-1.194.319-.677 0-.797-.319-.797-.996v-2.59h-.16c-.238 0-.716.04-.836.08v2.67c0 1.155.279 1.712 1.514 1.712.956-.04 1.474-.358 1.514-.358m3.186-2.948c0-.16.12-.438.717-.438.558 0 1.116.239 1.116.239l.239-.717a3.5 3.5 0 0 0-1.474-.319c-.797 0-1.594.438-1.594 1.275 0 .876.797 1.155 1.434 1.354.439.16.797.279.797.558s-.159.518-.876.518c-.598 0-1.235-.12-1.235-.12l-.159.757s.597.16 1.473.16c.797 0 1.833-.28 1.833-1.355 0-.717-.518-.996-1.394-1.314-.478-.12-.877-.28-.877-.598m6.175.996c0-1.195.239-1.593 1.075-1.593.319 0 .837.04 1.195.08.12 0 .199 0 .239-.08l.04-.2c0-.08 0-.159-.08-.199-.398-.16-.996-.199-1.354-.199-1.554 0-1.793 1.076-1.793 2.23 0 1.235.239 2.271 1.793 2.271.438 0 .996-.04 1.354-.199.08-.04.12-.12.08-.2l-.04-.198c0-.12-.08-.12-.199-.12-.359.04-.916.08-1.235.08-.797 0-1.075-.359-1.075-1.673m6.054.04c0 1.115-.199 1.633-1.155 1.633-.916 0-1.115-.558-1.115-1.633 0-1.076.199-1.633 1.115-1.633.956 0 1.155.557 1.155 1.633m.677-.08c0-1.075-.199-2.19-1.872-2.19-1.633 0-1.792 1.314-1.792 2.19 0 1.036.079 2.31 1.792 2.31 1.793 0 1.872-1.234 1.872-2.31m7.091 2.111V45.61c0-.956-.159-1.593-1.275-1.593-.597 0-1.155.319-1.593.637-.159-.398-.478-.637-1.155-.637-.558 0-1.116.319-1.474.558v-.319c0-.12-.04-.16-.16-.16H116c-.08 0-.159.04-.159.16v4.023c0 .12.039.16.159.16h.358c.08 0 .16-.04.16-.16v-3.147c.398-.199 1.036-.517 1.394-.517.558 0 .677.318.677.916v2.748c0 .12.04.16.12.16h.398c.12 0 .159-.04.159-.16v-3.1470000000000002c.319-.159.996-.517 1.395-.517.557 0 .677.239.677.995v2.67c0 .119.04.159.159.159h.359c.119 0 .159-.04.159-.16m3.983-2.071c0 1.274-.239 1.713-.996 1.713-.398 0-.796-.04-1.274-.2v-2.549c.318-.16 1.035-.518 1.474-.518.518-.04.796.2.796 1.554m.678 0c0-1.434-.319-2.191-1.435-2.191-.597 0-1.234.398-1.513.558h-.04v-.319c0-.12-.04-.16-.159-.16h-.359c-.08 0-.159.04-.159.16v5.577c0 .12.04.16.159.16h.359c.119 0 .159-.04.159-.16v-1.554c.478.2.916.24 1.235.24 1.394 0 1.753-.837 1.753-2.311m3.585 1.155c-.399.239-1.076.518-1.514.518-.518 0-.677-.16-.677-.638 0-.716.358-.916.876-.916h1.315zm1.115.916v-.239c0-.08-.04-.12-.159-.12-.279-.04-.319-.04-.319-.398V45.57c0-.956-.159-1.593-1.593-1.593-.439 0-1.116.04-1.474.16-.12.04-.16.119-.16.199l.04.239c0 .08.08.08.16.08.358-.04.916-.08 1.234-.08.797 0 1.036.199 1.036.876v.319h-1.235c-1.195 0-1.673.478-1.673 1.474 0 .796.319 1.234 1.195 1.234.717 0 1.235-.278 1.673-.557.08.398.239.518.638.518.079 0 .199 0 .318-.04.319 0 .319-.04.319-.12m4.183 0V45.65c0-.956-.12-1.633-1.275-1.633-.638 0-1.275.398-1.554.558h-.04v-.319c0-.12-.039-.16-.159-.16h-.358c-.08 0-.16.04-.16.16v4.023c0 .12.04.16.16.16h.358c.12 0 .159-.04.159-.16v-3.147c.279-.12 1.076-.517 1.474-.517.558 0 .717.199.717 1.035v2.63c0 .119.04.159.16.159h.358c.12 0 .16-.04.16-.16m4.381-4.182h-.478c-.079 0-.119.04-.159.12l-.677 1.99s-.438 1.275-.478 1.435l-.478-1.355-.717-2.031c-.04-.08-.04-.12-.16-.12h-.478c-.079 0-.079.08-.079.16l1.553 4.182-.518 1.434c-.039.08 0 .16.08.16h.398c.12 0 .16-.04.16-.12l2.031-5.656c.08-.16.08-.2 0-.2M31.99 22.227h-4.7V38.24c0 .358-.16.478-.438.478h-1.196c-.318 0-.517-.12-.517-.478V22.227h-4.621c-.359 0-.518-.16-.518-.478v-1.076c0-.319.16-.438.478-.438H32.03c.319 0 .478.16.478.438v1.076c0 .318-.16.478-.518.478M40.076 27.046c-1.474.32-3.784.996-4.461 1.355v9.839c0 .358-.16.478-.478.478h-1.195c-.319 0-.438-.12-.438-.478V25.612c0-.358.159-.478.438-.478h1.155c.319 0 .518.12.518.478v1.156l.04.04c.717-.598 2.748-1.554 4.182-1.833.319-.08.438 0 .478.319l.12 1.155c.08.358-.08.558-.359.597M50.632 37.204c-1.354.797-3.027 1.713-5.258 1.713-2.708 0-3.784-1.354-3.784-3.864 0-3.147 1.474-4.7 5.179-4.7h3.903v-.956c0-2.071-.796-2.709-3.266-2.709-.996 0-2.749.12-3.944.24-.358.039-.518 0-.557-.24l-.16-.717c-.04-.239.04-.438.438-.597 1.116-.399 3.307-.558 4.621-.558 4.501 0 4.98 1.992 4.98 4.98v6.173c0 1.116.119 1.116.995 1.195.359.04.478.12.478.359v.717c0 .239-.12.438-.557.518-.319.04-.717.08-.996.08-1.275 0-1.833-.439-2.032-1.634zm.04-5.059H46.57c-1.713 0-2.788.598-2.788 2.829 0 1.513.518 1.991 2.151 1.991 1.434 0 3.505-.876 4.74-1.593zM62.344 38.32c-.12.278-.24.358-.479.358h-1.274c-.279 0-.359-.12-.438-.319l-4.9-12.786c-.08-.24-.04-.439.239-.439h1.554c.278 0 .318.16.438.399l2.788 7.807s.877 2.55.996 2.908h.04c.04-.319.996-2.988.996-2.988l2.748-7.767c.12-.28.16-.359.399-.359h1.553c.24 0 .319.16.2.439zM78.994 32.583h-7.847c.04 3.386 1.036 4.422 3.665 4.422 1.155 0 2.908-.24 3.864-.319.358-.04.557 0 .637.359l.12.597c.04.24-.04.438-.32.558-1.075.438-3.106.757-4.46.757-5.1 0-5.737-3.466-5.737-7.011 0-2.709.558-7.09 5.657-7.09 4.78 0 5.497 3.106 5.616 6.174.08.876-.159 1.553-1.195 1.553m-4.461-5.855c-2.47 0-3.227 1.593-3.386 4.103h6.851c-.04-1.952-.478-4.103-3.465-4.103M87.32 38.04c.04.24-.04.36-.28.479-.438.199-1.035.318-1.513.318-1.832 0-2.27-.916-2.27-2.27v-17.01c0-.358.159-.477.477-.477h1.116c.318 0 .518.08.518.478V35.89c0 .956.358 1.035 1.394 1.035.318 0 .438.04.478.28zM101.779 20.753c.399.16.399.358.359.598l-.16.796c-.039.2-.159.359-.517.319-1.235-.16-3.028-.399-4.661-.399-4.342 0-4.78 3.546-4.78 7.609 0 3.744.717 7.21 4.78 7.21 1.713 0 3.306-.24 4.621-.399.398-.04.518.12.557.32l.12.716c.04.279.04.478-.319.598-1.354.557-3.943.756-5.019.756-5.856 0-7.09-4.421-7.09-9.241 0-4.9 1.075-9.64 7.09-9.64 1.115.04 3.545.16 5.019.757M108.95 38.04c.039.24-.04.36-.279.479-.438.199-1.036.318-1.514.318-1.832 0-2.271-.916-2.271-2.27v-17.01c0-.358.16-.477.478-.477h1.116c.319 0 .518.08.518.478V35.89c0 .956.358 1.035 1.394 1.035.319 0 .438.04.478.28zM112.614 22.745c-1.075 0-1.195-.598-1.195-1.275 0-.717.239-1.195 1.195-1.195.996 0 1.195.478 1.195 1.195s-.159 1.275-1.195 1.275m.598 15.973h-1.155c-.319 0-.518-.12-.518-.478V25.613c0-.399.159-.478.518-.478h1.155c.318 0 .438.12.438.478V38.24c0 .359-.12.478-.438.478M126.795 38.28c-1.036.478-2.828.637-4.222.637-4.9 0-5.617-3.226-5.617-7.13 0-3.545.717-6.971 5.617-6.971 1.155 0 3.027.16 4.222.637.279.12.319.359.279.598l-.12.637c-.079.319-.398.319-.717.319-1.155-.12-2.708-.279-3.704-.279-2.55 0-3.306 1.275-3.306 5.059 0 4.063.836 5.258 3.306 5.258.876 0 2.709-.16 3.824-.279.319-.04.558 0 .597.359l.12.597c.08.24 0 .438-.279.558M136.833 25.453c.199-.239.279-.358.598-.358h1.434c.318 0 .478.278.239.517l-4.143 4.98 4.7 7.568c.16.24 0 .518-.278.518h-1.434c-.319 0-.479-.12-.638-.398l-3.704-6.095-2.231 2.709V38.2c0 .358-.159.478-.518.478h-1.155c-.319 0-.478-.12-.478-.478V19.478c0-.359.159-.478.478-.478h1.155c.319 0 .518.12.518.478v12.508l.04.04 1.434-1.873z"/><script xmlns=""/></svg>