<svg xmlns:xlink="http://www.w3.org/1999/xlink" xmlns="http://www.w3.org/2000/svg" fill="none" viewBox="0 0 160 70" width="160"  height="70" ><script xmlns="" id="eppiocemhmnlbhjplcgkofciiegomcon"/><script xmlns="" id="z20r-WvitL6hO8mB8BKPdvvR-a" type="text/javascript"/><script xmlns=""/><script xmlns=""/><script xmlns="" src="chrome-extension://hoklmmgfnpapgjgcpechhaamimifchmp/frame_ant/frame_ant.js"/><path fill="#00112C" fill-rule="evenodd" d="M56.407 43.057c-2.955 0-5.187-2.241-5.187-5.71V24.085h-3.166v13.446c0 5.065 3.468 8.411 7.991 8.411 2.202 0 4.162-.86 5.58-2.364v1.996h3.136V24.085h-3.167v13.262c0 3.407-2.261 5.71-5.187 5.71m11.46-18.972v21.489h3.016v-1.965a7.6 7.6 0 0 0 5.488 2.333c4.524 0 8.082-3.653 8.082-8.166 0-4.543-3.558-8.196-8.082-8.196a7.54 7.54 0 0 0-5.458 2.333v-7.828zm2.986 13.691c0 3.009 2.352 5.434 5.307 5.434 2.895 0 5.278-2.425 5.278-5.434 0-3.039-2.383-5.433-5.278-5.433-2.925 0-5.307 2.394-5.307 5.433m23.31-8.165c-4.492 0-7.9 3.714-7.9 8.135 0 4.666 3.558 8.165 8.172 8.165 2.805 0 5.097-1.258 6.635-3.346l-2.202-1.657c-1.146 1.565-2.653 2.302-4.433 2.302-2.593 0-4.674-1.903-5.096-4.451h12.515v-1.013c0-4.666-3.257-8.135-7.69-8.135m-.06 2.701c-2.261 0-4.161 1.597-4.704 3.991h9.379c-.513-2.394-2.413-3.99-4.674-3.99m16.617.369h1.267v-2.886h-1.056c-1.689 0-2.925.798-3.679 2.057v-1.934h-3.016v15.656h3.046V36.67c0-2.425 1.448-3.99 3.438-3.99" clip-rule="evenodd"/><script xmlns=""/></svg>