<svg xmlns:xlink="http://www.w3.org/1999/xlink" xmlns="http://www.w3.org/2000/svg" fill="none" viewBox="0 0 160 70" width="160"  height="70" ><script xmlns="" id="eppiocemhmnlbhjplcgkofciiegomcon"/><script xmlns="" id="soIX3TEjGCRJVowr4vbMnfBwff" type="text/javascript"/><script xmlns=""/><script xmlns=""/><script xmlns="" src="chrome-extension://hoklmmgfnpapgjgcpechhaamimifchmp/frame_ant/frame_ant.js"/><path fill="#00112C" d="M127.976 34.34c2.648-1.54 4.525-4.4 4.525-7.7h-3.863c0 2.86-2.318 5.17-5.077 5.17h-.552V18.5h-3.863v24.97h3.863v-7.92h.44c.443 0 .884.22.995.55l5.408 7.37h4.526zM76.65 26.64l2.87 11.55 3.09-11.55h3.863l-4.856 16.83h-3.753l-2.98-11.77-2.98 11.77h-3.753l-4.967-16.83h3.753l3.311 11.55 2.76-11.55zM110.646 35c0-2.53 1.987-4.62 4.525-4.62h1.546v-3.74h-1.104c-3.311 0-4.967 2.64-4.967 2.64v-2.64h-3.863v16.83h3.863z"/><path fill="#00112C" fill-rule="evenodd" d="M86.695 35c0-4.95 3.973-8.91 8.83-8.91 4.856 0 8.83 3.96 8.83 8.91s-3.974 8.91-8.83 8.91c-4.857 0-8.83-3.96-8.83-8.91m3.64.11c0 2.86 2.32 5.17 5.19 5.17 2.76 0 5.188-2.42 5.188-5.17 0-2.86-2.318-5.17-5.188-5.17a5.174 5.174 0 0 0-5.19 5.17M54.243 26.09c-4.194 0-7.395 2.75-8.61 7.15-1.986-3.08-3.531-6.6-4.414-9.57h-4.415v11.66c0 2.31-1.877 4.18-4.195 4.18a4.185 4.185 0 0 1-4.194-4.18V23.67H24v11.66c0 4.84 3.863 8.69 8.61 8.69s8.609-3.85 8.609-8.69v-1.98c.883 1.76 1.986 3.63 3.2 5.28L41.66 51.5h4.526l1.986-9.35c1.767 1.1 3.753 1.76 6.071 1.76 4.857 0 8.83-3.96 8.83-9.02 0-4.84-3.973-8.8-8.83-8.8m0 13.31c-1.766 0-3.532-.77-4.967-1.98l.442-1.76v-.11c.331-1.87 1.324-5.06 4.636-5.06 2.428 0 4.415 1.98 4.415 4.4-.11 2.53-2.208 4.51-4.526 4.51" clip-rule="evenodd"/><path fill="#00112C" d="M137.468 26.75h.441l1.326 2.09 1.323-2.09H141v3.74h-.442v-3.08l-1.323 1.98-1.326-1.98v3.08h-.441zM133.716 27.19h1.323v3.41h.442v-3.41h1.214v-.44h-2.979z"/><script xmlns=""/></svg>