<svg xmlns:xlink="http://www.w3.org/1999/xlink" xmlns="http://www.w3.org/2000/svg" viewBox="0 0 160 70" width="160"  height="70" ><script xmlns="" id="eppiocemhmnlbhjplcgkofciiegomcon"/><script xmlns="" id="T6tMcAjbLcYtanyjisFi7sAgbw" type="text/javascript"/><script xmlns=""/><script xmlns=""/><script xmlns="" src="chrome-extension://hoklmmgfnpapgjgcpechhaamimifchmp/frame_ant/frame_ant.js"/><g fill="#00112C" fill-rule="evenodd" stroke="none" stroke-width="1"><path d="M44.364 6.35c-.108.141-.128.273-.168.394q-1.446 4.35-2.891 8.7c-.094.282-.023.249-.336.25q-.92.004-1.837 0c-.365-.002-.287.047-.397-.28-.476-1.42-.945-2.842-1.417-4.263L35.81 6.613c-.027-.082-.04-.17-.102-.242-.086.1-.09.23-.121.347q-1.164 4.34-2.325 8.679c-.067.25-.068.25-.332.25h-2.677c-.086 0-.175.017-.274-.03q.183-.697.37-1.397Q32.208 7.276 34.074.335c.103-.382.01-.324.431-.326.674-.003 1.347 0 2.02 0 .237 0 .239 0 .31.218l2.783 8.457.386 1.17c.1-.079.104-.188.134-.279q1.526-4.63 3.05-9.26c.119-.359.035-.304.43-.306.656-.003 1.312 0 1.968 0 .304 0 .304 0 .382.289l1.513 5.64q1.26 4.696 2.517 9.394c.025.092.067.182.059.283-.07.056-.152.03-.227.031q-1.365.003-2.729 0c-.219 0-.228.06-.31-.246q-1.167-4.365-2.34-8.73zM52.594 7.815V.295c0-.308-.035-.287.28-.286 1.818 0 3.638-.027 5.456.012 1.904.041 3.647.612 5.142 1.839 1.436 1.179 2.302 2.703 2.607 4.544.266 1.613.118 3.188-.555 4.686-.905 2.015-2.443 3.337-4.495 4.066a8.5 8.5 0 0 1-2.83.49c-1.783.004-3.567.001-5.351.001q-.079 0-.158-.002-.093-.003-.095-.098l-.001-.212zm3.178.023v4.605c0 .243.002.244.24.245h2.02a5.5 5.5 0 0 0 1.197-.124c1.502-.336 2.626-1.161 3.259-2.6.373-.849.47-1.747.385-2.666-.098-1.048-.46-1.99-1.17-2.772-.951-1.051-2.166-1.512-3.553-1.548-.707-.018-1.416-.003-2.124-.003-.264 0-.255-.028-.254.258v4.6049999999999995M68.668 5.033V.24c.003-.229.003-.231.23-.231q1.313-.002 2.624 0c.317 0 .3-.045.3.293V7.77c0 .556-.016 1.112.021 1.667.037.55.146 1.083.365 1.59.4.927 1.084 1.52 2.061 1.757a4.34 4.34 0 0 0 2.18-.02c1.1-.297 1.779-1.037 2.111-2.12.17-.552.223-1.12.222-1.697q-.002-4.304 0-8.606c0-.378-.05-.331.339-.332q1.285-.002 2.571 0c.235 0 .238.001.238.22 0 2.974.004 5.949-.002 8.923a8.3 8.3 0 0 1-.47 2.777c-.656 1.848-1.909 3.08-3.776 3.629-1.65.486-3.32.48-4.962-.044-1.923-.616-3.128-1.96-3.704-3.896-.248-.834-.344-1.692-.347-2.56-.004-1.342 0-2.683 0-4.025M9.785 5.15h.918q1.023-.001 2.046 0c.29 0 .242-.047.348.245.57 1.583 1.135 3.167 1.703 4.75q.137.381.28.77c.105-.068.105-.175.133-.263Q16.9 5.451 18.581.248c.01-.034.027-.066.033-.1.019-.123.096-.157.206-.145q.026.001.053 0h2.911c.06.001.123-.008.196.034l-.238.72-3.578 10.726-1.312 3.934c-.084.251-.05.222-.307.223h-2.676c-.22 0-.222-.001-.298-.205l-3.76-10.1c-.018-.049-.054-.094-.026-.186M.117.026C.212-.007.31.01.404.01q1.326-.003 2.65 0c.439.002.334-.064.462.331q1.472 4.535 2.938 9.072c.162.501.325 1.003.512 1.51.714-1.893 1.385-3.798 2.075-5.699.088.048.091.134.117.205.488 1.312.971 2.625 1.463 3.936a.53.53 0 0 1-.005.403q-1.054 2.82-2.1 5.644c-.102.275-.067.235-.327.236q-1.312.002-2.623 0c-.342 0-.27.02-.362-.258Q3.57 10.491 1.94 5.591 1.056 2.948.177.304C.147.216.087.13.117.026M27.439 7.853v7.438c0 .062-.005.124 0 .185.012.121-.027.174-.158.173q-1.43-.006-2.859 0c-.127 0-.175-.047-.162-.171.006-.052 0-.106 0-.159L24.262.34c0-.371-.039-.33.317-.33q1.311-.002 2.622 0c.237 0 .238.002.239.248z" transform="translate(39 27)"/></g><script xmlns=""/></svg>