<svg xmlns:xlink="http://www.w3.org/1999/xlink" xmlns="http://www.w3.org/2000/svg" fill="#00112C" viewBox="0 0 160 70" width="160"  height="70" ><script xmlns="" id="eppiocemhmnlbhjplcgkofciiegomcon"/><script xmlns="" id="dFgm2bqsHQms9gJ8qoavenXyRY" type="text/javascript"/><script xmlns=""/><script xmlns=""/><script xmlns="" src="chrome-extension://hoklmmgfnpapgjgcpechhaamimifchmp/frame_ant/frame_ant.js"/><path d="M125 33.905c0-5.228-3.643-8.905-8.75-8.905-6.501 0-10.858 4.723-10.858 11.468 0 5.263 3.678 8.905 8.872 8.905 4.723 0 8.243-2.283 9.69-5.926h-5.246c-.698 1.134-2.179 1.848-3.991 1.848-2.789 0-4.532-1.848-4.689-4.462h14.676c.191-.993.296-1.847.296-2.928m-14.571-.61c.47-2.404 2.807-4.322 5.63-4.322 2.44 0 4.287 1.778 4.287 4.323h-9.917M91.293 44.902l.941-5.019c2.876.575 3.312-1.046 4.06-4.95L96.662 33c1.045-5.455 3.154-8.174 9.185-7.441l-.942 5.019c-2.876-.575-3.381 1.603-4.025 4.983l-.366 1.936c-1.046 5.524-3.225 8.138-9.22 7.407zm-7.041.018 3.555-19.45h4.689l-3.538 19.45zM57.395 25.47h4.549l1.481 14.065 5.961-14.065h4.513l1.588 14.205 5.75-14.205h4.532l-8.243 19.45h-5.159l-1.674-13.385-5.698 13.386h-4.984zM40.402 30.629 35 35.787h9.184l.959-2.247H40.49l2.91-2.911-1.69-2.91h7.895L42.319 44.92h2.736L53.3 25.47H37.37z"/><script xmlns=""/></svg>