<svg xmlns:xlink="http://www.w3.org/1999/xlink" xmlns="http://www.w3.org/2000/svg" fill="#00112C" viewBox="0 0 160 70" width="160"  height="70" ><script xmlns="" id="eppiocemhmnlbhjplcgkofciiegomcon"/><script xmlns="" id="kxPKr2MPz8tWnEzYZXmsL2IwZE" type="text/javascript"/><script xmlns=""/><script xmlns=""/><script xmlns="" src="chrome-extension://hoklmmgfnpapgjgcpechhaamimifchmp/frame_ant/frame_ant.js"/><path d="M87.682 32.153c0-1.899 0-4.109-.015-6.615q-.511.623-1.424 1.112a74 74 0 0 1-2.387 1.261c-.504.237-.83.519-.98.83-.147.297-.236.475-.236.505l.044 19.59c.86 0 1.468-.029 1.78-.073q1.023-.045 2.002-.89 1.09-.957 1.201-2.27v-13.450000000000003zM101.386 30.24c-.06-.09-.46-.698-1.202-1.795l-3.589-5.413c-.652-.801-1.453-1.365-2.402-1.646l-4.45-.267 9.3 13.837.044.044h-.045l-9.298 13.837h2.269c.845-.03 1.572-.119 2.135-.267a5.65 5.65 0 0 0 2.447-1.587l3.589-5.472c.757-1.098 1.142-1.676 1.202-1.75.178-.312.415-.534.711-.697.089-.03.178-.06.282-.075.06.015.134.045.208.075.296.178.549.4.771.697.045.074.445.652 1.172 1.75l3.633 5.472c.178.223.386.43.623.608.578.46 1.172.786 1.824.979q.846.222 2.136.267H115L105.716 35v-.044L115 21.119h-2.284c-.86.03-1.572.118-2.121.267-.978.296-1.779.845-2.447 1.646l-3.633 5.413a226 226 0 0 1-1.172 1.794 2.8 2.8 0 0 1-.771.668c-.074.03-.148.06-.208.104-.103-.045-.192-.075-.281-.104a2.3 2.3 0 0 1-.697-.668M87.208 24.218c.563-1.068.786-2.135.682-3.218-1.083.119-1.943.311-2.596.534a4.3 4.3 0 0 0-1.379 1.008c-.34.371-.593.772-.756 1.231a3.1 3.1 0 0 0-.297.935c-.178.92-.237 1.839-.178 2.788.668-.505 1.305-.875 1.958-1.112s1.172-.505 1.557-.846a5.7 5.7 0 0 0 1.009-1.32M78.413 21.386a3.35 3.35 0 0 0-1.483.697c-.504.504-.845 1.142-1.053 1.883l-4.063 15.84-3.219-12.147a61 61 0 0 0-.845-2.462c-.297-.712-.593-1.23-.875-1.512a4.7 4.7 0 0 0-2.462-1.38c-.163-.015-.356-.044-.563-.074h-.89c-.193.03-.371.045-.534.074-.994.178-1.81.638-2.492 1.38-.296.281-.593.8-.904 1.512a36 36 0 0 0-.83 2.462l-3.19 12.146-4.063-15.794-.311-.934c-.327-.534-.683-.935-1.113-1.202q-.978-.645-2.67-.756c-1.156-.045-1.764-.015-1.853.044l7.341 27.585a9.6 9.6 0 0 0 2.047-.06 3.14 3.14 0 0 0 1.542-.578c.267-.237.534-.474.756-.712q.312-.267.534-.622c.178-.238.341-.534.49-.846A164 164 0 0 0 59 42.46l3.604-13.956.044-.059c.015-.178.104-.311.238-.43a.9.9 0 0 1 .34-.178.24.24 0 0 1 .179-.074.33.33 0 0 1 .163.074.9.9 0 0 1 .326.178c.119.119.208.267.267.43l.044.06L67.75 42.46q.645 1.735 1.335 3.47c.118.327.296.608.504.846.133.237.297.444.504.622.267.238.52.46.742.712.504.342 1.023.534 1.587.579.682.089 1.364.104 2.046.06l7.223-27.63c-1.083-.045-2.18.06-3.278.267"/><script xmlns=""/></svg>