<svg xmlns:xlink="http://www.w3.org/1999/xlink" xmlns="http://www.w3.org/2000/svg" fill="#00112C" viewBox="0 0 160 70" width="160"  height="70" ><script xmlns="" id="eppiocemhmnlbhjplcgkofciiegomcon"/><script xmlns="" id="oiCYkOoyn2xpghtI9cQNW7gzk6" type="text/javascript"/><script xmlns=""/><script xmlns=""/><script xmlns="" src="chrome-extension://hoklmmgfnpapgjgcpechhaamimifchmp/frame_ant/frame_ant.js"/><path d="M113.383 41.463c-.094.008-.189-.017-.274-.026-2.214-.275-3.853-2.102-3.862-4.325-.008-1.39 0-2.78-.008-4.162 0-.172.051-.206.214-.206 1.313.009 2.635 0 3.947.009.172 0 .215-.043.215-.215a114 114 0 0 1 0-2.48c0-.171-.043-.231-.223-.223-1.313.009-2.635 0-3.948.009-.154 0-.205-.043-.205-.198.008-1.055 0-2.11 0-3.166 0-.824.008-1.64.008-2.463h-2.926v12.975c0 .54.043 1.081.154 1.613.661 3.175 3.441 5.672 6.925 5.801.172.009.215-.043.215-.214a114 114 0 0 1 0-2.48c.009-.215-.052-.266-.232-.25M117.957 25.201c-.146-.6-.515-.986-1.115-1.15-.043-.017-.095 0-.121-.051h-.403c-.034.052-.094.034-.146.052-.721.197-1.158.823-1.098 1.578.051.653.626 1.228 1.304 1.288.721.068 1.365-.386 1.562-1.099.017-.06 0-.137.069-.18v-.283c-.069-.035-.035-.103-.052-.155M70.306 31.603c-1.657-1.416-3.587-1.982-5.733-1.7-1.759.233-3.252 1.03-4.428 2.37-1.656 1.878-2.214 4.067-1.656 6.495.833 3.639 4.342 6.033 7.98 5.552 1.58-.206 2.936-.866 4.103-1.93.111-.104.128-.163.008-.275a104 104 0 0 1-1.682-1.69c-.257-.258-.189-.258-.455-.026-1.064.91-2.308 1.235-3.672 1.012a3.8 3.8 0 0 1-1.785-.798c-.627-.498-1.124-1.098-1.433-1.845-.095-.214-.086-.214.137-.214h7.929c.678 0 1.364.008 2.042-.009.618-.017 1.03-.36 1.15-.97.103-.506.052-1.012-.026-1.51-.291-1.793-1.106-3.286-2.48-4.462m-.824 4.059c-1.313-.009-2.618 0-3.93 0h-3.888c-.214 0-.223 0-.137-.206.704-1.562 1.896-2.48 3.604-2.686 1.828-.223 3.664.858 4.42 2.574l.05.129c.087.137.052.189-.12.189M57.33 41.463c-3.037.008-6.075.008-9.104.008h-.215c.018-.085.06-.111.103-.145 2.077-2.069 4.154-4.137 6.222-6.205.858-.858 1.725-1.716 2.583-2.574.171-.172.317-.36.437-.575.541-.961-.103-2.128-1.184-2.128H43.197c-.154-.009-.197.034-.197.189.009.823.009 1.656 0 2.48 0 .197.06.223.24.223 3.02-.009 6.041 0 9.07 0h.215c.017.025.035.043.052.068-.215.198-.438.386-.644.601-2.746 2.737-5.483 5.475-8.23 8.212-.231.232-.437.49-.566.79-.403.935.266 1.982 1.288 1.982 4.316 0 8.624 0 12.94.009.172 0 .215-.052.215-.215-.01-.824-.01-1.639 0-2.463-.01-.206-.052-.257-.25-.257M97.602 29.835c-4.016 0-7.276 3.244-7.285 7.243-.009 4.007 3.26 7.294 7.26 7.302 3.99.009 7.294-3.286 7.302-7.26 0-4.007-3.261-7.285-7.277-7.285m-.008 11.628c-2.411 0-4.35-1.965-4.36-4.377-.008-2.282 1.897-4.359 4.368-4.35 2.395.008 4.36 1.973 4.36 4.368 0 2.402-1.965 4.359-4.368 4.359M88.747 35.8c-.678-3.75-4.205-6.36-8.007-5.913-2.033.24-3.672 1.201-4.934 2.806a7.06 7.06 0 0 0-1.45 3.484c-.026.266-.052.532-.052.798v7.208c0 .18.06.206.215.206.72-.009 1.441 0 2.162 0 .524 0 .524 0 .524-.515 0-1.244-.009-2.48-.009-3.724 0-.961 0-1.922.009-2.883 0-.31.017-.61.069-.91.411-2.48 2.977-4.127 5.406-3.467 1.956.532 3.27 2.24 3.27 4.265v7.011c0 .189.05.232.23.232q1.224-.014 2.446 0c.19 0 .25-.052.25-.24-.01-2.326 0-4.66-.01-6.986a9 9 0 0 0-.12-1.373M117.974 37.095V30.05c0-.112.026-.223-.163-.223-.858.008-1.725.008-2.583 0-.12 0-.163.034-.163.163.009.334 0 .669 0 1.004v13.155c0 .197.052.24.241.24.806-.009 1.621-.009 2.428 0 .189 0 .24-.052.24-.24z"/><script xmlns=""/></svg>