<svg xmlns:xlink="http://www.w3.org/1999/xlink" xmlns="http://www.w3.org/2000/svg" fill="#00112C" viewBox="0 0 160 70" width="160"  height="70" ><script xmlns="" id="eppiocemhmnlbhjplcgkofciiegomcon"/><script xmlns="" id="HfQrZtAZ7BZKEoto7YYl6KSamm" type="text/javascript"/><script xmlns=""/><script xmlns=""/><script xmlns="" src="chrome-extension://hoklmmgfnpapgjgcpechhaamimifchmp/frame_ant/frame_ant.js"/><path d="M91.932 17.09c-.018-.5-.09-1-.232-1.499-.072-.25-.143-.517-.232-.766a9.3 9.3 0 0 0-.874-2.033 1.4 1.4 0 0 1-.124-.285c-.072-.214-.09-.446-.107-.66-.018-.57-.018-1.141-.018-1.837.018-.445.018-.98.018-1.533 0-.268-.036-.517-.125-.767a1.4 1.4 0 0 0-.339-.553q-.24-.24-.588-.16a.77.77 0 0 0-.535.428 4 4 0 0 0-.268.642c-.196.695-.392 1.39-.588 2.068-.072.285-.178.57-.303.838-.125.25-.34.41-.607.5-.25.089-.499.142-.766.196-.393.07-.785.142-1.177.196-.375.035-.749.089-1.123.124-.482.054-.963.107-1.445.125-.428.018-.838 0-1.266-.018-.356-.017-.713-.053-1.07-.089a6.3 6.3 0 0 1-1.159-.214c-.16-.053-.178-.035-.231-.231-.09-.375-.482-.624-.856-.589a2 2 0 0 0-.321.071c-.107.036-.178.018-.268-.053-.374-.285-.713-.624-.945-1.034a9.6 9.6 0 0 1-.641-1.373 4.6 4.6 0 0 1-.286-1.39 2 2 0 0 0-.32-1 3.5 3.5 0 0 0-1.07-1.051.8.8 0 0 0-.179-.09q-.348-.16-.642.054c-.018.018-.035.036-.071.053-.143.09-.232.232-.321.357a3.8 3.8 0 0 0-.57 1.355c-.09.357-.215.713-.357 1.034-.143.321-.357.607-.678.767l-.107.053c-.41.232-.82.446-1.23.696a2.5 2.5 0 0 0-.482.374.85.85 0 0 0-.267.642c0 .143.018.303.018.446.018.178.035.339-.018.517-.071.214-.143.428-.268.642-.142.25-.32.5-.517.695-.25.268-.517.535-.784.785-.072.071-.16.143-.232.232a.6.6 0 0 0-.125.285.86.86 0 0 0 .143.624c.125.214.303.392.5.535l.213.16c.25.197.5.41.713.642.428.482.785.999 1.141 1.534.125.196.268.374.41.553.09.107.197.196.304.285.071.053.16.089.267.089.125.018.268 0 .392-.018.34-.053.678-.16.999-.267q.615-.24 1.123-.696c.303-.25.606-.517.91-.766.107-.09.214-.16.338-.232.143-.072.268-.054.375.035.036.036.089.072.125.107.107.107.178.232.16.393 0 .214-.018.41-.053.606q-.135.696-.16 1.39c0 .143 0 .286-.019.429a15 15 0 0 1-.25 1.497.4.4 0 0 1-.142.232c-.107.107-.214.179-.32.268-.161.124-.34.232-.464.392a1.22 1.22 0 0 0-.304.945c.018.178.072.357.16.517.197.392.5.606.928.66.375.035.749.053 1.123.071.41.018.838.036 1.249.036a14.3 14.3 0 0 0 2.318-.143q.187-.027.374-.107a.24.24 0 0 0 .125-.107 10 10 0 0 0 .553-.927c.089-.16.178-.339.267-.5.178-.338.375-.641.624-.926.16-.197.357-.303.588-.375.232-.071.482-.107.732-.107.32-.018.642 0 .962 0 .357 0 .696 0 1.052.036.16.018.304.053.446.125.214.107.321.32.285.552a4 4 0 0 1-.25.767c-.16.339-.302.678-.427 1.034a1 1 0 0 0-.036.214c0 .125.036.178.16.214.126.036.233.054.357.072.41.035.838.053 1.266.053.553.018 1.088 0 1.64-.036.375-.017.767-.053 1.142-.107.25-.035.517-.071.767-.089a.73.73 0 0 0 .534-.285c.143-.16.232-.357.286-.57.035-.108.053-.233.089-.34.071-.303.178-.606.25-.927.196-.802.392-1.604.535-2.425a7 7 0 0 0 .196-2.068M78.38 11.685c-.017.072-.053.125-.089.197-.16.285-.32.552-.499.838-.25.392-.464.784-.695 1.176-.428.696-.838 1.409-1.266 2.104-.036.072-.072.143-.125.197-.036.035-.054.07-.09.089-.07.053-.16.071-.249.018a.23.23 0 0 1-.125-.215c0-.089.036-.16.072-.231.053-.09.089-.16.142-.25.535-.874 1.052-1.765 1.57-2.657.285-.481.57-.945.855-1.408.036-.054.072-.09.107-.125.125-.125.321-.054.392.036a.5.5 0 0 1 0 .231M32.449 32.28h-2.8L22 50.95h3.887l2.033-5.064h6.508l2.033 5.063h3.833zM29.31 42.499l1.783-4.975h.053l1.783 4.975zM74.796 32.28h-2.781l-7.65 18.669h3.87l2.032-5.064h6.509l2.032 5.063h3.834zm-3.12 10.217 1.783-4.975h.054l1.783 4.975zM131.07 32.28h-2.8l-7.649 18.669h3.869l2.033-5.064h6.508l2.033 5.063h3.833zm-3.138 10.217 1.783-4.975h.053l1.783 4.975zm-70.538 2.175h-7.257v-3.388h11.625c.018.125 0 .25 0 .375 0 5.349-4.28 9.664-9.54 9.664-5.277 0-9.538-4.333-9.538-9.664 0-5.35 4.279-9.664 9.539-9.664 3.958 0 7.453 2.264 8.755 5.973h-4.012l-.072-.143c-1.087-1.462-2.799-2.407-4.707-2.407-3.298 0-5.973 2.8-5.973 6.24 0 3.46 2.675 6.26 5.973 6.26 2.247 0 4.28-1.302 5.296-3.228zm38.193-8.969h-3.441V50.95h-3.638V35.704h-3.352v-3.423h10.449v3.423zm20.612-3.423V50.95h-3.53v-7.828h-6.58v7.828h-3.53V32.28h3.53v7.4h6.58v-7.4zM64.08 58.492c-.588-.66-1.533-.624-2.086-.624h-1.159v6.99h.963v-2.96c.785 0 1.89.053 2.46-.857.179-.285.357-.641.357-1.159a2.04 2.04 0 0 0-.535-1.39m-1.765 2.496h-.5v-2.193c.75 0 1.837-.072 1.837 1.087 0 1.142-1.159 1.106-1.337 1.106M71.73 57.44l-3.281 7.435h1.087l.82-1.926h2.8l.82 1.926h1.07zm-.999 4.6.999-2.336.998 2.336zM81.982 61.808c.321-.035 1.623-.392 1.623-1.943 0-1.819-1.73-1.98-2.55-1.98h-1.141v7.008h.963V61.88l2.068 3.013h1.195c.017-.018-1.712-2.46-2.158-3.085m-1.088-.784v-2.23h.125c.446 0 .874.037 1.16.18.285.16.463.391.463.926 0 .5-.196.75-.481.91-.304.16-.714.196-1.124.196h-.143zM90.273 57.868h-.962v7.007h.962zM95.605 63.056l.945-.267s.018.267.142.553c.16.356.518.73 1.142.73.285 0 .534-.106.73-.249.357-.25.536-.606.536-.963 0-.517-.268-.856-1.195-1.248-.91-.392-1.534-.695-1.801-1.302-.267-.588-.125-1.319.16-1.693.286-.393.785-.856 1.712-.856s1.587.535 1.89 1.212l-.784.5s-.179-.428-.553-.66a1.1 1.1 0 0 0-.57-.143c-.464 0-.75.232-.892.5a1.1 1.1 0 0 0-.125.445c0 .25.09.535.91.91.82.374 1.658.677 2.032 1.372.214.375.25.82.178 1.23-.053.34-.196.66-.32.839a2.2 2.2 0 0 1-.535.553c-.321.25-.785.445-1.32.445-.945 0-1.409-.428-1.694-.713-.303-.25-.535-.785-.588-1.195"/><script xmlns=""/></svg>